<svg width="214" height="48" viewBox="0 0 214 48" fill="none" xmlns="http://www.w3.org/2000/svg">
<rect x="0.611328" y="0.341797" width="47.4603" height="47.4603" rx="9.35017" fill="#AB3ADD"/>
<rect x="0.611328" y="0.341797" width="47.4603" height="47.4603" rx="9.35017" fill="url(#paint0_linear_1178_11435)"/>
<path d="M22.7539 24.4456C22.7539 25.3325 22.0348 26.0515 21.1479 26.0515C20.2609 26.0515 19.5419 25.3325 19.5419 24.4456C19.5419 23.5586 20.2609 22.8396 21.1479 22.8396C22.0348 22.8396 22.7539 23.5586 22.7539 24.4456Z" fill="white"/>
<path d="M27.4824 26.0515C28.3693 26.0515 29.0883 25.3325 29.0883 24.4456C29.0883 23.5586 28.3693 22.8396 27.4824 22.8396C26.5954 22.8396 25.8764 23.5586 25.8764 24.4456C25.8764 25.3325 26.5954 26.0515 27.4824 26.0515Z" fill="white"/>
<path fill-rule="evenodd" clip-rule="evenodd" d="M18.4225 17.0421C19.3645 14.7025 21.6573 13.0505 24.3367 13.0491C24.3351 13.0491 24.3335 13.0491 24.3319 13.0491C24.3374 13.0491 24.3428 13.0491 24.3482 13.0491C24.3466 13.0491 24.345 13.0491 24.3434 13.0491C27.0228 13.0505 29.3156 14.7025 30.2577 17.0421C31.484 17.126 32.71 17.2358 33.9357 17.3718C35.4596 17.5408 36.5875 18.8463 36.5875 20.3795V31.856C36.5875 33.4067 35.4342 34.7206 33.8911 34.8734C27.5029 35.506 21.1772 35.506 14.7891 34.8734C13.2459 34.7206 12.0927 33.4067 12.0927 31.856V20.3795C12.0927 18.8463 13.2205 17.5408 14.7444 17.3718C15.9701 17.2358 17.1962 17.126 18.4225 17.0421ZM13.825 30.5952L24.1105 13.4467C24.2145 13.2734 24.4657 13.2734 24.5696 13.4467L34.8551 30.5952C27.7717 31.8479 20.9085 31.8479 13.825 30.5952Z" fill="white"/>
<path d="M37.2574 20.7787H37.6564C38.3955 20.7787 38.9947 21.3779 38.9947 22.117V26.7741C38.9947 27.5133 38.3955 28.1124 37.6564 28.1124H37.2574V20.7787Z" fill="white"/>
<path d="M18.3871 37.7144V38.453H30.2931V37.7144C30.2931 36.9753 29.6939 36.3761 28.9548 36.3761H19.7254C18.9862 36.3761 18.3871 36.9753 18.3871 37.7144Z" fill="white"/>
<path d="M11.4255 20.7787H11.0265C10.2874 20.7787 9.68823 21.3779 9.68823 22.117V26.7741C9.68823 27.5133 10.2874 28.1124 11.0265 28.1124H11.4255V20.7787Z" fill="white"/>
<path d="M24.3412 12.3605C25.0804 12.3605 25.6796 11.7613 25.6796 11.0221C25.6796 10.283 25.0804 9.68384 24.3412 9.68384C23.6021 9.68384 23.0029 10.283 23.0029 11.0221C23.0029 11.7613 23.6021 12.3605 24.3412 12.3605Z" fill="white"/>
<path d="M23.1255 10.4608C23.3209 10.2554 23.7122 10.1245 24.0783 10.1456C24.6707 10.1798 25.1949 10.6766 25.2356 11.2716C25.2495 11.4761 25.2392 11.914 25.1731 12.0712C25.5228 11.8317 25.6791 11.3707 25.6791 11.0221C25.6791 10.283 25.0799 9.68384 24.3407 9.68384C23.8021 9.68384 23.3377 10.0021 23.1255 10.4608Z" fill="white"/>
<path d="M61.3152 37.072H55.2622L64.4851 10.3555H71.7643L80.9742 37.072H74.9213L68.2291 16.4607H68.0204L61.3152 37.072ZM60.9369 26.5707H75.2344V30.9799H60.9369V26.5707ZM90.3433 45.0035C88.543 45.0035 86.9993 44.7556 85.7122 44.2599C84.4338 43.7729 83.4163 43.1076 82.6597 42.264C81.903 41.4204 81.4117 40.4725 81.1856 39.4202L86.3253 38.7288C86.4819 39.1288 86.7297 39.5028 87.0689 39.8506C87.4081 40.1985 87.856 40.4768 88.4126 40.6855C88.9779 40.903 89.6649 41.0117 90.4737 41.0117C91.6826 41.0117 92.6783 40.716 93.461 40.1246C94.2525 39.5419 94.6482 38.5635 94.6482 37.1894V33.5237H94.4133C94.1698 34.0803 93.8046 34.6065 93.3176 35.1022C92.8305 35.5979 92.2044 36.0023 91.439 36.3154C90.6737 36.6285 89.7606 36.785 88.6996 36.785C87.195 36.785 85.8253 36.4372 84.5903 35.7414C83.3641 35.037 82.3857 33.9629 81.6552 32.5193C80.9333 31.0669 80.5724 29.2319 80.5724 27.0142C80.5724 24.7443 80.942 22.8484 81.6813 21.3265C82.4205 19.8046 83.4032 18.6653 84.6295 17.9087C85.8644 17.1521 87.2168 16.7738 88.6865 16.7738C89.8084 16.7738 90.7477 16.9651 91.5043 17.3477C92.2609 17.7217 92.8697 18.1913 93.3306 18.7566C93.8002 19.3132 94.1611 19.8611 94.4133 20.4003H94.6221V17.0347H100.14V37.2677C100.14 38.9723 99.7227 40.3985 98.8878 41.5465C98.0529 42.6945 96.8963 43.5555 95.4178 44.1295C93.9481 44.7121 92.2565 45.0035 90.3433 45.0035ZM90.4607 32.6106C91.3564 32.6106 92.113 32.3888 92.7305 31.9453C93.3567 31.493 93.835 30.8495 94.1655 30.0146C94.5047 29.171 94.6742 28.1622 94.6742 26.9881C94.6742 25.814 94.509 24.7965 94.1785 23.9355C93.8481 23.0659 93.3697 22.3919 92.7436 21.9135C92.1174 21.4352 91.3564 21.1961 90.4607 21.1961C89.5475 21.1961 88.7778 21.4439 88.1517 21.9396C87.5255 22.4267 87.0515 23.105 86.7297 23.9747C86.408 24.8444 86.2471 25.8488 86.2471 26.9881C86.2471 28.1448 86.408 29.1449 86.7297 29.9885C87.0602 30.8234 87.5342 31.4713 88.1517 31.9322C88.7778 32.3845 89.5475 32.6106 90.4607 32.6106ZM111.857 37.4634C109.796 37.4634 108.022 37.0459 106.535 36.211C105.056 35.3675 103.917 34.176 103.117 32.6367C102.317 31.0886 101.917 29.258 101.917 27.1447C101.917 25.0835 102.317 23.2746 103.117 21.7179C103.917 20.1611 105.043 18.9479 106.496 18.0783C107.957 17.2086 109.67 16.7738 111.636 16.7738C112.957 16.7738 114.188 16.9868 115.327 17.413C116.475 17.8304 117.475 18.4609 118.328 19.3045C119.189 20.1481 119.858 21.2091 120.337 22.4875C120.815 23.7573 121.054 25.2444 121.054 26.949V28.4753H104.135V25.0313H115.823C115.823 24.2312 115.649 23.5224 115.301 22.905C114.953 22.2875 114.471 21.8048 113.853 21.457C113.244 21.1004 112.536 20.9221 111.727 20.9221C110.883 20.9221 110.135 21.1178 109.483 21.5091C108.84 21.8918 108.335 22.4093 107.97 23.0615C107.605 23.7051 107.418 24.4226 107.409 25.214V28.4883C107.409 29.4797 107.592 30.3364 107.957 31.0582C108.331 31.78 108.857 32.3366 109.535 32.728C110.214 33.1193 111.018 33.315 111.949 33.315C112.566 33.315 113.131 33.228 113.645 33.0541C114.158 32.8802 114.597 32.6193 114.962 32.2714C115.327 31.9235 115.606 31.4974 115.797 30.993L120.937 31.3322C120.676 32.5671 120.141 33.6455 119.332 34.5674C118.532 35.4805 117.497 36.1936 116.227 36.7068C114.966 37.2112 113.51 37.4634 111.857 37.4634ZM128.401 25.4879V37.072H122.844V17.0347H128.14V20.5699H128.375C128.819 19.4045 129.562 18.4827 130.606 17.8043C131.649 17.1173 132.915 16.7738 134.402 16.7738C135.793 16.7738 137.007 17.0781 138.042 17.6869C139.076 18.2957 139.881 19.1654 140.455 20.2959C141.029 21.4178 141.316 22.7571 141.316 24.3139V37.072H135.759V25.3053C135.767 24.079 135.454 23.1224 134.819 22.4354C134.185 21.7396 133.311 21.3917 132.197 21.3917C131.449 21.3917 130.788 21.5526 130.214 21.8744C129.649 22.1962 129.206 22.6658 128.884 23.2833C128.571 23.8921 128.41 24.6269 128.401 25.4879ZM152.912 37.4634C150.86 37.4634 149.095 37.0285 147.616 36.1589C146.146 35.2805 145.016 34.0629 144.224 32.5062C143.442 30.9495 143.05 29.158 143.05 27.1316C143.05 25.0792 143.446 23.2789 144.237 21.7309C145.037 20.1742 146.172 18.961 147.642 18.0913C149.112 17.2129 150.86 16.7738 152.886 16.7738C154.634 16.7738 156.165 17.0912 157.478 17.726C158.791 18.3609 159.831 19.2523 160.596 20.4003C161.361 21.5483 161.783 22.8963 161.861 24.4443H156.617C156.469 23.4442 156.078 22.6397 155.443 22.031C154.817 21.4135 153.995 21.1047 152.978 21.1047C152.117 21.1047 151.364 21.3396 150.721 21.8092C150.086 22.2701 149.59 22.9441 149.234 23.8312C148.877 24.7183 148.699 25.7923 148.699 27.0533C148.699 28.3318 148.873 29.4189 149.221 30.3146C149.577 31.2104 150.077 31.8931 150.721 32.3627C151.364 32.8323 152.117 33.0672 152.978 33.0672C153.613 33.0672 154.182 32.9367 154.687 32.6758C155.2 32.4149 155.621 32.0366 155.952 31.5409C156.291 31.0365 156.513 30.432 156.617 29.7276H161.861C161.774 31.2582 161.357 32.6062 160.609 33.7716C159.87 34.9283 158.848 35.8327 157.543 36.485C156.239 37.1372 154.695 37.4634 152.912 37.4634ZM167.014 44.586C166.309 44.586 165.648 44.5295 165.031 44.4164C164.422 44.3121 163.918 44.1773 163.517 44.012L164.77 39.8637C165.422 40.0637 166.009 40.1724 166.531 40.1898C167.061 40.2072 167.518 40.0855 167.901 39.8246C168.292 39.5636 168.609 39.1201 168.853 38.4939L169.179 37.646L161.991 17.0347H167.835L171.984 31.7496H172.193L176.38 17.0347H182.263L174.475 39.2375C174.101 40.3159 173.593 41.2552 172.949 42.0553C172.314 42.8641 171.51 43.4859 170.536 43.9207C169.562 44.3643 168.388 44.586 167.014 44.586ZM185.384 37.072H181.992L191.802 10.3555H195.142L204.952 37.072H201.56L193.576 14.5822H193.367L185.384 37.072ZM186.636 26.6359H200.307V29.5058H186.636V26.6359ZM207.074 37.072V17.0347H210.153V37.072H207.074ZM208.639 13.6951C208.039 13.6951 207.522 13.4907 207.087 13.082C206.661 12.6732 206.448 12.1819 206.448 11.6079C206.448 11.0339 206.661 10.5425 207.087 10.1338C207.522 9.72502 208.039 9.52064 208.639 9.52064C209.239 9.52064 209.753 9.72502 210.179 10.1338C210.614 10.5425 210.831 11.0339 210.831 11.6079C210.831 12.1819 210.614 12.6732 210.179 13.082C209.753 13.4907 209.239 13.6951 208.639 13.6951Z" fill="#333333"/>
<defs>
<linearGradient id="paint0_linear_1178_11435" x1="22.6939" y1="0.341797" x2="51.2648" y2="75.807" gradientUnits="userSpaceOnUse">
<stop offset="0.1875" stop-color="#AB3ADD"/>
<stop offset="1" stop-color="#3B57F4"/>
</linearGradient>
</defs>
</svg>
