<svg xmlns="http://www.w3.org/2000/svg" width="73" height="73" viewBox="0 0 73 73" fill="none">
  <path d="M25.4265 13.7756V18.2756H20.0265C17.6395 18.2756 15.3503 19.2238 13.6625 20.9116C11.9747 22.5995 11.0265 24.8886 11.0265 27.2756V29.9972C14.4221 28.7944 18.122 28.7588 21.5401 29.896C24.9583 31.0332 27.8994 33.2783 29.8977 36.2756H32.6265V34.4756C32.6265 33.9982 32.8161 33.5404 33.1537 33.2028C33.4912 32.8652 33.9491 32.6756 34.4265 32.6756H38.0265C38.5039 32.6756 38.9617 32.8652 39.2993 33.2028C39.6368 33.5404 39.8265 33.9982 39.8265 34.4756V36.2756H56.0265C57.4586 36.2756 58.8321 35.7067 59.8448 34.694C60.8575 33.6813 61.4265 32.3078 61.4265 30.8756V27.2756C61.4265 24.8886 60.4783 22.5995 58.7904 20.9116C57.1026 19.2238 54.8134 18.2756 52.4265 18.2756H47.0265V13.7756C47.0265 12.1047 46.3627 10.5023 45.1812 9.32081C43.9998 8.13933 42.3973 7.47559 40.7265 7.47559H31.7265C30.0556 7.47559 28.4532 8.13933 27.2717 9.32081C26.0902 10.5023 25.4265 12.1047 25.4265 13.7756ZM52.4265 57.8756H36.6621L31.0461 52.2596C32.355 49.5288 32.869 46.4848 32.5293 43.4756H38.0265C38.5039 43.4756 38.9617 43.2859 39.2993 42.9484C39.6368 42.6108 39.8265 42.153 39.8265 41.6756V39.8756H56.0265C57.9742 39.8782 59.8698 39.2463 61.4265 38.0756V48.8756C61.4265 51.2625 60.4783 53.5517 58.7904 55.2395C57.1026 56.9274 54.8134 57.8756 52.4265 57.8756ZM43.4265 18.2756H29.0265V13.7756C29.0265 13.0595 29.3109 12.3727 29.8173 11.8664C30.3236 11.36 31.0104 11.0756 31.7265 11.0756H40.7265C41.4426 11.0756 42.1293 11.36 42.6357 11.8664C43.142 12.3727 43.4265 13.0595 43.4265 13.7756V18.2756ZM16.4265 57.8756C19.2561 57.8756 21.8697 56.9396 23.9721 55.3664L33.1521 64.5464C33.3192 64.7137 33.5176 64.8465 33.7361 64.9372C33.9545 65.0279 34.1887 65.0746 34.4252 65.0748C34.6617 65.075 34.8959 65.0285 35.1145 64.9382C35.3331 64.8478 35.5317 64.7153 35.6991 64.5482C35.8664 64.3811 35.9992 64.1826 36.0899 63.9642C36.1806 63.7457 36.2273 63.5116 36.2275 63.2751C36.2276 63.0385 36.1812 62.8043 36.0909 62.5858C36.0005 62.3672 35.868 62.1685 35.7009 62.0012L26.5209 52.8212C28.2201 50.5488 29.1026 47.7693 29.0254 44.9329C28.9483 42.0965 27.916 39.3692 26.0957 37.1925C24.2754 35.0159 21.7737 33.5173 18.9957 32.9396C16.2177 32.3618 13.326 32.7386 10.7888 34.009C8.25158 35.2794 6.21747 37.369 5.0158 39.9395C3.81413 42.5099 3.51525 45.4107 4.16756 48.1722C4.81987 50.9337 6.38517 53.3941 8.61002 55.1552C10.8349 56.9162 13.589 57.8748 16.4265 57.8756ZM16.4265 54.2756C14.0395 54.2756 11.7503 53.3274 10.0625 51.6395C8.37468 49.9517 7.42647 47.6625 7.42647 45.2756C7.42647 42.8886 8.37468 40.5995 10.0625 38.9116C11.7503 37.2238 14.0395 36.2756 16.4265 36.2756C18.8134 36.2756 21.1026 37.2238 22.7904 38.9116C24.4783 40.5995 25.4265 42.8886 25.4265 45.2756C25.4265 47.6625 24.4783 49.9517 22.7904 51.6395C21.1026 53.3274 18.8134 54.2756 16.4265 54.2756Z" fill="#AB3ADD"/>
</svg>