<svg width="37" height="73" viewBox="0 0 37 73" fill="none" xmlns="http://www.w3.org/2000/svg">
<path d="M20.2239 70.6773C20.2953 71.5026 21.0222 72.1138 21.8476 72.0424L35.2974 70.8791C36.1227 70.8077 36.7339 70.0808 36.6625 69.2554C36.5911 68.4301 35.8642 67.8189 35.0389 67.8903L23.0835 68.9243L22.0494 56.969C21.978 56.1436 21.2511 55.5324 20.4257 55.6038C19.6004 55.6752 18.9892 56.4021 19.0606 57.2275L20.2239 70.6773ZM13.5491 3.53943C14.3 3.18966 14.6253 2.29734 14.2755 1.54637C13.9257 0.795405 13.0334 0.47017 12.2824 0.81994L13.5491 3.53943ZM3.52637 32.024C4.45001 33.506 5.85916 34.7325 7.43171 35.8026C9.01206 36.8781 10.8594 37.8623 12.7473 38.8169C16.5995 40.7647 20.6024 42.5932 23.6987 44.9851C26.7411 47.3352 28.6499 50.0368 28.6288 53.6546C28.6071 57.3922 26.5347 62.4887 20.5702 69.5827L22.8664 71.5133C28.9824 64.2392 31.6009 58.4652 31.6288 53.6721C31.6574 48.7592 28.9747 45.2698 25.5327 42.6109C22.1446 39.9937 17.7704 37.995 14.101 36.1397C12.2281 35.1926 10.5286 34.2813 9.11948 33.3224C7.70258 32.3582 6.67973 31.4117 6.07237 30.4372L3.52637 32.024ZM6.07237 30.4372C0.392343 21.3236 4.02419 7.97573 13.5491 3.53943L12.2824 0.81994C1.0162 6.06729 -3.04167 21.4855 3.52637 32.024L6.07237 30.4372Z" fill="#FFD164"/>
</svg>
