<svg width="100" height="146" viewBox="0 0 100 146" fill="none" xmlns="http://www.w3.org/2000/svg">
<g filter="url(#filter0_d_1178_12631)">
<rect x="17.3047" y="6.14062" width="66.126" height="111.092" rx="6.6126" fill="url(#paint0_linear_1178_12631)" shape-rendering="crispEdges"/>
<path d="M51.401 22.9511C51.2284 22.2414 50.5131 21.806 49.8034 21.9786C49.0937 22.1512 48.6582 22.8665 48.8308 23.5762L51.401 22.9511ZM50.1153 50.5296L49.9329 49.2197L50.1153 50.5296ZM45.3212 101.045C45.8376 101.561 46.675 101.561 47.1915 101.045L55.608 92.6283C56.1244 92.1118 56.1244 91.2745 55.608 90.758C55.0915 90.2415 54.2541 90.2415 53.7376 90.758L46.2563 98.2393L38.775 90.758C38.2586 90.2415 37.4212 90.2415 36.9047 90.758C36.3882 91.2745 36.3882 92.1118 36.9047 92.6283L45.3212 101.045ZM41.0436 82.7338L42.226 82.1412L41.0436 82.7338ZM48.8308 23.5762C49.971 28.2642 49.5459 32.9546 48.4658 37.5386C47.3775 42.1576 45.6691 46.5153 44.273 50.6843C42.9124 54.7474 41.8157 58.7171 42.2849 62.1896C42.5255 63.9703 43.1767 65.6317 44.3961 67.1031C45.6067 68.5641 47.3224 69.772 49.5959 70.7442L50.6359 68.3122C48.6431 67.46 47.31 66.4742 46.4327 65.4155C45.5641 64.3673 45.0882 63.183 44.9061 61.8354C44.5299 59.0512 45.4051 55.6334 46.7812 51.5242C48.1218 47.521 49.9149 42.9217 51.0403 38.1452C52.174 33.3336 52.675 28.1898 51.401 22.9511L48.8308 23.5762ZM49.5959 70.7442C54.1869 72.7075 58.0682 72.3045 60.8786 70.3302C63.6332 68.395 65.1126 65.1194 65.3104 61.8031C65.5088 58.4774 64.4323 54.9372 61.8502 52.4082C59.2371 49.8487 55.2432 48.48 49.9329 49.2197L50.2978 51.8394C54.9543 51.1908 58.0771 52.415 59.9994 54.2978C61.9526 56.2109 62.8301 58.9623 62.67 61.6456C62.5094 64.3382 61.3179 66.7891 59.3581 68.1658C57.4542 69.5034 54.5775 69.9978 50.6359 68.3122L49.5959 70.7442ZM49.9329 49.2197C45.4119 49.8494 42.0389 51.5288 39.6786 53.9881C37.3245 56.4408 36.0792 59.5633 35.617 62.9064C34.6997 69.5416 36.8281 77.2746 39.8613 83.3264L42.226 82.1412C39.3256 76.3545 37.42 69.179 38.2371 63.2686C38.6421 60.3389 39.7061 57.7792 41.5869 55.8196C43.4614 53.8666 46.249 52.4034 50.2978 51.8394L49.9329 49.2197ZM39.8613 83.3264C42.4499 88.491 44.9338 94.5124 44.9338 100.11H47.5789C47.5789 93.8428 44.8307 87.3381 42.226 82.1412L39.8613 83.3264Z" fill="white"/>
</g>
<defs>
<filter id="filter0_d_1178_12631" x="0.773195" y="0.850548" width="99.189" height="144.155" filterUnits="userSpaceOnUse" color-interpolation-filters="sRGB">
<feFlood flood-opacity="0" result="BackgroundImageFix"/>
<feColorMatrix in="SourceAlpha" type="matrix" values="0 0 0 0 0 0 0 0 0 0 0 0 0 0 0 0 0 0 127 0" result="hardAlpha"/>
<feOffset dy="11.2414"/>
<feGaussianBlur stdDeviation="8.26575"/>
<feComposite in2="hardAlpha" operator="out"/>
<feColorMatrix type="matrix" values="0 0 0 0 0.670588 0 0 0 0 0.227451 0 0 0 0 0.866667 0 0 0 0.3 0"/>
<feBlend mode="normal" in2="BackgroundImageFix" result="effect1_dropShadow_1178_12631"/>
<feBlend mode="normal" in="SourceGraphic" in2="effect1_dropShadow_1178_12631" result="shape"/>
</filter>
<linearGradient id="paint0_linear_1178_12631" x1="17.3047" y1="-1.36331" x2="97.729" y2="190.051" gradientUnits="userSpaceOnUse">
<stop stop-color="#AB3ADD"/>
<stop offset="1" stop-color="#3B57F4"/>
</linearGradient>
</defs>
</svg>
