<svg width="165" height="211" viewBox="0 0 165 211" fill="none" xmlns="http://www.w3.org/2000/svg">
<rect x="27.7336" y="165.047" width="109.611" height="39.5631" fill="#7B7B7B"/>
<rect x="27.7336" y="165.047" width="109.611" height="39.5631" fill="url(#paint0_linear_1178_11590)"/>
<rect x="20.0449" y="204.609" width="124.99" height="6.31748" fill="#AE7018"/>
<rect x="55.9756" y="110.342" width="53.1303" height="54.7051" fill="#D9D9D9"/>
<rect x="55.9756" y="110.342" width="53.1303" height="54.7051" fill="url(#paint1_radial_1178_11590)"/>
<path d="M88.2871 23.2059L82.5409 13.6577L76.7947 23.2059L58.4141 53.7482L23.6867 61.7911L12.8301 64.3056L20.1354 72.7211L43.5029 99.6402L40.4208 135.153L39.4573 146.255L49.7184 141.908L82.5409 128.003L115.363 141.908L125.625 146.255L124.661 135.153L121.579 99.6402L144.946 72.7211L152.252 64.3056L141.395 61.7911L106.668 53.7482L88.2871 23.2059Z" fill="url(#paint2_linear_1178_11590)"/>
<path d="M88.2871 23.2059L82.5409 13.6577L76.7947 23.2059L58.4141 53.7482L23.6867 61.7911L12.8301 64.3056L20.1354 72.7211L43.5029 99.6402L40.4208 135.153L39.4573 146.255L49.7184 141.908L82.5409 128.003L115.363 141.908L125.625 146.255L124.661 135.153L121.579 99.6402L144.946 72.7211L152.252 64.3056L141.395 61.7911L106.668 53.7482L88.2871 23.2059Z" stroke="black" stroke-width="13.4131"/>
<path d="M88.2871 23.2059L82.5409 13.6577L76.7947 23.2059L58.4141 53.7482L23.6867 61.7911L12.8301 64.3056L20.1354 72.7211L43.5029 99.6402L40.4208 135.153L39.4573 146.255L49.7184 141.908L82.5409 128.003L115.363 141.908L125.625 146.255L124.661 135.153L121.579 99.6402L144.946 72.7211L152.252 64.3056L141.395 61.7911L106.668 53.7482L88.2871 23.2059Z" stroke="url(#paint3_linear_1178_11590)" stroke-width="13.4131"/>
<path d="M88.2871 23.2059L82.5409 13.6577L76.7947 23.2059L58.4141 53.7482L23.6867 61.7911L12.8301 64.3056L20.1354 72.7211L43.5029 99.6402L40.4208 135.153L39.4573 146.255L49.7184 141.908L82.5409 128.003L115.363 141.908L125.625 146.255L124.661 135.153L121.579 99.6402L144.946 72.7211L152.252 64.3056L141.395 61.7911L106.668 53.7482L88.2871 23.2059Z" stroke="url(#paint4_linear_1178_11590)" stroke-width="13.4131"/>
<path d="M63.5888 98.8468C61.9164 98.8468 60.4307 98.5444 59.1316 97.9397C57.8325 97.3349 56.8059 96.5024 56.0518 95.4423C55.3052 94.3821 54.917 93.1651 54.8871 91.7914H60.2627C60.3075 92.635 60.6509 93.3144 61.293 93.8296C61.9351 94.3373 62.7003 94.5911 63.5888 94.5911C64.2831 94.5911 64.8991 94.4381 65.4366 94.132C65.9742 93.8259 66.396 93.3966 66.7021 92.8441C67.0082 92.2841 67.1576 91.6421 67.1501 90.9178C67.1576 90.1787 67.0045 89.5329 66.6909 88.9804C66.3848 88.4279 65.9593 87.9986 65.4142 87.6925C64.8767 87.3789 64.257 87.2222 63.5552 87.2222C62.8907 87.2147 62.2598 87.3603 61.6626 87.6589C61.0727 87.9576 60.6248 88.3645 60.3187 88.8796L55.4247 87.9613L56.4214 75.5975H71.137V80.066H60.9794L60.4531 85.4751H60.5874C60.9682 84.8405 61.5804 84.3179 62.4241 83.9072C63.2752 83.4891 64.2421 83.2801 65.3246 83.2801C66.6984 83.2801 67.9228 83.6011 68.9979 84.2432C70.0805 84.8778 70.9316 85.7588 71.5513 86.8862C72.1785 88.0136 72.492 89.3052 72.492 90.7611C72.492 92.3364 72.1187 93.7325 71.3721 94.9495C70.633 96.1665 69.5952 97.1221 68.2588 97.8165C66.9298 98.5033 65.3732 98.8468 63.5888 98.8468ZM85.2898 81.3315V85.3631H74.4379V81.3315H85.2898ZM76.7113 77.2102H82.1876V93.1241C82.1876 93.46 82.2399 93.7325 82.3444 93.9416C82.4564 94.1432 82.6169 94.2888 82.826 94.3784C83.035 94.4605 83.2851 94.5015 83.5763 94.5015C83.7854 94.5015 84.0056 94.4829 84.237 94.4455C84.476 94.4008 84.6551 94.3634 84.7746 94.3336L85.6033 98.2868C85.342 98.3615 84.9725 98.4548 84.4946 98.5668C84.0243 98.6788 83.4606 98.7497 82.8036 98.7796C81.5194 98.8393 80.4182 98.69 79.4998 98.3316C78.589 97.9658 77.8909 97.3984 77.4056 96.6294C76.9278 95.8604 76.6964 94.8935 76.7113 93.7288V77.2102ZM93.9298 88.7228V98.5332H88.4535V75.5975H93.7506V84.4896H93.941C94.3293 83.4294 94.9639 82.6007 95.8449 82.0034C96.7333 81.4061 97.8196 81.1075 99.1038 81.1075C100.313 81.1075 101.366 81.3763 102.262 81.9138C103.158 82.4439 103.852 83.1942 104.345 84.1648C104.845 85.1354 105.092 86.2702 105.084 87.5693V98.5332H99.6078V88.6444C99.6152 87.6888 99.3763 86.9422 98.891 86.4046C98.4057 85.8671 97.7226 85.5983 96.8416 85.5983C96.2667 85.5983 95.759 85.7252 95.3185 85.9791C94.8855 86.2254 94.5458 86.5801 94.2994 87.043C94.0605 87.5059 93.9373 88.0658 93.9298 88.7228Z" fill="#B06F12"/>
<defs>
<linearGradient id="paint0_linear_1178_11590" x1="168.332" y1="223.342" x2="27.7336" y2="153.14" gradientUnits="userSpaceOnUse">
<stop offset="0.225797" stop-color="#BF8411"/>
<stop offset="0.550686" stop-color="#EABD57"/>
<stop offset="0.736895" stop-color="#D6B24D"/>
<stop offset="1" stop-color="#FFFCC2"/>
</linearGradient>
<radialGradient id="paint1_radial_1178_11590" cx="0" cy="0" r="1" gradientUnits="userSpaceOnUse" gradientTransform="translate(82.5407 116.351) rotate(122.551) scale(68.8157 72.9486)">
<stop stop-color="#BF8411"/>
<stop offset="0.460001" stop-color="#EABD57"/>
<stop offset="0.788195" stop-color="#D6B24D"/>
<stop offset="1" stop-color="#FFFCC2"/>
</radialGradient>
<linearGradient id="paint2_linear_1178_11590" x1="14.9076" y1="47.459" x2="142.833" y2="153.225" gradientUnits="userSpaceOnUse">
<stop offset="0.0729167" stop-color="#E47800"/>
<stop offset="0.532439" stop-color="#F2F5AC"/>
<stop offset="0.813994" stop-color="#F4EEC6"/>
<stop offset="1" stop-color="#FDD180"/>
</linearGradient>
<linearGradient id="paint3_linear_1178_11590" x1="153.927" y1="164.134" x2="48.0268" y2="44.2374" gradientUnits="userSpaceOnUse">
<stop stop-color="#A76611"/>
<stop offset="0.307292" stop-color="#EABD57"/>
<stop offset="0.630208" stop-color="#D6B24D"/>
<stop offset="0.713542" stop-color="#FFEBB0"/>
<stop offset="1" stop-color="#FFFCC2"/>
</linearGradient>
<linearGradient id="paint4_linear_1178_11590" x1="142.833" y1="151.227" x2="47.9712" y2="11.5363" gradientUnits="userSpaceOnUse">
<stop offset="0.0762685" stop-color="#E47800"/>
<stop offset="0.670212" stop-color="#F2F5AC"/>
<stop offset="0.813994" stop-color="#F4EEC6"/>
<stop offset="1" stop-color="#FDD180"/>
</linearGradient>
</defs>
</svg>
