<svg width="185" height="318" viewBox="0 0 185 318" fill="none" xmlns="http://www.w3.org/2000/svg">
<rect x="28.2454" y="264.163" width="131.464" height="47.4508" fill="#7B7B7B"/>
<rect x="28.2454" y="264.163" width="131.464" height="47.4508" fill="url(#paint0_linear_1178_11622)"/>
<rect width="147.858" height="5.79086" transform="matrix(1 0 0 -1 20.0488 317.404)" fill="#7B7B7B"/>
<rect width="147.858" height="5.79086" transform="matrix(1 0 0 -1 20.0488 317.404)" fill="url(#paint1_linear_1178_11622)"/>
<path d="M88.2749 185.007C85.1256 186.057 78.0104 193.989 78.0104 199.471C78.0104 201.795 78.4256 204.518 78.904 207.655C79.5541 211.918 80.321 216.947 80.321 222.78C80.321 226.562 75.9012 236.515 71.7392 245.888C68.0361 254.227 64.5371 262.107 64.5371 264.771C66.6587 266.719 75.3451 270.615 93.1176 270.615V185.007H88.2749Z" fill="#D9D9D9"/>
<path d="M88.2749 185.007C85.1256 186.057 78.0104 193.989 78.0104 199.471C78.0104 201.795 78.4256 204.518 78.904 207.655C79.5541 211.918 80.321 216.947 80.321 222.78C80.321 226.562 75.9012 236.515 71.7392 245.888C68.0361 254.227 64.5371 262.107 64.5371 264.771C66.6587 266.719 75.3451 270.615 93.1176 270.615V185.007H88.2749Z" fill="url(#paint2_linear_1178_11622)"/>
<path d="M97.9605 185.007C101.11 186.057 108.225 193.989 108.225 199.472C108.225 201.795 107.81 204.518 107.331 207.655C106.681 211.918 105.914 216.947 105.914 222.78C105.914 226.562 110.334 236.515 114.496 245.888C118.199 254.227 121.698 262.107 121.698 264.771C119.577 266.719 110.89 270.615 93.1176 270.615V185.007L97.9605 185.007Z" fill="#D9D9D9"/>
<path d="M97.9605 185.007C101.11 186.057 108.225 193.989 108.225 199.472C108.225 201.795 107.81 204.518 107.331 207.655C106.681 211.918 105.914 216.947 105.914 222.78C105.914 226.562 110.334 236.515 114.496 245.888C118.199 254.227 121.698 262.107 121.698 264.771C119.577 266.719 110.89 270.615 93.1176 270.615V185.007L97.9605 185.007Z" fill="url(#paint3_linear_1178_11622)"/>
<circle cx="92.2115" cy="166.189" r="24.254" fill="#D9D9D9"/>
<circle cx="92.2115" cy="166.189" r="24.254" fill="url(#paint4_radial_1178_11622)"/>
<path d="M99.8889 30.3674L92.2107 17.6088L84.5324 30.3674L66.034 61.1054L31.0841 69.1999L16.5772 72.5597L26.3387 83.8048L49.856 110.896L46.7541 146.637L45.4667 161.472L59.1778 155.663L92.2107 141.669L125.244 155.663L138.955 161.472L137.667 146.637L134.565 110.896L158.083 83.8048L167.844 72.5597L153.337 69.1999L118.387 61.1054L99.8889 30.3674Z" fill="url(#paint5_linear_1178_11622)"/>
<path d="M99.8889 30.3674L92.2107 17.6088L84.5324 30.3674L66.034 61.1054L31.0841 69.1999L16.5772 72.5597L26.3387 83.8048L49.856 110.896L46.7541 146.637L45.4667 161.472L59.1778 155.663L92.2107 141.669L125.244 155.663L138.955 161.472L137.667 146.637L134.565 110.896L158.083 83.8048L167.844 72.5597L153.337 69.1999L118.387 61.1054L99.8889 30.3674Z" stroke="black" stroke-width="17.9229"/>
<path d="M99.8889 30.3674L92.2107 17.6088L84.5324 30.3674L66.034 61.1054L31.0841 69.1999L16.5772 72.5597L26.3387 83.8048L49.856 110.896L46.7541 146.637L45.4667 161.472L59.1778 155.663L92.2107 141.669L125.244 155.663L138.955 161.472L137.667 146.637L134.565 110.896L158.083 83.8048L167.844 72.5597L153.337 69.1999L118.387 61.1054L99.8889 30.3674Z" stroke="url(#paint6_linear_1178_11622)" stroke-width="17.9229"/>
<path d="M99.8889 30.3674L92.2107 17.6088L84.5324 30.3674L66.034 61.1054L31.0841 69.1999L16.5772 72.5597L26.3387 83.8048L49.856 110.896L46.7541 146.637L45.4667 161.472L59.1778 155.663L92.2107 141.669L125.244 155.663L138.955 161.472L137.667 146.637L134.565 110.896L158.083 83.8048L167.844 72.5597L153.337 69.1999L118.387 61.1054L99.8889 30.3674Z" stroke="url(#paint7_linear_1178_11622)" stroke-width="17.9229"/>
<path d="M82.0605 86.6273V107.407H77.0481V91.315H76.9264L72.2793 94.156V89.8133L77.4032 86.6273H82.0605ZM100.301 96.581L95.7455 96.7027C95.6981 96.3781 95.5696 96.0906 95.3599 95.8403C95.1502 95.5833 94.8762 95.3837 94.538 95.2417C94.2066 95.0928 93.821 95.0184 93.3813 95.0184C92.8064 95.0184 92.316 95.1334 91.9101 95.3634C91.511 95.5934 91.3148 95.9046 91.3216 96.2969C91.3148 96.6013 91.4366 96.8651 91.6869 97.0883C91.9439 97.3115 92.4005 97.4908 93.0566 97.6261L96.06 98.1943C97.6158 98.4919 98.7725 98.9857 99.5301 99.6756C100.294 100.366 100.68 101.279 100.687 102.415C100.68 103.484 100.362 104.414 99.733 105.205C99.1107 105.997 98.2584 106.612 97.1761 107.052C96.0938 107.485 94.8559 107.701 93.4625 107.701C91.2371 107.701 89.4817 107.245 88.1965 106.332C86.9181 105.412 86.1875 104.181 86.0049 102.638L90.9056 102.517C91.0138 103.085 91.2946 103.518 91.7478 103.815C92.201 104.113 92.7793 104.262 93.4828 104.262C94.1186 104.262 94.6361 104.143 95.0352 103.907C95.4343 103.67 95.6372 103.355 95.644 102.963C95.6372 102.611 95.4816 102.331 95.1773 102.121C94.8729 101.904 94.396 101.735 93.7466 101.614L91.0274 101.096C89.4648 100.812 88.3014 100.288 87.537 99.5235C86.7726 98.7523 86.3938 97.7715 86.4006 96.581C86.3938 95.5393 86.6712 94.6498 87.2326 93.9125C87.794 93.1684 88.5922 92.6002 89.6272 92.2079C90.6621 91.8155 91.883 91.6194 93.29 91.6194C95.4005 91.6194 97.0645 92.0624 98.2821 92.9486C99.4996 93.8279 100.173 95.0387 100.301 96.581ZM111.926 91.8223V95.475H102.095V91.8223H111.926ZM104.154 88.0884H109.116V102.507C109.116 102.811 109.163 103.058 109.258 103.247C109.359 103.43 109.505 103.562 109.694 103.643C109.884 103.717 110.11 103.755 110.374 103.755C110.563 103.755 110.763 103.738 110.973 103.704C111.189 103.663 111.352 103.629 111.46 103.602L112.211 107.184C111.974 107.252 111.639 107.336 111.206 107.438C110.78 107.539 110.269 107.603 109.674 107.63C108.511 107.685 107.513 107.549 106.681 107.225C105.856 106.893 105.223 106.379 104.783 105.682C104.35 104.986 104.141 104.11 104.154 103.054V88.0884Z" fill="#B06F12"/>
<defs>
<linearGradient id="paint0_linear_1178_11622" x1="196.874" y1="334.081" x2="28.2454" y2="249.882" gradientUnits="userSpaceOnUse">
<stop offset="0.225797" stop-color="#BF8411"/>
<stop offset="0.550686" stop-color="#EABD57"/>
<stop offset="0.736895" stop-color="#D6B24D"/>
<stop offset="1" stop-color="#FFFCC2"/>
</linearGradient>
<linearGradient id="paint1_linear_1178_11622" x1="189.658" y1="8.53273" x2="178.973" y2="-40.6361" gradientUnits="userSpaceOnUse">
<stop offset="0.225797" stop-color="#BF8411"/>
<stop offset="0.550686" stop-color="#EABD57"/>
<stop offset="0.736895" stop-color="#D6B24D"/>
<stop offset="1" stop-color="#FFFCC2"/>
</linearGradient>
<linearGradient id="paint2_linear_1178_11622" x1="137.775" y1="206.362" x2="53.8323" y2="206.362" gradientUnits="userSpaceOnUse">
<stop offset="0.0727785" stop-color="#A76611"/>
<stop offset="0.194322" stop-color="#D6B24D"/>
<stop offset="0.307292" stop-color="#EABD57"/>
<stop offset="0.46892" stop-color="#FFEBB0"/>
<stop offset="0.558953" stop-color="#FFFCC2"/>
<stop offset="0.77503" stop-color="#D8B652"/>
<stop offset="1" stop-color="#A76611"/>
</linearGradient>
<linearGradient id="paint3_linear_1178_11622" x1="137.775" y1="206.362" x2="53.8323" y2="206.362" gradientUnits="userSpaceOnUse">
<stop offset="0.0727785" stop-color="#A76611"/>
<stop offset="0.194322" stop-color="#D6B24D"/>
<stop offset="0.307292" stop-color="#EABD57"/>
<stop offset="0.46892" stop-color="#FFEBB0"/>
<stop offset="0.558953" stop-color="#FFFCC2"/>
<stop offset="0.77503" stop-color="#D8B652"/>
<stop offset="1" stop-color="#A76611"/>
</linearGradient>
<radialGradient id="paint4_radial_1178_11622" cx="0" cy="0" r="1" gradientUnits="userSpaceOnUse" gradientTransform="translate(92.2115 147.263) rotate(123.315) scale(61.5491 66.0295)">
<stop stop-color="#BF8411"/>
<stop offset="0.460001" stop-color="#EABD57"/>
<stop offset="0.788195" stop-color="#D6B24D"/>
<stop offset="1" stop-color="#FFFCC2"/>
</radialGradient>
<linearGradient id="paint5_linear_1178_11622" x1="22.4972" y1="56.4228" x2="154.357" y2="165.441" gradientUnits="userSpaceOnUse">
<stop offset="0.0729167" stop-color="#E47800"/>
<stop offset="0.532439" stop-color="#F2F5AC"/>
<stop offset="0.813994" stop-color="#F4EEC6"/>
<stop offset="1" stop-color="#FDD180"/>
</linearGradient>
<linearGradient id="paint6_linear_1178_11622" x1="165.792" y1="176.686" x2="56.6351" y2="53.1021" gradientUnits="userSpaceOnUse">
<stop stop-color="#A76611"/>
<stop offset="0.307292" stop-color="#EABD57"/>
<stop offset="0.630208" stop-color="#D6B24D"/>
<stop offset="0.713542" stop-color="#FFEBB0"/>
<stop offset="1" stop-color="#FFFCC2"/>
</linearGradient>
<linearGradient id="paint7_linear_1178_11622" x1="154.357" y1="163.382" x2="56.5778" y2="19.3953" gradientUnits="userSpaceOnUse">
<stop offset="0.0762685" stop-color="#E47800"/>
<stop offset="0.670212" stop-color="#F2F5AC"/>
<stop offset="0.813994" stop-color="#F4EEC6"/>
<stop offset="1" stop-color="#FDD180"/>
</linearGradient>
</defs>
</svg>
