<svg width="165" height="212" viewBox="0 0 165 212" fill="none" xmlns="http://www.w3.org/2000/svg">
<rect x="27.7041" y="165.205" width="109.611" height="39.5631" fill="#7B7B7B"/>
<rect x="27.7041" y="165.205" width="109.611" height="39.5631" fill="url(#paint0_linear_1178_11650)"/>
<rect x="20.0146" y="204.768" width="124.99" height="6.31748" fill="#AE7018"/>
<rect x="55.9453" y="110.5" width="53.1303" height="54.7051" fill="#D9D9D9"/>
<rect x="55.9453" y="110.5" width="53.1303" height="54.7051" fill="url(#paint1_radial_1178_11650)"/>
<path d="M88.2568 23.3641L82.5106 13.8159L76.7644 23.3641L58.3838 53.9064L23.6565 61.9494L12.7999 64.4638L20.1051 72.8793L43.4726 99.7984L40.3905 135.311L39.427 146.414L49.6881 142.067L82.5106 128.161L115.333 142.067L125.594 146.414L124.631 135.311L121.549 99.7984L144.916 72.8793L152.221 64.4638L141.365 61.9494L106.637 53.9064L88.2568 23.3641Z" fill="url(#paint2_linear_1178_11650)"/>
<path d="M88.2568 23.3641L82.5106 13.8159L76.7644 23.3641L58.3838 53.9064L23.6565 61.9494L12.7999 64.4638L20.1051 72.8793L43.4726 99.7984L40.3905 135.311L39.427 146.414L49.6881 142.067L82.5106 128.161L115.333 142.067L125.594 146.414L124.631 135.311L121.549 99.7984L144.916 72.8793L152.221 64.4638L141.365 61.9494L106.637 53.9064L88.2568 23.3641Z" stroke="black" stroke-width="13.4131"/>
<path d="M88.2568 23.3641L82.5106 13.8159L76.7644 23.3641L58.3838 53.9064L23.6565 61.9494L12.7999 64.4638L20.1051 72.8793L43.4726 99.7984L40.3905 135.311L39.427 146.414L49.6881 142.067L82.5106 128.161L115.333 142.067L125.594 146.414L124.631 135.311L121.549 99.7984L144.916 72.8793L152.221 64.4638L141.365 61.9494L106.637 53.9064L88.2568 23.3641Z" stroke="url(#paint3_linear_1178_11650)" stroke-width="13.4131"/>
<path d="M88.2568 23.3641L82.5106 13.8159L76.7644 23.3641L58.3838 53.9064L23.6565 61.9494L12.7999 64.4638L20.1051 72.8793L43.4726 99.7984L40.3905 135.311L39.427 146.414L49.6881 142.067L82.5106 128.161L115.333 142.067L125.594 146.414L124.631 135.311L121.549 99.7984L144.916 72.8793L152.221 64.4638L141.365 61.9494L106.637 53.9064L88.2568 23.3641Z" stroke="url(#paint4_linear_1178_11650)" stroke-width="13.4131"/>
<path d="M71.3068 75.7557V98.6914H65.7745V80.9297H65.6401L60.5109 84.0654V79.2722L66.1665 75.7557H71.3068ZM91.4399 86.742L86.4115 86.8764C86.3593 86.518 86.2174 86.2007 85.986 85.9245C85.7545 85.6408 85.4522 85.4205 85.0789 85.2637C84.713 85.0995 84.2875 85.0174 83.8022 85.0174C83.1675 85.0174 82.6263 85.1443 82.1783 85.3981C81.7378 85.652 81.5213 85.9954 81.5288 86.4284C81.5213 86.7644 81.6557 87.0556 81.9319 87.302C82.2156 87.5483 82.7196 87.7462 83.4438 87.8955L86.7587 88.5227C88.4759 88.8512 89.7526 89.3962 90.5888 90.1577C91.4325 90.9193 91.858 91.9272 91.8655 93.1815C91.858 94.3611 91.5071 95.3877 90.8128 96.2612C90.1259 97.1347 89.1852 97.8141 87.9906 98.2994C86.796 98.7773 85.4298 99.0162 83.8918 99.0162C81.4354 99.0162 79.498 98.5122 78.0794 97.5043C76.6684 96.4889 75.862 95.1301 75.6604 93.4278L81.0696 93.2935C81.189 93.9206 81.4989 94.3984 81.9991 94.7269C82.4993 95.0554 83.1377 95.2197 83.9142 95.2197C84.616 95.2197 85.1871 95.089 85.6276 94.8277C86.0681 94.5664 86.2921 94.2193 86.2996 93.7862C86.2921 93.398 86.1204 93.0881 85.7844 92.8567C85.4484 92.6178 84.9221 92.4311 84.2053 92.2967L81.204 91.7256C79.4793 91.412 78.1952 90.8334 77.3515 89.9897C76.5078 89.1386 76.0897 88.056 76.0972 86.742C76.0897 85.5922 76.3959 84.6105 77.0155 83.7967C77.6352 82.9754 78.5162 82.3483 79.6585 81.9152C80.8008 81.4822 82.1484 81.2657 83.7014 81.2657C86.0308 81.2657 87.8674 81.7547 89.2113 82.7328C90.5552 83.7033 91.2981 85.0398 91.4399 86.742ZM104.271 81.4897V85.5213H93.4194V81.4897H104.271ZM95.6928 77.3684H101.169V93.2823C101.169 93.6182 101.221 93.8907 101.326 94.0998C101.438 94.3014 101.598 94.447 101.807 94.5366C102.016 94.6187 102.267 94.6597 102.558 94.6597C102.767 94.6597 102.987 94.6411 103.219 94.6038C103.457 94.559 103.637 94.5216 103.756 94.4918L104.585 98.445C104.323 98.5197 103.954 98.613 103.476 98.725C103.006 98.837 102.442 98.9079 101.785 98.9378C100.501 98.9975 99.3996 98.8482 98.4813 98.4898C97.5705 98.124 96.8724 97.5566 96.3871 96.7876C95.9093 96.0186 95.6778 95.0517 95.6928 93.887V77.3684Z" fill="#B06F12"/>
<defs>
<linearGradient id="paint0_linear_1178_11650" x1="168.302" y1="223.501" x2="27.7041" y2="153.298" gradientUnits="userSpaceOnUse">
<stop offset="0.225797" stop-color="#BF8411"/>
<stop offset="0.550686" stop-color="#EABD57"/>
<stop offset="0.736895" stop-color="#D6B24D"/>
<stop offset="1" stop-color="#FFFCC2"/>
</linearGradient>
<radialGradient id="paint1_radial_1178_11650" cx="0" cy="0" r="1" gradientUnits="userSpaceOnUse" gradientTransform="translate(82.5105 116.509) rotate(122.551) scale(68.8157 72.9486)">
<stop stop-color="#BF8411"/>
<stop offset="0.460001" stop-color="#EABD57"/>
<stop offset="0.788195" stop-color="#D6B24D"/>
<stop offset="1" stop-color="#FFFCC2"/>
</radialGradient>
<linearGradient id="paint2_linear_1178_11650" x1="14.8773" y1="47.6172" x2="142.803" y2="153.383" gradientUnits="userSpaceOnUse">
<stop offset="0.0729167" stop-color="#E47800"/>
<stop offset="0.532439" stop-color="#F2F5AC"/>
<stop offset="0.813994" stop-color="#F4EEC6"/>
<stop offset="1" stop-color="#FDD180"/>
</linearGradient>
<linearGradient id="paint3_linear_1178_11650" x1="153.897" y1="164.292" x2="47.9966" y2="44.3956" gradientUnits="userSpaceOnUse">
<stop stop-color="#A76611"/>
<stop offset="0.307292" stop-color="#EABD57"/>
<stop offset="0.630208" stop-color="#D6B24D"/>
<stop offset="0.713542" stop-color="#FFEBB0"/>
<stop offset="1" stop-color="#FFFCC2"/>
</linearGradient>
<linearGradient id="paint4_linear_1178_11650" x1="142.803" y1="151.385" x2="47.941" y2="11.6945" gradientUnits="userSpaceOnUse">
<stop offset="0.0762685" stop-color="#E47800"/>
<stop offset="0.670212" stop-color="#F2F5AC"/>
<stop offset="0.813994" stop-color="#F4EEC6"/>
<stop offset="1" stop-color="#FDD180"/>
</linearGradient>
</defs>
</svg>
