<svg width="165" height="211" viewBox="0 0 165 211" fill="none" xmlns="http://www.w3.org/2000/svg">
<rect x="27.7434" y="165.047" width="109.611" height="39.5631" fill="#7B7B7B"/>
<rect x="27.7434" y="165.047" width="109.611" height="39.5631" fill="url(#paint0_linear_1178_11580)"/>
<rect x="20.0547" y="204.609" width="124.99" height="6.31748" fill="#AE7018"/>
<rect x="55.9854" y="110.342" width="53.1303" height="54.7051" fill="#D9D9D9"/>
<rect x="55.9854" y="110.342" width="53.1303" height="54.7051" fill="url(#paint1_radial_1178_11580)"/>
<path d="M88.2969 23.2059L82.5507 13.6577L76.8045 23.2059L58.4239 53.7482L23.6965 61.7911L12.8399 64.3056L20.1451 72.7211L43.5126 99.6402L40.4306 135.153L39.4671 146.255L49.7281 141.908L82.5507 128.003L115.373 141.908L125.634 146.255L124.671 135.153L121.589 99.6402L144.956 72.7211L152.261 64.3056L141.405 61.7911L106.678 53.7482L88.2969 23.2059Z" fill="url(#paint2_linear_1178_11580)"/>
<path d="M88.2969 23.2059L82.5507 13.6577L76.8045 23.2059L58.4239 53.7482L23.6965 61.7911L12.8399 64.3056L20.1451 72.7211L43.5126 99.6402L40.4306 135.153L39.4671 146.255L49.7281 141.908L82.5507 128.003L115.373 141.908L125.634 146.255L124.671 135.153L121.589 99.6402L144.956 72.7211L152.261 64.3056L141.405 61.7911L106.678 53.7482L88.2969 23.2059Z" stroke="black" stroke-width="13.4131"/>
<path d="M88.2969 23.2059L82.5507 13.6577L76.8045 23.2059L58.4239 53.7482L23.6965 61.7911L12.8399 64.3056L20.1451 72.7211L43.5126 99.6402L40.4306 135.153L39.4671 146.255L49.7281 141.908L82.5507 128.003L115.373 141.908L125.634 146.255L124.671 135.153L121.589 99.6402L144.956 72.7211L152.261 64.3056L141.405 61.7911L106.678 53.7482L88.2969 23.2059Z" stroke="url(#paint3_linear_1178_11580)" stroke-width="13.4131"/>
<path d="M88.2969 23.2059L82.5507 13.6577L76.8045 23.2059L58.4239 53.7482L23.6965 61.7911L12.8399 64.3056L20.1451 72.7211L43.5126 99.6402L40.4306 135.153L39.4671 146.255L49.7281 141.908L82.5507 128.003L115.373 141.908L125.634 146.255L124.671 135.153L121.589 99.6402L144.956 72.7211L152.261 64.3056L141.405 61.7911L106.678 53.7482L88.2969 23.2059Z" stroke="url(#paint4_linear_1178_11580)" stroke-width="13.4131"/>
<path d="M54.5385 94.7255V90.4027L63.9345 75.5975H67.7758V81.4658H65.5472L60.0485 90.1787V90.3579H73.6553V94.7255H54.5385ZM65.6144 98.5332V93.404L65.7264 91.5114V75.5975H70.9115V98.5332H65.6144ZM86.3158 81.3315V85.3631H75.464V81.3315H86.3158ZM77.7374 77.2102H83.2137V93.1241C83.2137 93.46 83.266 93.7325 83.3705 93.9416C83.4825 94.1432 83.643 94.2888 83.852 94.3784C84.0611 94.4605 84.3112 94.5015 84.6024 94.5015C84.8114 94.5015 85.0317 94.4829 85.2631 94.4455C85.502 94.4008 85.6812 94.3634 85.8007 94.3336L86.6294 98.2868C86.3681 98.3615 85.9985 98.4548 85.5207 98.5668C85.0503 98.6788 84.4867 98.7497 83.8297 98.7796C82.5455 98.8393 81.4443 98.69 80.5259 98.3316C79.6151 97.9658 78.917 97.3984 78.4317 96.6294C77.9539 95.8604 77.7224 94.8935 77.7374 93.7288V77.2102ZM94.9559 88.7228V98.5332H89.4796V75.5975H94.7767V84.4896H94.9671C95.3553 83.4294 95.99 82.6007 96.871 82.0034C97.7594 81.4061 98.8457 81.1075 100.13 81.1075C101.339 81.1075 102.392 81.3763 103.288 81.9138C104.184 82.4439 104.878 83.1942 105.371 84.1648C105.871 85.1354 106.118 86.2702 106.11 87.5693V98.5332H100.634V88.6444C100.641 87.6888 100.402 86.9422 99.9171 86.4046C99.4318 85.8671 98.7487 85.5983 97.8677 85.5983C97.2928 85.5983 96.7851 85.7252 96.3446 85.9791C95.9116 86.2254 95.5719 86.5801 95.3255 87.043C95.0866 87.5059 94.9634 88.0658 94.9559 88.7228Z" fill="#B06F12"/>
<defs>
<linearGradient id="paint0_linear_1178_11580" x1="168.342" y1="223.342" x2="27.7434" y2="153.14" gradientUnits="userSpaceOnUse">
<stop offset="0.225797" stop-color="#BF8411"/>
<stop offset="0.550686" stop-color="#EABD57"/>
<stop offset="0.736895" stop-color="#D6B24D"/>
<stop offset="1" stop-color="#FFFCC2"/>
</linearGradient>
<radialGradient id="paint1_radial_1178_11580" cx="0" cy="0" r="1" gradientUnits="userSpaceOnUse" gradientTransform="translate(82.5505 116.351) rotate(122.551) scale(68.8157 72.9486)">
<stop stop-color="#BF8411"/>
<stop offset="0.460001" stop-color="#EABD57"/>
<stop offset="0.788195" stop-color="#D6B24D"/>
<stop offset="1" stop-color="#FFFCC2"/>
</radialGradient>
<linearGradient id="paint2_linear_1178_11580" x1="14.9174" y1="47.459" x2="142.843" y2="153.225" gradientUnits="userSpaceOnUse">
<stop offset="0.0729167" stop-color="#E47800"/>
<stop offset="0.532439" stop-color="#F2F5AC"/>
<stop offset="0.813994" stop-color="#F4EEC6"/>
<stop offset="1" stop-color="#FDD180"/>
</linearGradient>
<linearGradient id="paint3_linear_1178_11580" x1="153.937" y1="164.134" x2="48.0366" y2="44.2374" gradientUnits="userSpaceOnUse">
<stop stop-color="#A76611"/>
<stop offset="0.307292" stop-color="#EABD57"/>
<stop offset="0.630208" stop-color="#D6B24D"/>
<stop offset="0.713542" stop-color="#FFEBB0"/>
<stop offset="1" stop-color="#FFFCC2"/>
</linearGradient>
<linearGradient id="paint4_linear_1178_11580" x1="142.843" y1="151.227" x2="47.981" y2="11.5363" gradientUnits="userSpaceOnUse">
<stop offset="0.0762685" stop-color="#E47800"/>
<stop offset="0.670212" stop-color="#F2F5AC"/>
<stop offset="0.813994" stop-color="#F4EEC6"/>
<stop offset="1" stop-color="#FDD180"/>
</linearGradient>
</defs>
</svg>
