<svg width="108" height="108" viewBox="0 0 108 108" fill="none" xmlns="http://www.w3.org/2000/svg">
<circle cx="53.7224" cy="53.9055" r="53.7023" fill="#3B57F4" fill-opacity="0.12"/>
<path d="M75.3975 57.4735L73.2325 55.3555L54.9941 73.5703L57.1827 75.7589C59.0183 77.5945 60.9245 78.5123 62.8072 78.5123C64.6899 78.5123 66.5961 77.5945 68.4317 75.7589L75.3975 68.793C79.1393 65.0277 79.1393 61.2388 75.3975 57.4735Z" fill="#3B57F4"/>
<path d="M51.0402 33.1187C47.3454 29.424 43.4624 29.424 39.7677 33.1187L32.7783 40.0846C29.1071 43.7793 29.1071 47.6623 32.7783 51.357L34.9434 53.5221L53.1817 35.2838L51.0402 33.1187Z" fill="#3B57F4"/>
<path opacity="0.4" d="M77.2099 35.4947C74.127 43.1901 67.0905 53.2388 60.3835 59.8046C59.4187 53.733 54.5708 48.9793 48.4521 48.1321C55.0415 41.4015 65.1608 34.2709 72.8797 31.1645C74.2447 30.6468 75.6096 31.0469 76.4568 31.8941C77.3511 32.7883 77.7747 34.1297 77.2099 35.4947Z" fill="#3B57F4"/>
<path d="M60.3831 59.8014C59.2065 60.9546 58.0298 62.0136 56.9002 62.9078L52.2641 66.6261C51.6758 67.0497 51.0875 67.4027 50.4285 67.6851C50.4285 67.238 50.3815 66.7908 50.3344 66.3202C50.0755 64.3669 49.1813 62.5078 47.6045 60.931C45.9807 59.3308 44.051 58.413 42.0507 58.1541C41.58 58.107 41.0858 58.0835 40.6387 58.107C40.8975 57.3775 41.2976 56.695 41.7918 56.1302L45.463 51.4942C46.3337 50.3881 47.3457 49.2585 48.4517 48.1289C54.5704 48.9761 59.4183 53.7298 60.3831 59.8014Z" fill="#3B57F4"/>
<path opacity="0.4" d="M50.4284 67.6889C50.4284 70.2775 49.44 72.7485 47.5573 74.6077C46.1218 76.0667 44.192 77.0551 41.8387 77.3375L36.073 77.9729C32.9196 78.3259 30.2132 75.6196 30.5662 72.4426L31.2016 66.6534C31.7664 61.4996 36.073 58.2049 40.6385 58.1108C41.0856 58.0873 41.5798 58.1108 42.0505 58.1579C44.0508 58.4167 45.9806 59.3345 47.6044 60.9348C49.1811 62.5115 50.0754 64.3707 50.3342 66.3239C50.3813 66.7946 50.4284 67.2417 50.4284 67.6889Z" fill="#3B57F4"/>
</svg>
