<svg width="80" height="80" viewBox="0 0 80 80" fill="none" xmlns="http://www.w3.org/2000/svg">
<rect x="2.02255" y="1.764" width="75.93" height="75.93" rx="37.965" fill="#F3E2FB"/>
<path d="M12.253 44.229V35.5017H13.5698V43.0955H17.5243V44.229H12.253ZM21.6813 44.3611C21.0676 44.3611 20.5321 44.2205 20.0747 43.9392C19.6173 43.658 19.2622 43.2645 19.0094 42.7588C18.7565 42.2532 18.6301 41.6622 18.6301 40.9861C18.6301 40.3071 18.7565 39.7134 19.0094 39.2049C19.2622 38.6963 19.6173 38.3014 20.0747 38.0202C20.5321 37.7389 21.0676 37.5983 21.6813 37.5983C22.2949 37.5983 22.8304 37.7389 23.2878 38.0202C23.7452 38.3014 24.1003 38.6963 24.3531 39.2049C24.606 39.7134 24.7324 40.3071 24.7324 40.9861C24.7324 41.6622 24.606 42.2532 24.3531 42.7588C24.1003 43.2645 23.7452 43.658 23.2878 43.9392C22.8304 44.2205 22.2949 44.3611 21.6813 44.3611ZM21.6855 43.2915C22.0833 43.2915 22.4128 43.1864 22.6742 42.9762C22.9355 42.7659 23.1287 42.4861 23.2537 42.1367C23.3815 41.7872 23.4455 41.4023 23.4455 40.9818C23.4455 40.5642 23.3815 40.1807 23.2537 39.8313C23.1287 39.479 22.9355 39.1963 22.6742 38.9833C22.4128 38.7702 22.0833 38.6637 21.6855 38.6637C21.285 38.6637 20.9526 38.7702 20.6884 38.9833C20.427 39.1963 20.2324 39.479 20.1046 39.8313C19.9796 40.1807 19.9171 40.5642 19.9171 40.9818C19.9171 41.4023 19.9796 41.7872 20.1046 42.1367C20.2324 42.4861 20.427 42.7659 20.6884 42.9762C20.9526 43.1864 21.285 43.2915 21.6855 43.2915ZM29.21 37.6835V38.7063H25.6347V37.6835H29.21ZM26.5936 36.1154H27.8677V42.3071C27.8677 42.5543 27.9046 42.7404 27.9785 42.8654C28.0524 42.9875 28.1475 43.0713 28.264 43.1168C28.3833 43.1594 28.5126 43.1807 28.6518 43.1807C28.7541 43.1807 28.8436 43.1736 28.9203 43.1594C28.997 43.1452 29.0566 43.1338 29.0992 43.1253L29.3293 44.1779C29.2555 44.2063 29.1504 44.2347 29.014 44.2631C28.8776 44.2943 28.7072 44.3114 28.5026 44.3142C28.1674 44.3199 27.8549 44.2603 27.5651 44.1353C27.2754 44.0103 27.041 43.8171 26.862 43.5557C26.683 43.2943 26.5936 42.9662 26.5936 42.5713V36.1154ZM35.4188 39.2816L34.264 39.4861C34.2157 39.3384 34.139 39.1978 34.0339 39.0642C33.9316 38.9307 33.7924 38.8213 33.6163 38.7361C33.4401 38.6509 33.22 38.6083 32.9558 38.6083C32.595 38.6083 32.2938 38.6892 32.0524 38.8512C31.8109 39.0103 31.6901 39.2162 31.6901 39.4691C31.6901 39.6878 31.7711 39.8639 31.933 39.9975C32.095 40.131 32.3563 40.2404 32.7171 40.3256L33.7569 40.5642C34.3592 40.7034 34.808 40.9179 35.1035 41.2077C35.3989 41.4975 35.5467 41.8739 35.5467 42.337C35.5467 42.729 35.433 43.0784 35.2058 43.3853C34.9813 43.6892 34.6674 43.9279 34.264 44.1012C33.8634 44.2745 33.3989 44.3611 32.8705 44.3611C32.1376 44.3611 31.5396 44.2049 31.0765 43.8924C30.6134 43.577 30.3293 43.1296 30.2242 42.55L31.4558 42.3625C31.5325 42.6835 31.6901 42.9264 31.9288 43.0912C32.1674 43.2532 32.4785 43.3341 32.862 43.3341C33.2796 43.3341 33.6134 43.2475 33.8634 43.0742C34.1134 42.898 34.2384 42.6835 34.2384 42.4307C34.2384 42.2262 34.1617 42.0543 34.0083 41.9151C33.8578 41.7759 33.6262 41.6708 33.3137 41.5997L32.2058 41.3568C31.595 41.2176 31.1433 40.996 30.8507 40.6921C30.5609 40.3881 30.416 40.0032 30.416 39.5372C30.416 39.1509 30.5239 38.8128 30.7399 38.523C30.9558 38.2333 31.2541 38.0074 31.6347 37.8455C32.0154 37.6807 32.4515 37.5983 32.943 37.5983C33.6504 37.5983 34.2072 37.7517 34.6134 38.0585C35.0197 38.3625 35.2882 38.7702 35.4188 39.2816ZM40.2257 35.5017H41.8237L44.6021 42.2858H44.7043L47.4828 35.5017H49.0808V44.229H47.8279V37.9137H47.747L45.1731 44.2162H44.1333L41.5595 37.9094H41.4785V44.229H40.2257V35.5017ZM53.65 44.3611C53.0364 44.3611 52.5009 44.2205 52.0435 43.9392C51.5861 43.658 51.231 43.2645 50.9781 42.7588C50.7253 42.2532 50.5989 41.6622 50.5989 40.9861C50.5989 40.3071 50.7253 39.7134 50.9781 39.2049C51.231 38.6963 51.5861 38.3014 52.0435 38.0202C52.5009 37.7389 53.0364 37.5983 53.65 37.5983C54.2636 37.5983 54.7992 37.7389 55.2565 38.0202C55.7139 38.3014 56.069 38.6963 56.3219 39.2049C56.5747 39.7134 56.7011 40.3071 56.7011 40.9861C56.7011 41.6622 56.5747 42.2532 56.3219 42.7588C56.069 43.2645 55.7139 43.658 55.2565 43.9392C54.7992 44.2205 54.2636 44.3611 53.65 44.3611ZM53.6543 43.2915C54.052 43.2915 54.3815 43.1864 54.6429 42.9762C54.9043 42.7659 55.0975 42.4861 55.2225 42.1367C55.3503 41.7872 55.4142 41.4023 55.4142 40.9818C55.4142 40.5642 55.3503 40.1807 55.2225 39.8313C55.0975 39.479 54.9043 39.1963 54.6429 38.9833C54.3815 38.7702 54.052 38.6637 53.6543 38.6637C53.2537 38.6637 52.9213 38.7702 52.6571 38.9833C52.3958 39.1963 52.2011 39.479 52.0733 39.8313C51.9483 40.1807 51.8858 40.5642 51.8858 40.9818C51.8858 41.4023 51.9483 41.7872 52.0733 42.1367C52.2011 42.4861 52.3958 42.7659 52.6571 42.9762C52.9213 43.1864 53.2537 43.2915 53.6543 43.2915ZM58.1234 44.229V37.6835H59.3549V38.7233H59.4231C59.5424 38.371 59.7526 38.0941 60.0538 37.8924C60.3578 37.6878 60.7015 37.5855 61.085 37.5855C61.1646 37.5855 61.2583 37.5884 61.3663 37.5941C61.4771 37.5997 61.5637 37.6068 61.6262 37.6154V38.8341C61.5751 38.8199 61.4842 38.8043 61.3535 38.7872C61.2228 38.7674 61.0921 38.7574 60.9614 38.7574C60.6603 38.7574 60.3918 38.8213 60.1561 38.9492C59.9231 39.0742 59.7384 39.2489 59.6021 39.4733C59.4657 39.6949 59.3975 39.9478 59.3975 40.2318V44.229H58.1234ZM65.3155 44.3611C64.6706 44.3611 64.1152 44.2233 63.6493 43.9478C63.1862 43.6693 62.8283 43.2787 62.5754 42.7759C62.3254 42.2702 62.2004 41.6779 62.2004 40.9989C62.2004 40.3284 62.3254 39.7375 62.5754 39.2262C62.8283 38.7148 63.1806 38.3157 63.6323 38.0287C64.0868 37.7418 64.6181 37.5983 65.226 37.5983C65.5953 37.5983 65.9533 37.6594 66.2999 37.7816C66.6465 37.9037 66.9575 38.0955 67.2331 38.3568C67.5087 38.6182 67.726 38.9577 67.8851 39.3753C68.0442 39.7901 68.1237 40.2943 68.1237 40.8881V41.3398H62.9206V40.3853H66.8752C66.8752 40.05 66.807 39.7532 66.6706 39.4946C66.5342 39.2333 66.3425 39.0273 66.0953 38.8767C65.851 38.7262 65.5641 38.6509 65.2345 38.6509C64.8766 38.6509 64.5641 38.7389 64.297 38.9151C64.0328 39.0884 63.8283 39.3157 63.6834 39.5969C63.5413 39.8753 63.4703 40.1779 63.4703 40.5046V41.2503C63.4703 41.6878 63.547 42.06 63.7004 42.3668C63.8567 42.6736 64.074 42.908 64.3524 43.0699C64.6308 43.229 64.9561 43.3085 65.3283 43.3085C65.5698 43.3085 65.7899 43.2745 65.9888 43.2063C66.1877 43.1353 66.3595 43.0301 66.5044 42.8909C66.6493 42.7517 66.7601 42.5799 66.8368 42.3753L68.0428 42.5926C67.9462 42.9478 67.7729 43.2588 67.5229 43.5259C67.2757 43.7901 66.9646 43.996 66.5896 44.1438C66.2175 44.2887 65.7928 44.3611 65.3155 44.3611Z" fill="black"/>
<rect x="2.02255" y="1.764" width="75.93" height="75.93" rx="37.965" stroke="white" stroke-width="2.74446"/>
</svg>
