<svg width="143" height="40" viewBox="0 0 143 40" fill="none" xmlns="http://www.w3.org/2000/svg">
<rect width="116.448" height="38.7241" transform="translate(0.424316 0.685547)" fill="#8A43E4"/>
<rect width="116.448" height="38.7241" transform="translate(0.424316 0.685547)" fill="url(#paint0_linear_1178_12792)"/>
<rect width="116.448" height="38.7241" transform="translate(0.424316 0.685547)" fill="url(#paint1_linear_1178_12792)"/>
<path d="M17.6561 26.5476V12.8247H26.1659V14.6071H19.7266V18.7883H25.5561V20.564H19.7266V26.5476H17.6561ZM32.2316 26.7553C31.2176 26.7553 30.3443 26.5387 29.6117 26.1054C28.8835 25.6676 28.3207 25.0534 27.9231 24.2627C27.53 23.4676 27.3335 22.5362 27.3335 21.4685C27.3335 20.4143 27.53 19.4852 27.9231 18.6811C28.3207 17.877 28.8746 17.2494 29.5849 16.7982C30.2996 16.347 31.1349 16.1214 32.0909 16.1214C32.6716 16.1214 33.2345 16.2175 33.7795 16.4096C34.3244 16.6017 34.8136 16.9032 35.2469 17.3142C35.6802 17.7251 36.0219 18.2589 36.2721 18.9156C36.5223 19.5678 36.6473 20.3607 36.6473 21.2943V22.0046H28.4659V20.5036H34.684C34.684 19.9765 34.5768 19.5097 34.3624 19.1032C34.148 18.6922 33.8465 18.3684 33.4578 18.1316C33.0737 17.8949 32.6225 17.7765 32.1043 17.7765C31.5415 17.7765 31.0501 17.915 30.6302 18.1919C30.2147 18.4644 29.8931 18.8218 29.6653 19.264C29.4419 19.7018 29.3302 20.1776 29.3302 20.6913V21.8639C29.3302 22.5518 29.4509 23.137 29.6921 23.6194C29.9378 24.1019 30.2795 24.4704 30.7173 24.725C31.1551 24.9752 31.6665 25.1003 32.2517 25.1003C32.6314 25.1003 32.9776 25.0467 33.2903 24.9395C33.603 24.8278 33.8733 24.6625 34.1011 24.4436C34.3289 24.2247 34.5031 23.9545 34.6237 23.6328L36.52 23.9746C36.3681 24.533 36.0956 25.0221 35.7025 25.442C35.3139 25.8575 34.8248 26.1813 34.2351 26.4136C33.6499 26.6414 32.9821 26.7553 32.2316 26.7553ZM41.8654 26.7754C41.2132 26.7754 40.6236 26.6548 40.0965 26.4136C39.5694 26.1679 39.1517 25.8128 38.8435 25.3482C38.5397 24.8836 38.3878 24.3141 38.3878 23.6395C38.3878 23.0588 38.4995 22.5808 38.7228 22.2056C38.9462 21.8304 39.2477 21.5333 39.6274 21.3144C40.0071 21.0955 40.4315 20.9303 40.9006 20.8186C41.3696 20.7069 41.8476 20.622 42.3345 20.564C42.9509 20.4925 43.4513 20.4344 43.8354 20.3897C44.2196 20.3406 44.4988 20.2624 44.673 20.1552C44.8472 20.048 44.9343 19.8738 44.9343 19.6326V19.5857C44.9343 19.0005 44.769 18.5471 44.4385 18.2254C44.1124 17.9038 43.6255 17.743 42.9777 17.743C42.3032 17.743 41.7716 17.8926 41.383 18.1919C40.9988 18.4868 40.733 18.8151 40.5856 19.1769L38.7027 18.7481C38.9261 18.1227 39.2522 17.6179 39.681 17.2337C40.1143 16.8451 40.6124 16.5637 41.1753 16.3895C41.7381 16.2108 42.33 16.1214 42.9509 16.1214C43.3619 16.1214 43.7975 16.1706 44.2576 16.2689C44.7221 16.3627 45.1555 16.5369 45.5575 16.7915C45.964 17.0461 46.2968 17.4102 46.5559 17.8837C46.815 18.3527 46.9445 18.9625 46.9445 19.713V26.5476H44.9879V25.1405H44.9075C44.778 25.3996 44.5837 25.6542 44.3246 25.9044C44.0655 26.1545 43.7327 26.3622 43.3262 26.5275C42.9197 26.6928 42.4328 26.7754 41.8654 26.7754ZM42.301 25.1673C42.8549 25.1673 43.3284 25.0578 43.7215 24.839C44.1191 24.6201 44.4206 24.3342 44.6261 23.9813C44.8361 23.6239 44.941 23.242 44.941 22.8355V21.5087C44.8696 21.5802 44.7311 21.6472 44.5256 21.7098C44.3246 21.7678 44.0945 21.8192 43.8354 21.8639C43.5763 21.9041 43.3239 21.9421 43.0783 21.9778C42.8326 22.0091 42.6271 22.0359 42.4618 22.0582C42.0732 22.1073 41.718 22.19 41.3964 22.3061C41.0792 22.4223 40.8246 22.5898 40.6325 22.8087C40.4449 23.0231 40.3511 23.309 40.3511 23.6663C40.3511 24.1622 40.5343 24.5374 40.9006 24.7921C41.2669 25.0422 41.7337 25.1673 42.301 25.1673ZM54.4174 16.2555V17.8636H48.7956V16.2555H54.4174ZM50.3032 13.7896H52.3067V23.5256C52.3067 23.9143 52.3648 24.2069 52.4809 24.4034C52.5971 24.5955 52.7467 24.7273 52.9299 24.7988C53.1175 24.8658 53.3207 24.8993 53.5396 24.8993C53.7004 24.8993 53.8411 24.8881 53.9617 24.8658C54.0824 24.8434 54.1762 24.8256 54.2432 24.8122L54.605 26.4672C54.4889 26.5119 54.3236 26.5565 54.1092 26.6012C53.8947 26.6504 53.6267 26.6772 53.3051 26.6816C52.778 26.6906 52.2866 26.5968 51.8309 26.4002C51.3753 26.2036 51.0068 25.8999 50.7253 25.4889C50.4439 25.0779 50.3032 24.562 50.3032 23.9411V13.7896ZM63.1533 22.2793V16.2555H65.1635V26.5476H63.1935V24.7652H63.0863C62.8496 25.3147 62.4699 25.7726 61.9472 26.1389C61.429 26.5007 60.7835 26.6816 60.0107 26.6816C59.3496 26.6816 58.7644 26.5364 58.2552 26.2461C57.7504 25.9513 57.3528 25.5157 57.0625 24.9395C56.7766 24.3632 56.6336 23.6507 56.6336 22.802V16.2555H58.6371V22.5607C58.6371 23.2621 58.8314 23.8205 59.2201 24.2359C59.6087 24.6513 60.1135 24.8591 60.7344 24.8591C61.1096 24.8591 61.4826 24.7652 61.8534 24.5776C62.2286 24.39 62.5391 24.1064 62.7848 23.7267C63.035 23.3469 63.1578 22.8645 63.1533 22.2793ZM67.8555 26.5476V16.2555H69.792V17.8904H69.8992C70.0868 17.3365 70.4174 16.9009 70.8909 16.5838C71.3689 16.2622 71.9094 16.1013 72.5124 16.1013C72.6375 16.1013 72.7849 16.1058 72.9547 16.1147C73.1289 16.1237 73.2651 16.1348 73.3634 16.1482V18.0646C73.283 18.0423 73.1401 18.0177 72.9346 17.9909C72.7291 17.9596 72.5236 17.944 72.3181 17.944C71.8446 17.944 71.4225 18.0445 71.0517 18.2455C70.6854 18.4421 70.395 18.7168 70.1806 19.0697C69.9662 19.4181 69.859 19.8157 69.859 20.2624V26.5476H67.8555ZM79.1645 26.7553C78.1505 26.7553 77.2771 26.5387 76.5445 26.1054C75.8164 25.6676 75.2536 25.0534 74.856 24.2627C74.4629 23.4676 74.2663 22.5362 74.2663 21.4685C74.2663 20.4143 74.4629 19.4852 74.856 18.6811C75.2536 17.877 75.8075 17.2494 76.5177 16.7982C77.2325 16.347 78.0678 16.1214 79.0238 16.1214C79.6045 16.1214 80.1673 16.2175 80.7123 16.4096C81.2573 16.6017 81.7465 16.9032 82.1798 17.3142C82.6131 17.7251 82.9548 18.2589 83.205 18.9156C83.4551 19.5678 83.5802 20.3607 83.5802 21.2943V22.0046H75.3987V20.5036H81.6169C81.6169 19.9765 81.5097 19.5097 81.2953 19.1032C81.0809 18.6922 80.7793 18.3684 80.3907 18.1316C80.0065 17.8949 79.5554 17.7765 79.0372 17.7765C78.4743 17.7765 77.9829 17.915 77.563 18.1919C77.1476 18.4644 76.826 18.8218 76.5981 19.264C76.3748 19.7018 76.2631 20.1776 76.2631 20.6913V21.8639C76.2631 22.5518 76.3837 23.137 76.6249 23.6194C76.8706 24.1019 77.2124 24.4704 77.6501 24.725C78.0879 24.9752 78.5994 25.1003 79.1846 25.1003C79.5643 25.1003 79.9105 25.0467 80.2232 24.9395C80.5359 24.8278 80.8061 24.6625 81.034 24.4436C81.2618 24.2247 81.436 23.9545 81.5566 23.6328L83.4529 23.9746C83.301 24.533 83.0285 25.0221 82.6354 25.442C82.2468 25.8575 81.7576 26.1813 81.168 26.4136C80.5828 26.6414 79.915 26.7553 79.1645 26.7553ZM90.77 26.5476V25.0467L95.4135 20.2356C95.9093 19.713 96.3181 19.2551 96.6397 18.862C96.9658 18.4644 97.2093 18.087 97.3701 17.7296C97.5309 17.3722 97.6113 16.9925 97.6113 16.5905C97.6113 16.1348 97.5041 15.7417 97.2897 15.4112C97.0753 15.0761 96.7827 14.8193 96.4119 14.6406C96.0411 14.4575 95.6235 14.3659 95.1589 14.3659C94.6675 14.3659 94.2387 14.4664 93.8724 14.6674C93.5061 14.8684 93.2246 15.1521 93.0281 15.5184C92.8315 15.8847 92.7333 16.3135 92.7333 16.8049H90.7566C90.7566 15.9696 90.9487 15.2392 91.3328 14.6138C91.717 13.9884 92.2441 13.5037 92.9142 13.1598C93.5842 12.8113 94.3459 12.6371 95.1991 12.6371C96.0612 12.6371 96.8206 12.8091 97.4773 13.1531C98.1384 13.4926 98.6544 13.9571 99.0251 14.5468C99.3959 15.132 99.5813 15.7931 99.5813 16.5302C99.5813 17.0394 99.4852 17.5375 99.2932 18.0244C99.1055 18.5113 98.7772 19.0541 98.3082 19.6527C97.8391 20.2468 97.1869 20.9682 96.3516 21.817L93.6244 24.6714V24.7719H99.8024V26.5476H90.77Z" fill="white"/>
<path d="M116.873 0.685568L142.26 0.685547L116.873 19.8769L142.249 39.2097H116.873V19.8769V0.685568Z" fill="#D9D9D9"/>
<path d="M116.873 0.685568L142.26 0.685547L116.873 19.8769L142.249 39.2097H116.873V19.8769V0.685568Z" fill="url(#paint2_linear_1178_12792)"/>
<defs>
<linearGradient id="paint0_linear_1178_12792" x1="54.1816" y1="-1.28867e-06" x2="87.1727" y2="67.9132" gradientUnits="userSpaceOnUse">
<stop offset="0.1875" stop-color="#AB3ADD"/>
<stop offset="1" stop-color="#3B57F4"/>
</linearGradient>
<linearGradient id="paint1_linear_1178_12792" x1="54.1816" y1="-1.28867e-06" x2="87.1727" y2="67.9132" gradientUnits="userSpaceOnUse">
<stop offset="0.1875" stop-color="#AB3ADD"/>
<stop offset="1" stop-color="#3B57F4"/>
</linearGradient>
<linearGradient id="paint2_linear_1178_12792" x1="105.529" y1="-5.52113" x2="137.566" y2="9.49088" gradientUnits="userSpaceOnUse">
<stop offset="0.1875" stop-color="#AB3ADD"/>
<stop offset="1" stop-color="#3B57F4"/>
</linearGradient>
</defs>
</svg>
