<svg width="140" height="39" viewBox="0 0 140 39" fill="none" xmlns="http://www.w3.org/2000/svg">
<rect width="114.448" height="38.7241" transform="translate(0.275879 0.015625)" fill="#8A43E4"/>
<rect width="114.448" height="38.7241" transform="translate(0.275879 0.015625)" fill="url(#paint0_linear_1178_12660)"/>
<rect width="114.448" height="38.7241" transform="translate(0.275879 0.015625)" fill="url(#paint1_linear_1178_12660)"/>
<path d="M17.5076 25.8777V12.1548H26.0174V13.9372H19.5781V18.1184H25.4077V19.894H19.5781V25.8777H17.5076ZM32.0832 26.0854C31.0692 26.0854 30.1958 25.8688 29.4632 25.4354C28.7351 24.9977 28.1722 24.3834 27.7747 23.5928C27.3816 22.7976 27.185 21.8662 27.185 20.7986C27.185 19.7444 27.3816 18.8152 27.7747 18.0111C28.1722 17.2071 28.7262 16.5794 29.4364 16.1283C30.1512 15.6771 30.9865 15.4515 31.9425 15.4515C32.5232 15.4515 33.086 15.5476 33.631 15.7396C34.176 15.9317 34.6652 16.2332 35.0985 16.6442C35.5318 17.0552 35.8735 17.589 36.1237 18.2457C36.3738 18.8979 36.4989 19.6908 36.4989 20.6244V21.3347H28.3174V19.8337H34.5356C34.5356 19.3066 34.4284 18.8398 34.214 18.4333C33.9996 18.0223 33.698 17.6985 33.3094 17.4617C32.9252 17.2249 32.474 17.1066 31.9559 17.1066C31.393 17.1066 30.9016 17.245 30.4817 17.522C30.0663 17.7945 29.7447 18.1519 29.5168 18.5941C29.2935 19.0319 29.1818 19.5076 29.1818 20.0213V21.1939C29.1818 21.8819 29.3024 22.4671 29.5436 22.9495C29.7893 23.432 30.1311 23.8005 30.5688 24.0551C31.0066 24.3053 31.5181 24.4304 32.1033 24.4304C32.483 24.4304 32.8292 24.3767 33.1419 24.2695C33.4546 24.1579 33.7248 23.9926 33.9527 23.7737C34.1805 23.5548 34.3547 23.2845 34.4753 22.9629L36.3716 23.3046C36.2197 23.863 35.9472 24.3522 35.5541 24.7721C35.1655 25.1875 34.6763 25.5114 34.0867 25.7437C33.5015 25.9715 32.8337 26.0854 32.0832 26.0854ZM41.717 26.1055C41.0648 26.1055 40.4752 25.9849 39.948 25.7437C39.4209 25.498 39.0033 25.1429 38.695 24.6783C38.3913 24.2137 38.2394 23.6441 38.2394 22.9696C38.2394 22.3889 38.3511 21.9109 38.5744 21.5357C38.7978 21.1604 39.0993 20.8634 39.479 20.6445C39.8587 20.4256 40.2831 20.2603 40.7521 20.1486C41.2212 20.037 41.6991 19.9521 42.1861 19.894C42.8025 19.8226 43.3028 19.7645 43.687 19.7198C44.0712 19.6707 44.3504 19.5925 44.5246 19.4853C44.6988 19.3781 44.7859 19.2039 44.7859 18.9626V18.9157C44.7859 18.3305 44.6206 17.8771 44.29 17.5555C43.964 17.2339 43.477 17.0731 42.8293 17.0731C42.1548 17.0731 41.6232 17.2227 41.2346 17.522C40.8504 17.8168 40.5846 18.1452 40.4372 18.507L38.5543 18.0782C38.7777 17.4528 39.1038 16.948 39.5326 16.5638C39.9659 16.1752 40.464 15.8938 41.0268 15.7195C41.5897 15.5409 42.1816 15.4515 42.8025 15.4515C43.2135 15.4515 43.649 15.5006 44.1091 15.5989C44.5737 15.6927 45.007 15.8669 45.4091 16.1216C45.8156 16.3762 46.1484 16.7403 46.4074 17.2138C46.6665 17.6828 46.7961 18.2926 46.7961 19.043V25.8777H44.8395V24.4706H44.7591C44.6295 24.7296 44.4352 24.9843 44.1761 25.2344C43.917 25.4846 43.5842 25.6923 43.1777 25.8576C42.7712 26.0229 42.2843 26.1055 41.717 26.1055ZM42.1525 24.4974C42.7065 24.4974 43.18 24.3879 43.5731 24.169C43.9707 23.9501 44.2722 23.6642 44.4777 23.3113C44.6876 22.954 44.7926 22.572 44.7926 22.1655V20.8388C44.7211 20.9103 44.5826 20.9773 44.3772 21.0398C44.1761 21.0979 43.9461 21.1493 43.687 21.1939C43.4279 21.2342 43.1755 21.2721 42.9298 21.3079C42.6841 21.3391 42.4786 21.3659 42.3134 21.3883C41.9247 21.4374 41.5696 21.52 41.248 21.6362C40.9308 21.7523 40.6762 21.9198 40.4841 22.1387C40.2965 22.3532 40.2027 22.639 40.2027 22.9964C40.2027 23.4923 40.3858 23.8675 40.7521 24.1221C41.1184 24.3723 41.5852 24.4974 42.1525 24.4974ZM54.269 15.5855V17.1937H48.6471V15.5855H54.269ZM50.1548 13.1197H52.1583V22.8557C52.1583 23.2443 52.2163 23.5369 52.3325 23.7335C52.4486 23.9256 52.5983 24.0573 52.7814 24.1288C52.969 24.1958 53.1723 24.2293 53.3912 24.2293C53.552 24.2293 53.6927 24.2182 53.8133 24.1958C53.9339 24.1735 54.0277 24.1556 54.0947 24.1422L54.4566 25.7973C54.3404 25.8419 54.1751 25.8866 53.9607 25.9313C53.7463 25.9804 53.4783 26.0072 53.1567 26.0117C52.6295 26.0206 52.1382 25.9268 51.6825 25.7303C51.2269 25.5337 50.8583 25.23 50.5769 24.819C50.2955 24.408 50.1548 23.8921 50.1548 23.2711V13.1197ZM63.0049 21.6094V15.5855H65.0151V25.8777H63.0451V24.0953H62.9379C62.7011 24.6448 62.3214 25.1026 61.7988 25.4689C61.2806 25.8308 60.6351 26.0117 59.8623 26.0117C59.2012 26.0117 58.616 25.8665 58.1067 25.5762C57.602 25.2813 57.2044 24.8458 56.914 24.2695C56.6281 23.6933 56.4852 22.9808 56.4852 22.132V15.5855H58.4887V21.8908C58.4887 22.5921 58.683 23.1505 59.0716 23.566C59.4603 23.9814 59.965 24.1891 60.586 24.1891C60.9612 24.1891 61.3342 24.0953 61.705 23.9077C62.0802 23.7201 62.3907 23.4364 62.6364 23.0567C62.8865 22.677 63.0094 22.1946 63.0049 21.6094ZM67.7071 25.8777V15.5855H69.6435V17.2205H69.7508C69.9384 16.6666 70.2689 16.231 70.7424 15.9139C71.2204 15.5922 71.7609 15.4314 72.364 15.4314C72.4891 15.4314 72.6365 15.4359 72.8062 15.4448C72.9805 15.4537 73.1167 15.4649 73.215 15.4783V17.3947C73.1346 17.3724 72.9916 17.3478 72.7861 17.321C72.5807 17.2897 72.3752 17.2741 72.1697 17.2741C71.6962 17.2741 71.274 17.3746 70.9033 17.5756C70.537 17.7722 70.2466 18.0469 70.0322 18.3998C69.8178 18.7482 69.7106 19.1458 69.7106 19.5925V25.8777H67.7071ZM79.016 26.0854C78.002 26.0854 77.1287 25.8688 76.3961 25.4354C75.668 24.9977 75.1051 24.3834 74.7075 23.5928C74.3144 22.7976 74.1179 21.8662 74.1179 20.7986C74.1179 19.7444 74.3144 18.8152 74.7075 18.0111C75.1051 17.2071 75.659 16.5794 76.3693 16.1283C77.084 15.6771 77.9194 15.4515 78.8753 15.4515C79.4561 15.4515 80.0189 15.5476 80.5639 15.7396C81.1089 15.9317 81.598 16.2332 82.0313 16.6442C82.4646 17.0552 82.8064 17.589 83.0565 18.2457C83.3067 18.8979 83.4318 19.6908 83.4318 20.6244V21.3347H75.2503V19.8337H81.4685C81.4685 19.3066 81.3613 18.8398 81.1468 18.4333C80.9324 18.0223 80.6309 17.6985 80.2423 17.4617C79.8581 17.2249 79.4069 17.1066 78.8887 17.1066C78.3259 17.1066 77.8345 17.245 77.4146 17.522C76.9992 17.7945 76.6775 18.1519 76.4497 18.5941C76.2264 19.0319 76.1147 19.5076 76.1147 20.0213V21.1939C76.1147 21.8819 76.2353 22.4671 76.4765 22.9495C76.7222 23.432 77.0639 23.8005 77.5017 24.0551C77.9395 24.3053 78.451 24.4304 79.0361 24.4304C79.4159 24.4304 79.7621 24.3767 80.0747 24.2695C80.3874 24.1579 80.6577 23.9926 80.8855 23.7737C81.1133 23.5548 81.2876 23.2845 81.4082 22.9629L83.3044 23.3046C83.1526 23.863 82.8801 24.3522 82.487 24.7721C82.0983 25.1875 81.6092 25.5114 81.0195 25.7437C80.4343 25.9715 79.7665 26.0854 79.016 26.0854ZM95.8279 12.1548V25.8777H93.7507V14.232H93.6703L90.387 16.3762V14.3928L93.811 12.1548H95.8279Z" fill="white"/>
<path d="M114.276 0.0156462L139.663 0.015625L114.276 19.207L139.653 38.5398H114.276V19.207V0.0156462Z" fill="#D9D9D9"/>
<path d="M114.276 0.0156462L139.663 0.015625L114.276 19.207L139.653 38.5398H114.276V19.207V0.0156462Z" fill="url(#paint2_linear_1178_12660)"/>
<defs>
<linearGradient id="paint0_linear_1178_12660" x1="53.251" y1="-1.28867e-06" x2="86.5942" y2="67.4591" gradientUnits="userSpaceOnUse">
<stop offset="0.1875" stop-color="#AB3ADD"/>
<stop offset="1" stop-color="#3B57F4"/>
</linearGradient>
<linearGradient id="paint1_linear_1178_12660" x1="53.251" y1="-1.28867e-06" x2="86.5942" y2="67.4591" gradientUnits="userSpaceOnUse">
<stop offset="0.1875" stop-color="#AB3ADD"/>
<stop offset="1" stop-color="#3B57F4"/>
</linearGradient>
<linearGradient id="paint2_linear_1178_12660" x1="102.933" y1="-6.19105" x2="134.969" y2="8.82096" gradientUnits="userSpaceOnUse">
<stop offset="0.1875" stop-color="#AB3ADD"/>
<stop offset="1" stop-color="#3B57F4"/>
</linearGradient>
</defs>
</svg>
