<svg width="101" height="101" viewBox="0 0 101 101" fill="none" xmlns="http://www.w3.org/2000/svg">
<rect x="0.951172" y="0.573242" width="100" height="100" rx="15" fill="#FAF0FF"/>
<path d="M70.1637 71.3607L71.7387 69.7857L67.5762 65.6232V59.3232H65.3262V66.5232L70.1637 71.3607ZM48.4512 39.0732H57.4512V34.5732H48.4512V39.0732ZM66.4512 77.3232C63.3387 77.3232 60.6852 76.226 58.4907 74.0315C56.2962 71.837 55.1997 69.1842 55.2012 66.0732C55.2012 62.9607 56.2984 60.3072 58.4929 58.1127C60.6874 55.9182 63.3402 54.8217 66.4512 54.8232C69.5637 54.8232 72.2172 55.9205 74.4117 58.115C76.6062 60.3095 77.7027 62.9622 77.7012 66.0732C77.7012 69.1857 76.6039 71.8392 74.4094 74.0337C72.2149 76.2282 69.5622 77.3247 66.4512 77.3232ZM34.9512 72.8232C33.7137 72.8232 32.6539 72.3822 31.7719 71.5002C30.8899 70.6182 30.4497 69.5592 30.4512 68.3232V43.5732C30.4512 42.3357 30.8922 41.276 31.7742 40.394C32.6562 39.512 33.7152 39.0717 34.9512 39.0732H43.9512V34.5732C43.9512 33.3357 44.3922 32.276 45.2742 31.394C46.1562 30.512 47.2152 30.0717 48.4512 30.0732H57.4512C58.6887 30.0732 59.7484 30.5142 60.6304 31.3962C61.5124 32.2782 61.9527 33.3372 61.9512 34.5732V39.0732H70.9512C72.1887 39.0732 73.2484 39.5142 74.1304 40.3962C75.0124 41.2782 75.4527 42.3372 75.4512 43.5732V53.192C74.1387 52.2545 72.7137 51.542 71.1762 51.0545C69.6387 50.567 68.0637 50.3232 66.4512 50.3232C62.1012 50.3232 58.3887 51.8607 55.3137 54.9357C52.2387 58.0107 50.7012 61.7232 50.7012 66.0732C50.7012 67.2357 50.8234 68.3892 51.0679 69.5337C51.3124 70.6782 51.6964 71.7747 52.2199 72.8232H34.9512Z" fill="#AB3ADD"/>
</svg>
