<svg width="101" height="101" viewBox="0 0 101 101" fill="none" xmlns="http://www.w3.org/2000/svg">
<rect x="0.0800781" y="0.573242" width="100" height="100" rx="15" fill="#FAF0FF"/>
<g clip-path="url(#clip0_1178_13212)">
<path d="M22.3359 27.8096C22.9804 26.4424 24.3476 25.5732 25.8613 25.5732H68.0488C69.5625 25.5732 70.9297 26.4424 71.5742 27.8096C72.2187 29.1768 72.0234 30.7881 71.0664 31.96L60.666 44.6748C52.834 46.2861 46.9551 53.21 46.9551 61.5107C46.9551 64.1865 47.5703 66.7256 48.664 68.9814C48.5078 68.9033 48.3515 68.8057 48.2051 68.6982L41.9551 64.0107C41.164 63.4248 40.7051 62.4971 40.7051 61.5107V53.7861L22.834 31.9502C21.8867 30.7881 21.6816 29.167 22.3359 27.8096ZM50.0801 61.5107C50.0801 57.7811 51.5616 54.2043 54.1989 51.5671C56.8361 48.9298 60.4129 47.4482 64.1426 47.4482C67.8722 47.4482 71.449 48.9298 74.0862 51.5671C76.7235 54.2043 78.2051 57.7811 78.2051 61.5107C78.2051 65.2403 76.7235 68.8172 74.0862 71.4544C71.449 74.0917 67.8722 75.5732 64.1426 75.5732C60.4129 75.5732 56.8361 74.0917 54.1989 71.4544C51.5616 68.8172 50.0801 65.2403 50.0801 61.5107ZM61.8769 58.3271C61.9355 58.2393 62.0527 58.1221 62.2871 57.9951C62.7851 57.7314 63.5078 57.5947 64.1133 57.6045C64.914 57.6143 65.7832 57.7803 66.6914 58.0049C67.5312 58.21 68.3808 57.7021 68.5859 56.8623C68.791 56.0225 68.2832 55.1729 67.4433 54.9678C66.8965 54.8311 66.3105 54.7041 65.6953 54.6064V53.6982C65.6953 52.8389 64.9922 52.1357 64.1328 52.1357C63.2734 52.1357 62.5703 52.8389 62.5703 53.6982V54.626C61.9746 54.7432 61.3691 54.9385 60.8125 55.2412C59.6601 55.8564 58.5664 57.0381 58.6836 58.874C58.7812 60.4365 59.8261 61.3447 60.7929 61.8721C61.6523 62.3311 62.7168 62.6338 63.5859 62.8779L63.7617 62.9268C64.7676 63.21 65.5097 63.4346 66.0273 63.7373C66.4668 64.001 66.4863 64.1475 66.4863 64.2842C66.4961 64.5186 66.4375 64.6455 66.3886 64.7236C66.3301 64.8213 66.2129 64.9385 65.998 65.0459C65.539 65.29 64.8457 65.417 64.1914 65.3975C63.2636 65.3682 62.3847 65.0947 61.2715 64.7334C61.0859 64.6748 60.9004 64.6162 60.7051 64.5576C59.8847 64.3037 59.0058 64.7627 58.7519 65.583C58.498 66.4033 58.957 67.2822 59.7773 67.5361C59.9336 67.585 60.0996 67.6338 60.2656 67.6924C60.9492 67.917 61.7402 68.1611 62.5801 68.3369V69.4502C62.5801 70.3096 63.2832 71.0127 64.1426 71.0127C65.0019 71.0127 65.7051 70.3096 65.7051 69.4502V68.415C66.3105 68.3076 66.9258 68.1123 67.4922 67.8096C68.6738 67.1748 69.6699 65.9834 69.6113 64.2061C69.5625 62.624 68.6054 61.6377 67.6093 61.0518C66.6914 60.5049 65.539 60.1826 64.6308 59.9287H64.6113C63.5957 59.6455 62.8242 59.4209 62.2773 59.1279C61.8086 58.874 61.8086 58.7373 61.8086 58.6885V58.6787C61.7988 58.4932 61.8379 58.3955 61.8867 58.3271H61.8769Z" fill="#AB3ADD"/>
</g>
<defs>
<clipPath id="clip0_1178_13212">
<rect width="56.25" height="50" fill="white" transform="translate(21.9551 25.5732)"/>
</clipPath>
</defs>
</svg>
