<svg width="144" height="40" viewBox="0 0 144 40" fill="none" xmlns="http://www.w3.org/2000/svg">
<rect width="117.448" height="38.7241" transform="translate(0.924316 0.868652)" fill="#8A43E4"/>
<rect width="117.448" height="38.7241" transform="translate(0.924316 0.868652)" fill="url(#paint0_linear_1178_13062)"/>
<rect width="117.448" height="38.7241" transform="translate(0.924316 0.868652)" fill="url(#paint1_linear_1178_13062)"/>
<path d="M18.1561 26.7307V13.0078H26.6659V14.7902H20.2266V18.9714H26.0561V20.7471H20.2266V26.7307H18.1561ZM32.7316 26.9384C31.7176 26.9384 30.8443 26.7218 30.1117 26.2885C29.3835 25.8507 28.8207 25.2365 28.4231 24.4458C28.03 23.6507 27.8335 22.7193 27.8335 21.6516C27.8335 20.5974 28.03 19.6683 28.4231 18.8642C28.8207 18.0601 29.3746 17.4325 30.0849 16.9813C30.7996 16.5301 31.6349 16.3045 32.5909 16.3045C33.1716 16.3045 33.7345 16.4006 34.2795 16.5927C34.8244 16.7847 35.3136 17.0863 35.7469 17.4972C36.1802 17.9082 36.5219 18.442 36.7721 19.0987C37.0223 19.7509 37.1473 20.5438 37.1473 21.4774V22.1877H28.9659V20.6867H35.184C35.184 20.1596 35.0768 19.6928 34.8624 19.2863C34.648 18.8753 34.3465 18.5515 33.9578 18.3147C33.5737 18.078 33.1225 17.9596 32.6043 17.9596C32.0415 17.9596 31.5501 18.0981 31.1302 18.375C30.7147 18.6475 30.3931 19.0049 30.1653 19.4471C29.9419 19.8849 29.8302 20.3607 29.8302 20.8744V22.047C29.8302 22.7349 29.9509 23.3201 30.1921 23.8025C30.4378 24.285 30.7795 24.6535 31.2173 24.9081C31.6551 25.1583 32.1665 25.2834 32.7517 25.2834C33.1314 25.2834 33.4776 25.2298 33.7903 25.1226C34.103 25.0109 34.3733 24.8456 34.6011 24.6267C34.8289 24.4078 35.0031 24.1376 35.1237 23.8159L37.02 24.1577C36.8681 24.7161 36.5956 25.2052 36.2025 25.6251C35.8139 26.0405 35.3248 26.3644 34.7351 26.5967C34.1499 26.8245 33.4821 26.9384 32.7316 26.9384ZM42.3654 26.9585C41.7132 26.9585 41.1236 26.8379 40.5965 26.5967C40.0694 26.351 39.6517 25.9959 39.3435 25.5313C39.0397 25.0667 38.8878 24.4972 38.8878 23.8226C38.8878 23.2419 38.9995 22.7639 39.2228 22.3887C39.4462 22.0135 39.7477 21.7164 40.1274 21.4975C40.5071 21.2786 40.9315 21.1134 41.4006 21.0017C41.8696 20.89 42.3476 20.8051 42.8345 20.7471C43.4509 20.6756 43.9513 20.6175 44.3354 20.5728C44.7196 20.5237 44.9988 20.4455 45.173 20.3383C45.3472 20.2311 45.4343 20.0569 45.4343 19.8157V19.7688C45.4343 19.1836 45.269 18.7302 44.9385 18.4085C44.6124 18.0869 44.1255 17.9261 43.4777 17.9261C42.8032 17.9261 42.2716 18.0757 41.883 18.375C41.4988 18.6699 41.233 18.9982 41.0856 19.36L39.2027 18.9312C39.4261 18.3058 39.7522 17.801 40.181 17.4168C40.6143 17.0282 41.1124 16.7468 41.6753 16.5726C42.2381 16.3939 42.83 16.3045 43.4509 16.3045C43.8619 16.3045 44.2975 16.3537 44.7576 16.452C45.2221 16.5458 45.6555 16.72 46.0575 16.9746C46.464 17.2292 46.7968 17.5933 47.0559 18.0668C47.315 18.5358 47.4445 19.1456 47.4445 19.8961V26.7307H45.4879V25.3236H45.4075C45.278 25.5827 45.0837 25.8373 44.8246 26.0875C44.5655 26.3376 44.2327 26.5453 43.8262 26.7106C43.4197 26.8759 42.9328 26.9585 42.3654 26.9585ZM42.801 25.3504C43.3549 25.3504 43.8284 25.2409 44.2215 25.0221C44.6191 24.8032 44.9206 24.5173 45.1261 24.1644C45.3361 23.807 45.441 23.4251 45.441 23.0186V21.6918C45.3696 21.7633 45.2311 21.8303 45.0256 21.8929C44.8246 21.9509 44.5945 22.0023 44.3354 22.047C44.0763 22.0872 43.8239 22.1251 43.5783 22.1609C43.3326 22.1922 43.1271 22.219 42.9618 22.2413C42.5732 22.2904 42.218 22.3731 41.8964 22.4892C41.5792 22.6054 41.3246 22.7729 41.1325 22.9918C40.9449 23.2062 40.8511 23.4921 40.8511 23.8494C40.8511 24.3453 41.0343 24.7205 41.4006 24.9751C41.7669 25.2253 42.2337 25.3504 42.801 25.3504ZM54.9174 16.4385V18.0467H49.2956V16.4385H54.9174ZM50.8032 13.9727H52.8067V23.7087C52.8067 24.0974 52.8648 24.39 52.9809 24.5865C53.0971 24.7786 53.2467 24.9104 53.4299 24.9818C53.6175 25.0489 53.8207 25.0824 54.0396 25.0824C54.2004 25.0824 54.3411 25.0712 54.4617 25.0489C54.5824 25.0265 54.6762 25.0087 54.7432 24.9953L55.105 26.6503C54.9889 26.695 54.8236 26.7396 54.6092 26.7843C54.3947 26.8335 54.1267 26.8603 53.8051 26.8647C53.278 26.8737 52.7866 26.7799 52.3309 26.5833C51.8753 26.3867 51.5068 26.083 51.2253 25.672C50.9439 25.261 50.8032 24.7451 50.8032 24.1242V13.9727ZM63.6533 22.4624V16.4385H65.6635V26.7307H63.6935V24.9483H63.5863C63.3496 25.4978 62.9699 25.9557 62.4472 26.322C61.929 26.6838 61.2835 26.8647 60.5107 26.8647C59.8496 26.8647 59.2644 26.7195 58.7552 26.4292C58.2504 26.1344 57.8528 25.6988 57.5625 25.1226C57.2766 24.5463 57.1336 23.8338 57.1336 22.9851V16.4385H59.1371V22.7438C59.1371 23.4452 59.3314 24.0036 59.7201 24.419C60.1087 24.8344 60.6135 25.0422 61.2344 25.0422C61.6096 25.0422 61.9826 24.9483 62.3534 24.7607C62.7286 24.5731 63.0391 24.2895 63.2848 23.9097C63.535 23.53 63.6578 23.0476 63.6533 22.4624ZM68.3555 26.7307V16.4385H70.292V18.0735H70.3992C70.5868 17.5196 70.9174 17.084 71.3909 16.7669C71.8689 16.4453 72.4094 16.2844 73.0124 16.2844C73.1375 16.2844 73.2849 16.2889 73.4547 16.2978C73.6289 16.3068 73.7651 16.3179 73.8634 16.3313V18.2477C73.783 18.2254 73.6401 18.2008 73.4346 18.174C73.2291 18.1427 73.0236 18.1271 72.8181 18.1271C72.3446 18.1271 71.9225 18.2276 71.5517 18.4286C71.1854 18.6252 70.895 18.8999 70.6806 19.2528C70.4662 19.6012 70.359 19.9988 70.359 20.4455V26.7307H68.3555ZM79.6645 26.9384C78.6505 26.9384 77.7771 26.7218 77.0445 26.2885C76.3164 25.8507 75.7536 25.2365 75.356 24.4458C74.9629 23.6507 74.7663 22.7193 74.7663 21.6516C74.7663 20.5974 74.9629 19.6683 75.356 18.8642C75.7536 18.0601 76.3075 17.4325 77.0177 16.9813C77.7325 16.5301 78.5678 16.3045 79.5238 16.3045C80.1045 16.3045 80.6673 16.4006 81.2123 16.5927C81.7573 16.7847 82.2465 17.0863 82.6798 17.4972C83.1131 17.9082 83.4548 18.442 83.705 19.0987C83.9551 19.7509 84.0802 20.5438 84.0802 21.4774V22.1877H75.8987V20.6867H82.1169C82.1169 20.1596 82.0097 19.6928 81.7953 19.2863C81.5809 18.8753 81.2793 18.5515 80.8907 18.3147C80.5065 18.078 80.0554 17.9596 79.5372 17.9596C78.9743 17.9596 78.4829 18.0981 78.063 18.375C77.6476 18.6475 77.326 19.0049 77.0981 19.4471C76.8748 19.8849 76.7631 20.3607 76.7631 20.8744V22.047C76.7631 22.7349 76.8837 23.3201 77.1249 23.8025C77.3706 24.285 77.7124 24.6535 78.1501 24.9081C78.5879 25.1583 79.0994 25.2834 79.6846 25.2834C80.0643 25.2834 80.4105 25.2298 80.7232 25.1226C81.0359 25.0109 81.3061 24.8456 81.534 24.6267C81.7618 24.4078 81.936 24.1376 82.0566 23.8159L83.9529 24.1577C83.801 24.7161 83.5285 25.2052 83.1354 25.6251C82.7468 26.0405 82.2576 26.3644 81.668 26.5967C81.0828 26.8245 80.415 26.9384 79.6645 26.9384ZM96.0475 26.9183C95.1273 26.9183 94.3054 26.7597 93.5817 26.4426C92.8625 26.1254 92.2929 25.6854 91.873 25.1226C91.4576 24.5552 91.2342 23.8986 91.203 23.1526H93.307C93.3338 23.5591 93.47 23.912 93.7157 24.2113C93.9659 24.5061 94.2919 24.7339 94.694 24.8947C95.096 25.0556 95.5427 25.136 96.0341 25.136C96.5746 25.136 97.0526 25.0422 97.468 24.8545C97.888 24.6669 98.2163 24.4056 98.453 24.0706C98.6898 23.7311 98.8082 23.3402 98.8082 22.898C98.8082 22.4378 98.6898 22.0336 98.453 21.6851C98.2208 21.3322 97.879 21.0553 97.4278 20.8543C96.9811 20.6532 96.4406 20.5527 95.8063 20.5527H94.6471V18.8642H95.8063C96.3155 18.8642 96.7622 18.7726 97.1464 18.5895C97.5351 18.4063 97.8388 18.1517 98.0577 17.8256C98.2766 17.495 98.386 17.1086 98.386 16.6664C98.386 16.242 98.29 15.8735 98.0979 15.5608C97.9103 15.2436 97.6423 14.9957 97.2938 14.817C96.9499 14.6383 96.5434 14.549 96.0743 14.549C95.6276 14.549 95.2099 14.6316 94.8213 14.7969C94.4371 14.9577 94.1244 15.19 93.8832 15.4938C93.642 15.7931 93.5124 16.1527 93.4946 16.5726H91.4911C91.5134 15.831 91.7323 15.1788 92.1477 14.616C92.5677 14.0531 93.1216 13.6131 93.8095 13.296C94.4974 12.9788 95.2613 12.8202 96.1011 12.8202C96.9811 12.8202 97.7405 12.9922 98.3793 13.3362C99.0226 13.6757 99.5184 14.1291 99.8669 14.6964C100.22 15.2637 100.394 15.8846 100.39 16.5592C100.394 17.3275 100.18 17.9797 99.7463 18.5157C99.3174 19.0518 98.7456 19.4114 98.0309 19.5945V19.7018C98.9422 19.8402 99.648 20.2021 100.148 20.7873C100.653 21.3724 100.903 22.0983 100.899 22.965C100.903 23.7199 100.693 24.3967 100.269 24.9953C99.849 25.5938 99.275 26.0651 98.5468 26.4091C97.8187 26.7486 96.9856 26.9183 96.0475 26.9183Z" fill="white"/>
<path d="M118.373 0.868674L143.76 0.868652L118.373 20.06L143.762 39.5952H118.373V20.06V0.868674Z" fill="#D9D9D9"/>
<path d="M118.373 0.868674L143.76 0.868652L118.373 20.06L143.762 39.5952H118.373V20.06V0.868674Z" fill="url(#paint2_linear_1178_13062)"/>
<defs>
<linearGradient id="paint0_linear_1178_13062" x1="54.6469" y1="-1.28867e-06" x2="87.4633" y2="68.1338" gradientUnits="userSpaceOnUse">
<stop offset="0.1875" stop-color="#AB3ADD"/>
<stop offset="1" stop-color="#3B57F4"/>
</linearGradient>
<linearGradient id="paint1_linear_1178_13062" x1="54.6469" y1="-1.28867e-06" x2="87.4633" y2="68.1338" gradientUnits="userSpaceOnUse">
<stop offset="0.1875" stop-color="#AB3ADD"/>
<stop offset="1" stop-color="#3B57F4"/>
</linearGradient>
<linearGradient id="paint2_linear_1178_13062" x1="107.029" y1="-5.33802" x2="139.066" y2="9.67398" gradientUnits="userSpaceOnUse">
<stop offset="0.1875" stop-color="#AB3ADD"/>
<stop offset="1" stop-color="#3B57F4"/>
</linearGradient>
</defs>
</svg>
