<svg width="101" height="101" viewBox="0 0 101 101" fill="none" xmlns="http://www.w3.org/2000/svg">
<rect x="0.951172" y="0.573242" width="100" height="100" rx="15" fill="#FAF0FF"/>
<path fill-rule="evenodd" clip-rule="evenodd" d="M51.8397 26.4053H51.6057C49.5829 26.4053 47.8977 26.4053 46.5612 26.5853C45.1482 26.7743 43.8724 27.1928 42.8487 28.2165C41.8227 29.2425 41.4042 30.5183 41.2152 31.929C41.0869 32.8898 41.0487 35.1825 41.0397 37.149C36.4902 37.2998 33.7564 37.8308 31.8597 39.7298C29.2227 42.3645 29.2227 46.608 29.2227 55.0928C29.2227 63.5775 29.2227 67.821 31.8597 70.4558C34.4944 73.0928 38.7379 73.0928 47.2227 73.0928H56.2227C64.7074 73.0928 68.9509 73.0928 71.5857 70.4558C74.2227 67.821 74.2227 63.5775 74.2227 55.0928C74.2227 46.608 74.2227 42.3645 71.5857 39.7298C69.6889 37.8308 66.9552 37.2998 62.4057 37.1513C62.3967 35.1825 62.3607 32.8898 62.2302 31.9313C62.0412 30.5183 61.6227 29.2425 60.5967 28.2188C59.5729 27.1928 58.2972 26.7743 56.8842 26.5853C55.5477 26.4053 53.8602 26.4053 51.8397 26.4053ZM59.0307 37.0973C59.0194 35.1915 58.9879 33.1418 58.8867 32.379C58.7449 31.3418 58.5042 30.8963 58.2117 30.6038C57.9192 30.3113 57.4737 30.0705 56.4342 29.9288C55.3497 29.7848 53.8917 29.7803 51.7227 29.7803C49.5537 29.7803 48.0957 29.7848 47.0089 29.931C45.9717 30.0705 45.5262 30.3113 45.2337 30.606C44.9412 30.8985 44.7004 31.3418 44.5587 32.379C44.4574 33.144 44.4237 35.1915 44.4147 37.0973C45.2944 37.0928 46.2327 37.0928 47.2227 37.0928H56.2227C57.2149 37.0928 58.1509 37.0928 59.0307 37.0973ZM51.7227 44.4053C52.1702 44.4053 52.5994 44.5831 52.9159 44.8995C53.2324 45.216 53.4102 45.6452 53.4102 46.0928V46.1153C55.8604 46.7318 57.9102 48.6645 57.9102 51.342C57.9102 51.7896 57.7324 52.2188 57.4159 52.5353C57.0994 52.8517 56.6702 53.0295 56.2227 53.0295C55.7751 53.0295 55.3459 52.8517 55.0294 52.5353C54.7129 52.2188 54.5352 51.7896 54.5352 51.342C54.5352 50.478 53.5767 49.281 51.7227 49.281C49.8687 49.281 48.9102 50.478 48.9102 51.342C48.9102 52.206 49.8687 53.4053 51.7227 53.4053C54.8389 53.4053 57.9102 55.5653 57.9102 58.8435C57.9102 61.521 55.8604 63.4515 53.4102 64.0703V64.0928C53.4102 64.5403 53.2324 64.9696 52.9159 65.286C52.5994 65.6025 52.1702 65.7803 51.7227 65.7803C51.2751 65.7803 50.8459 65.6025 50.5294 65.286C50.2129 64.9696 50.0352 64.5403 50.0352 64.0928V64.0703C47.5849 63.4538 45.5352 61.521 45.5352 58.8435C45.5352 58.396 45.7129 57.9667 46.0294 57.6503C46.3459 57.3338 46.7751 57.156 47.2227 57.156C47.6702 57.156 48.0994 57.3338 48.4159 57.6503C48.7324 57.9667 48.9102 58.396 48.9102 58.8435C48.9102 59.7075 49.8687 60.9045 51.7227 60.9045C53.5767 60.9045 54.5352 59.7075 54.5352 58.8435C54.5352 57.9795 53.5767 56.7803 51.7227 56.7803C48.6064 56.7803 45.5352 54.6203 45.5352 51.342C45.5352 48.6645 47.5849 46.7318 50.0352 46.1153V46.0928C50.0352 45.6452 50.2129 45.216 50.5294 44.8995C50.8459 44.5831 51.2751 44.4053 51.7227 44.4053Z" fill="#AB3ADD"/>
</svg>
