<svg xmlns="http://www.w3.org/2000/svg" width="31" height="80" viewBox="0 0 31 80" fill="none">
  <path d="M16.5328 1.40622C16.3602 0.696504 15.6449 0.261084 14.9352 0.433688C14.2255 0.606291 13.7901 1.32156 13.9627 2.03128L16.5328 1.40622ZM15.2472 28.9846L15.0647 27.6748L15.2472 28.9846ZM10.453 79.4998C10.9695 80.0163 11.8069 80.0163 12.3233 79.4998L20.7398 71.0834C21.2563 70.5669 21.2563 69.7295 20.7398 69.2131C20.2233 68.6966 19.3859 68.6966 18.8695 69.2131L11.3882 76.6944L3.90687 69.2131C3.3904 68.6966 2.55302 68.6966 2.03655 69.2131C1.52007 69.7295 1.52007 70.5669 2.03655 71.0834L10.453 79.4998ZM6.17547 61.1889L7.3578 60.5963L6.17547 61.1889ZM13.9627 2.03128C15.1028 6.71925 14.6777 11.4097 13.5976 15.9937C12.5093 20.6127 10.8009 24.9704 9.40486 29.1394C8.04422 33.2025 6.94753 37.1722 7.41675 40.6447C7.65737 42.4254 8.30856 44.0868 9.52789 45.5582C10.7385 47.0192 12.4543 48.227 14.7277 49.1993L15.7678 46.7673C13.7749 45.9151 12.4419 44.9293 11.5645 43.8705C10.6959 42.8223 10.2201 41.6381 10.038 40.2905C9.66175 37.5063 10.5369 34.0884 11.913 29.9793C13.2536 25.976 15.0467 21.3768 16.1722 16.6003C17.3059 11.7887 17.8069 6.64493 16.5328 1.40622L13.9627 2.03128ZM14.7277 49.1993C19.3188 51.1626 23.2 50.7596 26.0104 48.7852C28.7651 46.8501 30.2444 43.5745 30.4422 40.2582C30.6406 36.9325 29.5641 33.3923 26.982 30.8632C24.3689 28.3038 20.3751 26.9351 15.0647 27.6748L15.4296 30.2945C20.0862 29.6459 23.2089 30.8701 25.1312 32.7529C27.0844 34.666 27.9619 37.4174 27.8019 40.1007C27.6413 42.7933 26.4497 45.2441 24.49 46.6209C22.586 47.9585 19.7093 48.4529 15.7678 46.7673L14.7277 49.1993ZM15.0647 27.6748C10.5437 28.3045 7.17078 29.9839 4.81041 32.4432C2.45629 34.8959 1.211 38.0183 0.748824 41.3615C-0.168467 47.9967 1.95989 55.7296 4.99315 61.7815L7.3578 60.5963C4.45742 54.8096 2.55186 47.6341 3.36894 41.7237C3.77396 38.794 4.83793 36.2343 6.71871 34.2747C8.59325 32.3216 11.3808 30.8585 15.4296 30.2945L15.0647 27.6748ZM4.99315 61.7815C7.58171 66.9461 10.0657 72.9675 10.0657 78.5647H12.7107C12.7107 72.2979 9.96256 65.7932 7.3578 60.5963L4.99315 61.7815Z" fill="white"/>
</svg>