<svg xmlns="http://www.w3.org/2000/svg" width="73" height="73" viewBox="0 0 73 73" fill="none">
  <path d="M44.024 23.2621C38.2479 24.1886 32.9876 27.1337 29.1785 31.5736C26.7761 30.9673 24.6109 29.654 22.963 27.8037C21.3151 25.9533 20.2604 23.6511 19.9353 21.1947C19.6102 18.7384 20.0297 16.241 21.1394 14.0257C22.2492 11.8104 23.9982 9.97904 26.1602 8.76862C28.3222 7.5582 30.7976 7.0244 33.2663 7.23627C35.735 7.44813 38.0833 8.39592 40.0074 9.95702C41.9315 11.5181 43.3429 13.6207 44.059 15.9927C44.7751 18.3647 44.7629 20.8971 44.024 23.2621ZM25.907 36.4471C24.179 39.8221 23.207 43.6471 23.207 47.6971C23.207 53.5921 25.268 59.0011 28.706 63.2536C16.7045 61.8856 9.70703 53.5606 9.70703 45.4471V43.1971C9.70703 41.4069 10.4182 39.69 11.6841 38.4241C12.9499 37.1582 14.6668 36.4471 16.457 36.4471H25.907ZM47.957 67.9471C50.6163 67.9471 53.2495 67.4233 55.7064 66.4056C58.1632 65.388 60.3956 63.8964 62.2759 62.016C64.1563 60.1356 65.6479 57.9033 66.6656 55.4464C67.6833 52.9896 68.207 50.3563 68.207 47.6971C68.207 45.0378 67.6833 42.4046 66.6656 39.9477C65.6479 37.4909 64.1563 35.2586 62.2759 33.3782C60.3956 31.4978 58.1632 30.0062 55.7064 28.9885C53.2495 27.9709 50.6163 27.4471 47.957 27.4471C42.5864 27.4471 37.4357 29.5806 33.6381 33.3782C29.8405 37.1758 27.707 42.3264 27.707 47.6971C27.707 53.0677 29.8405 58.2184 33.6381 62.016C37.4357 65.8136 42.5864 67.9471 47.957 67.9471ZM47.957 36.4471C48.5538 36.4471 49.1261 36.6841 49.548 37.1061C49.97 37.528 50.207 38.1003 50.207 38.6971V45.4471H56.957C57.5538 45.4471 58.1261 45.6841 58.548 46.1061C58.97 46.528 59.207 47.1003 59.207 47.6971C59.207 48.2938 58.97 48.8661 58.548 49.2881C58.1261 49.71 57.5538 49.9471 56.957 49.9471H50.207V56.6971C50.207 57.2938 49.97 57.8661 49.548 58.2881C49.1261 58.71 48.5538 58.9471 47.957 58.9471C47.3603 58.9471 46.788 58.71 46.366 58.2881C45.9441 57.8661 45.707 57.2938 45.707 56.6971V49.9471H38.957C38.3603 49.9471 37.788 49.71 37.366 49.2881C36.9441 48.8661 36.707 48.2938 36.707 47.6971C36.707 47.1003 36.9441 46.528 37.366 46.1061C37.788 45.6841 38.3603 45.4471 38.957 45.4471H45.707V38.6971C45.707 38.1003 45.9441 37.528 46.366 37.1061C46.788 36.6841 47.3603 36.4471 47.957 36.4471Z" fill="#3B57F4"/>
</svg>