<svg width="72" height="73" viewBox="0 0 72 73" fill="none" xmlns="http://www.w3.org/2000/svg">
<path d="M47.649 19.5421C55.8789 8.32934 58.762 2.94946 56.7032 2.67762C55.6345 2.55092 55.2219 2.73182 53.6972 3.97183C50.7656 6.42416 41.1845 19.7599 41.4842 20.9909C41.8999 22.6986 45.9933 21.7785 47.649 19.5421Z" fill="#3B57F4"/>
<path d="M20.3322 26.4448C21.4147 25.2674 21.2975 25.1271 14.9315 20.7916C11.5383 18.4422 8.88676 17.0935 7.1039 16.7573C4.66477 16.2817 3.9337 17.88 5.06757 18.7882C14.7833 26.658 18.4625 28.4784 20.3322 26.4448Z" fill="#3B57F4"/>
<path d="M58.3762 30.9674C55.8105 30.8158 42.6205 29.765 41.6317 29.6201C41.1618 29.5628 40.655 28.8435 40.1699 27.5321C36.4236 17.7641 31.8642 7.89338 30.6823 6.95536C29.8033 6.23962 27.5965 7.05167 27.2104 8.19047C26.8244 9.32926 26.3653 20.0439 26.4163 27.7457L26.4381 32.7713C5.90265 45.1433 4.64835 45.2703 15.4889 46.0347L25.0663 46.7186C30.511 47.1161 30.6378 47.1278 31.2212 48.3322C32.0575 50.0641 36.7691 58.3481 38.7824 62.3607C43.0813 70.9927 45.9458 64.3665 45.5389 46.5191L45.4554 42.4303C45.9066 42.2404 48.8189 41.2626 60.9953 35.4246C63.7722 34.0594 62.1565 31.1691 58.3762 30.9674ZM53.281 34.219C53.0349 34.5703 44.9589 38.6901 43.2728 39.0863C41.2337 39.5655 41.0045 40.6674 40.9597 50.5298C40.9269 57.0356 40.8385 57.1817 39.1069 53.8156C36.9572 49.5835 33.5257 44.8565 32.9519 43.6917C32.4463 42.6367 30.0573 42.3596 21.046 42.2973C16.5209 42.2707 15.7674 42.0704 17.2591 41.2168C19.1142 40.152 27.949 34.722 29.047 34.464C30.1058 34.2152 30.8146 33.2102 30.8386 31.9468L30.9623 19.1732C30.9996 16.9425 31 16.9424 34.5278 24.7915C38.5419 33.6162 38.2488 33.2654 41.217 33.1967C44.9296 33.1208 53.5567 33.8188 53.281 34.219Z" fill="#3B57F4"/>
<path d="M48.7144 46.2434C48.927 47.1165 61.8685 55.2787 63.4657 55.5327C66.8363 56.0834 67.2153 54.2316 64.1344 52.1442C55.8116 46.4214 48.038 43.4651 48.7144 46.2434Z" fill="#3B57F4"/>
<path d="M18.9315 56.0942C12.6443 63.0365 12.07 64.4325 15.8425 63.5455C17.6894 63.1113 27.3674 52.1774 26.7525 51.1871C25.7959 49.6467 23.3759 51.1404 18.9315 56.0942Z" fill="#3B57F4"/>
</svg>
