<svg width="92" height="69" viewBox="0 0 92 69" fill="none" xmlns="http://www.w3.org/2000/svg">
<path d="M4.38978 14.487C7.91978 10.537 12.8698 4.84697 18.8498 6.90697C21.1998 7.71697 22.7998 9.61697 23.0598 12.087C23.2098 13.507 22.7898 16.467 21.1098 16.967L23.3798 17.717C25.5298 11.537 30.6498 6.44697 36.8598 4.34697C39.8098 3.34697 43.0598 3.04697 46.1298 3.65697C49.8898 4.39697 52.4098 6.91697 52.7798 10.787C53.2098 15.327 50.4398 19.357 47.9998 22.907L51.9598 22.697C53.0098 19.057 57.3698 17.707 60.6298 16.817C64.7098 15.697 69.0998 15.427 73.1798 16.717C79.8398 18.817 85.6298 25.687 83.6798 32.937C82.8298 36.107 80.4198 39.627 76.9098 40.037L78.7098 40.927C78.8898 39.307 79.9998 38.557 81.5598 38.887C83.3198 39.257 84.8398 40.747 85.6798 42.277C87.5798 45.727 87.2198 50.397 85.3098 53.757C82.9398 57.947 78.2598 60.097 73.8098 61.307C68.0598 62.867 62.0198 63.557 56.1298 64.297C48.8098 65.217 41.4598 65.827 34.0898 66.267C33.3898 66.307 32.1598 66.747 31.8998 67.477C31.6398 68.207 32.4098 68.527 33.0498 68.497C40.8998 68.197 48.7398 67.507 56.5398 66.507C63.2998 65.637 70.3198 64.867 76.8098 62.677C82.1798 60.867 87.6498 57.747 89.9898 52.327C91.7898 48.157 91.6898 42.557 88.4498 39.097C86.5398 37.057 83.7998 36.167 81.0498 36.517C78.2998 36.867 74.9098 38.377 74.5698 41.447C74.4698 42.367 75.7498 42.407 76.3698 42.337C85.4498 41.257 91.0898 31.237 86.6898 23.067C81.7098 13.827 70.3098 12.217 60.9698 14.527C56.1998 15.707 49.4098 17.877 47.8898 23.207C47.6598 24.007 48.9298 24.127 49.3998 24.097C50.2498 24.047 51.3398 23.737 51.8498 22.997C54.3398 19.347 56.9698 15.387 56.9498 10.797C56.9298 6.20697 54.3698 3.10697 50.1898 1.82697C42.3098 -0.583029 33.1098 2.34697 26.9398 7.45697C23.5098 10.297 20.8798 14.007 19.4198 18.217C19.0398 19.307 21.2998 19.087 21.6898 18.967C24.7998 18.037 27.0098 15.607 27.1398 12.287C27.2698 8.96697 25.2298 6.12697 22.0498 4.96697C18.3598 3.62697 14.0998 4.20697 10.6298 5.92697C6.59978 7.90697 3.60978 11.147 0.699785 14.407C0.0497848 15.127 1.24978 15.547 1.76978 15.567C2.73978 15.607 3.73978 15.207 4.37978 14.487H4.38978Z" fill="black"/>
</svg>
