<svg width="508" height="114" viewBox="0 0 508 114" fill="none" xmlns="http://www.w3.org/2000/svg">
<rect x="0.625" y="0.308594" width="113.145" height="113.145" rx="22.2907" fill="#AB3ADD"/>
<rect x="0.625" y="0.308594" width="113.145" height="113.145" rx="22.2907" fill="url(#paint0_linear_658_6342)"/>
<path d="M53.413 57.7805C53.413 59.895 51.6989 61.6091 49.5844 61.6091C47.4699 61.6091 45.7557 59.895 45.7557 57.7805C45.7557 55.666 47.4699 53.9518 49.5844 53.9518C51.6989 53.9518 53.413 55.666 53.413 57.7805Z" fill="white"/>
<path d="M64.6858 61.6091C66.8002 61.6091 68.5144 59.895 68.5144 57.7805C68.5144 55.666 66.8002 53.9518 64.6858 53.9518C62.5713 53.9518 60.8571 55.666 60.8571 57.7805C60.8571 59.895 62.5713 61.6091 64.6858 61.6091Z" fill="white"/>
<path fill-rule="evenodd" clip-rule="evenodd" d="M43.087 40.1307C45.3328 34.5531 50.7989 30.6146 57.1865 30.6113C57.1827 30.6114 57.1789 30.6114 57.1751 30.6115C57.1881 30.6113 57.201 30.6113 57.214 30.6115C57.2102 30.6114 57.2063 30.6114 57.2025 30.6113C63.5901 30.6146 69.0563 34.5531 71.302 40.1307C74.2255 40.3306 77.1485 40.5926 80.0705 40.9167C83.7034 41.3196 86.3922 44.4318 86.3922 48.0869V75.4469C86.3922 79.1437 83.6429 82.2762 79.9641 82.6405C64.7347 84.1485 49.6543 84.1485 34.425 82.6405C30.7461 82.2762 27.9968 79.1437 27.9968 75.4469V48.0869C27.9968 44.4318 30.6857 41.3196 34.3185 40.9167C37.2406 40.5926 40.1635 40.3306 43.087 40.1307ZM32.1267 72.4413L56.6473 31.5593C56.8951 31.1461 57.4939 31.1461 57.7417 31.5593L82.2624 72.4413C65.3754 75.4276 49.0136 75.4276 32.1267 72.4413Z" fill="white"/>
<path d="M87.9894 49.0386H88.9405C90.7026 49.0386 92.131 50.4671 92.131 52.2292V63.3318C92.131 65.0939 90.7025 66.5223 88.9405 66.5223H87.9894V49.0386Z" fill="white"/>
<path d="M43.0026 89.4134V91.1741H71.3864V89.4134C71.3864 87.6513 69.958 86.2229 68.1959 86.2229H46.1931C44.431 86.2229 43.0026 87.6513 43.0026 89.4134Z" fill="white"/>
<path d="M26.4063 49.0386H25.4552C23.6931 49.0386 22.2646 50.4671 22.2646 52.2292V63.3318C22.2646 65.0939 23.6931 66.5223 25.4552 66.5223H26.4063V49.0386Z" fill="white"/>
<path d="M57.1974 28.9709C58.9594 28.9709 60.3879 27.5424 60.3879 25.7804C60.3879 24.0183 58.9594 22.5898 57.1974 22.5898C55.4353 22.5898 54.0068 24.0183 54.0068 25.7804C54.0068 27.5424 55.4353 28.9709 57.1974 28.9709Z" fill="white"/>
<path d="M54.2998 24.4422C54.7658 23.9525 55.6985 23.6403 56.5713 23.6907C57.9836 23.7722 59.2333 24.9567 59.3302 26.375C59.3635 26.8625 59.339 27.9064 59.1814 28.2812C60.0149 27.7103 60.3875 26.6114 60.3875 25.7804C60.3875 24.0183 58.959 22.5898 57.197 22.5898C55.9128 22.5898 54.8058 23.3486 54.2998 24.4422Z" fill="white"/>
<path d="M145.343 88.8809H130.913L152.9 25.1889H170.253L192.21 88.8809H177.78L161.825 39.7435H161.328L145.343 88.8809ZM144.441 63.8457H178.526V74.3574H144.441V63.8457ZM214.545 107.789C210.254 107.789 206.574 107.199 203.505 106.017C200.457 104.856 198.032 103.27 196.228 101.258C194.424 99.2474 193.253 96.9875 192.714 94.4788L204.967 92.8305C205.34 93.7842 205.931 94.6757 206.739 95.5051C207.548 96.3344 208.616 96.9978 209.943 97.4954C211.29 98.0138 212.928 98.2729 214.856 98.2729C217.738 98.2729 220.112 97.568 221.978 96.1582C223.865 94.769 224.808 92.4366 224.808 89.1608V80.4218H224.249C223.668 81.7487 222.797 83.003 221.636 84.1848C220.475 85.3666 218.982 86.3307 217.158 87.0771C215.333 87.8235 213.156 88.1967 210.627 88.1967C207.04 88.1967 203.775 87.3673 200.831 85.7087C197.907 84.0293 195.575 81.4688 193.833 78.0271C192.112 74.5647 191.252 70.19 191.252 64.9031C191.252 59.4918 192.133 54.972 193.895 51.3437C195.658 47.7154 198.001 44.9994 200.924 43.1956C203.868 41.3918 207.092 40.4899 210.596 40.4899C213.27 40.4899 215.51 40.9461 217.313 41.8583C219.117 42.7498 220.568 43.8694 221.667 45.2171C222.787 46.544 223.647 47.8502 224.249 49.1356H224.746V41.1119H237.901V89.3474C237.901 93.411 236.906 96.8112 234.916 99.548C232.925 102.285 230.168 104.337 226.643 105.706C223.139 107.095 219.107 107.789 214.545 107.789ZM214.825 78.2448C216.961 78.2448 218.765 77.7161 220.237 76.6587C221.729 75.5806 222.87 74.0464 223.658 72.056C224.466 70.0449 224.871 67.6399 224.871 64.8409C224.871 62.0419 224.477 59.6162 223.689 57.5636C222.901 55.4903 221.761 53.8835 220.268 52.7432C218.775 51.6028 216.961 51.0327 214.825 51.0327C212.648 51.0327 210.814 51.6236 209.321 52.8054C207.828 53.9664 206.698 55.5836 205.931 57.6569C205.164 59.7302 204.78 62.1249 204.78 64.8409C204.78 67.5984 205.164 69.9827 205.931 71.9938C206.719 73.9842 207.849 75.5288 209.321 76.6276C210.814 77.7057 212.648 78.2448 214.825 78.2448ZM265.835 89.8138C260.921 89.8138 256.692 88.8187 253.146 86.8283C249.622 84.8172 246.906 81.9768 244.998 78.307C243.091 74.6165 242.137 70.2522 242.137 65.2141C242.137 60.3004 243.091 55.9879 244.998 52.2767C246.906 48.5655 249.591 45.6732 253.053 43.5999C256.536 41.5266 260.621 40.4899 265.306 40.4899C268.458 40.4899 271.391 40.9979 274.107 42.0138C276.844 43.009 279.228 44.5121 281.26 46.5232C283.313 48.5344 284.909 51.0638 286.05 54.1115C287.19 57.1386 287.76 60.6839 287.76 64.7476V68.3862H247.424V60.176H275.289C275.289 58.2685 274.874 56.5788 274.045 55.1067C273.216 53.6347 272.065 52.484 270.593 51.6547C269.142 50.8046 267.452 50.3796 265.524 50.3796C263.513 50.3796 261.73 50.8461 260.175 51.7791C258.641 52.6913 257.438 53.9249 256.567 55.4799C255.696 57.0142 255.251 58.7246 255.23 60.6114V68.4173C255.23 70.7809 255.665 72.8231 256.536 74.544C257.428 76.2648 258.682 77.5917 260.299 78.5247C261.916 79.4577 263.834 79.9242 266.053 79.9242C267.525 79.9242 268.872 79.7169 270.096 79.3022C271.319 78.8875 272.366 78.2655 273.237 77.4362C274.107 76.6069 274.771 75.591 275.227 74.3885L287.48 75.1971C286.858 78.1411 285.583 80.712 283.655 82.9097C281.747 85.0867 279.28 86.7868 276.253 88.0101C273.247 89.2126 269.774 89.8138 265.835 89.8138ZM305.275 61.2644V88.8809H292.027V41.1119H304.653V49.5399H305.213C306.271 46.7617 308.043 44.564 310.531 42.9468C313.019 41.3089 316.036 40.4899 319.581 40.4899C322.898 40.4899 325.791 41.2156 328.258 42.6669C330.725 44.1182 332.643 46.1915 334.011 48.8868C335.38 51.5614 336.064 54.7543 336.064 58.4655V88.8809H322.816V60.8291C322.836 57.9057 322.09 55.6251 320.576 53.9871C319.063 52.3285 316.979 51.4992 314.325 51.4992C312.542 51.4992 310.967 51.8827 309.598 52.6499C308.251 53.417 307.193 54.5366 306.426 56.0086C305.68 57.4599 305.296 59.2119 305.275 61.2644ZM363.71 89.8138C358.817 89.8138 354.608 88.7772 351.083 86.7039C347.58 84.6099 344.884 81.7072 342.998 77.996C341.132 74.2848 340.199 70.0138 340.199 65.183C340.199 60.29 341.142 55.9983 343.029 52.3078C344.936 48.5966 347.642 45.7043 351.146 43.631C354.65 41.537 358.817 40.4899 363.648 40.4899C367.815 40.4899 371.464 41.2467 374.595 42.7602C377.725 44.2737 380.203 46.3989 382.028 49.1356C383.852 51.8724 384.858 55.086 385.044 58.7765H372.542C372.19 56.3922 371.257 54.4744 369.743 53.0231C368.25 51.551 366.291 50.815 363.865 50.815C361.813 50.815 360.019 51.3748 358.485 52.4944C356.972 53.5932 355.79 55.2 354.94 57.3148C354.09 59.4296 353.665 61.9901 353.665 64.9964C353.665 68.0441 354.079 70.6358 354.909 72.7713C355.759 74.9068 356.951 76.5343 358.485 77.6539C360.019 78.7735 361.813 79.3333 363.865 79.3333C365.379 79.3333 366.737 79.0223 367.939 78.4003C369.163 77.7783 370.168 76.8764 370.956 75.6946C371.765 74.4921 372.293 73.0512 372.542 71.3718H385.044C384.837 75.0208 383.842 78.2344 382.059 81.0127C380.296 83.7702 377.86 85.9264 374.75 87.4814C371.64 89.0364 367.96 89.8138 363.71 89.8138ZM397.327 106.794C395.648 106.794 394.072 106.659 392.6 106.39C391.149 106.141 389.946 105.82 388.992 105.426L391.978 95.5362C393.533 96.013 394.932 96.2722 396.176 96.3137C397.441 96.3551 398.529 96.0649 399.442 95.4429C400.375 94.8209 401.131 93.7635 401.712 92.2707L402.489 90.2492L385.354 41.1119H399.286L409.176 76.1922H409.673L419.656 41.1119H433.682L415.116 94.0434C414.224 96.6143 413.012 98.8535 411.477 100.761C409.964 102.689 408.046 104.171 405.724 105.208C403.402 106.266 400.603 106.794 397.327 106.794ZM441.121 88.8809H433.035L456.422 25.1889H464.384L487.771 88.8809H479.685L460.652 35.2652H460.154L441.121 88.8809ZM444.107 64.0012H476.699V70.8431H444.107V64.0012ZM492.831 88.8809V41.1119H500.17V88.8809H492.831ZM496.563 33.1504C495.132 33.1504 493.898 32.6632 492.862 31.6888C491.846 30.7143 491.338 29.5429 491.338 28.1745C491.338 26.8061 491.846 25.6347 492.862 24.6603C493.898 23.6858 495.132 23.1986 496.563 23.1986C497.993 23.1986 499.216 23.6858 500.232 24.6603C501.269 25.6347 501.787 26.8061 501.787 28.1745C501.787 29.5429 501.269 30.7143 500.232 31.6888C499.216 32.6632 497.993 33.1504 496.563 33.1504Z" fill="#333333"/>
<defs>
<linearGradient id="paint0_linear_658_6342" x1="53.2696" y1="0.308593" x2="121.382" y2="180.217" gradientUnits="userSpaceOnUse">
<stop offset="0.1875" stop-color="#AB3ADD"/>
<stop offset="1" stop-color="#3B57F4"/>
</linearGradient>
</defs>
</svg>
