<svg xmlns="http://www.w3.org/2000/svg" width="73" height="73" viewBox="0 0 73 73" fill="none">
  <g clip-path="url(#clip0_1178_12596)">
    <path d="M41.2222 6.35655C41.2222 7.68855 40.6432 8.88555 39.7222 9.71055V15.3565H54.7222C57.1091 15.3565 59.3983 16.3048 61.0861 17.9926C62.774 19.6804 63.7222 21.9696 63.7222 24.3565V54.3565C63.7222 56.7435 62.774 59.0327 61.0861 60.7205C59.3983 62.4083 57.1091 63.3565 54.7222 63.3565H18.7222C16.3352 63.3565 14.046 62.4083 12.3582 60.7205C10.6704 59.0327 9.72217 56.7435 9.72217 54.3565V24.3565C9.72217 21.9696 10.6704 19.6804 12.3582 17.9926C14.046 16.3048 16.3352 15.3565 18.7222 15.3565H33.7222V9.71055C33.1627 9.21013 32.7373 8.5777 32.4846 7.87085C32.232 7.164 32.1603 6.40518 32.2758 5.6635C32.3914 4.92182 32.6907 4.22084 33.1464 3.62438C33.6022 3.02792 34.1999 2.55494 34.8851 2.24851C35.5703 1.94207 36.3213 1.81191 37.0697 1.86989C37.8181 1.92786 38.5401 2.17213 39.17 2.58044C39.7998 2.98876 40.3176 3.54815 40.676 4.20767C41.0344 4.8672 41.2222 5.60592 41.2222 6.35655ZM0.722168 30.3565H6.72217V48.3565H0.722168V30.3565ZM72.7222 30.3565H66.7222V48.3565H72.7222V30.3565ZM27.7222 43.8565C28.9156 43.8565 30.0602 43.3824 30.9041 42.5385C31.7481 41.6946 32.2222 40.55 32.2222 39.3565C32.2222 38.1631 31.7481 37.0185 30.9041 36.1746C30.0602 35.3307 28.9156 34.8565 27.7222 34.8565C26.5287 34.8565 25.3841 35.3307 24.5402 36.1746C23.6963 37.0185 23.2222 38.1631 23.2222 39.3565C23.2222 40.55 23.6963 41.6946 24.5402 42.5385C25.3841 43.3824 26.5287 43.8565 27.7222 43.8565ZM50.2222 39.3565C50.2222 38.1631 49.7481 37.0185 48.9041 36.1746C48.0602 35.3307 46.9156 34.8565 45.7222 34.8565C44.5287 34.8565 43.3841 35.3307 42.5402 36.1746C41.6963 37.0185 41.2222 38.1631 41.2222 39.3565C41.2222 40.55 41.6963 41.6946 42.5402 42.5385C43.3841 43.3824 44.5287 43.8565 45.7222 43.8565C46.9156 43.8565 48.0602 43.3824 48.9041 42.5385C49.7481 41.6946 50.2222 40.55 50.2222 39.3565Z" fill="#3B57F4"/>
  </g>
  <defs>
    <clipPath id="clip0_1178_12596">
      <rect width="72" height="72" fill="white" transform="translate(0.722168 0.356445)"/>
    </clipPath>
  </defs>
</svg>