<svg width="165" height="211" viewBox="0 0 165 211" fill="none" xmlns="http://www.w3.org/2000/svg">
<rect x="27.748" y="165.013" width="109.611" height="39.5631" fill="#7B7B7B"/>
<rect x="27.748" y="165.013" width="109.611" height="39.5631" fill="url(#paint0_linear_1178_11602)"/>
<rect x="20.0586" y="204.575" width="124.99" height="6.31748" fill="#AE7018"/>
<rect x="55.9893" y="110.308" width="53.1303" height="54.7051" fill="#D9D9D9"/>
<rect x="55.9893" y="110.308" width="53.1303" height="54.7051" fill="url(#paint1_radial_1178_11602)"/>
<path d="M88.3008 23.1718L82.5546 13.6235L76.8084 23.1718L58.4278 53.714L23.7004 61.757L12.8438 64.2714L20.149 72.6869L43.5166 99.606L40.4345 135.119L39.471 146.221L49.732 141.874L82.5546 127.969L115.377 141.874L125.638 146.221L124.675 135.119L121.593 99.606L144.96 72.6869L152.265 64.2714L141.409 61.757L106.681 53.714L88.3008 23.1718Z" fill="url(#paint2_linear_1178_11602)"/>
<path d="M88.3008 23.1718L82.5546 13.6235L76.8084 23.1718L58.4278 53.714L23.7004 61.757L12.8438 64.2714L20.149 72.6869L43.5166 99.606L40.4345 135.119L39.471 146.221L49.732 141.874L82.5546 127.969L115.377 141.874L125.638 146.221L124.675 135.119L121.593 99.606L144.96 72.6869L152.265 64.2714L141.409 61.757L106.681 53.714L88.3008 23.1718Z" stroke="black" stroke-width="13.4131"/>
<path d="M88.3008 23.1718L82.5546 13.6235L76.8084 23.1718L58.4278 53.714L23.7004 61.757L12.8438 64.2714L20.149 72.6869L43.5166 99.606L40.4345 135.119L39.471 146.221L49.732 141.874L82.5546 127.969L115.377 141.874L125.638 146.221L124.675 135.119L121.593 99.606L144.96 72.6869L152.265 64.2714L141.409 61.757L106.681 53.714L88.3008 23.1718Z" stroke="url(#paint3_linear_1178_11602)" stroke-width="13.4131"/>
<path d="M88.3008 23.1718L82.5546 13.6235L76.8084 23.1718L58.4278 53.714L23.7004 61.757L12.8438 64.2714L20.149 72.6869L43.5166 99.606L40.4345 135.119L39.471 146.221L49.732 141.874L82.5546 127.969L115.377 141.874L125.638 146.221L124.675 135.119L121.593 99.606L144.96 72.6869L152.265 64.2714L141.409 61.757L106.681 53.714L88.3008 23.1718Z" stroke="url(#paint4_linear_1178_11602)" stroke-width="13.4131"/>
<path d="M54.8224 98.499V94.5122L63.1881 87.188C63.8152 86.6206 64.3491 86.1017 64.7896 85.6313C65.2301 85.1535 65.566 84.6757 65.7975 84.1978C66.0289 83.7125 66.1447 83.1862 66.1447 82.6188C66.1447 81.9841 66.0065 81.4429 65.7303 80.9949C65.454 80.5395 65.0733 80.1886 64.588 79.9422C64.1027 79.6958 63.5465 79.5726 62.9193 79.5726C62.2847 79.5726 61.7285 79.7033 61.2507 79.9646C60.7728 80.2184 60.3995 80.588 60.1308 81.0733C59.8694 81.5586 59.7388 82.1484 59.7388 82.8427H54.4864C54.4864 81.2823 54.8373 79.9347 55.5391 78.7999C56.241 77.665 57.2265 76.7915 58.4957 76.1793C59.7724 75.5596 61.2544 75.2498 62.9417 75.2498C64.6813 75.2498 66.1932 75.541 67.4773 76.1233C68.7615 76.7057 69.7545 77.5195 70.4563 78.5647C71.1656 79.6025 71.5202 80.8082 71.5202 82.182C71.5202 83.0555 71.3447 83.9216 70.9938 84.7802C70.6429 85.6388 70.0121 86.587 69.1012 87.6247C68.1978 88.6625 66.9137 89.9056 65.2487 91.354L62.505 93.885V94.0306H71.8002V98.499H54.8224ZM80.4542 88.6887V98.499H74.9779V81.2973H80.1855V84.4554H80.3758C80.7566 83.4027 81.4062 82.5777 82.3245 81.9804C83.2428 81.3757 84.3366 81.0733 85.6058 81.0733C86.8153 81.0733 87.8643 81.3458 88.7527 81.8908C89.6487 82.4284 90.343 83.1824 90.8358 84.153C91.336 85.1162 91.5824 86.2435 91.5749 87.5351V98.499H86.0986V88.6103C86.106 87.6546 85.8634 86.908 85.3706 86.3704C84.8853 85.8329 84.2097 85.5641 83.3436 85.5641C82.7687 85.5641 82.261 85.691 81.8205 85.9449C81.3875 86.1913 81.0515 86.5459 80.8126 87.0088C80.5812 87.4717 80.4617 88.0316 80.4542 88.6887ZM101.248 98.7454C99.9789 98.7454 98.8254 98.4169 97.7876 97.7599C96.7498 97.1029 95.9211 96.1174 95.3014 94.8033C94.6817 93.4893 94.3719 91.858 94.3719 89.9093C94.3719 87.8861 94.6929 86.2211 95.335 84.9146C95.9771 83.608 96.817 82.6412 97.8548 82.014C98.9 81.3869 100.024 81.0733 101.226 81.0733C102.129 81.0733 102.902 81.2301 103.544 81.5437C104.186 81.8498 104.716 82.2455 105.134 82.7308C105.552 83.216 105.87 83.72 106.086 84.2426H106.198V75.5634H111.674V98.499H106.254V95.7105H106.086C105.855 96.2405 105.526 96.737 105.101 97.1999C104.675 97.6628 104.141 98.0361 103.499 98.3198C102.864 98.6035 102.114 98.7454 101.248 98.7454ZM103.152 94.4786C103.816 94.4786 104.384 94.2919 104.854 93.9186C105.325 93.5378 105.687 93.004 105.94 92.3171C106.194 91.6303 106.321 90.8239 106.321 89.8981C106.321 88.9574 106.194 88.1474 105.94 87.468C105.694 86.7885 105.332 86.2659 104.854 85.9001C104.384 85.5343 103.816 85.3513 103.152 85.3513C102.473 85.3513 101.898 85.538 101.427 85.9113C100.957 86.2846 100.599 86.8109 100.352 87.4904C100.113 88.1698 99.9938 88.9724 99.9938 89.8981C99.9938 90.8239 100.117 91.6303 100.363 92.3171C100.61 93.004 100.964 93.5378 101.427 93.9186C101.898 94.2919 102.473 94.4786 103.152 94.4786Z" fill="#B06F12"/>
<defs>
<linearGradient id="paint0_linear_1178_11602" x1="168.346" y1="223.308" x2="27.748" y2="153.106" gradientUnits="userSpaceOnUse">
<stop offset="0.225797" stop-color="#BF8411"/>
<stop offset="0.550686" stop-color="#EABD57"/>
<stop offset="0.736895" stop-color="#D6B24D"/>
<stop offset="1" stop-color="#FFFCC2"/>
</linearGradient>
<radialGradient id="paint1_radial_1178_11602" cx="0" cy="0" r="1" gradientUnits="userSpaceOnUse" gradientTransform="translate(82.5544 116.317) rotate(122.551) scale(68.8157 72.9486)">
<stop stop-color="#BF8411"/>
<stop offset="0.460001" stop-color="#EABD57"/>
<stop offset="0.788195" stop-color="#D6B24D"/>
<stop offset="1" stop-color="#FFFCC2"/>
</radialGradient>
<linearGradient id="paint2_linear_1178_11602" x1="14.9213" y1="47.4248" x2="142.847" y2="153.191" gradientUnits="userSpaceOnUse">
<stop offset="0.0729167" stop-color="#E47800"/>
<stop offset="0.532439" stop-color="#F2F5AC"/>
<stop offset="0.813994" stop-color="#F4EEC6"/>
<stop offset="1" stop-color="#FDD180"/>
</linearGradient>
<linearGradient id="paint3_linear_1178_11602" x1="153.941" y1="164.1" x2="48.0405" y2="44.2032" gradientUnits="userSpaceOnUse">
<stop stop-color="#A76611"/>
<stop offset="0.307292" stop-color="#EABD57"/>
<stop offset="0.630208" stop-color="#D6B24D"/>
<stop offset="0.713542" stop-color="#FFEBB0"/>
<stop offset="1" stop-color="#FFFCC2"/>
</linearGradient>
<linearGradient id="paint4_linear_1178_11602" x1="142.847" y1="151.192" x2="47.9849" y2="11.5022" gradientUnits="userSpaceOnUse">
<stop offset="0.0762685" stop-color="#E47800"/>
<stop offset="0.670212" stop-color="#F2F5AC"/>
<stop offset="0.813994" stop-color="#F4EEC6"/>
<stop offset="1" stop-color="#FDD180"/>
</linearGradient>
</defs>
</svg>
