<svg width="75" height="75" viewBox="0 0 75 75" fill="none" xmlns="http://www.w3.org/2000/svg">
<path d="M46.7502 3.66797H28.2502V9.83464H46.7502V3.66797ZM59.1761 23.3705L63.5544 18.9921C62.2286 17.4196 60.7794 15.9396 59.2069 14.6446L54.8286 19.023C49.9178 15.0711 43.8036 12.917 37.5002 12.918C22.1761 12.918 9.75024 25.3438 9.75024 40.668C9.75024 55.9921 22.1452 68.418 37.5002 68.418C42.7244 68.4208 47.843 66.9479 52.2667 64.169C56.6904 61.3901 60.2392 57.4182 62.5043 52.7107C64.7695 48.0032 65.6588 42.7516 65.07 37.5607C64.4812 32.3699 62.4381 27.451 59.1761 23.3705ZM37.5002 62.2513C25.5677 62.2513 15.9169 52.6005 15.9169 40.668C15.9169 28.7355 25.5677 19.0846 37.5002 19.0846C49.4327 19.0846 59.0836 28.7355 59.0836 40.668C59.0836 52.6005 49.4327 62.2513 37.5002 62.2513ZM36.5136 46.8346H20.0794C20.9532 49.3053 22.3426 51.5618 24.1554 53.4543C25.9682 55.3468 28.1628 56.832 30.5936 57.8113L30.2544 57.6263L36.5136 46.8346ZM54.9211 34.5013C54.0602 32.0646 52.6993 29.8348 50.9258 27.9551C49.1523 26.0754 47.0053 24.5873 44.6227 23.5863L38.3019 34.5013H54.9211ZM33.2144 58.6438C34.6019 58.983 36.0202 59.168 37.5002 59.168C41.6319 59.168 45.4244 57.7805 48.5077 55.4988L42.0019 43.4738L33.2144 58.6438ZM23.7794 28.3038C20.7049 31.6879 19.0011 36.0958 19.0002 40.668C19.0002 41.7163 19.1236 42.7338 19.2777 43.7513H33.8311L23.7794 28.3038ZM50.8819 53.4021C54.174 49.9813 56.0091 45.4156 56.0002 40.668C56.0002 39.6196 55.8769 38.6021 55.7227 37.5846H42.3411L50.8819 53.4021ZM41.6011 22.6305C40.2752 22.353 38.9186 22.168 37.5002 22.168C33.1836 22.168 29.2061 23.6788 26.0611 26.1455L33.2144 37.1221L41.6011 22.6305Z" fill="white"/>
</svg>
