<svg xmlns="http://www.w3.org/2000/svg" width="73" height="73" viewBox="0 0 73 73" fill="none">
  <mask id="mask0_1178_12576" style="mask-type:luminance" maskUnits="userSpaceOnUse" x="2" y="1" width="70" height="70">
    <path d="M36.707 55.9502C47.477 55.9502 56.207 47.2202 56.207 36.4502C56.207 25.6802 47.477 16.9502 36.707 16.9502C25.937 16.9502 17.207 25.6802 17.207 36.4502C17.207 47.2202 25.937 55.9502 36.707 55.9502Z" fill="white" stroke="white" stroke-width="5.57414" stroke-linejoin="round"/>
    <path d="M36.707 9.45019C37.7016 9.45019 38.6554 9.05511 39.3587 8.35185C40.0619 7.64858 40.457 6.69476 40.457 5.7002C40.457 4.70563 40.0619 3.75181 39.3587 3.04854C38.6554 2.34528 37.7016 1.9502 36.707 1.9502C35.7125 1.9502 34.7586 2.34528 34.0554 3.04854C33.3521 3.75181 32.957 4.70563 32.957 5.7002C32.957 6.69476 33.3521 7.64858 34.0554 8.35185C34.7586 9.05511 35.7125 9.45019 36.707 9.45019ZM58.457 18.4502C59.4516 18.4502 60.4054 18.0551 61.1087 17.3518C61.8119 16.6486 62.207 15.6948 62.207 14.7002C62.207 13.7056 61.8119 12.7518 61.1087 12.0485C60.4054 11.3453 59.4516 10.9502 58.457 10.9502C57.4625 10.9502 56.5086 11.3453 55.8054 12.0485C55.1021 12.7518 54.707 13.7056 54.707 14.7002C54.707 15.6948 55.1021 16.6486 55.8054 17.3518C56.5086 18.0551 57.4625 18.4502 58.457 18.4502ZM67.457 40.2002C68.4516 40.2002 69.4054 39.8051 70.1087 39.1018C70.8119 38.3986 71.207 37.4448 71.207 36.4502C71.207 35.4556 70.8119 34.5018 70.1087 33.7985C69.4054 33.0953 68.4516 32.7002 67.457 32.7002C66.4625 32.7002 65.5086 33.0953 64.8054 33.7985C64.1021 34.5018 63.707 35.4556 63.707 36.4502C63.707 37.4448 64.1021 38.3986 64.8054 39.1018C65.5086 39.8051 66.4625 40.2002 67.457 40.2002ZM58.457 61.9502C59.4516 61.9502 60.4054 61.5551 61.1087 60.8518C61.8119 60.1486 62.207 59.1948 62.207 58.2002C62.207 57.2056 61.8119 56.2518 61.1087 55.5485C60.4054 54.8453 59.4516 54.4502 58.457 54.4502C57.4625 54.4502 56.5086 54.8453 55.8054 55.5485C55.1021 56.2518 54.707 57.2056 54.707 58.2002C54.707 59.1948 55.1021 60.1486 55.8054 60.8518C56.5086 61.5551 57.4625 61.9502 58.457 61.9502ZM36.707 70.9502C37.7016 70.9502 38.6554 70.5551 39.3587 69.8518C40.0619 69.1486 40.457 68.1948 40.457 67.2002C40.457 66.2056 40.0619 65.2518 39.3587 64.5485C38.6554 63.8453 37.7016 63.4502 36.707 63.4502C35.7125 63.4502 34.7586 63.8453 34.0554 64.5485C33.3521 65.2518 32.957 66.2056 32.957 67.2002C32.957 68.1948 33.3521 69.1486 34.0554 69.8518C34.7586 70.5551 35.7125 70.9502 36.707 70.9502ZM14.957 61.9502C15.9516 61.9502 16.9054 61.5551 17.6087 60.8518C18.3119 60.1486 18.707 59.1948 18.707 58.2002C18.707 57.2056 18.3119 56.2518 17.6087 55.5485C16.9054 54.8453 15.9516 54.4502 14.957 54.4502C13.9625 54.4502 13.0086 54.8453 12.3054 55.5485C11.6021 56.2518 11.207 57.2056 11.207 58.2002C11.207 59.1948 11.6021 60.1486 12.3054 60.8518C13.0086 61.5551 13.9625 61.9502 14.957 61.9502ZM5.95703 40.2002C6.95159 40.2002 7.90542 39.8051 8.60868 39.1018C9.31194 38.3986 9.70703 37.4448 9.70703 36.4502C9.70703 35.4556 9.31194 34.5018 8.60868 33.7985C7.90542 33.0953 6.95159 32.7002 5.95703 32.7002C4.96247 32.7002 4.00864 33.0953 3.30538 33.7985C2.60212 34.5018 2.20703 35.4556 2.20703 36.4502C2.20703 37.4448 2.60212 38.3986 3.30538 39.1018C4.00864 39.8051 4.96247 40.2002 5.95703 40.2002ZM14.957 18.4502C15.9516 18.4502 16.9054 18.0551 17.6087 17.3518C18.3119 16.6486 18.707 15.6948 18.707 14.7002C18.707 13.7056 18.3119 12.7518 17.6087 12.0485C16.9054 11.3453 15.9516 10.9502 14.957 10.9502C13.9625 10.9502 13.0086 11.3453 12.3054 12.0485C11.6021 12.7518 11.207 13.7056 11.207 14.7002C11.207 15.6948 11.6021 16.6486 12.3054 17.3518C13.0086 18.0551 13.9625 18.4502 14.957 18.4502Z" fill="white"/>
  </mask>
  <g mask="url(#mask0_1178_12576)">
    <path d="M1.27686 0.445312H73.2769V72.4453H1.27686V0.445312Z" fill="#AB3ADD"/>
  </g>
</svg>