<svg width="76" height="77" viewBox="0 0 76 77" fill="none" xmlns="http://www.w3.org/2000/svg">
<g clip-path="url(#clip0_1178_11000)">
<path d="M25.9616 58.8026L29.3972 44.8059L18.4636 35.7232L32.7204 34.5819L38.0956 21.4604L43.4707 34.5819L57.7275 35.7232L46.7939 44.8059L50.2295 58.8026L38.0956 51.1272L25.9616 58.8026Z" fill="#C2CCFF"/>
<path d="M6.55792 17.7349C8.24319 18.7165 9.90481 19.7395 11.6137 20.6915C13.9554 22.0042 16.3207 23.3761 18.7983 24.3991C19.6676 24.7598 20.3653 24.133 20.7142 23.3939C21.0927 22.5837 20.6492 22.0338 20.2766 21.3183C19.3069 19.4675 18.3785 17.593 17.2668 15.8249C16.1433 14.0273 15.2799 12.0523 13.9554 10.3847L13.8371 10.2428C13.1807 9.41496 12.3647 8.28553 11.1939 8.38014C10.0586 8.47475 9.35488 9.42678 8.54476 10.1245C7.17881 11.2954 6.1026 12.821 5.20378 14.3643C4.82534 15.0207 4.39958 15.9018 4.91995 16.6232C5.2984 17.1317 6.02572 17.4274 6.55792 17.7349ZM14.4521 53.3503C12.5599 53.7879 10.6499 54.1841 8.78721 54.7754C6.91271 55.3667 4.92586 55.6801 3.10458 56.4843L2.95675 56.5553C2.05203 56.9515 0.839814 57.4245 0.656504 58.5007C0.473194 59.5533 1.17096 60.4048 1.60854 61.2977C2.34178 62.8056 3.46529 64.1361 4.64794 65.3069C5.15648 65.8095 5.84833 66.3949 6.61705 66.0874C7.17289 65.8746 7.61047 65.2773 8.00075 64.8752C9.28392 63.5861 10.6026 62.3207 11.8562 61.008C13.5947 59.2044 15.3805 57.395 16.8883 55.4022C17.4146 54.6985 17.0184 53.9239 16.4271 53.439C15.7885 52.9127 15.1853 53.1847 14.4521 53.3503ZM57.3999 24.3991C59.8776 23.3702 62.237 21.9983 64.5845 20.6915C66.2875 19.7395 67.9551 18.7165 69.6462 17.7349C70.1725 17.4274 70.9058 17.1317 71.2783 16.6173C71.8046 15.8959 71.3788 15.0207 70.9945 14.3584C70.1016 12.8151 69.0194 11.2895 67.6535 10.1186C66.8434 9.42087 66.1456 8.46884 65.0044 8.37423C63.8395 8.27962 63.0175 9.40904 62.3611 10.2369L62.2429 10.3788C60.9124 12.0523 60.055 14.0214 58.9255 15.819C57.8198 17.593 56.8855 19.4616 55.9157 21.3124C55.5432 22.0338 55.0997 22.5837 55.4781 23.3879C55.827 24.133 56.5307 24.7598 57.3999 24.3991ZM73.2474 56.5612L73.0937 56.4902C71.2783 55.6801 69.2915 55.3726 67.411 54.7813C65.5484 54.19 63.6443 53.7938 61.7462 53.3562C61.007 53.1907 60.4039 52.9187 59.7652 53.4508C59.1798 53.9357 58.7777 54.7104 59.304 55.414C60.8119 57.4068 62.6095 59.2163 64.3362 61.0198C65.5957 62.3325 66.9084 63.598 68.1916 64.8871C68.5878 65.2951 69.0254 65.8864 69.5812 66.0993C70.3499 66.4067 71.0418 65.8154 71.5503 65.3187C72.733 64.1479 73.8624 62.8174 74.5956 61.3095C75.0332 60.4107 75.7251 59.5592 75.5477 58.5126C75.3584 57.4305 74.1521 56.9574 73.2474 56.5612Z" fill="#AB3ADD"/>
<path d="M53.1533 46.8991L69.0244 33.7185C69.5329 33.2986 69.734 32.6127 69.5329 31.9859C69.4348 31.6794 69.2483 31.4087 68.9969 31.2077C68.7455 31.0068 68.4403 30.8846 68.1197 30.8565L47.4056 29.2067L39.6001 10.1483C39.477 9.85116 39.2687 9.59711 39.0014 9.41821C38.7341 9.23931 38.4198 9.14357 38.0981 9.14307C37.4418 9.14307 36.8445 9.53925 36.5962 10.1483L28.7907 29.2067L8.07663 30.8565C7.41435 30.9097 6.86442 31.3532 6.66337 31.9859C6.46232 32.6186 6.66337 33.2986 7.17191 33.7185L23.049 46.8991L18.0582 67.2229C17.9044 67.8615 18.1528 68.5356 18.685 68.9259C19.2231 69.3103 19.9445 69.3339 20.5003 68.9791L38.0981 57.8386L55.6959 68.9732C56.2518 69.3221 56.9732 69.3044 57.5113 68.92C58.0435 68.5356 58.2978 67.8615 58.1381 67.217L53.1533 46.8991ZM25.9642 58.8024L29.4057 44.8058L18.4662 35.7231L32.723 34.5818L38.0981 21.4603L43.4733 34.5818L57.7301 35.7231L46.7965 44.8058L50.2321 58.8024L38.0981 51.1271L25.9642 58.8024Z" fill="#AB3ADD"/>
</g>
<defs>
<clipPath id="clip0_1178_11000">
<rect width="75.6895" height="75.6895" fill="white" transform="translate(0.251953 0.953125)"/>
</clipPath>
</defs>
</svg>
