<svg width="303" height="165" viewBox="0 0 303 165" fill="none" xmlns="http://www.w3.org/2000/svg">
<path d="M275.959 162.593C276.335 163.922 277.717 164.693 279.046 164.317L300.693 158.181C302.022 157.804 302.793 156.422 302.417 155.094C302.04 153.766 300.658 152.994 299.33 153.37L280.088 158.824L274.634 139.582C274.257 138.254 272.875 137.482 271.547 137.859C270.218 138.236 269.447 139.618 269.823 140.946L275.959 162.593ZM0.818848 15.7304C1.47789 18.142 1.47783 18.142 1.47776 18.142C1.47775 18.142 1.4777 18.142 1.47767 18.142C1.47763 18.1421 1.4776 18.1421 1.47761 18.1421C1.47762 18.1421 1.47773 18.142 1.47795 18.142C1.47839 18.1418 1.47924 18.1416 1.48052 18.1413C1.48306 18.1406 1.48726 18.1394 1.49313 18.1378C1.50486 18.1347 1.52322 18.1297 1.54816 18.123C1.59805 18.1096 1.67424 18.0892 1.77632 18.0622C1.98046 18.0081 2.2881 17.9276 2.69575 17.8234C3.51104 17.6149 4.72627 17.3116 6.31346 16.9357L5.16099 12.0703C3.54391 12.4533 2.29995 12.7637 1.45713 12.9792C1.03571 13.087 0.714554 13.171 0.497171 13.2286C0.388479 13.2573 0.305728 13.2795 0.249354 13.2946C0.221167 13.3022 0.199575 13.308 0.184631 13.3121C0.177159 13.3141 0.17135 13.3157 0.16721 13.3168C0.165139 13.3174 0.163486 13.3178 0.162251 13.3182C0.161634 13.3183 0.161121 13.3185 0.160713 13.3186C0.160509 13.3187 0.160331 13.3187 0.160179 13.3187C0.160103 13.3188 0.160009 13.3188 0.159971 13.3188C0.159883 13.3188 0.159802 13.3188 0.818848 15.7304ZM21.2266 13.763C24.2557 13.1812 27.5941 12.5741 31.2142 11.9639L30.383 7.03342C26.7239 7.65028 23.3482 8.26408 20.2834 8.85281L21.2266 13.763ZM46.2797 9.67222C49.5078 9.23317 52.8756 8.808 56.3711 8.40599L55.7999 3.43873C52.2689 3.84481 48.867 4.2743 45.6059 4.71783L46.2797 9.67222ZM71.5518 6.89776C74.8599 6.62088 78.2512 6.37094 81.7182 6.15396L81.4059 1.16372C77.9028 1.38296 74.4766 1.63547 71.1348 1.91518L71.5518 6.89776ZM96.9314 5.44588C100.271 5.34458 103.664 5.27768 107.105 5.24972L107.064 0.249884C103.585 0.278154 100.155 0.345787 96.7798 0.448181L96.9314 5.44588ZM122.336 5.3869C125.688 5.47547 129.074 5.60417 132.491 5.77676L132.743 0.783126C129.286 0.608462 125.859 0.478243 122.468 0.388647L122.336 5.3869ZM147.702 6.83096C151.049 7.12722 154.418 7.46877 157.803 7.85887L158.376 2.89173C154.945 2.49645 151.533 2.15047 148.143 1.85043L147.702 6.83096ZM172.884 9.91284C176.208 10.4372 179.543 11.0118 182.883 11.6395L183.807 6.72556C180.417 6.08851 177.034 5.50565 173.663 4.9739L172.884 9.91284ZM197.773 14.7928C201.05 15.5673 204.327 16.3969 207.602 17.2844L208.91 12.4585C205.582 11.5565 202.252 10.7136 198.923 9.92686L197.773 14.7928ZM222.16 21.6306C223.766 22.1556 225.369 22.6956 226.97 23.251L228.609 18.5273C226.979 17.962 225.348 17.4124 223.715 16.8783L222.16 21.6306ZM226.97 23.251C228.578 23.8088 230.147 24.3809 231.679 24.9669L233.465 20.2966C231.883 19.6917 230.265 19.1017 228.609 18.5273L226.97 23.251ZM245.051 30.8822C248.079 32.4274 250.921 34.0362 253.585 35.701L256.234 31.4605C253.443 29.7164 250.476 28.0369 247.324 26.4286L245.051 30.8822ZM265.332 44.3228C267.874 46.5218 270.185 48.785 272.286 51.1001L275.989 47.7406C273.751 45.2738 271.295 42.87 268.604 40.5418L265.332 44.3228ZM280.903 62.7124C282.583 65.5313 284.022 68.3975 285.247 71.2932L289.852 69.3456C288.541 66.2445 286.998 63.1737 285.199 60.1534L280.903 62.7124ZM289.529 85.1311C290.188 88.3291 290.64 91.532 290.913 94.7172L295.895 94.2897C295.606 90.9219 295.128 87.5239 294.426 84.1213L289.529 85.1311ZM291.011 109.316C290.788 112.63 290.411 115.879 289.92 119.032L294.86 119.802C295.372 116.517 295.766 113.123 296 109.652L291.011 109.316ZM286.814 133.406C285.89 136.769 284.891 139.914 283.886 142.788L288.606 144.438C289.644 141.467 290.679 138.213 291.635 134.731L286.814 133.406ZM278.344 156.389C277.682 157.79 277.136 158.877 276.757 159.608C276.568 159.974 276.421 160.25 276.323 160.433C276.274 160.524 276.237 160.592 276.213 160.635C276.201 160.657 276.192 160.673 276.187 160.682C276.184 160.687 276.183 160.69 276.182 160.692C276.181 160.693 276.181 160.694 276.181 160.694C276.181 160.694 276.181 160.694 276.181 160.693C276.181 160.693 276.181 160.693 276.181 160.693C276.181 160.693 276.181 160.693 276.181 160.693C276.181 160.693 276.181 160.693 278.364 161.911C280.547 163.13 280.547 163.13 280.547 163.13C280.547 163.13 280.547 163.13 280.547 163.13C280.547 163.129 280.548 163.129 280.548 163.129C280.548 163.128 280.548 163.128 280.549 163.127C280.55 163.126 280.551 163.124 280.552 163.121C280.554 163.117 280.558 163.111 280.562 163.103C280.57 163.088 280.582 163.067 280.597 163.04C280.627 162.985 280.67 162.906 280.725 162.803C280.836 162.597 280.996 162.297 281.198 161.906C281.602 161.125 282.176 159.984 282.866 158.523L278.344 156.389Z" fill="#C6C6C6"/>
<path d="M275.959 162.593C276.335 163.922 277.717 164.693 279.046 164.317L300.693 158.181C302.022 157.804 302.793 156.422 302.417 155.094C302.04 153.766 300.658 152.994 299.33 153.37L280.088 158.824L274.634 139.582C274.257 138.254 272.875 137.482 271.547 137.859C270.218 138.236 269.447 139.618 269.823 140.946L275.959 162.593ZM0.818848 15.7304C1.47789 18.142 1.47783 18.142 1.47776 18.142C1.47775 18.142 1.4777 18.142 1.47767 18.142C1.47763 18.1421 1.4776 18.1421 1.47761 18.1421C1.47762 18.1421 1.47773 18.142 1.47795 18.142C1.47839 18.1418 1.47924 18.1416 1.48052 18.1413C1.48306 18.1406 1.48726 18.1394 1.49313 18.1378C1.50486 18.1347 1.52322 18.1297 1.54816 18.123C1.59805 18.1096 1.67424 18.0892 1.77632 18.0622C1.98046 18.0081 2.2881 17.9276 2.69575 17.8234C3.51104 17.6149 4.72627 17.3116 6.31346 16.9357L5.16099 12.0703C3.54391 12.4533 2.29995 12.7637 1.45713 12.9792C1.03571 13.087 0.714554 13.171 0.497171 13.2286C0.388479 13.2573 0.305728 13.2795 0.249354 13.2946C0.221167 13.3022 0.199575 13.308 0.184631 13.3121C0.177159 13.3141 0.17135 13.3157 0.16721 13.3168C0.165139 13.3174 0.163486 13.3178 0.162251 13.3182C0.161634 13.3183 0.161121 13.3185 0.160713 13.3186C0.160509 13.3187 0.160331 13.3187 0.160179 13.3187C0.160103 13.3188 0.160009 13.3188 0.159971 13.3188C0.159883 13.3188 0.159802 13.3188 0.818848 15.7304ZM21.2266 13.763C24.2557 13.1812 27.5941 12.5741 31.2142 11.9639L30.383 7.03342C26.7239 7.65028 23.3482 8.26408 20.2834 8.85281L21.2266 13.763ZM46.2797 9.67222C49.5078 9.23317 52.8756 8.808 56.3711 8.40599L55.7999 3.43873C52.2689 3.84481 48.867 4.2743 45.6059 4.71783L46.2797 9.67222ZM71.5518 6.89776C74.8599 6.62088 78.2512 6.37094 81.7182 6.15396L81.4059 1.16372C77.9028 1.38296 74.4766 1.63547 71.1348 1.91518L71.5518 6.89776ZM96.9314 5.44588C100.271 5.34458 103.664 5.27768 107.105 5.24972L107.064 0.249884C103.585 0.278154 100.155 0.345787 96.7798 0.448181L96.9314 5.44588ZM122.336 5.3869C125.688 5.47547 129.074 5.60417 132.491 5.77676L132.743 0.783126C129.286 0.608462 125.859 0.478243 122.468 0.388647L122.336 5.3869ZM147.702 6.83096C151.049 7.12722 154.418 7.46877 157.803 7.85887L158.376 2.89173C154.945 2.49645 151.533 2.15047 148.143 1.85043L147.702 6.83096ZM172.884 9.91284C176.208 10.4372 179.543 11.0118 182.883 11.6395L183.807 6.72556C180.417 6.08851 177.034 5.50565 173.663 4.9739L172.884 9.91284ZM197.773 14.7928C201.05 15.5673 204.327 16.3969 207.602 17.2844L208.91 12.4585C205.582 11.5565 202.252 10.7136 198.923 9.92686L197.773 14.7928ZM222.16 21.6306C223.766 22.1556 225.369 22.6956 226.97 23.251L228.609 18.5273C226.979 17.962 225.348 17.4124 223.715 16.8783L222.16 21.6306ZM226.97 23.251C228.578 23.8088 230.147 24.3809 231.679 24.9669L233.465 20.2966C231.883 19.6917 230.265 19.1017 228.609 18.5273L226.97 23.251ZM245.051 30.8822C248.079 32.4274 250.921 34.0362 253.585 35.701L256.234 31.4605C253.443 29.7164 250.476 28.0369 247.324 26.4286L245.051 30.8822ZM265.332 44.3228C267.874 46.5218 270.185 48.785 272.286 51.1001L275.989 47.7406C273.751 45.2738 271.295 42.87 268.604 40.5418L265.332 44.3228ZM280.903 62.7124C282.583 65.5313 284.022 68.3975 285.247 71.2932L289.852 69.3456C288.541 66.2445 286.998 63.1737 285.199 60.1534L280.903 62.7124ZM289.529 85.1311C290.188 88.3291 290.64 91.532 290.913 94.7172L295.895 94.2897C295.606 90.9219 295.128 87.5239 294.426 84.1213L289.529 85.1311ZM291.011 109.316C290.788 112.63 290.411 115.879 289.92 119.032L294.86 119.802C295.372 116.517 295.766 113.123 296 109.652L291.011 109.316ZM286.814 133.406C285.89 136.769 284.891 139.914 283.886 142.788L288.606 144.438C289.644 141.467 290.679 138.213 291.635 134.731L286.814 133.406ZM278.344 156.389C277.682 157.79 277.136 158.877 276.757 159.608C276.568 159.974 276.421 160.25 276.323 160.433C276.274 160.524 276.237 160.592 276.213 160.635C276.201 160.657 276.192 160.673 276.187 160.682C276.184 160.687 276.183 160.69 276.182 160.692C276.181 160.693 276.181 160.694 276.181 160.694C276.181 160.694 276.181 160.694 276.181 160.693C276.181 160.693 276.181 160.693 276.181 160.693C276.181 160.693 276.181 160.693 276.181 160.693C276.181 160.693 276.181 160.693 278.364 161.911C280.547 163.13 280.547 163.13 280.547 163.13C280.547 163.13 280.547 163.13 280.547 163.13C280.547 163.129 280.548 163.129 280.548 163.129C280.548 163.128 280.548 163.128 280.549 163.127C280.55 163.126 280.551 163.124 280.552 163.121C280.554 163.117 280.558 163.111 280.562 163.103C280.57 163.088 280.582 163.067 280.597 163.04C280.627 162.985 280.67 162.906 280.725 162.803C280.836 162.597 280.996 162.297 281.198 161.906C281.602 161.125 282.176 159.984 282.866 158.523L278.344 156.389Z" fill="url(#paint0_linear_1178_11430)"/>
<defs>
<linearGradient id="paint0_linear_1178_11430" x1="233.678" y1="19.579" x2="250.127" y2="98.2406" gradientUnits="userSpaceOnUse">
<stop offset="0.1875" stop-color="#AB3ADD"/>
<stop offset="1" stop-color="#3B57F4"/>
</linearGradient>
</defs>
</svg>
