<svg width="165" height="211" viewBox="0 0 165 211" fill="none" xmlns="http://www.w3.org/2000/svg">
<rect x="27.7375" y="165.013" width="109.611" height="39.5631" fill="#7B7B7B"/>
<rect x="27.7375" y="165.013" width="109.611" height="39.5631" fill="url(#paint0_linear_1178_11612)"/>
<rect x="20.0488" y="204.575" width="124.99" height="6.31748" fill="#AE7018"/>
<rect x="55.9795" y="110.308" width="53.1303" height="54.7051" fill="#D9D9D9"/>
<rect x="55.9795" y="110.308" width="53.1303" height="54.7051" fill="url(#paint1_radial_1178_11612)"/>
<path d="M88.291 23.1718L82.5448 13.6235L76.7986 23.1718L58.418 53.714L23.6906 61.757L12.8341 64.2714L20.1393 72.6869L43.5068 99.606L40.4247 135.119L39.4612 146.221L49.7223 141.874L82.5448 127.969L115.367 141.874L125.628 146.221L124.665 135.119L121.583 99.606L144.95 72.6869L152.256 64.2714L141.399 61.757L106.672 53.714L88.291 23.1718Z" fill="url(#paint2_linear_1178_11612)"/>
<path d="M88.291 23.1718L82.5448 13.6235L76.7986 23.1718L58.418 53.714L23.6906 61.757L12.8341 64.2714L20.1393 72.6869L43.5068 99.606L40.4247 135.119L39.4612 146.221L49.7223 141.874L82.5448 127.969L115.367 141.874L125.628 146.221L124.665 135.119L121.583 99.606L144.95 72.6869L152.256 64.2714L141.399 61.757L106.672 53.714L88.291 23.1718Z" stroke="black" stroke-width="13.4131"/>
<path d="M88.291 23.1718L82.5448 13.6235L76.7986 23.1718L58.418 53.714L23.6906 61.757L12.8341 64.2714L20.1393 72.6869L43.5068 99.606L40.4247 135.119L39.4612 146.221L49.7223 141.874L82.5448 127.969L115.367 141.874L125.628 146.221L124.665 135.119L121.583 99.606L144.95 72.6869L152.256 64.2714L141.399 61.757L106.672 53.714L88.291 23.1718Z" stroke="url(#paint3_linear_1178_11612)" stroke-width="13.4131"/>
<path d="M88.291 23.1718L82.5448 13.6235L76.7986 23.1718L58.418 53.714L23.6906 61.757L12.8341 64.2714L20.1393 72.6869L43.5068 99.606L40.4247 135.119L39.4612 146.221L49.7223 141.874L82.5448 127.969L115.367 141.874L125.628 146.221L124.665 135.119L121.583 99.606L144.95 72.6869L152.256 64.2714L141.399 61.757L106.672 53.714L88.291 23.1718Z" stroke="url(#paint4_linear_1178_11612)" stroke-width="13.4131"/>
<path d="M63.5367 98.8126C61.7897 98.8126 60.2404 98.514 58.8891 97.9167C57.5452 97.3119 56.485 96.4795 55.7086 95.4193C54.9321 94.3591 54.5364 93.1384 54.5215 91.7572H60.0986C60.121 92.2574 60.2815 92.7016 60.5802 93.0899C60.8788 93.4706 61.2857 93.7693 61.8008 93.9858C62.316 94.2023 62.9021 94.3106 63.5591 94.3106C64.2161 94.3106 64.7947 94.1949 65.295 93.9634C65.8026 93.7245 66.1983 93.3997 66.4821 92.9891C66.7658 92.571 66.9039 92.0932 66.8964 91.5556C66.9039 91.0181 66.7508 90.5402 66.4373 90.1221C66.1237 89.704 65.6795 89.3793 65.1046 89.1478C64.5372 88.9164 63.8652 88.8006 63.0887 88.8006H60.8601V84.8586H63.0887C63.7682 84.8586 64.3654 84.7466 64.8806 84.5226C65.4032 84.2986 65.8101 83.985 66.1013 83.5819C66.3925 83.1712 66.5343 82.7009 66.5269 82.1708C66.5343 81.6556 66.4111 81.2039 66.1573 80.8157C65.9109 80.42 65.5637 80.1139 65.1158 79.8974C64.6753 79.6809 64.1639 79.5726 63.5815 79.5726C62.9693 79.5726 62.4131 79.6809 61.9128 79.8974C61.4201 80.1139 61.0281 80.42 60.7369 80.8157C60.4458 81.2114 60.2927 81.6706 60.2778 82.1932H54.9806C54.9956 80.8269 55.3763 79.6249 56.1229 78.5871C56.8695 77.5419 57.8849 76.7243 59.1691 76.1345C60.4607 75.5447 61.9315 75.2498 63.5815 75.2498C65.224 75.2498 66.6687 75.5372 67.9155 76.1121C69.1624 76.687 70.1329 77.4709 70.8273 78.4639C71.5216 79.4494 71.8688 80.5656 71.8688 81.8124C71.8763 83.1041 71.4544 84.168 70.6033 85.0042C69.7596 85.8404 68.6733 86.3555 67.3444 86.5496V86.7288C69.1213 86.9379 70.4615 87.5128 71.3648 88.4535C72.2757 89.3942 72.7274 90.5701 72.7199 91.9812C72.7199 93.3101 72.328 94.4898 71.544 95.5201C70.7676 96.5429 69.685 97.3493 68.2963 97.9391C66.9151 98.5214 65.3286 98.8126 63.5367 98.8126ZM75.8921 98.499V81.2973H81.2116V84.433H81.3908C81.7044 83.2982 82.2158 82.4545 82.9251 81.902C83.6343 81.3421 84.4593 81.0621 85.4001 81.0621C85.6539 81.0621 85.9152 81.0808 86.184 81.1181C86.4528 81.148 86.7029 81.1965 86.9343 81.2637V86.0233C86.673 85.9337 86.3296 85.8628 85.904 85.8105C85.4859 85.7582 85.1126 85.7321 84.7841 85.7321C84.1346 85.7321 83.5485 85.8777 83.0259 86.1689C82.5107 86.4526 82.1038 86.852 81.8052 87.3672C81.514 87.8749 81.3684 88.4721 81.3684 89.159V98.499H75.8921ZM94.5553 98.7454C93.2861 98.7454 92.1326 98.4169 91.0948 97.7599C90.057 97.1029 89.2283 96.1174 88.6086 94.8033C87.9889 93.4893 87.6791 91.858 87.6791 89.9093C87.6791 87.8861 88.0001 86.2211 88.6422 84.9146C89.2843 83.608 90.1242 82.6412 91.162 82.014C92.2072 81.3869 93.3309 81.0733 94.5329 81.0733C95.4363 81.0733 96.209 81.2301 96.8511 81.5437C97.4932 81.8498 98.0233 82.2455 98.4414 82.7308C98.8595 83.216 99.1768 83.72 99.3933 84.2426H99.5053V75.5634H104.982V98.499H99.5613V95.7105H99.3933C99.1618 96.2405 98.8333 96.737 98.4078 97.1999C97.9822 97.6628 97.4484 98.0361 96.8063 98.3198C96.1717 98.6035 95.4213 98.7454 94.5553 98.7454ZM96.4591 94.4786C97.1236 94.4786 97.691 94.2919 98.1614 93.9186C98.6317 93.5378 98.9938 93.004 99.2477 92.3171C99.5015 91.6303 99.6285 90.8239 99.6285 89.8981C99.6285 88.9574 99.5015 88.1474 99.2477 87.468C99.0013 86.7885 98.6392 86.2659 98.1614 85.9001C97.691 85.5343 97.1236 85.3513 96.4591 85.3513C95.7797 85.3513 95.2048 85.538 94.7345 85.9113C94.2641 86.2846 93.9057 86.8109 93.6594 87.4904C93.4204 88.1698 93.301 88.9724 93.301 89.8981C93.301 90.8239 93.4242 91.6303 93.6706 92.3171C93.9169 93.004 94.2716 93.5378 94.7345 93.9186C95.2048 94.2919 95.7797 94.4786 96.4591 94.4786Z" fill="#B06F12"/>
<defs>
<linearGradient id="paint0_linear_1178_11612" x1="168.336" y1="223.308" x2="27.7376" y2="153.106" gradientUnits="userSpaceOnUse">
<stop offset="0.225797" stop-color="#BF8411"/>
<stop offset="0.550686" stop-color="#EABD57"/>
<stop offset="0.736895" stop-color="#D6B24D"/>
<stop offset="1" stop-color="#FFFCC2"/>
</linearGradient>
<radialGradient id="paint1_radial_1178_11612" cx="0" cy="0" r="1" gradientUnits="userSpaceOnUse" gradientTransform="translate(82.5446 116.317) rotate(122.551) scale(68.8157 72.9486)">
<stop stop-color="#BF8411"/>
<stop offset="0.460001" stop-color="#EABD57"/>
<stop offset="0.788195" stop-color="#D6B24D"/>
<stop offset="1" stop-color="#FFFCC2"/>
</radialGradient>
<linearGradient id="paint2_linear_1178_11612" x1="14.9115" y1="47.4248" x2="142.837" y2="153.191" gradientUnits="userSpaceOnUse">
<stop offset="0.0729167" stop-color="#E47800"/>
<stop offset="0.532439" stop-color="#F2F5AC"/>
<stop offset="0.813994" stop-color="#F4EEC6"/>
<stop offset="1" stop-color="#FDD180"/>
</linearGradient>
<linearGradient id="paint3_linear_1178_11612" x1="153.931" y1="164.1" x2="48.0307" y2="44.2032" gradientUnits="userSpaceOnUse">
<stop stop-color="#A76611"/>
<stop offset="0.307292" stop-color="#EABD57"/>
<stop offset="0.630208" stop-color="#D6B24D"/>
<stop offset="0.713542" stop-color="#FFEBB0"/>
<stop offset="1" stop-color="#FFFCC2"/>
</linearGradient>
<linearGradient id="paint4_linear_1178_11612" x1="142.837" y1="151.192" x2="47.9752" y2="11.5022" gradientUnits="userSpaceOnUse">
<stop offset="0.0762685" stop-color="#E47800"/>
<stop offset="0.670212" stop-color="#F2F5AC"/>
<stop offset="0.813994" stop-color="#F4EEC6"/>
<stop offset="1" stop-color="#FDD180"/>
</linearGradient>
</defs>
</svg>
