<svg xmlns="http://www.w3.org/2000/svg" width="927" height="260" viewBox="0 0 927 260" fill="none">
  <path d="M1.91309 100.544V12.4648C1.91309 6.942 6.39026 2.46484 11.9131 2.46484H914.541C920.064 2.46484 924.541 6.942 924.541 12.4648V100.544C924.541 106.067 920.064 110.544 914.541 110.544H887.091C881.569 110.544 877.091 115.021 877.091 120.544V161.174C877.091 166.697 872.614 171.174 867.091 171.174H852.822C847.3 171.174 842.822 175.651 842.822 181.174V248.165C842.822 253.687 838.345 258.165 832.822 258.165H104.176C98.6527 258.165 94.1756 253.687 94.1756 248.165V181.174C94.1756 175.651 89.6984 171.174 84.1756 171.174H54.09C48.5672 171.174 44.09 166.697 44.09 161.174V120.544C44.09 115.021 39.6129 110.544 34.09 110.544H11.9131C6.39024 110.544 1.91309 106.067 1.91309 100.544Z" stroke="url(#paint0_linear_1178_12561)" stroke-width="3"/>
  <defs>
    <linearGradient id="paint0_linear_1178_12561" x1="-43.4327" y1="-113.712" x2="593.693" y2="561.051" gradientUnits="userSpaceOnUse">
      <stop offset="0.1875" stop-color="#AB3ADD"/>
      <stop offset="1" stop-color="#3B57F4"/>
    </linearGradient>
  </defs>
</svg>