<svg width="250" height="274" viewBox="0 0 250 274" fill="none" xmlns="http://www.w3.org/2000/svg">
<path d="M57.4322 171.907C59.0672 175.65 61.1352 184.052 56.3268 187.721C51.5184 191.39 47.5743 193.995 46.2034 194.838M46.2034 194.838C50.4205 198.792 55.5337 203.156 60.5944 206.699C65.6551 210.241 70.4535 216.294 69.927 216.663M46.2034 194.838C52.2655 196.736 66.3193 198.633 74.0369 191.042C83.6838 181.554 78.1874 150.12 127.356 149.027C176.525 147.935 196.493 125.681 203.657 89.8643" stroke="#333333" stroke-width="3"/>
<path d="M203.004 35.0548C203.352 36.7509 202.259 38.4078 200.563 38.7557C198.867 39.1036 197.21 38.0106 196.862 36.3146C196.514 34.6185 197.607 32.9616 199.303 32.6138C200.999 32.2659 202.656 33.3588 203.004 35.0548Z" fill="white"/>
<path d="M203.004 35.0548C203.352 36.7509 202.259 38.4078 200.563 38.7557C198.867 39.1036 197.21 38.0106 196.862 36.3146C196.514 34.6185 197.607 32.9616 199.303 32.6138C200.999 32.2659 202.656 33.3588 203.004 35.0548Z" fill="#AB3ADD"/>
<path d="M212.676 36.2713C214.372 35.9234 215.465 34.2665 215.117 32.5704C214.769 30.8744 213.112 29.7815 211.416 30.1293C209.72 30.4772 208.627 32.1341 208.975 33.8302C209.323 35.5262 210.98 36.6191 212.676 36.2713Z" fill="white"/>
<path d="M212.676 36.2713C214.372 35.9234 215.465 34.2665 215.117 32.5704C214.769 30.8744 213.112 29.7815 211.416 30.1293C209.72 30.4772 208.627 32.1341 208.975 33.8302C209.323 35.5262 210.98 36.6191 212.676 36.2713Z" fill="#AB3ADD"/>
<path fill-rule="evenodd" clip-rule="evenodd" d="M191.818 22.5967C192.702 17.7533 196.438 13.695 201.561 12.6415C201.558 12.6421 201.555 12.6428 201.552 12.6435C201.562 12.6412 201.573 12.6391 201.583 12.6371C201.58 12.6377 201.577 12.6383 201.574 12.6389C206.698 11.5906 211.73 13.8504 214.449 17.9548C216.827 17.6342 219.215 17.3634 221.612 17.1427C224.592 16.8682 227.261 18.9222 227.862 21.854L232.363 43.7995C232.972 46.7648 231.282 49.7297 228.391 50.6271C216.423 54.3422 204.327 56.8232 191.864 58.1191C188.853 58.4321 186.132 56.3718 185.524 53.4066L181.023 31.461C180.422 28.5292 182.066 25.5905 184.914 24.6696C187.204 23.9289 189.506 23.2379 191.818 22.5967ZM188.342 50.3163L201.285 13.4906C201.415 13.1184 201.896 13.0199 202.162 13.3105L228.556 42.0682C215.503 47.2417 202.379 49.9335 188.342 50.3163Z" fill="white"/>
<path fill-rule="evenodd" clip-rule="evenodd" d="M191.818 22.5967C192.702 17.7533 196.438 13.695 201.561 12.6415C201.558 12.6421 201.555 12.6428 201.552 12.6435C201.562 12.6412 201.573 12.6391 201.583 12.6371C201.58 12.6377 201.577 12.6383 201.574 12.6389C206.698 11.5906 211.73 13.8504 214.449 17.9548C216.827 17.6342 219.215 17.3634 221.612 17.1427C224.592 16.8682 227.261 18.9222 227.862 21.854L232.363 43.7995C232.972 46.7648 231.282 49.7297 228.391 50.6271C216.423 54.3422 204.327 56.8232 191.864 58.1191C188.853 58.4321 186.132 56.3718 185.524 53.4066L181.023 31.461C180.422 28.5292 182.066 25.5905 184.914 24.6696C187.204 23.9289 189.506 23.2379 191.818 22.5967ZM188.342 50.3163L201.285 13.4906C201.415 13.1184 201.896 13.0199 202.162 13.3105L228.556 42.0682C215.503 47.2417 202.379 49.9335 188.342 50.3163Z" fill="#AB3ADD"/>
<path d="M229.3 22.3546L230.063 22.1981C231.476 21.9082 232.857 22.819 233.147 24.2323L234.973 33.1378C235.263 34.5512 234.352 35.932 232.939 36.2219L232.176 36.3783L229.3 22.3546Z" fill="white"/>
<path d="M229.3 22.3546L230.063 22.1981C231.476 21.9082 232.857 22.819 233.147 24.2323L234.973 33.1378C235.263 34.5512 234.352 35.932 232.939 36.2219L232.176 36.3783L229.3 22.3546Z" fill="#AB3ADD"/>
<path d="M199.858 62.1405L200.148 63.5528L222.915 58.8832L222.625 57.4709C222.335 56.0575 220.954 55.1468 219.541 55.4367L201.892 59.0565C200.479 59.3464 199.568 60.7271 199.858 62.1405Z" fill="white"/>
<path d="M199.858 62.1405L200.148 63.5528L222.915 58.8832L222.625 57.4709C222.335 56.0575 220.954 55.1468 219.541 55.4367L201.892 59.0565C200.479 59.3464 199.568 60.7271 199.858 62.1405Z" fill="#AB3ADD"/>
<path d="M179.904 32.486L179.141 32.6425C177.727 32.9324 176.817 34.3132 177.107 35.7265L178.933 44.632C179.223 46.0454 180.604 46.9561 182.017 46.6663L182.78 46.5098L179.904 32.486Z" fill="white"/>
<path d="M179.904 32.486L179.141 32.6425C177.727 32.9324 176.817 34.3132 177.107 35.7265L178.933 44.632C179.223 46.0454 180.604 46.9561 182.017 46.6663L182.78 46.5098L179.904 32.486Z" fill="#AB3ADD"/>
<path d="M201.301 11.3248C202.714 11.0349 203.625 9.65417 203.335 8.2408C203.045 6.82742 201.664 5.91666 200.251 6.20655C198.838 6.49644 197.927 7.87721 198.217 9.29058C198.507 10.704 199.887 11.6147 201.301 11.3248Z" fill="white"/>
<path d="M201.301 11.3248C202.714 11.0349 203.625 9.65417 203.335 8.2408C203.045 6.82742 201.664 5.91666 200.251 6.20655C198.838 6.49644 197.927 7.87721 198.217 9.29058C198.507 10.704 199.887 11.6147 201.301 11.3248Z" fill="#AB3ADD"/>
<path d="M198.232 8.16838C198.525 7.69894 199.222 7.29512 199.93 7.19194C201.077 7.02497 202.274 7.76941 202.585 8.89113C202.692 9.27666 202.844 10.1181 202.779 10.4446C203.354 9.84958 203.472 8.90678 203.335 8.24023C203.045 6.82686 201.664 5.91609 200.251 6.20599C199.221 6.41726 198.458 7.20794 198.232 8.16838Z" fill="white"/>
<path d="M198.232 8.16838C198.525 7.69894 199.222 7.29512 199.93 7.19194C201.077 7.02497 202.274 7.76941 202.585 8.89113C202.692 9.27666 202.844 10.1181 202.779 10.4446C203.354 9.84958 203.472 8.90678 203.335 8.24023C203.045 6.82686 201.664 5.91609 200.251 6.20599C199.221 6.41726 198.458 7.20794 198.232 8.16838Z" fill="#AB3ADD"/>
</svg>
