<svg width="813" height="211" viewBox="0 0 813 211" fill="none" xmlns="http://www.w3.org/2000/svg">
<rect x="184.588" y="142.107" width="573.057" height="68.877" rx="10" fill="#3B57F4" fill-opacity="0.12"/>
<rect x="166.438" y="125.107" width="609.358" height="68.877" rx="10" fill="#3B57F4" fill-opacity="0.12"/>
<rect x="0.753906" y="38.6582" width="97.6836" height="98" rx="48.8418" fill="#E7EAFF"/>
<path d="M45.9593 93.9366V93.4537C45.9688 91.7965 46.1156 90.4754 46.3997 89.4906C46.6932 88.5057 47.1194 87.7103 47.6781 87.1042C48.2368 86.4982 48.9092 85.9489 49.6951 85.4565C50.2823 85.0777 50.8078 84.6847 51.2718 84.2775C51.7359 83.8703 52.1052 83.4205 52.3798 82.9281C52.6544 82.4262 52.7917 81.8675 52.7917 81.252C52.7917 80.5985 52.6355 80.0256 52.323 79.5332C52.0105 79.0408 51.5891 78.662 51.0588 78.3968C50.5379 78.1317 49.9603 77.9991 49.3258 77.9991C48.7103 77.9991 48.1279 78.1364 47.5787 78.411C47.0294 78.6762 46.5796 79.0739 46.2292 79.6042C45.8788 80.1251 45.6895 80.7737 45.661 81.5502H39.8656C39.9129 79.6563 40.3675 78.0938 41.2292 76.8627C42.091 75.6222 43.2321 74.6989 44.6525 74.0929C46.073 73.4773 47.6402 73.1696 49.3542 73.1696C51.2387 73.1696 52.9054 73.4821 54.3542 74.1071C55.8031 74.7226 56.9395 75.6175 57.7633 76.7917C58.5872 77.966 58.9991 79.3817 58.9991 81.0389C58.9991 82.1468 58.8145 83.1317 58.4451 83.9934C58.0853 84.8457 57.5787 85.6033 56.9252 86.2662C56.2718 86.9196 55.5001 87.5114 54.6099 88.0417C53.8618 88.4868 53.2463 88.9508 52.7633 89.4338C52.2898 89.9167 51.9347 90.4754 51.698 91.1099C51.4707 91.7444 51.3523 92.5256 51.3429 93.4537V93.9366H45.9593ZM48.7718 103.028C47.8249 103.028 47.0152 102.696 46.3429 102.033C45.68 101.361 45.3533 100.556 45.3627 99.6184C45.3533 98.6904 45.68 97.8949 46.3429 97.2321C47.0152 96.5692 47.8249 96.2377 48.7718 96.2377C49.6715 96.2377 50.4622 96.5692 51.144 97.2321C51.8258 97.8949 52.1715 98.6904 52.1809 99.6184C52.1715 100.243 52.0057 100.816 51.6838 101.337C51.3713 101.849 50.9593 102.26 50.448 102.573C49.9366 102.876 49.3779 103.028 48.7718 103.028Z" fill="#3B57F4"/>
<rect x="134.438" y="0.275391" width="678" height="174.766" rx="10" fill="#F5F7FF"/>
<rect x="175.866" y="24.2754" width="94.8213" height="126.766" rx="10" fill="#3B57F4" fill-opacity="0.19"/>
<rect x="169.63" y="24.2754" width="107.294" height="120.535" rx="10" fill="#3B57F4" fill-opacity="0.19"/>
<rect x="166.438" y="24.2754" width="113.679" height="116.139" rx="10" fill="#E9ECFF"/>
<path d="M212.426 64.7756V69.2756H207.026C204.64 69.2756 202.35 70.2238 200.663 71.9116C198.975 73.5995 198.026 75.8886 198.026 78.2756V80.9972C201.422 79.7944 205.122 79.7588 208.54 80.896C211.958 82.0332 214.899 84.2783 216.898 87.2756H219.626V85.4756C219.626 84.9982 219.816 84.5404 220.154 84.2028C220.491 83.8652 220.949 83.6756 221.426 83.6756H225.026C225.504 83.6756 225.962 83.8652 226.299 84.2028C226.637 84.5404 226.826 84.9982 226.826 85.4756V87.2756H243.026C244.459 87.2756 245.832 86.7067 246.845 85.694C247.858 84.6813 248.426 83.3078 248.426 81.8756V78.2756C248.426 75.8886 247.478 73.5995 245.79 71.9116C244.103 70.2238 241.813 69.2756 239.426 69.2756H234.026V64.7756C234.026 63.1047 233.363 61.5023 232.181 60.3208C231 59.1393 229.397 58.4756 227.726 58.4756H218.726C217.056 58.4756 215.453 59.1393 214.272 60.3208C213.09 61.5023 212.426 63.1047 212.426 64.7756ZM239.426 108.876H223.662L218.046 103.26C219.355 100.529 219.869 97.4848 219.529 94.4756H225.026C225.504 94.4756 225.962 94.2859 226.299 93.9484C226.637 93.6108 226.826 93.153 226.826 92.6756V90.8756H243.026C244.974 90.8782 246.87 90.2463 248.426 89.0756V99.8756C248.426 102.263 247.478 104.552 245.79 106.24C244.103 107.927 241.813 108.876 239.426 108.876ZM230.426 69.2756H216.026V64.7756C216.026 64.0595 216.311 63.3727 216.817 62.8664C217.324 62.36 218.01 62.0756 218.726 62.0756H227.726C228.443 62.0756 229.129 62.36 229.636 62.8664C230.142 63.3727 230.426 64.0595 230.426 64.7756V69.2756ZM203.426 108.876C206.256 108.876 208.87 107.94 210.972 106.366L220.152 115.546C220.319 115.714 220.518 115.847 220.736 115.937C220.955 116.028 221.189 116.075 221.425 116.075C221.662 116.075 221.896 116.029 222.115 115.938C222.333 115.848 222.532 115.715 222.699 115.548C222.866 115.381 222.999 115.183 223.09 114.964C223.181 114.746 223.227 114.512 223.227 114.275C223.228 114.039 223.181 113.804 223.091 113.586C223.001 113.367 222.868 113.169 222.701 113.001L213.521 103.821C215.22 101.549 216.103 98.7693 216.025 95.9329C215.948 93.0965 214.916 90.3692 213.096 88.1925C211.275 86.0159 208.774 84.5173 205.996 83.9396C203.218 83.3618 200.326 83.7386 197.789 85.009C195.252 86.2794 193.217 88.369 192.016 90.9395C190.814 93.5099 190.515 96.4107 191.168 99.1722C191.82 101.934 193.385 104.394 195.61 106.155C197.835 107.916 200.589 108.875 203.426 108.876ZM203.426 105.276C201.04 105.276 198.75 104.327 197.063 102.64C195.375 100.952 194.426 98.6625 194.426 96.2756C194.426 93.8886 195.375 91.5995 197.063 89.9116C198.75 88.2238 201.04 87.2756 203.426 87.2756C205.813 87.2756 208.103 88.2238 209.79 89.9116C211.478 91.5995 212.426 93.8886 212.426 96.2756C212.426 98.6625 211.478 100.952 209.79 102.64C208.103 104.327 205.813 105.276 203.426 105.276Z" fill="#AB3ADD"/>
<path d="M308.52 82.6582L304.542 68.1127H306.332L309.372 79.9593H309.514L312.611 68.1127H314.599L317.696 79.9593H317.838L320.878 68.1127H322.667L318.69 82.6582H316.872L313.662 71.0673H313.548L310.338 82.6582H308.52ZM326.311 76.0957V82.6582H324.635V68.1127H326.311V73.4537H326.453C326.709 72.8902 327.092 72.4428 327.603 72.1113C328.12 71.7752 328.806 71.6071 329.663 71.6071C330.406 71.6071 331.057 71.7562 331.616 72.0545C332.175 72.3481 332.608 72.8002 332.916 73.411C333.228 74.0171 333.385 74.7889 333.385 75.7264V82.6582H331.709V75.84C331.709 74.9735 331.484 74.3036 331.034 73.8301C330.589 73.3519 329.971 73.1127 329.18 73.1127C328.631 73.1127 328.138 73.2288 327.703 73.4608C327.272 73.6928 326.931 74.0313 326.68 74.4764C326.434 74.9215 326.311 75.4612 326.311 76.0957ZM339.661 82.9139C338.97 82.9139 338.343 82.7837 337.779 82.5233C337.216 82.2581 336.768 81.877 336.437 81.3798C336.105 80.8779 335.94 80.2718 335.94 79.5616C335.94 78.9366 336.063 78.43 336.309 78.0417C336.555 77.6487 336.884 77.341 337.296 77.1184C337.708 76.8959 338.163 76.7302 338.66 76.6213C339.162 76.5076 339.666 76.4177 340.173 76.3514C340.836 76.2662 341.373 76.2022 341.785 76.1596C342.202 76.1123 342.505 76.0341 342.694 75.9252C342.888 75.8163 342.985 75.627 342.985 75.3571V75.3002C342.985 74.5995 342.793 74.055 342.41 73.6667C342.031 73.2785 341.456 73.0843 340.684 73.0843C339.884 73.0843 339.256 73.2595 338.802 73.6099C338.347 73.9603 338.028 74.3343 337.843 74.7321L336.252 74.1639C336.536 73.501 336.915 72.9849 337.389 72.6156C337.867 72.2415 338.388 71.9811 338.951 71.8343C339.519 71.6828 340.078 71.6071 340.627 71.6071C340.978 71.6071 341.38 71.6497 341.835 71.7349C342.294 71.8154 342.737 71.9835 343.163 72.2392C343.594 72.4949 343.951 72.8807 344.235 73.3968C344.519 73.9129 344.661 74.6042 344.661 75.4707V82.6582H342.985V81.1809H342.9C342.786 81.4177 342.597 81.671 342.332 81.9409C342.067 82.2108 341.714 82.4404 341.274 82.6298C340.833 82.8192 340.296 82.9139 339.661 82.9139ZM339.917 81.4082C340.58 81.4082 341.139 81.278 341.593 81.0176C342.052 80.7572 342.398 80.421 342.63 80.0091C342.867 79.5971 342.985 79.1639 342.985 78.7093V77.1752C342.914 77.2605 342.758 77.3386 342.516 77.4096C342.28 77.4759 342.005 77.5351 341.693 77.5872C341.385 77.6345 341.084 77.6771 340.791 77.715C340.502 77.7482 340.267 77.7766 340.087 77.8002C339.652 77.8571 339.245 77.9494 338.866 78.0772C338.492 78.2003 338.189 78.3874 337.957 78.6383C337.729 78.8845 337.616 79.2207 337.616 79.6468C337.616 80.2292 337.831 80.6696 338.262 80.9679C338.698 81.2614 339.249 81.4082 339.917 81.4082ZM352.465 71.7491V73.1696H346.812V71.7491H352.465ZM348.459 69.1355H350.135V79.5332C350.135 80.0067 350.204 80.3618 350.341 80.5985C350.483 80.8306 350.663 80.9868 350.881 81.0673C351.104 81.1431 351.338 81.1809 351.584 81.1809C351.769 81.1809 351.92 81.1715 352.039 81.1525C352.157 81.1288 352.252 81.1099 352.323 81.0957L352.664 82.6014C352.55 82.644 352.392 82.6866 352.188 82.7292C351.984 82.7766 351.726 82.8002 351.414 82.8002C350.94 82.8002 350.476 82.6984 350.022 82.4949C349.572 82.2913 349.198 81.9811 348.9 81.5645C348.606 81.1478 348.459 80.6222 348.459 79.9877V69.1355ZM362.6 68.1127V82.6582H360.839V68.1127H362.6ZM370.762 71.7491V73.1696H364.881V71.7491H370.762ZM366.643 82.6582V70.2434C366.643 69.6184 366.79 69.0976 367.083 68.6809C367.377 68.2643 367.758 67.9518 368.227 67.7434C368.695 67.5351 369.19 67.4309 369.711 67.4309C370.123 67.4309 370.459 67.4641 370.72 67.5304C370.98 67.5966 371.174 67.6582 371.302 67.715L370.819 69.1639C370.734 69.1355 370.615 69.1 370.464 69.0574C370.317 69.0147 370.123 68.9934 369.881 68.9934C369.328 68.9934 368.927 69.1331 368.681 69.4125C368.44 69.6918 368.319 70.1014 368.319 70.6412V82.6582H366.643ZM377.714 68.1127H379.731L383.765 74.9025H383.935L387.969 68.1127H389.986L384.731 76.6639V82.6582H382.969V76.6639L377.714 68.1127ZM403.853 75.3855C403.853 76.9196 403.576 78.2453 403.022 79.3627C402.468 80.4802 401.709 81.3419 400.743 81.948C399.777 82.554 398.674 82.8571 397.433 82.8571C396.192 82.8571 395.089 82.554 394.123 81.948C393.157 81.3419 392.397 80.4802 391.843 79.3627C391.29 78.2453 391.013 76.9196 391.013 75.3855C391.013 73.8514 391.29 72.5256 391.843 71.4082C392.397 70.2908 393.157 69.429 394.123 68.823C395.089 68.2169 396.192 67.9139 397.433 67.9139C398.674 67.9139 399.777 68.2169 400.743 68.823C401.709 69.429 402.468 70.2908 403.022 71.4082C403.576 72.5256 403.853 73.8514 403.853 75.3855ZM402.149 75.3855C402.149 74.126 401.938 73.063 401.517 72.1966C401.1 71.3301 400.534 70.6743 399.819 70.2292C399.109 69.7841 398.314 69.5616 397.433 69.5616C396.552 69.5616 395.754 69.7841 395.04 70.2292C394.329 70.6743 393.763 71.3301 393.342 72.1966C392.925 73.063 392.717 74.126 392.717 75.3855C392.717 76.6449 392.925 77.7079 393.342 78.5744C393.763 79.4409 394.329 80.0967 395.04 80.5417C395.754 80.9868 396.552 81.2093 397.433 81.2093C398.314 81.2093 399.109 80.9868 399.819 80.5417C400.534 80.0967 401.1 79.4409 401.517 78.5744C401.938 77.7079 402.149 76.6449 402.149 75.3855ZM416.361 68.1127H418.122V77.7434C418.122 78.7377 417.888 79.6255 417.419 80.4068C416.955 81.1833 416.299 81.7965 415.451 82.2463C414.604 82.6913 413.61 82.9139 412.468 82.9139C411.327 82.9139 410.333 82.6913 409.486 82.2463C408.638 81.7965 407.98 81.1833 407.511 80.4068C407.047 79.6255 406.815 78.7377 406.815 77.7434V68.1127H408.576V77.6014C408.576 78.3116 408.733 78.9437 409.045 79.4977C409.358 80.0469 409.803 80.4802 410.38 80.7974C410.963 81.1099 411.659 81.2662 412.468 81.2662C413.278 81.2662 413.974 81.1099 414.557 80.7974C415.139 80.4802 415.584 80.0469 415.892 79.4977C416.204 78.9437 416.361 78.3116 416.361 77.6014V68.1127ZM431.469 82.8855C430.446 82.8855 429.565 82.644 428.827 82.161C428.088 81.6781 427.52 81.0128 427.122 80.1653C426.725 79.3178 426.526 78.3495 426.526 77.2605C426.526 76.1525 426.729 75.1748 427.136 74.3272C427.548 73.475 428.121 72.8097 428.855 72.3315C429.594 71.8485 430.456 71.6071 431.44 71.6071C432.207 71.6071 432.899 71.7491 433.514 72.0332C434.13 72.3173 434.634 72.715 435.027 73.2264C435.42 73.7377 435.664 74.3343 435.759 75.0162H434.082C433.955 74.519 433.671 74.0787 433.23 73.6951C432.795 73.3069 432.207 73.1127 431.469 73.1127C430.815 73.1127 430.243 73.2832 429.75 73.6241C429.262 73.9603 428.881 74.4361 428.607 75.0517C428.337 75.6625 428.202 76.3798 428.202 77.2037C428.202 78.0465 428.334 78.7804 428.6 79.4054C428.869 80.0304 429.248 80.5157 429.736 80.8613C430.228 81.207 430.806 81.3798 431.469 81.3798C431.904 81.3798 432.3 81.304 432.655 81.1525C433.01 81.001 433.311 80.7832 433.557 80.4991C433.803 80.215 433.978 79.8741 434.082 79.4764H435.759C435.664 80.1203 435.43 80.7003 435.055 81.2164C434.686 81.7278 434.196 82.135 433.585 82.438C432.979 82.7363 432.274 82.8855 431.469 82.8855ZM442.641 82.8855C441.656 82.8855 440.792 82.6511 440.048 82.1824C439.31 81.7136 438.732 81.0578 438.315 80.215C437.903 79.3722 437.698 78.3874 437.698 77.2605C437.698 76.1241 437.903 75.1322 438.315 74.2846C438.732 73.4371 439.31 72.7789 440.048 72.3102C440.792 71.8414 441.656 71.6071 442.641 71.6071C443.626 71.6071 444.487 71.8414 445.226 72.3102C445.969 72.7789 446.547 73.4371 446.959 74.2846C447.376 75.1322 447.584 76.1241 447.584 77.2605C447.584 78.3874 447.376 79.3722 446.959 80.215C446.547 81.0578 445.969 81.7136 445.226 82.1824C444.487 82.6511 443.626 82.8855 442.641 82.8855ZM442.641 81.3798C443.389 81.3798 444.004 81.188 444.487 80.8045C444.97 80.421 445.328 79.9167 445.56 79.2917C445.792 78.6667 445.908 77.9896 445.908 77.2605C445.908 76.5313 445.792 75.8519 445.56 75.2221C445.328 74.5924 444.97 74.0834 444.487 73.6951C444.004 73.3069 443.389 73.1127 442.641 73.1127C441.893 73.1127 441.277 73.3069 440.794 73.6951C440.311 74.0834 439.954 74.5924 439.722 75.2221C439.49 75.8519 439.374 76.5313 439.374 77.2605C439.374 77.9896 439.49 78.6667 439.722 79.2917C439.954 79.9167 440.311 80.421 440.794 80.8045C441.277 81.188 441.893 81.3798 442.641 81.3798ZM457.017 78.198V71.7491H458.694V82.6582H457.017V80.8116H456.904C456.648 81.3656 456.25 81.8367 455.711 82.225C455.171 82.6085 454.489 82.8002 453.665 82.8002C452.983 82.8002 452.377 82.6511 451.847 82.3528C451.317 82.0498 450.9 81.5952 450.597 80.9892C450.294 80.3784 450.142 79.609 450.142 78.6809V71.7491H451.819V78.5673C451.819 79.3627 452.041 79.9972 452.486 80.4707C452.936 80.9442 453.509 81.1809 454.205 81.1809C454.622 81.1809 455.045 81.0744 455.476 80.8613C455.912 80.6483 456.276 80.3216 456.57 79.8812C456.868 79.4409 457.017 78.8798 457.017 78.198ZM463.44 68.1127V82.6582H461.764V68.1127H463.44ZM470.629 82.8855C469.72 82.8855 468.917 82.6558 468.221 82.1966C467.525 81.7325 466.981 81.0791 466.588 80.2363C466.195 79.3888 465.998 78.3874 465.998 77.2321C465.998 76.0862 466.195 75.0919 466.588 74.2491C466.981 73.4063 467.528 72.7553 468.228 72.296C468.929 71.8367 469.739 71.6071 470.657 71.6071C471.368 71.6071 471.929 71.7254 472.341 71.9622C472.757 72.1942 473.075 72.4593 473.292 72.7576C473.515 73.0512 473.688 73.2927 473.811 73.4821H473.953V68.1127H475.629V82.6582H474.01V80.9821H473.811C473.688 81.1809 473.513 81.4319 473.285 81.7349C473.058 82.0332 472.734 82.3007 472.312 82.5375C471.891 82.7695 471.33 82.8855 470.629 82.8855ZM470.856 81.3798C471.529 81.3798 472.097 81.2046 472.561 80.8542C473.025 80.4991 473.378 80.0091 473.619 79.3841C473.861 78.7543 473.981 78.0275 473.981 77.2037C473.981 76.3893 473.863 75.6767 473.626 75.0659C473.389 74.4503 473.039 73.9721 472.575 73.6312C472.111 73.2856 471.538 73.1127 470.856 73.1127C470.146 73.1127 469.554 73.295 469.081 73.6596C468.612 74.0195 468.259 74.5095 468.022 75.1298C467.79 75.7453 467.674 76.4366 467.674 77.2037C467.674 77.9802 467.793 78.6857 468.03 79.3201C468.271 79.9499 468.626 80.4518 469.095 80.8258C469.568 81.1951 470.156 81.3798 470.856 81.3798ZM488.96 86.9764C488.15 86.9764 487.454 86.8722 486.872 86.6639C486.29 86.4603 485.804 86.1904 485.416 85.8542C485.032 85.5228 484.727 85.1677 484.5 84.7889L485.835 83.8514C485.986 84.0502 486.178 84.2775 486.41 84.5332C486.642 84.7936 486.959 85.0185 487.362 85.2079C487.769 85.402 488.302 85.4991 488.96 85.4991C489.841 85.4991 490.567 85.286 491.14 84.8599C491.713 84.4338 492 83.7662 492 82.8571V80.6412H491.858C491.735 80.84 491.559 81.0862 491.332 81.3798C491.11 81.6686 490.788 81.9267 490.366 82.1539C489.95 82.3765 489.386 82.4877 488.676 82.4877C487.795 82.4877 487.004 82.2794 486.304 81.8627C485.608 81.4461 485.056 80.84 484.649 80.0446C484.246 79.2491 484.045 78.2832 484.045 77.1468C484.045 76.0294 484.242 75.0564 484.635 74.2278C485.028 73.3945 485.575 72.7505 486.275 72.296C486.976 71.8367 487.786 71.6071 488.704 71.6071C489.415 71.6071 489.978 71.7254 490.395 71.9622C490.816 72.1942 491.138 72.4593 491.361 72.7576C491.588 73.0512 491.763 73.2927 491.886 73.4821H492.057V71.7491H493.676V82.9707C493.676 83.9082 493.463 84.6705 493.037 85.2576C492.615 85.8495 492.047 86.2827 491.332 86.5574C490.622 86.8367 489.831 86.9764 488.96 86.9764ZM488.903 80.9821C489.575 80.9821 490.144 80.8282 490.608 80.5204C491.072 80.2127 491.424 79.7699 491.666 79.1923C491.907 78.6146 492.028 77.9234 492.028 77.1184C492.028 76.3324 491.91 75.6388 491.673 75.0375C491.436 74.4361 491.086 73.965 490.622 73.6241C490.158 73.2832 489.585 73.1127 488.903 73.1127C488.193 73.1127 487.601 73.2927 487.128 73.6525C486.659 74.0124 486.306 74.4953 486.069 75.1014C485.837 75.7074 485.721 76.3798 485.721 77.1184C485.721 77.876 485.84 78.546 486.076 79.1284C486.318 79.706 486.673 80.1606 487.142 80.492C487.615 80.8187 488.202 80.9821 488.903 80.9821ZM501.389 82.8713C500.267 82.8713 499.301 82.644 498.491 82.1895C497.686 81.7302 497.066 81.0815 496.63 80.2434C496.195 79.4006 495.977 78.4039 495.977 77.2534C495.977 76.1312 496.195 75.1464 496.63 74.2988C497.066 73.4513 497.679 72.7908 498.47 72.3173C499.265 71.8438 500.198 71.6071 501.268 71.6071C501.988 71.6071 502.658 71.7231 503.278 71.9551C503.903 72.1824 504.448 72.5256 504.912 72.9849C505.38 73.4442 505.745 74.0218 506.005 74.7179C506.266 75.4091 506.396 76.2188 506.396 77.1468V77.9778H497.184V76.1028H503.548C503.548 75.6672 503.453 75.2813 503.264 74.9451C503.075 74.609 502.812 74.3462 502.476 74.1568C502.144 73.9627 501.758 73.8656 501.318 73.8656C500.859 73.8656 500.451 73.9721 500.096 74.1852C499.746 74.3935 499.471 74.6752 499.272 75.0304C499.074 75.3807 498.972 75.7714 498.967 76.2022V77.9849C498.967 78.5247 499.066 78.9911 499.265 79.3841C499.469 79.777 499.755 80.0801 500.125 80.2931C500.494 80.5062 500.932 80.6127 501.439 80.6127C501.775 80.6127 502.083 80.5654 502.362 80.4707C502.641 80.376 502.88 80.234 503.079 80.0446C503.278 79.8552 503.43 79.6232 503.534 79.3485L506.332 79.5332C506.19 80.2056 505.899 80.7927 505.459 81.2946C505.023 81.7917 504.459 82.18 503.768 82.4593C503.082 82.734 502.289 82.8713 501.389 82.8713ZM514.173 71.7491V74.0218H507.603V71.7491H514.173ZM509.095 69.1355H512.12V79.3059C512.12 79.5853 512.163 79.8031 512.248 79.9593C512.334 80.1109 512.452 80.2174 512.603 80.2789C512.76 80.3405 512.94 80.3713 513.143 80.3713C513.285 80.3713 513.427 80.3594 513.569 80.3358C513.711 80.3074 513.82 80.286 513.896 80.2718L514.372 82.5233C514.22 82.5706 514.007 82.6251 513.733 82.6866C513.458 82.7529 513.124 82.7931 512.731 82.8074C512.002 82.8358 511.363 82.7387 510.814 82.5162C510.269 82.2936 509.845 81.948 509.542 81.4792C509.239 81.0105 509.09 80.4186 509.095 79.7037V69.1355ZM523.884 82.8642C523.188 82.8642 522.567 82.7434 522.023 82.502C521.478 82.2557 521.047 81.8935 520.73 81.4153C520.418 80.9324 520.261 80.331 520.261 79.6113C520.261 79.0053 520.373 78.4963 520.595 78.0843C520.818 77.6724 521.121 77.341 521.504 77.09C521.888 76.8391 522.323 76.6497 522.811 76.5218C523.304 76.394 523.82 76.304 524.359 76.252C524.994 76.1857 525.505 76.1241 525.894 76.0673C526.282 76.0057 526.564 75.9158 526.739 75.7974C526.914 75.679 527.002 75.5038 527.002 75.2718V75.2292C527.002 74.7794 526.859 74.4314 526.575 74.1852C526.296 73.939 525.898 73.8159 525.382 73.8159C524.838 73.8159 524.404 73.9366 524.082 74.1781C523.761 74.4148 523.547 74.7131 523.443 75.073L520.645 74.8457C520.787 74.1828 521.066 73.6099 521.483 73.127C521.9 72.6393 522.437 72.2652 523.095 72.0048C523.758 71.7396 524.525 71.6071 525.396 71.6071C526.002 71.6071 526.582 71.6781 527.136 71.8201C527.695 71.9622 528.19 72.1824 528.621 72.4806C529.056 72.7789 529.4 73.1625 529.651 73.6312C529.902 74.0952 530.027 74.6516 530.027 75.3002V82.6582H527.158V81.1454H527.073C526.897 81.4863 526.663 81.787 526.369 82.0474C526.076 82.3031 525.723 82.5043 525.311 82.6511C524.899 82.7931 524.423 82.8642 523.884 82.8642ZM524.75 80.7761C525.195 80.7761 525.588 80.6885 525.929 80.5133C526.27 80.3334 526.537 80.0919 526.732 79.7889C526.926 79.4859 527.023 79.1426 527.023 78.7591V77.6014C526.928 77.6629 526.798 77.7198 526.632 77.7718C526.471 77.8192 526.289 77.8642 526.085 77.9068C525.882 77.9447 525.678 77.9802 525.475 78.0133C525.271 78.0417 525.086 78.0678 524.921 78.0914C524.565 78.1435 524.255 78.2264 523.99 78.34C523.725 78.4537 523.519 78.6075 523.372 78.8017C523.225 78.9911 523.152 79.2278 523.152 79.5119C523.152 79.9238 523.301 80.2387 523.6 80.4565C523.903 80.6696 524.286 80.7761 524.75 80.7761ZM535.4 76.3514V82.6582H532.374V71.7491H535.258V73.6738H535.386C535.627 73.0394 536.032 72.5375 536.6 72.1681C537.168 71.7941 537.857 71.6071 538.667 71.6071C539.425 71.6071 540.085 71.7728 540.649 72.1042C541.212 72.4357 541.65 72.9091 541.962 73.5247C542.275 74.1355 542.431 74.8646 542.431 75.7122V82.6582H539.406V76.252C539.41 75.5843 539.24 75.0635 538.894 74.6895C538.549 74.3107 538.073 74.1213 537.467 74.1213C537.06 74.1213 536.7 74.2089 536.387 74.3841C536.079 74.5592 535.838 74.8149 535.663 75.1511C535.492 75.4825 535.405 75.8826 535.4 76.3514ZM552.009 82.6582H548.713L553.734 68.1127H557.698L562.712 82.6582H559.416L555.773 71.4366H555.659L552.009 82.6582ZM551.803 76.9409H559.587V79.3414H551.803V76.9409ZM567.538 68.1127V82.6582H564.462V68.1127H567.538ZM584.342 72.8145C584.242 72.4688 584.103 72.1634 583.923 71.8983C583.743 71.6284 583.523 71.4011 583.262 71.2164C583.006 71.027 582.713 70.8826 582.381 70.7832C582.055 70.6838 581.693 70.6341 581.295 70.6341C580.551 70.6341 579.898 70.8187 579.335 71.188C578.776 71.5574 578.34 72.0948 578.028 72.8002C577.715 73.501 577.559 74.358 577.559 75.3713C577.559 76.3845 577.713 77.2463 578.021 77.9565C578.328 78.6667 578.764 79.2089 579.328 79.5829C579.891 79.9522 580.556 80.1369 581.323 80.1369C582.019 80.1369 582.613 80.0138 583.106 79.7676C583.603 79.5166 583.982 79.1639 584.242 78.7093C584.507 78.2548 584.64 77.7174 584.64 77.0971L585.265 77.1895H581.515V74.8741H587.602V76.7065C587.602 77.9849 587.332 79.0834 586.792 80.002C586.252 80.9158 585.509 81.6213 584.562 82.1184C583.615 82.6109 582.531 82.8571 581.309 82.8571C579.945 82.8571 578.747 82.5564 577.715 81.9551C576.683 81.349 575.878 80.4896 575.301 79.377C574.728 78.2595 574.441 76.9338 574.441 75.3997C574.441 74.2207 574.612 73.1696 574.953 72.2463C575.298 71.3182 575.781 70.5323 576.401 69.8883C577.022 69.2444 577.744 68.7543 578.568 68.4181C579.391 68.082 580.284 67.9139 581.245 67.9139C582.069 67.9139 582.836 68.0346 583.546 68.2761C584.256 68.5128 584.886 68.849 585.435 69.2846C585.989 69.7202 586.442 70.2387 586.792 70.84C587.142 71.4366 587.367 72.0948 587.467 72.8145H584.342ZM590.538 82.6582V71.7491H593.564V82.6582H590.538ZM592.058 70.3429C591.609 70.3429 591.223 70.1937 590.901 69.8954C590.583 69.5924 590.425 69.2302 590.425 68.8088C590.425 68.3921 590.583 68.0346 590.901 67.7363C591.223 67.4333 591.609 67.2818 592.058 67.2818C592.508 67.2818 592.892 67.4333 593.209 67.7363C593.531 68.0346 593.692 68.3921 593.692 68.8088C593.692 69.2302 593.531 69.5924 593.209 69.8954C592.892 70.1937 592.508 70.3429 592.058 70.3429ZM600.902 86.9764C599.922 86.9764 599.082 86.8414 598.381 86.5716C597.685 86.3064 597.131 85.9442 596.719 85.4849C596.307 85.0256 596.04 84.5095 595.917 83.9366L598.715 83.5602C598.8 83.778 598.935 83.9816 599.12 84.171C599.304 84.3604 599.548 84.5119 599.851 84.6255C600.159 84.7439 600.533 84.8031 600.973 84.8031C601.632 84.8031 602.174 84.6421 602.6 84.3201C603.031 84.0029 603.246 83.4702 603.246 82.7221V80.7264H603.118C602.986 81.0294 602.787 81.3159 602.522 81.5858C602.257 81.8556 601.916 82.0758 601.499 82.2463C601.082 82.4167 600.585 82.502 600.008 82.502C599.188 82.502 598.443 82.3126 597.77 81.9338C597.103 81.5502 596.57 80.9655 596.172 80.1795C595.779 79.3888 595.583 78.3897 595.583 77.1824C595.583 75.9466 595.784 74.9144 596.187 74.0858C596.589 73.2572 597.124 72.6369 597.792 72.225C598.464 71.813 599.2 71.6071 600 71.6071C600.611 71.6071 601.123 71.7112 601.535 71.9196C601.946 72.1232 602.278 72.3788 602.529 72.6866C602.785 72.9896 602.981 73.2879 603.118 73.5815H603.232V71.7491H606.236V82.7647C606.236 83.6928 606.009 84.4693 605.554 85.0943C605.1 85.7193 604.47 86.188 603.665 86.5005C602.865 86.8178 601.944 86.9764 600.902 86.9764ZM600.966 80.2292C601.454 80.2292 601.866 80.1085 602.202 79.867C602.543 79.6208 602.803 79.2704 602.983 78.8159C603.168 78.3566 603.26 77.8074 603.26 77.1681C603.26 76.5289 603.17 75.975 602.991 75.5062C602.811 75.0327 602.55 74.6658 602.209 74.4054C601.868 74.1449 601.454 74.0147 600.966 74.0147C600.469 74.0147 600.05 74.1497 599.709 74.4196C599.368 74.6847 599.11 75.054 598.935 75.5275C598.76 76.001 598.672 76.5479 598.672 77.1681C598.672 77.7979 598.76 78.3424 598.935 78.8017C599.115 79.2562 599.373 79.609 599.709 79.8599C600.05 80.1061 600.469 80.2292 600.966 80.2292ZM613.33 82.6582V68.1127H622.96V70.6483H616.405V74.1142H622.321V76.6497H616.405V82.6582H613.33ZM624.972 82.6582V71.7491H627.998V82.6582H624.972ZM626.492 70.3429C626.042 70.3429 625.656 70.1937 625.334 69.8954C625.017 69.5924 624.858 69.2302 624.858 68.8088C624.858 68.3921 625.017 68.0346 625.334 67.7363C625.656 67.4333 626.042 67.2818 626.492 67.2818C626.942 67.2818 627.325 67.4333 627.642 67.7363C627.964 68.0346 628.125 68.3921 628.125 68.8088C628.125 69.2302 627.964 69.5924 627.642 69.8954C627.325 70.1937 626.942 70.3429 626.492 70.3429ZM633.447 76.3514V82.6582H630.421V71.7491H633.305V73.6738H633.433C633.674 73.0394 634.079 72.5375 634.647 72.1681C635.215 71.7941 635.904 71.6071 636.714 71.6071C637.471 71.6071 638.132 71.7728 638.695 72.1042C639.259 72.4357 639.697 72.9091 640.009 73.5247C640.322 74.1355 640.478 74.8646 640.478 75.7122V82.6582H637.453V76.252C637.457 75.5843 637.287 75.0635 636.941 74.6895C636.595 74.3107 636.12 74.1213 635.514 74.1213C635.106 74.1213 634.747 74.2089 634.434 74.3841C634.126 74.5592 633.885 74.8149 633.71 75.1511C633.539 75.4825 633.452 75.8826 633.447 76.3514ZM646.883 82.8358C646.054 82.8358 645.303 82.6227 644.631 82.1966C643.964 81.7657 643.433 81.1336 643.04 80.3002C642.652 79.4622 642.458 78.4347 642.458 77.2179C642.458 75.9679 642.659 74.9286 643.062 74.1C643.464 73.2666 643.999 72.644 644.667 72.2321C645.339 71.8154 646.075 71.6071 646.875 71.6071C647.486 71.6071 647.995 71.7112 648.402 71.9196C648.814 72.1232 649.146 72.3788 649.397 72.6866C649.652 72.9896 649.847 73.2879 649.979 73.5815H650.071V68.1127H653.09V82.6582H650.107V80.911H649.979C649.837 81.2141 649.636 81.5147 649.375 81.813C649.12 82.1066 648.786 82.3504 648.374 82.5446C647.967 82.7387 647.47 82.8358 646.883 82.8358ZM647.841 80.4281C648.329 80.4281 648.741 80.2955 649.077 80.0304C649.418 79.7605 649.678 79.3841 649.858 78.9011C650.043 78.4181 650.135 77.8523 650.135 77.2037C650.135 76.555 650.045 75.9915 649.866 75.5133C649.686 75.0351 649.425 74.6658 649.084 74.4054C648.743 74.1449 648.329 74.0147 647.841 74.0147C647.344 74.0147 646.925 74.1497 646.584 74.4196C646.243 74.6895 645.985 75.0635 645.81 75.5417C645.635 76.0199 645.547 76.5739 645.547 77.2037C645.547 77.8381 645.635 78.3992 645.81 78.8869C645.99 79.3699 646.248 79.7486 646.584 80.0233C646.925 80.2931 647.344 80.4281 647.841 80.4281ZM660.549 82.8713C659.427 82.8713 658.461 82.644 657.651 82.1895C656.846 81.7302 656.226 81.0815 655.791 80.2434C655.355 79.4006 655.137 78.4039 655.137 77.2534C655.137 76.1312 655.355 75.1464 655.791 74.2988C656.226 73.4513 656.839 72.7908 657.63 72.3173C658.426 71.8438 659.358 71.6071 660.428 71.6071C661.148 71.6071 661.818 71.7231 662.438 71.9551C663.063 72.1824 663.608 72.5256 664.072 72.9849C664.541 73.4442 664.905 74.0218 665.166 74.7179C665.426 75.4091 665.556 76.2188 665.556 77.1468V77.9778H656.345V76.1028H662.708C662.708 75.6672 662.613 75.2813 662.424 74.9451C662.235 74.609 661.972 74.3462 661.636 74.1568C661.304 73.9627 660.918 73.8656 660.478 73.8656C660.019 73.8656 659.612 73.9721 659.256 74.1852C658.906 74.3935 658.631 74.6752 658.433 75.0304C658.234 75.3807 658.132 75.7714 658.127 76.2022V77.9849C658.127 78.5247 658.227 78.9911 658.426 79.3841C658.629 79.777 658.916 80.0801 659.285 80.2931C659.654 80.5062 660.092 80.6127 660.599 80.6127C660.935 80.6127 661.243 80.5654 661.522 80.4707C661.801 80.376 662.041 80.234 662.239 80.0446C662.438 79.8552 662.59 79.6232 662.694 79.3485L665.492 79.5332C665.35 80.2056 665.059 80.7927 664.619 81.2946C664.183 81.7917 663.62 82.18 662.928 82.4593C662.242 82.734 661.449 82.8713 660.549 82.8713ZM667.531 82.6582V71.7491H670.464V73.6525H670.578C670.776 72.9754 671.11 72.4641 671.579 72.1184C672.048 71.7681 672.587 71.5929 673.198 71.5929C673.35 71.5929 673.513 71.6023 673.688 71.6213C673.863 71.6402 674.017 71.6663 674.15 71.6994V74.3841C674.008 74.3414 673.811 74.3036 673.56 74.2704C673.31 74.2373 673.08 74.2207 672.872 74.2207C672.426 74.2207 672.029 74.3178 671.678 74.5119C671.333 74.7013 671.058 74.9664 670.854 75.3074C670.656 75.6483 670.556 76.0413 670.556 76.4863V82.6582H667.531ZM686.146 71.7491V74.0218H679.576V71.7491H686.146ZM681.068 69.1355H684.093V79.3059C684.093 79.5853 684.136 79.8031 684.221 79.9593C684.306 80.1109 684.425 80.2174 684.576 80.2789C684.732 80.3405 684.912 80.3713 685.116 80.3713C685.258 80.3713 685.4 80.3594 685.542 80.3358C685.684 80.3074 685.793 80.286 685.869 80.2718L686.345 82.5233C686.193 82.5706 685.98 82.6251 685.705 82.6866C685.431 82.7529 685.097 82.7931 684.704 82.8074C683.975 82.8358 683.336 82.7387 682.786 82.5162C682.242 82.2936 681.818 81.948 681.515 81.4792C681.212 81.0105 681.063 80.4186 681.068 79.7037V69.1355ZM691.377 76.3514V82.6582H688.351V68.1127H691.291V73.6738H691.419C691.665 73.0299 692.063 72.5256 692.612 72.161C693.162 71.7917 693.85 71.6071 694.679 71.6071C695.437 71.6071 696.097 71.7728 696.661 72.1042C697.229 72.4309 697.669 72.902 697.982 73.5176C698.299 74.1284 698.455 74.8599 698.45 75.7122V82.6582H695.425V76.252C695.43 75.5796 695.259 75.0564 694.913 74.6824C694.573 74.3083 694.094 74.1213 693.479 74.1213C693.067 74.1213 692.702 74.2089 692.385 74.3841C692.073 74.5592 691.826 74.8149 691.646 75.1511C691.471 75.4825 691.381 75.8826 691.377 76.3514ZM703.942 82.8642C703.246 82.8642 702.626 82.7434 702.081 82.502C701.537 82.2557 701.106 81.8935 700.789 81.4153C700.476 80.9324 700.32 80.331 700.32 79.6113C700.32 79.0053 700.431 78.4963 700.654 78.0843C700.876 77.6724 701.179 77.341 701.563 77.09C701.946 76.8391 702.382 76.6497 702.87 76.5218C703.362 76.394 703.878 76.304 704.418 76.252C705.053 76.1857 705.564 76.1241 705.952 76.0673C706.34 76.0057 706.622 75.9158 706.797 75.7974C706.973 75.679 707.06 75.5038 707.06 75.2718V75.2292C707.06 74.7794 706.918 74.4314 706.634 74.1852C706.355 73.939 705.957 73.8159 705.441 73.8159C704.896 73.8159 704.463 73.9366 704.141 74.1781C703.819 74.4148 703.606 74.7131 703.502 75.073L700.704 74.8457C700.846 74.1828 701.125 73.6099 701.542 73.127C701.958 72.6393 702.496 72.2652 703.154 72.0048C703.817 71.7396 704.584 71.6071 705.455 71.6071C706.061 71.6071 706.641 71.6781 707.195 71.8201C707.754 71.9622 708.249 72.1824 708.679 72.4806C709.115 72.7789 709.458 73.1625 709.709 73.6312C709.96 74.0952 710.086 74.6516 710.086 75.3002V82.6582H707.216V81.1454H707.131C706.956 81.4863 706.722 81.787 706.428 82.0474C706.134 82.3031 705.782 82.5043 705.37 82.6511C704.958 82.7931 704.482 82.8642 703.942 82.8642ZM704.809 80.7761C705.254 80.7761 705.647 80.6885 705.988 80.5133C706.329 80.3334 706.596 80.0919 706.79 79.7889C706.984 79.4859 707.081 79.1426 707.081 78.7591V77.6014C706.987 77.6629 706.857 77.7198 706.691 77.7718C706.53 77.8192 706.348 77.8642 706.144 77.9068C705.94 77.9447 705.737 77.9802 705.533 78.0133C705.33 78.0417 705.145 78.0678 704.979 78.0914C704.624 78.1435 704.314 78.2264 704.049 78.34C703.784 78.4537 703.578 78.6075 703.431 78.8017C703.284 78.9911 703.211 79.2278 703.211 79.5119C703.211 79.9238 703.36 80.2387 703.658 80.4565C703.961 80.6696 704.345 80.7761 704.809 80.7761ZM718.236 71.7491V74.0218H711.666V71.7491H718.236ZM713.157 69.1355H716.183V79.3059C716.183 79.5853 716.226 79.8031 716.311 79.9593C716.396 80.1109 716.514 80.2174 716.666 80.2789C716.822 80.3405 717.002 80.3713 717.206 80.3713C717.348 80.3713 717.49 80.3594 717.632 80.3358C717.774 80.3074 717.883 80.286 717.959 80.2718L718.434 82.5233C718.283 82.5706 718.07 82.6251 717.795 82.6866C717.521 82.7529 717.187 82.7931 716.794 82.8074C716.065 82.8358 715.425 82.7387 714.876 82.5162C714.332 82.2936 713.908 81.948 713.605 81.4792C713.302 81.0105 713.153 80.4186 713.157 79.7037V69.1355ZM311.19 95.7491V98.0218H304.457V95.7491H311.19ZM305.998 106.658V94.9608C305.998 94.17 306.152 93.5143 306.46 92.9934C306.772 92.4726 307.199 92.082 307.738 91.8216C308.278 91.5611 308.891 91.4309 309.578 91.4309C310.042 91.4309 310.466 91.4664 310.849 91.5375C311.237 91.6085 311.526 91.6724 311.716 91.7292L311.176 94.002C311.057 93.9641 310.911 93.9286 310.736 93.8954C310.565 93.8623 310.39 93.8457 310.21 93.8457C309.765 93.8457 309.455 93.9499 309.28 94.1582C309.104 94.3618 309.017 94.6483 309.017 95.0176V106.658H305.998ZM313.038 106.658V95.7491H316.064V106.658H313.038ZM314.558 94.3429C314.109 94.3429 313.723 94.1937 313.401 93.8954C313.083 93.5924 312.925 93.2302 312.925 92.8088C312.925 92.3921 313.083 92.0346 313.401 91.7363C313.723 91.4333 314.109 91.2818 314.558 91.2818C315.008 91.2818 315.392 91.4333 315.709 91.7363C316.031 92.0346 316.192 92.3921 316.192 92.8088C316.192 93.2302 316.031 93.5924 315.709 93.8954C315.392 94.1937 315.008 94.3429 314.558 94.3429ZM321.513 92.1127V106.658H318.488V92.1127H321.513ZM329.739 95.7491V98.0218H323.17V95.7491H329.739ZM324.661 93.1355H327.687V103.306C327.687 103.585 327.729 103.803 327.815 103.959C327.9 104.111 328.018 104.217 328.17 104.279C328.326 104.34 328.506 104.371 328.71 104.371C328.852 104.371 328.994 104.359 329.136 104.336C329.278 104.307 329.387 104.286 329.462 104.272L329.938 106.523C329.787 106.571 329.574 106.625 329.299 106.687C329.024 106.753 328.691 106.793 328.298 106.807C327.569 106.836 326.929 106.739 326.38 106.516C325.836 106.294 325.412 105.948 325.109 105.479C324.806 105.01 324.657 104.419 324.661 103.704V93.1355ZM336.565 106.871C335.443 106.871 334.477 106.644 333.667 106.189C332.862 105.73 332.242 105.081 331.806 104.243C331.371 103.401 331.153 102.404 331.153 101.253C331.153 100.131 331.371 99.1464 331.806 98.2988C332.242 97.4513 332.855 96.7908 333.646 96.3173C334.441 95.8438 335.374 95.6071 336.444 95.6071C337.164 95.6071 337.834 95.7231 338.454 95.9551C339.079 96.1824 339.623 96.5256 340.087 96.9849C340.556 97.4442 340.921 98.0218 341.181 98.7179C341.442 99.4091 341.572 100.219 341.572 101.147V101.978H332.36V100.103H338.724C338.724 99.6672 338.629 99.2813 338.44 98.9451C338.25 98.609 337.988 98.3462 337.651 98.1568C337.32 97.9627 336.934 97.8656 336.494 97.8656C336.034 97.8656 335.627 97.9721 335.272 98.1852C334.922 98.3935 334.647 98.6752 334.448 99.0304C334.249 99.3807 334.148 99.7714 334.143 100.202V101.985C334.143 102.525 334.242 102.991 334.441 103.384C334.645 103.777 334.931 104.08 335.301 104.293C335.67 104.506 336.108 104.613 336.614 104.613C336.951 104.613 337.258 104.565 337.538 104.471C337.817 104.376 338.056 104.234 338.255 104.045C338.454 103.855 338.605 103.623 338.71 103.349L341.508 103.533C341.366 104.206 341.075 104.793 340.634 105.295C340.199 105.792 339.635 106.18 338.944 106.459C338.257 106.734 337.464 106.871 336.565 106.871ZM343.546 106.658V95.7491H346.479V97.6525H346.593C346.792 96.9754 347.126 96.4641 347.595 96.1184C348.063 95.7681 348.603 95.5929 349.214 95.5929C349.365 95.5929 349.529 95.6023 349.704 95.6213C349.879 95.6402 350.033 95.6663 350.166 95.6994V98.3841C350.024 98.3414 349.827 98.3036 349.576 98.2704C349.325 98.2373 349.095 98.2207 348.887 98.2207C348.442 98.2207 348.044 98.3178 347.694 98.5119C347.348 98.7013 347.074 98.9664 346.87 99.3074C346.671 99.6483 346.572 100.041 346.572 100.486V106.658H343.546ZM360.807 98.8599L358.037 99.0304C357.989 98.7936 357.888 98.5806 357.731 98.3912C357.575 98.197 357.369 98.0431 357.113 97.9295C356.862 97.8111 356.562 97.752 356.211 97.752C355.743 97.752 355.347 97.8514 355.025 98.0502C354.703 98.2444 354.542 98.5048 354.542 98.8315C354.542 99.0919 354.647 99.3121 354.855 99.492C355.063 99.6719 355.421 99.8163 355.927 99.9252L357.902 100.323C358.962 100.541 359.753 100.891 360.274 101.374C360.795 101.857 361.055 102.492 361.055 103.278C361.055 103.992 360.844 104.62 360.423 105.16C360.006 105.699 359.433 106.121 358.704 106.424C357.98 106.722 357.144 106.871 356.197 106.871C354.753 106.871 353.602 106.571 352.745 105.969C351.893 105.363 351.394 104.539 351.247 103.498L354.223 103.341C354.313 103.782 354.531 104.118 354.876 104.35C355.222 104.577 355.665 104.691 356.204 104.691C356.735 104.691 357.161 104.589 357.483 104.385C357.809 104.177 357.975 103.91 357.98 103.583C357.975 103.308 357.859 103.083 357.632 102.908C357.405 102.728 357.054 102.591 356.581 102.496L354.691 102.12C353.626 101.907 352.833 101.537 352.312 101.012C351.796 100.486 351.538 99.8163 351.538 99.002C351.538 98.3012 351.727 97.6975 352.106 97.1909C352.49 96.6842 353.027 96.2936 353.718 96.019C354.415 95.7444 355.229 95.6071 356.162 95.6071C357.54 95.6071 358.624 95.8983 359.415 96.4806C360.21 97.063 360.674 97.8561 360.807 98.8599ZM367.589 95.7491H370.615V107.198C370.615 108.041 370.449 108.723 370.118 109.243C369.786 109.764 369.31 110.145 368.69 110.387C368.075 110.628 367.338 110.749 366.481 110.749C366.377 110.749 366.278 110.747 366.183 110.742C366.084 110.742 365.979 110.74 365.87 110.735V108.37C365.951 108.375 366.022 108.377 366.084 108.377C366.14 108.382 366.202 108.384 366.268 108.384C366.756 108.384 367.097 108.28 367.291 108.072C367.49 107.868 367.589 107.56 367.589 107.148V95.7491ZM369.095 94.3429C368.65 94.3429 368.266 94.1937 367.944 93.8954C367.622 93.5924 367.461 93.2302 367.461 92.8088C367.461 92.3921 367.622 92.0346 367.944 91.7363C368.266 91.4333 368.65 91.2818 369.095 91.2818C369.549 91.2818 369.935 91.4333 370.253 91.7363C370.575 92.0346 370.736 92.3921 370.736 92.8088C370.736 93.2302 370.575 93.5924 370.253 93.8954C369.935 94.1937 369.549 94.3429 369.095 94.3429ZM377.967 106.871C376.864 106.871 375.91 106.637 375.105 106.168C374.305 105.695 373.687 105.037 373.252 104.194C372.816 103.346 372.598 102.364 372.598 101.246C372.598 100.119 372.816 99.1345 373.252 98.2917C373.687 97.4442 374.305 96.786 375.105 96.3173C375.91 95.8438 376.864 95.6071 377.967 95.6071C379.071 95.6071 380.022 95.8438 380.823 96.3173C381.627 96.786 382.248 97.4442 382.683 98.2917C383.119 99.1345 383.337 100.119 383.337 101.246C383.337 102.364 383.119 103.346 382.683 104.194C382.248 105.037 381.627 105.695 380.823 106.168C380.022 106.637 379.071 106.871 377.967 106.871ZM377.982 104.528C378.484 104.528 378.903 104.385 379.239 104.101C379.575 103.813 379.828 103.42 379.999 102.922C380.174 102.425 380.261 101.859 380.261 101.225C380.261 100.59 380.174 100.025 379.999 99.5275C379.828 99.0304 379.575 98.6374 379.239 98.3485C378.903 98.0597 378.484 97.9153 377.982 97.9153C377.475 97.9153 377.049 98.0597 376.703 98.3485C376.362 98.6374 376.104 99.0304 375.929 99.5275C375.759 100.025 375.673 100.59 375.673 101.225C375.673 101.859 375.759 102.425 375.929 102.922C376.104 103.42 376.362 103.813 376.703 104.101C377.049 104.385 377.475 104.528 377.982 104.528ZM385.361 106.658V92.1127H388.386V97.5815H388.479C388.611 97.2879 388.803 96.9896 389.054 96.6866C389.31 96.3788 389.641 96.1232 390.048 95.9196C390.46 95.7112 390.972 95.6071 391.582 95.6071C392.378 95.6071 393.112 95.8154 393.784 96.2321C394.457 96.644 394.994 97.2666 395.396 98.1C395.799 98.9286 396 99.9679 396 101.218C396 102.435 395.804 103.462 395.411 104.3C395.022 105.134 394.492 105.766 393.82 106.197C393.152 106.623 392.404 106.836 391.575 106.836C390.988 106.836 390.489 106.739 390.077 106.545C389.67 106.35 389.336 106.107 389.075 105.813C388.815 105.515 388.616 105.214 388.479 104.911H388.344V106.658H385.361ZM388.323 101.204C388.323 101.852 388.412 102.418 388.592 102.901C388.772 103.384 389.033 103.76 389.374 104.03C389.715 104.296 390.129 104.428 390.617 104.428C391.109 104.428 391.526 104.293 391.867 104.023C392.207 103.749 392.466 103.37 392.641 102.887C392.821 102.399 392.911 101.838 392.911 101.204C392.911 100.574 392.823 100.02 392.648 99.5417C392.473 99.0635 392.215 98.6895 391.874 98.4196C391.533 98.1497 391.114 98.0147 390.617 98.0147C390.124 98.0147 389.707 98.1449 389.367 98.4054C389.03 98.6658 388.772 99.0351 388.592 99.5133C388.412 99.9915 388.323 100.555 388.323 101.204ZM407.096 98.8599L404.326 99.0304C404.278 98.7936 404.177 98.5806 404.02 98.3912C403.864 98.197 403.658 98.0431 403.402 97.9295C403.151 97.8111 402.851 97.752 402.5 97.752C402.032 97.752 401.636 97.8514 401.314 98.0502C400.992 98.2444 400.831 98.5048 400.831 98.8315C400.831 99.0919 400.936 99.3121 401.144 99.492C401.352 99.6719 401.71 99.8163 402.216 99.9252L404.191 100.323C405.251 100.541 406.042 100.891 406.563 101.374C407.084 101.857 407.344 102.492 407.344 103.278C407.344 103.992 407.133 104.62 406.712 105.16C406.295 105.699 405.723 106.121 404.993 106.424C404.269 106.722 403.433 106.871 402.486 106.871C401.042 106.871 399.892 106.571 399.035 105.969C398.182 105.363 397.683 104.539 397.536 103.498L400.512 103.341C400.602 103.782 400.82 104.118 401.165 104.35C401.511 104.577 401.954 104.691 402.493 104.691C403.024 104.691 403.45 104.589 403.772 104.385C404.098 104.177 404.264 103.91 404.269 103.583C404.264 103.308 404.148 103.083 403.921 102.908C403.694 102.728 403.343 102.591 402.87 102.496L400.981 102.12C399.915 101.907 399.122 101.537 398.601 101.012C398.085 100.486 397.827 99.8163 397.827 99.002C397.827 98.3012 398.017 97.6975 398.395 97.1909C398.779 96.6842 399.316 96.2936 400.008 96.019C400.704 95.7444 401.518 95.6071 402.451 95.6071C403.829 95.6071 404.913 95.8983 405.704 96.4806C406.499 97.063 406.963 97.8561 407.096 98.8599ZM420.059 95.7491V97.1696H414.178V95.7491H420.059ZM415.94 106.658V94.2434C415.94 93.6184 416.086 93.0976 416.38 92.6809C416.674 92.2643 417.055 91.9518 417.524 91.7434C417.992 91.5351 418.487 91.4309 419.008 91.4309C419.42 91.4309 419.756 91.4641 420.016 91.5304C420.277 91.5966 420.471 91.6582 420.599 91.715L420.116 93.1639C420.031 93.1355 419.912 93.1 419.761 93.0574C419.614 93.0147 419.42 92.9934 419.178 92.9934C418.624 92.9934 418.224 93.1331 417.978 93.4125C417.737 93.6918 417.616 94.1014 417.616 94.6412V106.658H415.94ZM426.391 106.885C425.406 106.885 424.542 106.651 423.798 106.182C423.06 105.714 422.482 105.058 422.065 104.215C421.653 103.372 421.448 102.387 421.448 101.26C421.448 100.124 421.653 99.1322 422.065 98.2846C422.482 97.4371 423.06 96.7789 423.798 96.3102C424.542 95.8414 425.406 95.6071 426.391 95.6071C427.376 95.6071 428.237 95.8414 428.976 96.3102C429.719 96.7789 430.297 97.4371 430.709 98.2846C431.126 99.1322 431.334 100.124 431.334 101.26C431.334 102.387 431.126 103.372 430.709 104.215C430.297 105.058 429.719 105.714 428.976 106.182C428.237 106.651 427.376 106.885 426.391 106.885ZM426.391 105.38C427.139 105.38 427.754 105.188 428.237 104.805C428.72 104.421 429.078 103.917 429.31 103.292C429.542 102.667 429.658 101.99 429.658 101.26C429.658 100.531 429.542 99.8519 429.31 99.2221C429.078 98.5924 428.72 98.0834 428.237 97.6951C427.754 97.3069 427.139 97.1127 426.391 97.1127C425.643 97.1127 425.027 97.3069 424.544 97.6951C424.061 98.0834 423.704 98.5924 423.472 99.2221C423.24 99.8519 423.124 100.531 423.124 101.26C423.124 101.99 423.24 102.667 423.472 103.292C423.704 103.917 424.061 104.421 424.544 104.805C425.027 105.188 425.643 105.38 426.391 105.38ZM433.892 106.658V95.7491H435.512V97.3968H435.625C435.824 96.8571 436.184 96.4191 436.705 96.0829C437.226 95.7467 437.813 95.5787 438.466 95.5787C438.589 95.5787 438.743 95.581 438.928 95.5858C439.113 95.5905 439.252 95.5976 439.347 95.6071V97.3116C439.29 97.2974 439.16 97.2761 438.956 97.2477C438.758 97.2145 438.547 97.198 438.324 97.198C437.794 97.198 437.321 97.3092 436.904 97.5318C436.492 97.7496 436.165 98.0526 435.924 98.4409C435.687 98.8244 435.569 99.2624 435.569 99.7548V106.658H433.892ZM445.936 92.1127H447.953L451.987 98.9025H452.158L456.192 92.1127H458.209L452.953 100.664V106.658H451.192V100.664L445.936 92.1127ZM472.076 99.3855C472.076 100.92 471.799 102.245 471.245 103.363C470.691 104.48 469.931 105.342 468.965 105.948C467.999 106.554 466.896 106.857 465.656 106.857C464.415 106.857 463.312 106.554 462.346 105.948C461.38 105.342 460.62 104.48 460.066 103.363C459.512 102.245 459.235 100.92 459.235 99.3855C459.235 97.8514 459.512 96.5256 460.066 95.4082C460.62 94.2908 461.38 93.429 462.346 92.823C463.312 92.2169 464.415 91.9139 465.656 91.9139C466.896 91.9139 467.999 92.2169 468.965 92.823C469.931 93.429 470.691 94.2908 471.245 95.4082C471.799 96.5256 472.076 97.8514 472.076 99.3855ZM470.372 99.3855C470.372 98.126 470.161 97.063 469.739 96.1966C469.323 95.3301 468.757 94.6743 468.042 94.2292C467.332 93.7841 466.536 93.5616 465.656 93.5616C464.775 93.5616 463.977 93.7841 463.262 94.2292C462.552 94.6743 461.986 95.3301 461.565 96.1966C461.148 97.063 460.94 98.126 460.94 99.3855C460.94 100.645 461.148 101.708 461.565 102.574C461.986 103.441 462.552 104.097 463.262 104.542C463.977 104.987 464.775 105.209 465.656 105.209C466.536 105.209 467.332 104.987 468.042 104.542C468.757 104.097 469.323 103.441 469.739 102.574C470.161 101.708 470.372 100.645 470.372 99.3855ZM484.583 92.1127H486.345V101.743C486.345 102.738 486.11 103.626 485.641 104.407C485.177 105.183 484.522 105.796 483.674 106.246C482.827 106.691 481.832 106.914 480.691 106.914C479.55 106.914 478.556 106.691 477.708 106.246C476.861 105.796 476.203 105.183 475.734 104.407C475.27 103.626 475.038 102.738 475.038 101.743V92.1127H476.799V101.601C476.799 102.312 476.955 102.944 477.268 103.498C477.58 104.047 478.025 104.48 478.603 104.797C479.185 105.11 479.881 105.266 480.691 105.266C481.501 105.266 482.197 105.11 482.779 104.797C483.362 104.48 483.807 104.047 484.114 103.498C484.427 102.944 484.583 102.312 484.583 101.601V92.1127ZM500.004 95.7491V97.1696H494.351V95.7491H500.004ZM495.998 93.1355H497.674V103.533C497.674 104.007 497.743 104.362 497.88 104.599C498.022 104.831 498.202 104.987 498.42 105.067C498.643 105.143 498.877 105.181 499.123 105.181C499.308 105.181 499.459 105.171 499.578 105.153C499.696 105.129 499.791 105.11 499.862 105.096L500.203 106.601C500.089 106.644 499.931 106.687 499.727 106.729C499.523 106.777 499.265 106.8 498.953 106.8C498.479 106.8 498.015 106.698 497.561 106.495C497.111 106.291 496.737 105.981 496.439 105.564C496.145 105.148 495.998 104.622 495.998 103.988V93.1355ZM504.436 100.096V106.658H502.76V92.1127H504.436V97.4537H504.578C504.834 96.8902 505.217 96.4428 505.728 96.1113C506.245 95.7752 506.931 95.6071 507.788 95.6071C508.531 95.6071 509.182 95.7562 509.741 96.0545C510.3 96.3481 510.733 96.8002 511.041 97.411C511.353 98.0171 511.51 98.7889 511.51 99.7264V106.658H509.834V99.84C509.834 98.9735 509.609 98.3036 509.159 97.8301C508.714 97.3519 508.096 97.1127 507.305 97.1127C506.756 97.1127 506.263 97.2288 505.828 97.4608C505.397 97.6928 505.056 98.0313 504.805 98.4764C504.559 98.9215 504.436 99.4612 504.436 100.096ZM517.786 106.914C517.095 106.914 516.468 106.784 515.904 106.523C515.341 106.258 514.893 105.877 514.562 105.38C514.23 104.878 514.065 104.272 514.065 103.562C514.065 102.937 514.188 102.43 514.434 102.042C514.68 101.649 515.009 101.341 515.421 101.118C515.833 100.896 516.288 100.73 516.785 100.621C517.287 100.508 517.791 100.418 518.298 100.351C518.961 100.266 519.498 100.202 519.91 100.16C520.327 100.112 520.63 100.034 520.819 99.9252C521.013 99.8163 521.11 99.627 521.11 99.3571V99.3002C521.11 98.5995 520.918 98.055 520.535 97.6667C520.156 97.2785 519.581 97.0843 518.809 97.0843C518.009 97.0843 517.381 97.2595 516.927 97.6099C516.472 97.9603 516.153 98.3343 515.968 98.7321L514.377 98.1639C514.661 97.501 515.04 96.9849 515.514 96.6156C515.992 96.2415 516.513 95.9811 517.076 95.8343C517.644 95.6828 518.203 95.6071 518.752 95.6071C519.103 95.6071 519.505 95.6497 519.96 95.7349C520.419 95.8154 520.862 95.9835 521.288 96.2392C521.719 96.4949 522.076 96.8807 522.36 97.3968C522.644 97.9129 522.786 98.6042 522.786 99.4707V106.658H521.11V105.181H521.025C520.911 105.418 520.722 105.671 520.457 105.941C520.192 106.211 519.839 106.44 519.399 106.63C518.958 106.819 518.421 106.914 517.786 106.914ZM518.042 105.408C518.705 105.408 519.264 105.278 519.718 105.018C520.177 104.757 520.523 104.421 520.755 104.009C520.992 103.597 521.11 103.164 521.11 102.709V101.175C521.039 101.26 520.883 101.339 520.641 101.41C520.405 101.476 520.13 101.535 519.818 101.587C519.51 101.635 519.209 101.677 518.916 101.715C518.627 101.748 518.392 101.777 518.212 101.8C517.777 101.857 517.37 101.949 516.991 102.077C516.617 102.2 516.314 102.387 516.082 102.638C515.854 102.885 515.741 103.221 515.741 103.647C515.741 104.229 515.956 104.67 516.387 104.968C516.823 105.261 517.374 105.408 518.042 105.408ZM530.59 95.7491V97.1696H524.937V95.7491H530.59ZM526.584 93.1355H528.26V103.533C528.26 104.007 528.329 104.362 528.466 104.599C528.608 104.831 528.788 104.987 529.006 105.067C529.229 105.143 529.463 105.181 529.709 105.181C529.894 105.181 530.045 105.171 530.164 105.153C530.282 105.129 530.377 105.11 530.448 105.096L530.789 106.601C530.675 106.644 530.517 106.687 530.313 106.729C530.109 106.777 529.851 106.8 529.539 106.8C529.065 106.8 528.601 106.698 528.147 106.495C527.697 106.291 527.323 105.981 527.025 105.564C526.731 105.148 526.584 104.622 526.584 103.988V93.1355ZM543.168 106.885C542.145 106.885 541.265 106.644 540.526 106.161C539.787 105.678 539.219 105.013 538.821 104.165C538.424 103.318 538.225 102.349 538.225 101.26C538.225 100.153 538.428 99.1748 538.836 98.3272C539.248 97.475 539.821 96.8097 540.554 96.3315C541.293 95.8485 542.155 95.6071 543.14 95.6071C543.907 95.6071 544.598 95.7491 545.214 96.0332C545.829 96.3173 546.333 96.715 546.726 97.2264C547.119 97.7377 547.363 98.3343 547.458 99.0162H545.782C545.654 98.519 545.37 98.0787 544.929 97.6951C544.494 97.3069 543.907 97.1127 543.168 97.1127C542.515 97.1127 541.942 97.2832 541.449 97.6241C540.962 97.9603 540.58 98.4361 540.306 99.0517C540.036 99.6625 539.901 100.38 539.901 101.204C539.901 102.046 540.034 102.78 540.299 103.405C540.569 104.03 540.947 104.516 541.435 104.861C541.928 105.207 542.505 105.38 543.168 105.38C543.604 105.38 543.999 105.304 544.354 105.153C544.709 105.001 545.01 104.783 545.256 104.499C545.502 104.215 545.678 103.874 545.782 103.476H547.458C547.363 104.12 547.129 104.7 546.755 105.216C546.385 105.728 545.895 106.135 545.285 106.438C544.678 106.736 543.973 106.885 543.168 106.885ZM553.118 106.914C552.427 106.914 551.8 106.784 551.236 106.523C550.673 106.258 550.225 105.877 549.894 105.38C549.562 104.878 549.397 104.272 549.397 103.562C549.397 102.937 549.52 102.43 549.766 102.042C550.012 101.649 550.341 101.341 550.753 101.118C551.165 100.896 551.62 100.73 552.117 100.621C552.619 100.508 553.123 100.418 553.63 100.351C554.293 100.266 554.83 100.202 555.242 100.16C555.659 100.112 555.962 100.034 556.151 99.9252C556.345 99.8163 556.442 99.627 556.442 99.3571V99.3002C556.442 98.5995 556.25 98.055 555.867 97.6667C555.488 97.2785 554.913 97.0843 554.141 97.0843C553.341 97.0843 552.714 97.2595 552.259 97.6099C551.804 97.9603 551.485 98.3343 551.3 98.7321L549.709 98.1639C549.993 97.501 550.372 96.9849 550.846 96.6156C551.324 96.2415 551.845 95.9811 552.408 95.8343C552.976 95.6828 553.535 95.6071 554.084 95.6071C554.435 95.6071 554.837 95.6497 555.292 95.7349C555.751 95.8154 556.194 95.9835 556.62 96.2392C557.051 96.4949 557.408 96.8807 557.692 97.3968C557.976 97.9129 558.118 98.6042 558.118 99.4707V106.658H556.442V105.181H556.357C556.243 105.418 556.054 105.671 555.789 105.941C555.524 106.211 555.171 106.44 554.731 106.63C554.29 106.819 553.753 106.914 553.118 106.914ZM553.374 105.408C554.037 105.408 554.596 105.278 555.05 105.018C555.509 104.757 555.855 104.421 556.087 104.009C556.324 103.597 556.442 103.164 556.442 102.709V101.175C556.371 101.26 556.215 101.339 555.973 101.41C555.737 101.476 555.462 101.535 555.15 101.587C554.842 101.635 554.541 101.677 554.248 101.715C553.959 101.748 553.724 101.777 553.544 101.8C553.109 101.857 552.702 101.949 552.323 102.077C551.949 102.2 551.646 102.387 551.414 102.638C551.187 102.885 551.073 103.221 551.073 103.647C551.073 104.229 551.288 104.67 551.719 104.968C552.155 105.261 552.706 105.408 553.374 105.408ZM562.854 100.096V106.658H561.178V95.7491H562.797V97.4537H562.939C563.195 96.8997 563.583 96.4546 564.104 96.1184C564.625 95.7775 565.297 95.6071 566.121 95.6071C566.859 95.6071 567.506 95.7586 568.06 96.0616C568.614 96.3599 569.045 96.8145 569.352 97.4252C569.66 98.0313 569.814 98.7984 569.814 99.7264V106.658H568.138V99.84C568.138 98.983 567.915 98.3154 567.47 97.8372C567.025 97.3542 566.414 97.1127 565.638 97.1127C565.103 97.1127 564.625 97.2288 564.203 97.4608C563.787 97.6928 563.457 98.0313 563.216 98.4764C562.975 98.9215 562.854 99.4612 562.854 100.096ZM578.729 106.658V92.1127H580.405V97.4821H580.547C580.67 97.2927 580.841 97.0512 581.059 96.7576C581.281 96.4593 581.598 96.1942 582.01 95.9622C582.427 95.7254 582.991 95.6071 583.701 95.6071C584.619 95.6071 585.429 95.8367 586.13 96.296C586.83 96.7553 587.377 97.4063 587.77 98.2491C588.163 99.0919 588.36 100.086 588.36 101.232C588.36 102.387 588.163 103.389 587.77 104.236C587.377 105.079 586.833 105.733 586.137 106.197C585.441 106.656 584.638 106.885 583.729 106.885C583.028 106.885 582.467 106.769 582.046 106.537C581.624 106.301 581.3 106.033 581.073 105.735C580.846 105.432 580.67 105.181 580.547 104.982H580.348V106.658H578.729ZM580.377 101.204C580.377 102.028 580.498 102.754 580.739 103.384C580.981 104.009 581.333 104.499 581.797 104.854C582.261 105.205 582.83 105.38 583.502 105.38C584.203 105.38 584.787 105.195 585.256 104.826C585.73 104.452 586.085 103.95 586.321 103.32C586.563 102.686 586.684 101.98 586.684 101.204C586.684 100.437 586.565 99.7453 586.329 99.1298C586.097 98.5095 585.744 98.0195 585.27 97.6596C584.802 97.295 584.212 97.1127 583.502 97.1127C582.82 97.1127 582.247 97.2856 581.783 97.6312C581.319 97.9721 580.969 98.4503 580.732 99.0659C580.495 99.6767 580.377 100.389 580.377 101.204ZM595.498 106.885C594.446 106.885 593.54 106.653 592.777 106.189C592.02 105.721 591.435 105.067 591.023 104.229C590.616 103.386 590.412 102.406 590.412 101.289C590.412 100.171 590.616 99.1866 591.023 98.3343C591.435 97.4773 592.008 96.8097 592.742 96.3315C593.481 95.8485 594.342 95.6071 595.327 95.6071C595.895 95.6071 596.456 95.7018 597.01 95.8912C597.564 96.0806 598.069 96.3883 598.523 96.8145C598.978 97.2359 599.34 97.7946 599.61 98.4906C599.88 99.1866 600.015 100.044 600.015 101.062V101.772H591.606V100.323H598.31C598.31 99.7074 598.187 99.1582 597.941 98.6752C597.699 98.1923 597.354 97.8111 596.904 97.5318C596.459 97.2524 595.933 97.1127 595.327 97.1127C594.66 97.1127 594.082 97.2785 593.594 97.6099C593.111 97.9366 592.74 98.3627 592.479 98.8883C592.219 99.4139 592.089 99.9773 592.089 100.579V101.545C592.089 102.368 592.231 103.067 592.515 103.64C592.803 104.208 593.204 104.641 593.715 104.939C594.226 105.233 594.821 105.38 595.498 105.38C595.938 105.38 596.336 105.318 596.691 105.195C597.051 105.067 597.361 104.878 597.621 104.627C597.882 104.371 598.083 104.054 598.225 103.675L599.844 104.13C599.674 104.679 599.387 105.162 598.985 105.579C598.582 105.991 598.085 106.313 597.493 106.545C596.901 106.772 596.236 106.885 595.498 106.885ZM612.309 106.885C611.4 106.885 610.597 106.656 609.901 106.197C609.205 105.733 608.66 105.079 608.267 104.236C607.874 103.389 607.678 102.387 607.678 101.232C607.678 100.086 607.874 99.0919 608.267 98.2491C608.66 97.4063 609.207 96.7553 609.908 96.296C610.609 95.8367 611.419 95.6071 612.337 95.6071C613.047 95.6071 613.608 95.7254 614.02 95.9622C614.437 96.1942 614.754 96.4593 614.972 96.7576C615.195 97.0512 615.367 97.2927 615.491 97.4821H615.633V92.1127H617.309V106.658H615.689V104.982H615.491C615.367 105.181 615.192 105.432 614.965 105.735C614.738 106.033 614.413 106.301 613.992 106.537C613.571 106.769 613.009 106.885 612.309 106.885ZM612.536 105.38C613.208 105.38 613.776 105.205 614.241 104.854C614.705 104.499 615.057 104.009 615.299 103.384C615.54 102.754 615.661 102.028 615.661 101.204C615.661 100.389 615.543 99.6767 615.306 99.0659C615.069 98.4503 614.719 97.9721 614.255 97.6312C613.791 97.2856 613.218 97.1127 612.536 97.1127C611.826 97.1127 611.234 97.295 610.76 97.6596C610.292 98.0195 609.939 98.5095 609.702 99.1298C609.47 99.7453 609.354 100.437 609.354 101.204C609.354 101.98 609.473 102.686 609.709 103.32C609.951 103.95 610.306 104.452 610.775 104.826C611.248 105.195 611.835 105.38 612.536 105.38ZM625.043 106.885C624.058 106.885 623.194 106.651 622.451 106.182C621.712 105.714 621.134 105.058 620.718 104.215C620.306 103.372 620.1 102.387 620.1 101.26C620.1 100.124 620.306 99.1322 620.718 98.2846C621.134 97.4371 621.712 96.7789 622.451 96.3102C623.194 95.8414 624.058 95.6071 625.043 95.6071C626.028 95.6071 626.89 95.8414 627.628 96.3102C628.372 96.7789 628.949 97.4371 629.361 98.2846C629.778 99.1322 629.986 100.124 629.986 101.26C629.986 102.387 629.778 103.372 629.361 104.215C628.949 105.058 628.372 105.714 627.628 106.182C626.89 106.651 626.028 106.885 625.043 106.885ZM625.043 105.38C625.791 105.38 626.407 105.188 626.89 104.805C627.373 104.421 627.73 103.917 627.962 103.292C628.194 102.667 628.31 101.99 628.31 101.26C628.31 100.531 628.194 99.8519 627.962 99.2221C627.73 98.5924 627.373 98.0834 626.89 97.6951C626.407 97.3069 625.791 97.1127 625.043 97.1127C624.295 97.1127 623.679 97.3069 623.196 97.6951C622.714 98.0834 622.356 98.5924 622.124 99.2221C621.892 99.8519 621.776 100.531 621.776 101.26C621.776 101.99 621.892 102.667 622.124 103.292C622.356 103.917 622.714 104.421 623.196 104.805C623.679 105.188 624.295 105.38 625.043 105.38ZM634.221 100.096V106.658H632.545V95.7491H634.164V97.4537H634.306C634.562 96.8997 634.95 96.4546 635.471 96.1184C635.992 95.7775 636.664 95.6071 637.488 95.6071C638.227 95.6071 638.873 95.7586 639.427 96.0616C639.981 96.3599 640.412 96.8145 640.72 97.4252C641.027 98.0313 641.181 98.7984 641.181 99.7264V106.658H639.505V99.84C639.505 98.983 639.283 98.3154 638.837 97.8372C638.392 97.3542 637.782 97.1127 637.005 97.1127C636.47 97.1127 635.992 97.2288 635.57 97.4608C635.154 97.6928 634.825 98.0313 634.583 98.4764C634.342 98.9215 634.221 99.4612 634.221 100.096ZM648.818 106.885C647.767 106.885 646.86 106.653 646.098 106.189C645.34 105.721 644.755 105.067 644.343 104.229C643.936 103.386 643.733 102.406 643.733 101.289C643.733 100.171 643.936 99.1866 644.343 98.3343C644.755 97.4773 645.328 96.8097 646.062 96.3315C646.801 95.8485 647.663 95.6071 648.647 95.6071C649.216 95.6071 649.777 95.7018 650.331 95.8912C650.885 96.0806 651.389 96.3883 651.843 96.8145C652.298 97.2359 652.66 97.7946 652.93 98.4906C653.2 99.1866 653.335 100.044 653.335 101.062V101.772H644.926V100.323H651.63C651.63 99.7074 651.507 99.1582 651.261 98.6752C651.02 98.1923 650.674 97.8111 650.224 97.5318C649.779 97.2524 649.254 97.1127 648.647 97.1127C647.98 97.1127 647.402 97.2785 646.915 97.6099C646.432 97.9366 646.06 98.3627 645.799 98.8883C645.539 99.4139 645.409 99.9773 645.409 100.579V101.545C645.409 102.368 645.551 103.067 645.835 103.64C646.124 104.208 646.524 104.641 647.035 104.939C647.547 105.233 648.141 105.38 648.818 105.38C649.258 105.38 649.656 105.318 650.011 105.195C650.371 105.067 650.681 104.878 650.941 104.627C651.202 104.371 651.403 104.054 651.545 103.675L653.165 104.13C652.994 104.679 652.708 105.162 652.305 105.579C651.903 105.991 651.406 106.313 650.814 106.545C650.222 106.772 649.557 106.885 648.818 106.885ZM668.385 102.198V95.7491H670.061V106.658H668.385V104.812H668.271C668.015 105.366 667.618 105.837 667.078 106.225C666.538 106.608 665.856 106.8 665.032 106.8C664.351 106.8 663.745 106.651 663.214 106.353C662.684 106.05 662.267 105.595 661.964 104.989C661.661 104.378 661.51 103.609 661.51 102.681V95.7491H663.186V102.567C663.186 103.363 663.408 103.997 663.853 104.471C664.303 104.944 664.876 105.181 665.572 105.181C665.989 105.181 666.413 105.074 666.843 104.861C667.279 104.648 667.644 104.322 667.937 103.881C668.236 103.441 668.385 102.88 668.385 102.198ZM680.858 98.1923L679.352 98.6184C679.258 98.3675 679.118 98.1236 678.933 97.8869C678.753 97.6454 678.507 97.4466 678.195 97.2903C677.882 97.1341 677.482 97.0559 676.994 97.0559C676.327 97.0559 675.77 97.2098 675.325 97.5176C674.885 97.8206 674.665 98.2065 674.665 98.6752C674.665 99.0919 674.816 99.421 675.119 99.6625C675.422 99.9039 675.896 100.105 676.54 100.266L678.159 100.664C679.135 100.901 679.861 101.263 680.34 101.751C680.818 102.233 681.057 102.856 681.057 103.618C681.057 104.243 680.877 104.802 680.517 105.295C680.162 105.787 679.665 106.175 679.026 106.459C678.386 106.743 677.643 106.885 676.796 106.885C675.683 106.885 674.762 106.644 674.033 106.161C673.304 105.678 672.842 104.973 672.648 104.045L674.239 103.647C674.39 104.234 674.677 104.674 675.098 104.968C675.524 105.261 676.081 105.408 676.767 105.408C677.548 105.408 678.169 105.242 678.628 104.911C679.092 104.575 679.324 104.172 679.324 103.704C679.324 103.325 679.191 103.008 678.926 102.752C678.661 102.492 678.254 102.297 677.705 102.17L675.886 101.743C674.887 101.507 674.153 101.14 673.685 100.643C673.221 100.141 672.989 99.5133 672.989 98.7605C672.989 98.1449 673.162 97.6004 673.507 97.127C673.858 96.6535 674.333 96.2818 674.935 96.0119C675.541 95.742 676.227 95.6071 676.994 95.6071C678.074 95.6071 678.921 95.8438 679.537 96.3173C680.157 96.7908 680.598 97.4158 680.858 98.1923ZM683.58 106.658V95.7491H685.256V106.658H683.58ZM684.432 93.9309C684.106 93.9309 683.824 93.8197 683.587 93.5971C683.355 93.3746 683.239 93.1071 683.239 92.7946C683.239 92.4821 683.355 92.2145 683.587 91.992C683.824 91.7695 684.106 91.6582 684.432 91.6582C684.759 91.6582 685.038 91.7695 685.27 91.992C685.507 92.2145 685.625 92.4821 685.625 92.7946C685.625 93.1071 685.507 93.3746 685.27 93.5971C685.038 93.8197 684.759 93.9309 684.432 93.9309ZM690.002 100.096V106.658H688.326V95.7491H689.945V97.4537H690.087C690.343 96.8997 690.731 96.4546 691.252 96.1184C691.773 95.7775 692.445 95.6071 693.269 95.6071C694.008 95.6071 694.654 95.7586 695.208 96.0616C695.762 96.3599 696.193 96.8145 696.501 97.4252C696.809 98.0313 696.962 98.7984 696.962 99.7264V106.658H695.286V99.84C695.286 98.983 695.064 98.3154 694.619 97.8372C694.174 97.3542 693.563 97.1127 692.786 97.1127C692.251 97.1127 691.773 97.2288 691.352 97.4608C690.935 97.6928 690.606 98.0313 690.364 98.4764C690.123 98.9215 690.002 99.4612 690.002 100.096ZM704.429 110.976C703.619 110.976 702.923 110.872 702.341 110.664C701.758 110.46 701.273 110.19 700.885 109.854C700.501 109.523 700.196 109.168 699.968 108.789L701.304 107.851C701.455 108.05 701.647 108.278 701.879 108.533C702.111 108.794 702.428 109.019 702.831 109.208C703.238 109.402 703.771 109.499 704.429 109.499C705.309 109.499 706.036 109.286 706.609 108.86C707.182 108.434 707.468 107.766 707.468 106.857V104.641H707.326C707.203 104.84 707.028 105.086 706.801 105.38C706.578 105.669 706.256 105.927 705.835 106.154C705.418 106.376 704.855 106.488 704.145 106.488C703.264 106.488 702.473 106.279 701.772 105.863C701.076 105.446 700.525 104.84 700.118 104.045C699.715 103.249 699.514 102.283 699.514 101.147C699.514 100.029 699.71 99.0564 700.103 98.2278C700.496 97.3945 701.043 96.7505 701.744 96.296C702.445 95.8367 703.254 95.6071 704.173 95.6071C704.883 95.6071 705.447 95.7254 705.863 95.9622C706.285 96.1942 706.607 96.4593 706.829 96.7576C707.057 97.0512 707.232 97.2927 707.355 97.4821H707.525V95.7491H709.145V106.971C709.145 107.908 708.932 108.671 708.505 109.258C708.084 109.849 707.516 110.283 706.801 110.557C706.091 110.837 705.3 110.976 704.429 110.976ZM704.372 104.982C705.044 104.982 705.612 104.828 706.076 104.52C706.54 104.213 706.893 103.77 707.135 103.192C707.376 102.615 707.497 101.923 707.497 101.118C707.497 100.332 707.379 99.6388 707.142 99.0375C706.905 98.4361 706.555 97.965 706.091 97.6241C705.627 97.2832 705.054 97.1127 704.372 97.1127C703.662 97.1127 703.07 97.2927 702.596 97.6525C702.128 98.0124 701.775 98.4953 701.538 99.1014C701.306 99.7074 701.19 100.38 701.19 101.118C701.19 101.876 701.308 102.546 701.545 103.128C701.787 103.706 702.142 104.161 702.611 104.492C703.084 104.819 703.671 104.982 704.372 104.982ZM718.662 106.658H716.815L722.156 92.1127H723.974L729.315 106.658H727.468L723.122 94.4139H723.008L718.662 106.658ZM719.343 100.976H726.787V102.539H719.343V100.976ZM733.342 92.1127V106.658H731.581V92.1127H733.342ZM738.834 102.567V102.482C738.843 101.578 738.938 100.858 739.118 100.323C739.298 99.7879 739.554 99.3547 739.885 99.0233C740.216 98.6918 740.614 98.3864 741.078 98.1071C741.358 97.9366 741.609 97.7354 741.831 97.5034C742.054 97.2666 742.229 96.9944 742.357 96.6866C742.489 96.3788 742.555 96.0379 742.555 95.6639C742.555 95.1999 742.447 94.7974 742.229 94.4565C742.011 94.1156 741.72 93.8528 741.355 93.6681C740.991 93.4835 740.586 93.3912 740.141 93.3912C739.752 93.3912 739.378 93.4716 739.019 93.6326C738.659 93.7936 738.358 94.0469 738.117 94.3926C737.875 94.7382 737.735 95.1904 737.698 95.7491H735.908C735.946 94.9442 736.154 94.2553 736.533 93.6824C736.916 93.1094 737.421 92.6715 738.046 92.3684C738.675 92.0654 739.374 91.9139 740.141 91.9139C740.974 91.9139 741.698 92.0796 742.314 92.411C742.934 92.7425 743.412 93.197 743.749 93.7747C744.09 94.3523 744.26 95.0105 744.26 95.7491C744.26 96.2699 744.18 96.7411 744.019 97.1625C743.862 97.5839 743.635 97.9603 743.337 98.2917C743.043 98.6232 742.688 98.9167 742.271 99.1724C741.855 99.4328 741.521 99.7074 741.27 99.9963C741.019 100.28 740.837 100.619 740.723 101.012C740.609 101.405 740.548 101.895 740.538 102.482V102.567H738.834ZM739.743 106.772C739.393 106.772 739.092 106.646 738.841 106.395C738.59 106.144 738.465 105.844 738.465 105.493C738.465 105.143 738.59 104.842 738.841 104.591C739.092 104.34 739.393 104.215 739.743 104.215C740.093 104.215 740.394 104.34 740.645 104.591C740.896 104.842 741.021 105.143 741.021 105.493C741.021 105.725 740.962 105.939 740.844 106.133C740.73 106.327 740.576 106.483 740.382 106.601C740.193 106.715 739.98 106.772 739.743 106.772Z" fill="black"/>
</svg>
