<svg width="812" height="211" viewBox="0 0 812 211" fill="none" xmlns="http://www.w3.org/2000/svg">
<rect x="184.033" y="142.018" width="573.057" height="68.877" rx="10" fill="#3B57F4" fill-opacity="0.12"/>
<rect x="165.883" y="125.018" width="609.358" height="68.877" rx="10" fill="#3B57F4" fill-opacity="0.12"/>
<rect x="0.199219" y="38.5684" width="97.6836" height="98" rx="48.8418" fill="#E7EAFF"/>
<path d="M45.4047 93.8468V93.3638C45.4141 91.7066 45.5609 90.3856 45.845 89.4007C46.1386 88.4159 46.5647 87.6204 47.1234 87.0144C47.6821 86.4083 48.3545 85.8591 49.1404 85.3667C49.7276 84.9879 50.2531 84.5949 50.7172 84.1877C51.1812 83.7805 51.5505 83.3307 51.8251 82.8382C52.0997 82.3364 52.237 81.7776 52.237 81.1621C52.237 80.5087 52.0808 79.9358 51.7683 79.4434C51.4558 78.9509 51.0344 78.5721 50.5041 78.307C49.9833 78.0418 49.4056 77.9093 48.7711 77.9093C48.1556 77.9093 47.5732 78.0466 47.024 78.3212C46.4747 78.5864 46.0249 78.9841 45.6745 79.5144C45.3242 80.0352 45.1348 80.6839 45.1064 81.4604H39.3109C39.3583 79.5665 39.8128 78.004 40.6745 76.7729C41.5363 75.5324 42.6774 74.6091 44.0978 74.003C45.5183 73.3875 47.0855 73.0797 48.7995 73.0797C50.684 73.0797 52.3507 73.3922 53.7995 74.0172C55.2484 74.6328 56.3848 75.5276 57.2086 76.7019C58.0325 77.8761 58.4444 79.2918 58.4444 80.949C58.4444 82.057 58.2598 83.0418 57.8904 83.9036C57.5306 84.7559 57.024 85.5134 56.3706 86.1763C55.7172 86.8297 54.9454 87.4216 54.0552 87.9519C53.3071 88.397 52.6916 88.861 52.2086 89.3439C51.7351 89.8269 51.38 90.3856 51.1433 91.0201C50.916 91.6545 50.7976 92.4358 50.7882 93.3638V93.8468H45.4047ZM48.2172 102.938C47.2702 102.938 46.4605 102.606 45.7882 101.943C45.1253 101.271 44.7986 100.466 44.8081 99.5286C44.7986 98.6006 45.1253 97.8051 45.7882 97.1422C46.4605 96.4793 47.2702 96.1479 48.2172 96.1479C49.1168 96.1479 49.9075 96.4793 50.5893 97.1422C51.2711 97.8051 51.6168 98.6006 51.6262 99.5286C51.6168 100.154 51.4511 100.727 51.1291 101.247C50.8166 101.759 50.4047 102.171 49.8933 102.483C49.3819 102.786 48.8232 102.938 48.2172 102.938Z" fill="#3B57F4"/>
<rect x="133.883" y="0.185547" width="678" height="174.766" rx="10" fill="#F5F7FF"/>
<rect x="175.312" y="24.1855" width="94.8213" height="126.766" rx="10" fill="#3B57F4" fill-opacity="0.19"/>
<rect x="169.075" y="24.1855" width="107.294" height="120.535" rx="10" fill="#3B57F4" fill-opacity="0.19"/>
<rect x="165.883" y="24.1855" width="113.679" height="116.139" rx="10" fill="#E9ECFF"/>
<path d="M230.024 74.2621C224.248 75.1886 218.988 78.1337 215.179 82.5736C212.776 81.9673 210.611 80.654 208.963 78.8037C207.315 76.9533 206.26 74.6511 205.935 72.1947C205.61 69.7384 206.03 67.241 207.139 65.0257C208.249 62.8104 209.998 60.979 212.16 59.7686C214.322 58.5582 216.798 58.0244 219.266 58.2363C221.735 58.4481 224.083 59.3959 226.007 60.957C227.932 62.5181 229.343 64.6207 230.059 66.9927C230.775 69.3647 230.763 71.8971 230.024 74.2621ZM211.907 87.4471C210.179 90.8221 209.207 94.6471 209.207 98.6971C209.207 104.592 211.268 110.001 214.706 114.254C202.705 112.886 195.707 104.561 195.707 96.4471V94.1971C195.707 92.4069 196.418 90.69 197.684 89.4241C198.95 88.1582 200.667 87.4471 202.457 87.4471H211.907ZM233.957 118.947C236.616 118.947 239.25 118.423 241.706 117.406C244.163 116.388 246.396 114.896 248.276 113.016C250.156 111.136 251.648 108.903 252.666 106.446C253.683 103.99 254.207 101.356 254.207 98.6971C254.207 96.0378 253.683 93.4046 252.666 90.9477C251.648 88.4909 250.156 86.2586 248.276 84.3782C246.396 82.4978 244.163 81.0062 241.706 79.9885C239.25 78.9709 236.616 78.4471 233.957 78.4471C228.586 78.4471 223.436 80.5806 219.638 84.3782C215.841 88.1758 213.707 93.3264 213.707 98.6971C213.707 104.068 215.841 109.218 219.638 113.016C223.436 116.814 228.586 118.947 233.957 118.947ZM233.957 87.4471C234.554 87.4471 235.126 87.6841 235.548 88.1061C235.97 88.528 236.207 89.1003 236.207 89.6971V96.4471H242.957C243.554 96.4471 244.126 96.6841 244.548 97.1061C244.97 97.528 245.207 98.1003 245.207 98.6971C245.207 99.2938 244.97 99.8661 244.548 100.288C244.126 100.71 243.554 100.947 242.957 100.947H236.207V107.697C236.207 108.294 235.97 108.866 235.548 109.288C235.126 109.71 234.554 109.947 233.957 109.947C233.36 109.947 232.788 109.71 232.366 109.288C231.944 108.866 231.707 108.294 231.707 107.697V100.947H224.957C224.36 100.947 223.788 100.71 223.366 100.288C222.944 99.8661 222.707 99.2938 222.707 98.6971C222.707 98.1003 222.944 97.528 223.366 97.1061C223.788 96.6841 224.36 96.4471 224.957 96.4471H231.707V89.6971C231.707 89.1003 231.944 88.528 232.366 88.1061C232.788 87.6841 233.36 87.4471 233.957 87.4471Z" fill="#3B57F4"/>
<path d="M307.965 70.5684L303.988 56.0229H305.777L308.817 67.8695H308.959L312.056 56.0229H314.044L317.141 67.8695H317.283L320.323 56.0229H322.113L318.135 70.5684H316.317L313.107 58.9774H312.993L309.783 70.5684H307.965ZM325.756 64.0059V70.5684H324.08V56.0229H325.756V61.3638H325.898C326.154 60.8004 326.537 60.3529 327.049 60.0215C327.565 59.6853 328.251 59.5172 329.108 59.5172C329.852 59.5172 330.503 59.6664 331.062 59.9647C331.62 60.2582 332.053 60.7104 332.361 61.3212C332.674 61.9273 332.83 62.699 332.83 63.6365V70.5684H331.154V63.7502C331.154 62.8837 330.929 62.2137 330.479 61.7402C330.034 61.262 329.416 61.0229 328.625 61.0229C328.076 61.0229 327.584 61.1389 327.148 61.3709C326.717 61.6029 326.376 61.9415 326.125 62.3865C325.879 62.8316 325.756 63.3714 325.756 64.0059ZM339.107 70.824C338.415 70.824 337.788 70.6938 337.225 70.4334C336.661 70.1683 336.214 69.7871 335.882 69.29C335.551 68.7881 335.385 68.182 335.385 67.4718C335.385 66.8468 335.508 66.3401 335.754 65.9519C336.001 65.5589 336.33 65.2511 336.742 65.0286C337.153 64.806 337.608 64.6403 338.105 64.5314C338.607 64.4178 339.111 64.3278 339.618 64.2615C340.281 64.1763 340.818 64.1124 341.23 64.0698C341.647 64.0224 341.95 63.9443 342.139 63.8354C342.333 63.7265 342.43 63.5371 342.43 63.2672V63.2104C342.43 62.5096 342.239 61.9651 341.855 61.5769C341.476 61.1886 340.901 60.9945 340.129 60.9945C339.329 60.9945 338.702 61.1697 338.247 61.5201C337.793 61.8704 337.473 62.2445 337.288 62.6422L335.698 62.074C335.982 61.4112 336.36 60.8951 336.834 60.5257C337.312 60.1517 337.833 59.8913 338.396 59.7445C338.965 59.593 339.523 59.5172 340.073 59.5172C340.423 59.5172 340.825 59.5598 341.28 59.6451C341.739 59.7256 342.182 59.8936 342.608 60.1493C343.039 60.405 343.396 60.7909 343.68 61.307C343.965 61.8231 344.107 62.5144 344.107 63.3809V70.5684H342.43V69.0911H342.345C342.232 69.3278 342.042 69.5811 341.777 69.851C341.512 70.1209 341.159 70.3506 340.719 70.54C340.278 70.7293 339.741 70.824 339.107 70.824ZM339.362 69.3184C340.025 69.3184 340.584 69.1882 341.038 68.9277C341.498 68.6673 341.843 68.3311 342.075 67.9192C342.312 67.5073 342.43 67.074 342.43 66.6195V65.0854C342.359 65.1706 342.203 65.2488 341.962 65.3198C341.725 65.3861 341.45 65.4453 341.138 65.4973C340.83 65.5447 340.529 65.5873 340.236 65.6252C339.947 65.6583 339.713 65.6867 339.533 65.7104C339.097 65.7672 338.69 65.8596 338.311 65.9874C337.937 66.1105 337.634 66.2975 337.402 66.5485C337.175 66.7947 337.061 67.1309 337.061 67.557C337.061 68.1394 337.277 68.5797 337.707 68.878C338.143 69.1716 338.695 69.3184 339.362 69.3184ZM351.91 59.6593V61.0797H346.257V59.6593H351.91ZM347.905 57.0456H349.581V67.4434C349.581 67.9168 349.649 68.272 349.787 68.5087C349.929 68.7407 350.109 68.897 350.326 68.9775C350.549 69.0532 350.783 69.0911 351.03 69.0911C351.214 69.0911 351.366 69.0816 351.484 69.0627C351.602 69.039 351.697 69.0201 351.768 69.0059L352.109 70.5115C351.995 70.5542 351.837 70.5968 351.633 70.6394C351.43 70.6867 351.172 70.7104 350.859 70.7104C350.386 70.7104 349.922 70.6086 349.467 70.405C349.017 70.2014 348.643 69.8913 348.345 69.4746C348.051 69.0579 347.905 68.5324 347.905 67.8979V57.0456ZM362.045 56.0229V70.5684H360.284V56.0229H362.045ZM370.207 59.6593V61.0797H364.327V59.6593H370.207ZM366.088 70.5684V58.1536C366.088 57.5286 366.235 57.0078 366.528 56.5911C366.822 56.1744 367.203 55.8619 367.672 55.6536C368.141 55.4453 368.636 55.3411 369.156 55.3411C369.568 55.3411 369.904 55.3742 370.165 55.4405C370.425 55.5068 370.619 55.5684 370.747 55.6252L370.264 57.074C370.179 57.0456 370.061 57.0101 369.909 56.9675C369.762 56.9249 369.568 56.9036 369.327 56.9036C368.773 56.9036 368.373 57.0433 368.127 57.3226C367.885 57.602 367.764 58.0115 367.764 58.5513V70.5684H366.088ZM377.159 56.0229H379.176L383.21 62.8127H383.38L387.415 56.0229H389.432L384.176 64.574V70.5684H382.415V64.574L377.159 56.0229ZM403.299 63.2956C403.299 64.8297 403.022 66.1555 402.468 67.2729C401.914 68.3903 401.154 69.2521 400.188 69.8581C399.222 70.4642 398.119 70.7672 396.878 70.7672C395.638 70.7672 394.535 70.4642 393.569 69.8581C392.603 69.2521 391.843 68.3903 391.289 67.2729C390.735 66.1555 390.458 64.8297 390.458 63.2956C390.458 61.7615 390.735 60.4358 391.289 59.3184C391.843 58.2009 392.603 57.3392 393.569 56.7331C394.535 56.1271 395.638 55.824 396.878 55.824C398.119 55.824 399.222 56.1271 400.188 56.7331C401.154 57.3392 401.914 58.2009 402.468 59.3184C403.022 60.4358 403.299 61.7615 403.299 63.2956ZM401.594 63.2956C401.594 62.0362 401.383 60.9732 400.962 60.1067C400.545 59.2402 399.98 58.5845 399.265 58.1394C398.554 57.6943 397.759 57.4718 396.878 57.4718C395.998 57.4718 395.2 57.6943 394.485 58.1394C393.775 58.5845 393.209 59.2402 392.787 60.1067C392.371 60.9732 392.162 62.0362 392.162 63.2956C392.162 64.5551 392.371 65.6181 392.787 66.4846C393.209 67.351 393.775 68.0068 394.485 68.4519C395.2 68.897 395.998 69.1195 396.878 69.1195C397.759 69.1195 398.554 68.897 399.265 68.4519C399.98 68.0068 400.545 67.351 400.962 66.4846C401.383 65.6181 401.594 64.5551 401.594 63.2956ZM415.806 56.0229H417.567V65.6536C417.567 66.6479 417.333 67.5357 416.864 68.3169C416.4 69.0935 415.744 69.7066 414.897 70.1564C414.049 70.6015 413.055 70.824 411.914 70.824C410.773 70.824 409.778 70.6015 408.931 70.1564C408.083 69.7066 407.425 69.0935 406.956 68.3169C406.492 67.5357 406.26 66.6479 406.26 65.6536V56.0229H408.022V65.5115C408.022 66.2218 408.178 66.8539 408.491 67.4078C408.803 67.9571 409.248 68.3903 409.826 68.7076C410.408 69.0201 411.104 69.1763 411.914 69.1763C412.723 69.1763 413.419 69.0201 414.002 68.7076C414.584 68.3903 415.029 67.9571 415.337 67.4078C415.65 66.8539 415.806 66.2218 415.806 65.5115V56.0229ZM430.914 70.7956C429.891 70.7956 429.011 70.5542 428.272 70.0712C427.533 69.5882 426.965 68.923 426.568 68.0755C426.17 67.2279 425.971 66.2596 425.971 65.1706C425.971 64.0627 426.175 63.0849 426.582 62.2374C426.994 61.3851 427.567 60.7199 428.301 60.2417C429.039 59.7587 429.901 59.5172 430.886 59.5172C431.653 59.5172 432.344 59.6593 432.96 59.9434C433.575 60.2275 434.079 60.6252 434.472 61.1365C434.865 61.6479 435.109 62.2445 435.204 62.9263H433.528C433.4 62.4292 433.116 61.9888 432.676 61.6053C432.24 61.217 431.653 61.0229 430.914 61.0229C430.261 61.0229 429.688 61.1934 429.195 61.5343C428.708 61.8704 428.327 62.3463 428.052 62.9618C427.782 63.5726 427.647 64.29 427.647 65.1138C427.647 65.9566 427.78 66.6905 428.045 67.3155C428.315 67.9405 428.694 68.4258 429.181 68.7715C429.674 69.1171 430.251 69.29 430.914 69.29C431.35 69.29 431.745 69.2142 432.1 69.0627C432.455 68.9112 432.756 68.6934 433.002 68.4093C433.248 68.1252 433.424 67.7843 433.528 67.3865H435.204C435.109 68.0305 434.875 68.6105 434.501 69.1266C434.131 69.638 433.641 70.0452 433.031 70.3482C432.425 70.6465 431.719 70.7956 430.914 70.7956ZM442.086 70.7956C441.101 70.7956 440.237 70.5613 439.494 70.0925C438.755 69.6238 438.177 68.968 437.761 68.1252C437.349 67.2824 437.143 66.2975 437.143 65.1706C437.143 64.0343 437.349 63.0423 437.761 62.1948C438.177 61.3472 438.755 60.6891 439.494 60.2203C440.237 59.7516 441.101 59.5172 442.086 59.5172C443.071 59.5172 443.933 59.7516 444.671 60.2203C445.415 60.6891 445.992 61.3472 446.404 62.1948C446.821 63.0423 447.029 64.0343 447.029 65.1706C447.029 66.2975 446.821 67.2824 446.404 68.1252C445.992 68.968 445.415 69.6238 444.671 70.0925C443.933 70.5613 443.071 70.7956 442.086 70.7956ZM442.086 69.29C442.834 69.29 443.45 69.0982 443.933 68.7147C444.416 68.3311 444.773 67.8269 445.005 67.2019C445.237 66.5769 445.353 65.8998 445.353 65.1706C445.353 64.4415 445.237 63.762 445.005 63.1323C444.773 62.5025 444.416 61.9935 443.933 61.6053C443.45 61.217 442.834 61.0229 442.086 61.0229C441.338 61.0229 440.722 61.217 440.239 61.6053C439.756 61.9935 439.399 62.5025 439.167 63.1323C438.935 63.762 438.819 64.4415 438.819 65.1706C438.819 65.8998 438.935 66.5769 439.167 67.2019C439.399 67.8269 439.756 68.3311 440.239 68.7147C440.722 69.0982 441.338 69.29 442.086 69.29ZM456.463 66.1081V59.6593H458.139V70.5684H456.463V68.7218H456.349C456.093 69.2757 455.696 69.7469 455.156 70.1351C454.616 70.5186 453.934 70.7104 453.111 70.7104C452.429 70.7104 451.823 70.5613 451.292 70.263C450.762 69.9599 450.345 69.5054 450.042 68.8993C449.739 68.2885 449.588 67.5191 449.588 66.5911V59.6593H451.264V66.4775C451.264 67.2729 451.486 67.9074 451.932 68.3809C452.381 68.8543 452.954 69.0911 453.65 69.0911C454.067 69.0911 454.491 68.9846 454.922 68.7715C455.357 68.5584 455.722 68.2317 456.015 67.7914C456.314 67.351 456.463 66.79 456.463 66.1081ZM462.885 56.0229V70.5684H461.209V56.0229H462.885ZM470.074 70.7956C469.165 70.7956 468.363 70.566 467.667 70.1067C466.971 69.6427 466.426 68.9893 466.033 68.1465C465.64 67.2989 465.444 66.2975 465.444 65.1422C465.444 63.9964 465.64 63.0021 466.033 62.1593C466.426 61.3165 466.973 60.6654 467.674 60.2061C468.374 59.7469 469.184 59.5172 470.103 59.5172C470.813 59.5172 471.374 59.6356 471.786 59.8723C472.203 60.1043 472.52 60.3695 472.738 60.6678C472.96 60.9614 473.133 61.2028 473.256 61.3922H473.398V56.0229H475.074V70.5684H473.455V68.8922H473.256C473.133 69.0911 472.958 69.342 472.731 69.6451C472.503 69.9434 472.179 70.2109 471.758 70.4476C471.336 70.6796 470.775 70.7956 470.074 70.7956ZM470.302 69.29C470.974 69.29 471.542 69.1148 472.006 68.7644C472.47 68.4093 472.823 67.9192 473.064 67.2942C473.306 66.6645 473.427 65.9377 473.427 65.1138C473.427 64.2994 473.308 63.5868 473.071 62.976C472.835 62.3605 472.484 61.8823 472.02 61.5414C471.556 61.1957 470.983 61.0229 470.302 61.0229C469.591 61.0229 468.999 61.2052 468.526 61.5698C468.057 61.9296 467.705 62.4197 467.468 63.04C467.236 63.6555 467.12 64.3468 467.12 65.1138C467.12 65.8903 467.238 66.5958 467.475 67.2303C467.716 67.86 468.071 68.3619 468.54 68.736C469.014 69.1053 469.601 69.29 470.302 69.29ZM488.59 74.8865C487.61 74.8865 486.769 74.7516 486.069 74.4817C485.373 74.2166 484.819 73.8543 484.407 73.3951C483.995 72.9358 483.727 72.4197 483.604 71.8468L486.402 71.4703C486.488 71.6882 486.623 71.8917 486.807 72.0811C486.992 72.2705 487.236 72.4221 487.539 72.5357C487.847 72.6541 488.221 72.7132 488.661 72.7132C489.319 72.7132 489.861 72.5523 490.287 72.2303C490.718 71.9131 490.934 71.3804 490.934 70.6323V68.6365H490.806C490.673 68.9396 490.474 69.226 490.209 69.4959C489.944 69.7658 489.603 69.986 489.187 70.1564C488.77 70.3269 488.273 70.4121 487.695 70.4121C486.876 70.4121 486.13 70.2227 485.458 69.8439C484.79 69.4604 484.258 68.8757 483.86 68.0897C483.467 67.2989 483.27 66.2999 483.27 65.0925C483.27 63.8567 483.472 62.8245 483.874 61.9959C484.276 61.1673 484.812 60.5471 485.479 60.1351C486.151 59.7232 486.888 59.5172 487.688 59.5172C488.299 59.5172 488.81 59.6214 489.222 59.8297C489.634 60.0333 489.965 60.289 490.216 60.5968C490.472 60.8998 490.669 61.1981 490.806 61.4917H490.919V59.6593H493.924V70.6749C493.924 71.6029 493.696 72.3794 493.242 73.0044C492.787 73.6294 492.158 74.0982 491.353 74.4107C490.553 74.7279 489.632 74.8865 488.59 74.8865ZM488.654 68.1394C489.142 68.1394 489.553 68.0186 489.89 67.7772C490.231 67.531 490.491 67.1806 490.671 66.726C490.856 66.2667 490.948 65.7175 490.948 65.0783C490.948 64.4391 490.858 63.8851 490.678 63.4164C490.498 62.9429 490.238 62.5759 489.897 62.3155C489.556 62.0551 489.142 61.9249 488.654 61.9249C488.157 61.9249 487.738 62.0598 487.397 62.3297C487.056 62.5949 486.798 62.9642 486.623 63.4377C486.447 63.9112 486.36 64.458 486.36 65.0783C486.36 65.708 486.447 66.2525 486.623 66.7118C486.803 67.1664 487.061 67.5191 487.397 67.7701C487.738 68.0163 488.157 68.1394 488.654 68.1394ZM501.303 70.7814C500.181 70.7814 499.215 70.5542 498.405 70.0996C497.6 69.6403 496.98 68.9917 496.544 68.1536C496.109 67.3108 495.891 66.3141 495.891 65.1635C495.891 64.0414 496.109 63.0565 496.544 62.209C496.98 61.3614 497.593 60.7009 498.384 60.2274C499.179 59.754 500.112 59.5172 501.182 59.5172C501.902 59.5172 502.572 59.6332 503.192 59.8652C503.817 60.0925 504.362 60.4358 504.826 60.8951C505.294 61.3543 505.659 61.932 505.919 62.628C506.18 63.3193 506.31 64.129 506.31 65.057V65.888H497.098V64.013H503.462C503.462 63.5774 503.367 63.1915 503.178 62.8553C502.989 62.5191 502.726 62.2563 502.39 62.0669C502.058 61.8728 501.672 61.7757 501.232 61.7757C500.773 61.7757 500.366 61.8823 500.01 62.0953C499.66 62.3037 499.385 62.5854 499.187 62.9405C498.988 63.2909 498.886 63.6815 498.881 64.1124V65.8951C498.881 66.4348 498.981 66.9012 499.179 67.2942C499.383 67.6872 499.669 67.9902 500.039 68.2033C500.408 68.4164 500.846 68.5229 501.353 68.5229C501.689 68.5229 501.997 68.4756 502.276 68.3809C502.555 68.2862 502.794 68.1441 502.993 67.9547C503.192 67.7653 503.344 67.5333 503.448 67.2587L506.246 67.4434C506.104 68.1157 505.813 68.7028 505.373 69.2047C504.937 69.7019 504.374 70.0901 503.682 70.3695C502.996 70.6441 502.203 70.7814 501.303 70.7814ZM514.087 59.6593V61.932H507.517V59.6593H514.087ZM509.009 57.0456H512.035V67.2161C512.035 67.4954 512.077 67.7132 512.162 67.8695C512.248 68.021 512.366 68.1275 512.517 68.1891C512.674 68.2507 512.854 68.2814 513.057 68.2814C513.199 68.2814 513.341 68.2696 513.483 68.2459C513.625 68.2175 513.734 68.1962 513.81 68.182L514.286 70.4334C514.134 70.4808 513.921 70.5352 513.647 70.5968C513.372 70.6631 513.038 70.7033 512.645 70.7175C511.916 70.7459 511.277 70.6489 510.728 70.4263C510.183 70.2038 509.759 69.8581 509.456 69.3894C509.153 68.9206 509.004 68.3288 509.009 67.6138V57.0456ZM523.798 70.7743C523.102 70.7743 522.481 70.6536 521.937 70.4121C521.392 70.1659 520.961 69.8037 520.644 69.3255C520.332 68.8425 520.176 68.2412 520.176 67.5215C520.176 66.9154 520.287 66.4064 520.509 65.9945C520.732 65.5826 521.035 65.2511 521.418 65.0002C521.802 64.7492 522.238 64.5598 522.725 64.432C523.218 64.3042 523.734 64.2142 524.274 64.1621C524.908 64.0958 525.419 64.0343 525.808 63.9775C526.196 63.9159 526.478 63.8259 526.653 63.7076C526.828 63.5892 526.916 63.414 526.916 63.182V63.1394C526.916 62.6896 526.774 62.3416 526.489 62.0953C526.21 61.8491 525.812 61.726 525.296 61.726C524.752 61.726 524.319 61.8468 523.997 62.0882C523.675 62.325 523.461 62.6233 523.357 62.9831L520.559 62.7559C520.701 62.093 520.98 61.5201 521.397 61.0371C521.814 60.5494 522.351 60.1754 523.009 59.9149C523.672 59.6498 524.439 59.5172 525.31 59.5172C525.917 59.5172 526.497 59.5882 527.051 59.7303C527.609 59.8723 528.104 60.0925 528.535 60.3908C528.97 60.6891 529.314 61.0726 529.565 61.5414C529.816 62.0054 529.941 62.5617 529.941 63.2104V70.5684H527.072V69.0556H526.987C526.811 69.3965 526.577 69.6971 526.283 69.9576C525.99 70.2132 525.637 70.4145 525.225 70.5613C524.813 70.7033 524.337 70.7743 523.798 70.7743ZM524.664 68.6863C525.109 68.6863 525.502 68.5987 525.843 68.4235C526.184 68.2435 526.452 68.0021 526.646 67.699C526.84 67.396 526.937 67.0527 526.937 66.6692V65.5115C526.842 65.5731 526.712 65.6299 526.546 65.682C526.385 65.7293 526.203 65.7743 525.999 65.8169C525.796 65.8548 525.592 65.8903 525.389 65.9235C525.185 65.9519 525 65.9779 524.835 66.0016C524.479 66.0537 524.169 66.1365 523.904 66.2502C523.639 66.3638 523.433 66.5177 523.286 66.7118C523.14 66.9012 523.066 67.138 523.066 67.4221C523.066 67.834 523.215 68.1489 523.514 68.3667C523.817 68.5797 524.2 68.6863 524.664 68.6863ZM541.846 70.7814C540.729 70.7814 539.768 70.5447 538.963 70.0712C538.163 69.593 537.547 68.9301 537.116 68.0826C536.69 67.235 536.477 66.2596 536.477 65.1564C536.477 64.039 536.692 63.0589 537.123 62.2161C537.559 61.3685 538.177 60.708 538.977 60.2346C539.777 59.7563 540.729 59.5172 541.832 59.5172C542.784 59.5172 543.617 59.69 544.332 60.0357C545.047 60.3813 545.613 60.8667 546.03 61.4917C546.446 62.1167 546.676 62.8506 546.718 63.6934H543.863C543.783 63.1489 543.57 62.7109 543.224 62.3794C542.883 62.0433 542.436 61.8752 541.882 61.8752C541.413 61.8752 541.004 62.003 540.653 62.2587C540.307 62.5096 540.038 62.8766 539.843 63.3596C539.649 63.8425 539.552 64.4273 539.552 65.1138C539.552 65.8098 539.647 66.4017 539.836 66.8894C540.031 67.3771 540.303 67.7488 540.653 68.0044C541.004 68.2601 541.413 68.388 541.882 68.388C542.227 68.388 542.538 68.3169 542.812 68.1749C543.092 68.0328 543.321 67.8269 543.501 67.557C543.686 67.2824 543.807 66.9533 543.863 66.5698H546.718C546.671 67.4031 546.444 68.137 546.037 68.7715C545.634 69.4012 545.078 69.8936 544.368 70.2488C543.657 70.6039 542.817 70.7814 541.846 70.7814ZM553.585 70.7814C552.481 70.7814 551.527 70.5471 550.722 70.0783C549.922 69.6048 549.304 68.9467 548.869 68.1039C548.433 67.2563 548.215 66.2739 548.215 65.1564C548.215 64.0295 548.433 63.0447 548.869 62.2019C549.304 61.3543 549.922 60.6962 550.722 60.2274C551.527 59.754 552.481 59.5172 553.585 59.5172C554.688 59.5172 555.64 59.754 556.44 60.2274C557.245 60.6962 557.865 61.3543 558.301 62.2019C558.736 63.0447 558.954 64.0295 558.954 65.1564C558.954 66.2739 558.736 67.2563 558.301 68.1039C557.865 68.9467 557.245 69.6048 556.44 70.0783C555.64 70.5471 554.688 70.7814 553.585 70.7814ZM553.599 68.4377C554.101 68.4377 554.52 68.2956 554.856 68.0115C555.192 67.7227 555.445 67.3297 555.616 66.8326C555.791 66.3354 555.879 65.7696 555.879 65.1351C555.879 64.5007 555.791 63.9348 555.616 63.4377C555.445 62.9405 555.192 62.5475 554.856 62.2587C554.52 61.9699 554.101 61.8255 553.599 61.8255C553.092 61.8255 552.666 61.9699 552.32 62.2587C551.979 62.5475 551.721 62.9405 551.546 63.4377C551.376 63.9348 551.291 64.5007 551.291 65.1351C551.291 65.7696 551.376 66.3354 551.546 66.8326C551.721 67.3297 551.979 67.7227 552.32 68.0115C552.666 68.2956 553.092 68.4377 553.599 68.4377ZM560.921 70.5684V59.6593H563.805V61.584H563.933C564.16 60.9448 564.539 60.4405 565.069 60.0712C565.599 59.7019 566.234 59.5172 566.972 59.5172C567.72 59.5172 568.357 59.7042 568.883 60.0783C569.408 60.4476 569.759 60.9495 569.934 61.584H570.048C570.27 60.959 570.673 60.4595 571.255 60.0854C571.842 59.7066 572.536 59.5172 573.336 59.5172C574.354 59.5172 575.18 59.8416 575.815 60.4902C576.454 61.1342 576.774 62.048 576.774 63.2317V70.5684H573.755V63.8283C573.755 63.2222 573.594 62.7677 573.272 62.4647C572.95 62.1616 572.548 62.0101 572.065 62.0101C571.515 62.0101 571.087 62.1853 570.779 62.5357C570.471 62.8813 570.318 63.3382 570.318 63.9064V70.5684H567.384V63.7644C567.384 63.2293 567.23 62.8032 566.923 62.486C566.62 62.1687 566.22 62.0101 565.722 62.0101C565.386 62.0101 565.083 62.0953 564.813 62.2658C564.548 62.4315 564.337 62.6659 564.181 62.9689C564.025 63.2672 563.947 63.6176 563.947 64.0201V70.5684H560.921ZM579.163 74.6593V59.6593H582.146V61.4917H582.281C582.414 61.1981 582.606 60.8998 582.857 60.5968C583.112 60.289 583.444 60.0333 583.851 59.8297C584.263 59.6214 584.774 59.5172 585.385 59.5172C586.18 59.5172 586.914 59.7256 587.587 60.1422C588.259 60.5542 588.796 61.1768 589.199 62.0101C589.601 62.8387 589.803 63.878 589.803 65.128C589.803 66.3449 589.606 67.3723 589.213 68.2104C588.825 69.0437 588.295 69.6758 587.622 70.1067C586.955 70.5328 586.207 70.7459 585.378 70.7459C584.791 70.7459 584.291 70.6489 583.879 70.4547C583.472 70.2606 583.138 70.0167 582.878 69.7232C582.618 69.4249 582.419 69.1242 582.281 68.8212H582.189V74.6593H579.163ZM582.125 65.1138C582.125 65.7625 582.215 66.3283 582.395 66.8113C582.575 67.2942 582.835 67.6706 583.176 67.9405C583.517 68.2057 583.931 68.3382 584.419 68.3382C584.912 68.3382 585.328 68.2033 585.669 67.9334C586.01 67.6588 586.268 67.28 586.443 66.7971C586.623 66.3094 586.713 65.7483 586.713 65.1138C586.713 64.4841 586.626 63.9301 586.45 63.4519C586.275 62.9737 586.017 62.5996 585.676 62.3297C585.335 62.0598 584.916 61.9249 584.419 61.9249C583.927 61.9249 583.51 62.0551 583.169 62.3155C582.833 62.5759 582.575 62.9453 582.395 63.4235C582.215 63.9017 582.125 64.4651 582.125 65.1138ZM594.845 56.0229V70.5684H591.82V56.0229H594.845ZM602.241 70.7814C601.118 70.7814 600.152 70.5542 599.343 70.0996C598.538 69.6403 597.918 68.9917 597.482 68.1536C597.046 67.3108 596.829 66.3141 596.829 65.1635C596.829 64.0414 597.046 63.0565 597.482 62.209C597.918 61.3614 598.531 60.7009 599.321 60.2274C600.117 59.754 601.05 59.5172 602.12 59.5172C602.839 59.5172 603.509 59.6332 604.13 59.8652C604.755 60.0925 605.299 60.4358 605.763 60.8951C606.232 61.3543 606.597 61.932 606.857 62.628C607.117 63.3193 607.248 64.129 607.248 65.057V65.888H598.036V64.013H604.4C604.4 63.5774 604.305 63.1915 604.116 62.8553C603.926 62.5191 603.663 62.2563 603.327 62.0669C602.996 61.8728 602.61 61.7757 602.169 61.7757C601.71 61.7757 601.303 61.8823 600.948 62.0953C600.598 62.3037 600.323 62.5854 600.124 62.9405C599.925 63.2909 599.823 63.6815 599.819 64.1124V65.8951C599.819 66.4348 599.918 66.9012 600.117 67.2942C600.321 67.6872 600.607 67.9902 600.976 68.2033C601.346 68.4164 601.784 68.5229 602.29 68.5229C602.626 68.5229 602.934 68.4756 603.214 68.3809C603.493 68.2862 603.732 68.1441 603.931 67.9547C604.13 67.7653 604.281 67.5333 604.385 67.2587L607.184 67.4434C607.042 68.1157 606.75 68.7028 606.31 69.2047C605.874 69.7019 605.311 70.0901 604.62 70.3695C603.933 70.6441 603.14 70.7814 602.241 70.7814ZM615.025 59.6593V61.932H608.455V59.6593H615.025ZM609.946 57.0456H612.972V67.2161C612.972 67.4954 613.015 67.7132 613.1 67.8695C613.185 68.021 613.303 68.1275 613.455 68.1891C613.611 68.2507 613.791 68.2814 613.995 68.2814C614.137 68.2814 614.279 68.2696 614.421 68.2459C614.563 68.2175 614.672 68.1962 614.748 68.182L615.223 70.4334C615.072 70.4808 614.859 70.5352 614.584 70.5968C614.31 70.6631 613.976 70.7033 613.583 70.7175C612.854 70.7459 612.214 70.6489 611.665 70.4263C611.121 70.2038 610.697 69.8581 610.394 69.3894C610.091 68.9206 609.942 68.3288 609.946 67.6138V57.0456ZM621.85 70.7814C620.728 70.7814 619.762 70.5542 618.952 70.0996C618.147 69.6403 617.527 68.9917 617.091 68.1536C616.656 67.3108 616.438 66.3141 616.438 65.1635C616.438 64.0414 616.656 63.0565 617.091 62.209C617.527 61.3614 618.14 60.7009 618.931 60.2274C619.726 59.754 620.659 59.5172 621.729 59.5172C622.449 59.5172 623.119 59.6332 623.739 59.8652C624.364 60.0925 624.909 60.4358 625.373 60.8951C625.841 61.3543 626.206 61.932 626.466 62.628C626.727 63.3193 626.857 64.129 626.857 65.057V65.888H617.645V64.013H624.009C624.009 63.5774 623.914 63.1915 623.725 62.8553C623.535 62.5191 623.273 62.2563 622.937 62.0669C622.605 61.8728 622.219 61.7757 621.779 61.7757C621.32 61.7757 620.912 61.8823 620.557 62.0953C620.207 62.3037 619.932 62.5854 619.733 62.9405C619.535 63.2909 619.433 63.6815 619.428 64.1124V65.8951C619.428 66.4348 619.527 66.9012 619.726 67.2942C619.93 67.6872 620.216 67.9902 620.586 68.2033C620.955 68.4164 621.393 68.5229 621.9 68.5229C622.236 68.5229 622.544 68.4756 622.823 68.3809C623.102 68.2862 623.341 68.1441 623.54 67.9547C623.739 67.7653 623.891 67.5333 623.995 67.2587L626.793 67.4434C626.651 68.1157 626.36 68.7028 625.919 69.2047C625.484 69.7019 624.92 70.0901 624.229 70.3695C623.543 70.6441 622.749 70.7814 621.85 70.7814ZM642.537 62.7701L639.767 62.9405C639.72 62.7038 639.618 62.4907 639.462 62.3013C639.305 62.1072 639.1 61.9533 638.844 61.8397C638.593 61.7213 638.292 61.6621 637.942 61.6621C637.473 61.6621 637.078 61.7615 636.756 61.9604C636.434 62.1545 636.273 62.4149 636.273 62.7417C636.273 63.0021 636.377 63.2222 636.585 63.4022C636.794 63.5821 637.151 63.7265 637.658 63.8354L639.632 64.2331C640.693 64.4509 641.484 64.8013 642.004 65.2843C642.525 65.7672 642.786 66.4017 642.786 67.1877C642.786 67.9026 642.575 68.53 642.153 69.0698C641.737 69.6096 641.164 70.031 640.435 70.334C639.71 70.6323 638.875 70.7814 637.928 70.7814C636.484 70.7814 635.333 70.4808 634.476 69.8794C633.624 69.2734 633.124 68.4495 632.977 67.4078L635.953 67.2516C636.043 67.6919 636.261 68.0281 636.607 68.2601C636.952 68.4874 637.395 68.601 637.935 68.601C638.465 68.601 638.891 68.4992 639.213 68.2956C639.54 68.0873 639.706 67.8198 639.71 67.4931C639.706 67.2185 639.59 66.9935 639.362 66.8184C639.135 66.6384 638.785 66.5011 638.311 66.4064L636.422 66.03C635.357 65.8169 634.564 65.4476 634.043 64.9221C633.527 64.3965 633.269 63.7265 633.269 62.9121C633.269 62.2114 633.458 61.6077 633.837 61.101C634.22 60.5944 634.758 60.2038 635.449 59.9292C636.145 59.6545 636.959 59.5172 637.892 59.5172C639.27 59.5172 640.354 59.8084 641.145 60.3908C641.94 60.9732 642.404 61.7663 642.537 62.7701ZM646.559 74.6593C646.175 74.6593 645.815 74.6285 645.479 74.5669C645.148 74.5101 644.873 74.4367 644.655 74.3468L645.337 72.0882C645.692 72.1971 646.012 72.2563 646.296 72.2658C646.585 72.2753 646.833 72.209 647.042 72.0669C647.255 71.9249 647.428 71.6834 647.56 71.3425L647.738 70.8809L643.824 59.6593H647.006L649.265 67.6706H649.378L651.658 59.6593H654.861L650.621 71.7473C650.418 72.3345 650.141 72.8458 649.79 73.2814C649.445 73.7218 649.007 74.0603 648.476 74.2971C647.946 74.5385 647.307 74.6593 646.559 74.6593ZM665.486 62.7701L662.716 62.9405C662.669 62.7038 662.567 62.4907 662.411 62.3013C662.255 62.1072 662.049 61.9533 661.793 61.8397C661.542 61.7213 661.241 61.6621 660.891 61.6621C660.422 61.6621 660.027 61.7615 659.705 61.9604C659.383 62.1545 659.222 62.4149 659.222 62.7417C659.222 63.0021 659.326 63.2222 659.535 63.4022C659.743 63.5821 660.1 63.7265 660.607 63.8354L662.581 64.2331C663.642 64.4509 664.433 64.8013 664.954 65.2843C665.474 65.7672 665.735 66.4017 665.735 67.1877C665.735 67.9026 665.524 68.53 665.103 69.0698C664.686 69.6096 664.113 70.031 663.384 70.334C662.66 70.6323 661.824 70.7814 660.877 70.7814C659.433 70.7814 658.282 70.4808 657.425 69.8794C656.573 69.2734 656.073 68.4495 655.927 67.4078L658.902 67.2516C658.992 67.6919 659.21 68.0281 659.556 68.2601C659.901 68.4874 660.344 68.601 660.884 68.601C661.414 68.601 661.84 68.4992 662.162 68.2956C662.489 68.0873 662.655 67.8198 662.66 67.4931C662.655 67.2185 662.539 66.9935 662.312 66.8184C662.084 66.6384 661.734 66.5011 661.26 66.4064L659.371 66.03C658.306 65.8169 657.513 65.4476 656.992 64.9221C656.476 64.3965 656.218 63.7265 656.218 62.9121C656.218 62.2114 656.407 61.6077 656.786 61.101C657.169 60.5944 657.707 60.2038 658.398 59.9292C659.094 59.6545 659.909 59.5172 660.841 59.5172C662.219 59.5172 663.303 59.8084 664.094 60.3908C664.89 60.9732 665.354 61.7663 665.486 62.7701ZM673.443 59.6593V61.932H666.873V59.6593H673.443ZM668.364 57.0456H671.39V67.2161C671.39 67.4954 671.433 67.7132 671.518 67.8695C671.603 68.021 671.721 68.1275 671.873 68.1891C672.029 68.2507 672.209 68.2814 672.413 68.2814C672.555 68.2814 672.697 68.2696 672.839 68.2459C672.981 68.2175 673.09 68.1962 673.166 68.182L673.641 70.4334C673.49 70.4808 673.277 70.5352 673.002 70.5968C672.728 70.6631 672.394 70.7033 672.001 70.7175C671.272 70.7459 670.632 70.6489 670.083 70.4263C669.539 70.2038 669.115 69.8581 668.812 69.3894C668.509 68.9206 668.36 68.3288 668.364 67.6138V57.0456ZM680.268 70.7814C679.146 70.7814 678.18 70.5542 677.37 70.0996C676.565 69.6403 675.945 68.9917 675.509 68.1536C675.074 67.3108 674.856 66.3141 674.856 65.1635C674.856 64.0414 675.074 63.0565 675.509 62.209C675.945 61.3614 676.558 60.7009 677.349 60.2274C678.144 59.754 679.077 59.5172 680.147 59.5172C680.867 59.5172 681.537 59.6332 682.157 59.8652C682.782 60.0925 683.327 60.4358 683.791 60.8951C684.259 61.3543 684.624 61.932 684.884 62.628C685.145 63.3193 685.275 64.129 685.275 65.057V65.888H676.063V64.013H682.427C682.427 63.5774 682.332 63.1915 682.143 62.8553C681.953 62.5191 681.691 62.2563 681.354 62.0669C681.023 61.8728 680.637 61.7757 680.197 61.7757C679.738 61.7757 679.33 61.8823 678.975 62.0953C678.625 62.3037 678.35 62.5854 678.151 62.9405C677.953 63.2909 677.851 63.6815 677.846 64.1124V65.8951C677.846 66.4348 677.945 66.9012 678.144 67.2942C678.348 67.6872 678.634 67.9902 679.004 68.2033C679.373 68.4164 679.811 68.5229 680.318 68.5229C680.654 68.5229 680.962 68.4756 681.241 68.3809C681.52 68.2862 681.759 68.1441 681.958 67.9547C682.157 67.7653 682.309 67.5333 682.413 67.2587L685.211 67.4434C685.069 68.1157 684.778 68.7028 684.337 69.2047C683.902 69.7019 683.338 70.0901 682.647 70.3695C681.961 70.6441 681.167 70.7814 680.268 70.7814ZM687.249 70.5684V59.6593H690.133V61.584H690.261C690.488 60.9448 690.867 60.4405 691.397 60.0712C691.927 59.7019 692.562 59.5172 693.301 59.5172C694.049 59.5172 694.685 59.7042 695.211 60.0783C695.737 60.4476 696.087 60.9495 696.262 61.584H696.376C696.598 60.959 697.001 60.4595 697.583 60.0854C698.17 59.7066 698.864 59.5172 699.664 59.5172C700.682 59.5172 701.508 59.8416 702.143 60.4902C702.782 61.1342 703.102 62.048 703.102 63.2317V70.5684H700.083V63.8283C700.083 63.2222 699.922 62.7677 699.6 62.4647C699.278 62.1616 698.876 62.0101 698.393 62.0101C697.844 62.0101 697.415 62.1853 697.107 62.5357C696.8 62.8813 696.646 63.3382 696.646 63.9064V70.5684H693.712V63.7644C693.712 63.2293 693.559 62.8032 693.251 62.486C692.948 62.1687 692.548 62.0101 692.051 62.0101C691.714 62.0101 691.411 62.0953 691.141 62.2658C690.876 62.4315 690.666 62.6659 690.509 62.9689C690.353 63.2672 690.275 63.6176 690.275 64.0201V70.5684H687.249ZM715.923 59.6593V61.932H709.353V59.6593H715.923ZM710.845 57.0456H713.87V67.2161C713.87 67.4954 713.913 67.7132 713.998 67.8695C714.084 68.021 714.202 68.1275 714.353 68.1891C714.51 68.2507 714.69 68.2814 714.893 68.2814C715.035 68.2814 715.177 68.2696 715.319 68.2459C715.461 68.2175 715.57 68.1962 715.646 68.182L716.122 70.4334C715.97 70.4808 715.757 70.5352 715.483 70.5968C715.208 70.6631 714.874 70.7033 714.481 70.7175C713.752 70.7459 713.113 70.6489 712.564 70.4263C712.019 70.2038 711.595 69.8581 711.292 69.3894C710.989 68.9206 710.84 68.3288 710.845 67.6138V57.0456ZM721.154 64.2615V70.5684H718.128V56.0229H721.069V61.584H721.196C721.443 60.94 721.84 60.4358 722.39 60.0712C722.939 59.7019 723.628 59.5172 724.456 59.5172C725.214 59.5172 725.874 59.6829 726.438 60.0144C727.006 60.3411 727.446 60.8122 727.759 61.4277C728.076 62.0385 728.232 62.7701 728.228 63.6223V70.5684H725.202V64.1621C725.207 63.4898 725.036 62.9666 724.691 62.5925C724.35 62.2185 723.872 62.0314 723.256 62.0314C722.844 62.0314 722.48 62.119 722.162 62.2942C721.85 62.4694 721.604 62.7251 721.424 63.0613C721.249 63.3927 721.159 63.7928 721.154 64.2615ZM733.72 70.7743C733.024 70.7743 732.403 70.6536 731.859 70.4121C731.314 70.1659 730.883 69.8037 730.566 69.3255C730.254 68.8425 730.097 68.2412 730.097 67.5215C730.097 66.9154 730.209 66.4064 730.431 65.9945C730.654 65.5826 730.957 65.2511 731.34 65.0002C731.724 64.7492 732.159 64.5598 732.647 64.432C733.14 64.3042 733.656 64.2142 734.195 64.1621C734.83 64.0958 735.341 64.0343 735.729 63.9775C736.118 63.9159 736.399 63.8259 736.575 63.7076C736.75 63.5892 736.837 63.414 736.837 63.182V63.1394C736.837 62.6896 736.695 62.3416 736.411 62.0953C736.132 61.8491 735.734 61.726 735.218 61.726C734.674 61.726 734.24 61.8468 733.918 62.0882C733.596 62.325 733.383 62.6233 733.279 62.9831L730.481 62.7559C730.623 62.093 730.902 61.5201 731.319 61.0371C731.736 60.5494 732.273 60.1754 732.931 59.9149C733.594 59.6498 734.361 59.5172 735.232 59.5172C735.838 59.5172 736.418 59.5882 736.972 59.7303C737.531 59.8723 738.026 60.0925 738.457 60.3908C738.892 60.6891 739.236 61.0726 739.487 61.5414C739.738 62.0054 739.863 62.5617 739.863 63.2104V70.5684H736.994V69.0556H736.908C736.733 69.3965 736.499 69.6971 736.205 69.9576C735.912 70.2132 735.559 70.4145 735.147 70.5613C734.735 70.7033 734.259 70.7743 733.72 70.7743ZM734.586 68.6863C735.031 68.6863 735.424 68.5987 735.765 68.4235C736.106 68.2435 736.373 68.0021 736.568 67.699C736.762 67.396 736.859 67.0527 736.859 66.6692V65.5115C736.764 65.5731 736.634 65.6299 736.468 65.682C736.307 65.7293 736.125 65.7743 735.921 65.8169C735.718 65.8548 735.514 65.8903 735.31 65.9235C735.107 65.9519 734.922 65.9779 734.756 66.0016C734.401 66.0537 734.091 66.1365 733.826 66.2502C733.561 66.3638 733.355 66.5177 733.208 66.7118C733.061 66.9012 732.988 67.138 732.988 67.4221C732.988 67.834 733.137 68.1489 733.435 68.3667C733.738 68.5797 734.122 68.6863 734.586 68.6863ZM748.013 59.6593V61.932H741.443V59.6593H748.013ZM742.935 57.0456H745.96V67.2161C745.96 67.4954 746.003 67.7132 746.088 67.8695C746.173 68.021 746.292 68.1275 746.443 68.1891C746.6 68.2507 746.779 68.2814 746.983 68.2814C747.125 68.2814 747.267 68.2696 747.409 68.2459C747.551 68.2175 747.66 68.1962 747.736 68.182L748.212 70.4334C748.06 70.4808 747.847 70.5352 747.573 70.5968C747.298 70.6631 746.964 70.7033 746.571 70.7175C745.842 70.7459 745.203 70.6489 744.653 70.4263C744.109 70.2038 743.685 69.8581 743.382 69.3894C743.079 68.9206 742.93 68.3288 742.935 67.6138V57.0456ZM307.794 88.2615V94.5684H304.769V80.0229H307.709V85.584H307.837C308.083 84.94 308.481 84.4358 309.03 84.0712C309.58 83.7019 310.268 83.5172 311.097 83.5172C311.855 83.5172 312.515 83.6829 313.079 84.0144C313.647 84.3411 314.087 84.8122 314.4 85.4277C314.717 86.0385 314.873 86.7701 314.868 87.6223V94.5684H311.843V88.1621C311.848 87.4898 311.677 86.9666 311.331 86.5925C310.991 86.2185 310.512 86.0314 309.897 86.0314C309.485 86.0314 309.12 86.119 308.803 86.2942C308.491 86.4694 308.244 86.7251 308.064 87.0613C307.889 87.3927 307.799 87.7928 307.794 88.2615ZM322.221 94.7814C321.099 94.7814 320.133 94.5542 319.323 94.0996C318.518 93.6403 317.898 92.9917 317.462 92.1536C317.027 91.3108 316.809 90.3141 316.809 89.1635C316.809 88.0414 317.027 87.0565 317.462 86.209C317.898 85.3614 318.511 84.7009 319.302 84.2274C320.097 83.754 321.03 83.5172 322.1 83.5172C322.82 83.5172 323.49 83.6332 324.11 83.8652C324.735 84.0925 325.28 84.4358 325.744 84.8951C326.212 85.3543 326.577 85.932 326.837 86.628C327.098 87.3193 327.228 88.129 327.228 89.057V89.888H318.016V88.013H324.38C324.38 87.5774 324.285 87.1915 324.096 86.8553C323.907 86.5191 323.644 86.2563 323.308 86.0669C322.976 85.8728 322.59 85.7757 322.15 85.7757C321.691 85.7757 321.283 85.8823 320.928 86.0953C320.578 86.3037 320.303 86.5854 320.104 86.9405C319.906 87.2909 319.804 87.6815 319.799 88.1124V89.8951C319.799 90.4348 319.899 90.9012 320.097 91.2942C320.301 91.6872 320.587 91.9902 320.957 92.2033C321.326 92.4164 321.764 92.5229 322.271 92.5229C322.607 92.5229 322.915 92.4756 323.194 92.3809C323.473 92.2862 323.712 92.1441 323.911 91.9547C324.11 91.7653 324.262 91.5333 324.366 91.2587L327.164 91.4434C327.022 92.1157 326.731 92.7028 326.291 93.2047C325.855 93.7019 325.292 94.0901 324.6 94.3695C323.914 94.6441 323.121 94.7814 322.221 94.7814ZM332.228 80.0229V94.5684H329.203V80.0229H332.228ZM334.652 98.6593V83.6593H337.635V85.4917H337.77C337.902 85.1981 338.094 84.8998 338.345 84.5968C338.601 84.289 338.932 84.0333 339.339 83.8297C339.751 83.6214 340.263 83.5172 340.873 83.5172C341.669 83.5172 342.403 83.7256 343.075 84.1422C343.747 84.5542 344.285 85.1768 344.687 86.0101C345.09 86.8387 345.291 87.878 345.291 89.128C345.291 90.3449 345.094 91.3723 344.701 92.2104C344.313 93.0437 343.783 93.6758 343.111 94.1067C342.443 94.5328 341.695 94.7459 340.866 94.7459C340.279 94.7459 339.78 94.6489 339.368 94.4547C338.96 94.2606 338.627 94.0167 338.366 93.7232C338.106 93.4249 337.907 93.1242 337.77 92.8212H337.677V98.6593H334.652ZM337.613 89.1138C337.613 89.7625 337.703 90.3283 337.883 90.8113C338.063 91.2942 338.324 91.6706 338.665 91.9405C339.005 92.2057 339.42 92.3382 339.907 92.3382C340.4 92.3382 340.816 92.2033 341.157 91.9334C341.498 91.6588 341.756 91.28 341.932 90.7971C342.111 90.3094 342.201 89.7483 342.201 89.1138C342.201 88.4841 342.114 87.9301 341.939 87.4519C341.763 86.9737 341.505 86.5996 341.165 86.3297C340.824 86.0598 340.405 85.9249 339.907 85.9249C339.415 85.9249 338.998 86.0551 338.657 86.3155C338.321 86.5759 338.063 86.9453 337.883 87.4235C337.703 87.9017 337.613 88.4651 337.613 89.1138ZM356.385 86.7701L353.615 86.9405C353.567 86.7038 353.466 86.4907 353.309 86.3013C353.153 86.1072 352.947 85.9533 352.691 85.8397C352.441 85.7213 352.14 85.6621 351.79 85.6621C351.321 85.6621 350.925 85.7615 350.603 85.9604C350.281 86.1545 350.12 86.4149 350.12 86.7417C350.12 87.0021 350.225 87.2222 350.433 87.4022C350.641 87.5821 350.999 87.7265 351.505 87.8354L353.48 88.2331C354.54 88.4509 355.331 88.8013 355.852 89.2843C356.373 89.7672 356.633 90.4017 356.633 91.1877C356.633 91.9026 356.423 92.53 356.001 93.0698C355.584 93.6096 355.012 94.031 354.282 94.334C353.558 94.6323 352.722 94.7814 351.775 94.7814C350.331 94.7814 349.181 94.4808 348.324 93.8794C347.471 93.2734 346.972 92.4495 346.825 91.4078L349.801 91.2516C349.891 91.6919 350.109 92.0281 350.454 92.2601C350.8 92.4874 351.243 92.601 351.782 92.601C352.313 92.601 352.739 92.4992 353.061 92.2956C353.388 92.0873 353.553 91.8198 353.558 91.4931C353.553 91.2185 353.437 90.9935 353.21 90.8184C352.983 90.6384 352.632 90.5011 352.159 90.4064L350.27 90.03C349.204 89.8169 348.411 89.4476 347.89 88.9221C347.374 88.3965 347.116 87.7265 347.116 86.9121C347.116 86.2114 347.306 85.6077 347.684 85.101C348.068 84.5944 348.605 84.2038 349.297 83.9292C349.993 83.6545 350.807 83.5172 351.74 83.5172C353.118 83.5172 354.202 83.8084 354.993 84.3908C355.788 84.9732 356.252 85.7663 356.385 86.7701ZM365.035 98.6593C364.652 98.6593 364.292 98.6285 363.956 98.5669C363.624 98.5101 363.35 98.4367 363.132 98.3468L363.814 96.0882C364.169 96.1971 364.488 96.2563 364.772 96.2658C365.061 96.2753 365.31 96.209 365.518 96.0669C365.731 95.9249 365.904 95.6834 366.037 95.3425L366.214 94.8809L362.301 83.6593H365.483L367.741 91.6706H367.855L370.135 83.6593H373.338L369.098 95.7473C368.894 96.3345 368.617 96.8458 368.267 97.2814C367.921 97.7218 367.483 98.0603 366.953 98.2971C366.423 98.5385 365.783 98.6593 365.035 98.6593ZM379.464 94.7814C378.36 94.7814 377.406 94.5471 376.601 94.0783C375.801 93.6048 375.183 92.9467 374.748 92.1039C374.312 91.2563 374.094 90.2739 374.094 89.1564C374.094 88.0295 374.312 87.0447 374.748 86.2019C375.183 85.3543 375.801 84.6962 376.601 84.2274C377.406 83.754 378.36 83.5172 379.464 83.5172C380.567 83.5172 381.518 83.754 382.319 84.2274C383.124 84.6962 383.744 85.3543 384.179 86.2019C384.615 87.0447 384.833 88.0295 384.833 89.1564C384.833 90.2739 384.615 91.2563 384.179 92.1039C383.744 92.9467 383.124 93.6048 382.319 94.0783C381.518 94.5471 380.567 94.7814 379.464 94.7814ZM379.478 92.4377C379.98 92.4377 380.399 92.2956 380.735 92.0115C381.071 91.7227 381.324 91.3297 381.495 90.8326C381.67 90.3354 381.758 89.7696 381.758 89.1351C381.758 88.5007 381.67 87.9348 381.495 87.4377C381.324 86.9405 381.071 86.5475 380.735 86.2587C380.399 85.9699 379.98 85.8255 379.478 85.8255C378.971 85.8255 378.545 85.9699 378.199 86.2587C377.858 86.5475 377.6 86.9405 377.425 87.4377C377.255 87.9348 377.169 88.5007 377.169 89.1351C377.169 89.7696 377.255 90.3354 377.425 90.8326C377.6 91.3297 377.858 91.7227 378.199 92.0115C378.545 92.2956 378.971 92.4377 379.478 92.4377ZM393.796 89.9235V83.6593H396.821V94.5684H393.917V92.5868H393.803C393.557 93.226 393.147 93.7398 392.574 94.128C392.006 94.5163 391.312 94.7104 390.493 94.7104C389.764 94.7104 389.123 94.5447 388.569 94.2132C388.015 93.8818 387.581 93.4107 387.269 92.7999C386.961 92.1891 386.805 91.4576 386.8 90.6053V83.6593H389.826V90.0655C389.83 90.7095 390.003 91.2185 390.344 91.5925C390.685 91.9666 391.142 92.1536 391.715 92.1536C392.08 92.1536 392.42 92.0707 392.738 91.905C393.055 91.7346 393.311 91.4836 393.505 91.1522C393.704 90.8207 393.801 90.4112 393.796 89.9235ZM406.896 80.0229V94.5684H403.87V80.0229H406.896ZM412.43 94.7743C411.734 94.7743 411.114 94.6536 410.57 94.4121C410.025 94.1659 409.594 93.8037 409.277 93.3255C408.965 92.8425 408.808 92.2412 408.808 91.5215C408.808 90.9154 408.92 90.4064 409.142 89.9945C409.365 89.5826 409.668 89.2511 410.051 89.0002C410.435 88.7492 410.87 88.5598 411.358 88.432C411.85 88.3042 412.367 88.2142 412.906 88.1621C413.541 88.0958 414.052 88.0343 414.44 87.9775C414.829 87.9159 415.11 87.8259 415.286 87.7076C415.461 87.5892 415.548 87.414 415.548 87.182V87.1394C415.548 86.6896 415.406 86.3416 415.122 86.0953C414.843 85.8491 414.445 85.726 413.929 85.726C413.385 85.726 412.951 85.8468 412.629 86.0882C412.307 86.325 412.094 86.6233 411.99 86.9831L409.192 86.7559C409.334 86.093 409.613 85.5201 410.03 85.0371C410.447 84.5494 410.984 84.1754 411.642 83.9149C412.305 83.6498 413.072 83.5172 413.943 83.5172C414.549 83.5172 415.129 83.5882 415.683 83.7303C416.242 83.8723 416.737 84.0925 417.168 84.3908C417.603 84.6891 417.947 85.0726 418.198 85.5414C418.448 86.0054 418.574 86.5617 418.574 87.2104V94.5684H415.705V93.0556H415.619C415.444 93.3965 415.21 93.6971 414.916 93.9576C414.623 94.2132 414.27 94.4145 413.858 94.5613C413.446 94.7033 412.97 94.7743 412.43 94.7743ZM413.297 92.6863C413.742 92.6863 414.135 92.5987 414.476 92.4235C414.817 92.2435 415.084 92.0021 415.278 91.699C415.473 91.396 415.57 91.0527 415.57 90.6692V89.5115C415.475 89.5731 415.345 89.6299 415.179 89.682C415.018 89.7293 414.836 89.7743 414.632 89.8169C414.429 89.8548 414.225 89.8903 414.021 89.9235C413.818 89.9519 413.633 89.9779 413.467 90.0016C413.112 90.0537 412.802 90.1365 412.537 90.2502C412.272 90.3638 412.066 90.5177 411.919 90.7118C411.772 90.9012 411.699 91.138 411.699 91.4221C411.699 91.834 411.848 92.1489 412.146 92.3667C412.449 92.5797 412.833 92.6863 413.297 92.6863ZM423.947 88.2615V94.5684H420.921V83.6593H423.805V85.584H423.933C424.174 84.9495 424.579 84.4476 425.147 84.0783C425.715 83.7042 426.404 83.5172 427.214 83.5172C427.971 83.5172 428.632 83.6829 429.195 84.0144C429.759 84.3458 430.197 84.8193 430.509 85.4348C430.822 86.0456 430.978 86.7748 430.978 87.6223V94.5684H427.953V88.1621C427.957 87.4945 427.787 86.9737 427.441 86.5996C427.095 86.2208 426.62 86.0314 426.014 86.0314C425.606 86.0314 425.247 86.119 424.934 86.2942C424.626 86.4694 424.385 86.7251 424.21 87.0613C424.039 87.3927 423.952 87.7928 423.947 88.2615ZM437.383 94.7459C436.554 94.7459 435.803 94.5328 435.131 94.1067C434.464 93.6758 433.933 93.0437 433.54 92.2104C433.152 91.3723 432.958 90.3449 432.958 89.128C432.958 87.878 433.159 86.8387 433.562 86.0101C433.964 85.1768 434.499 84.5542 435.167 84.1422C435.839 83.7256 436.575 83.5172 437.375 83.5172C437.986 83.5172 438.495 83.6214 438.902 83.8297C439.314 84.0333 439.646 84.289 439.897 84.5968C440.152 84.8998 440.347 85.1981 440.479 85.4917H440.571V80.0229H443.59V94.5684H440.607V92.8212H440.479C440.337 93.1242 440.136 93.4249 439.875 93.7232C439.62 94.0167 439.286 94.2606 438.874 94.4547C438.467 94.6489 437.97 94.7459 437.383 94.7459ZM438.341 92.3382C438.829 92.3382 439.241 92.2057 439.577 91.9405C439.918 91.6706 440.178 91.2942 440.358 90.8113C440.543 90.3283 440.635 89.7625 440.635 89.1138C440.635 88.4651 440.545 87.9017 440.366 87.4235C440.186 86.9453 439.925 86.5759 439.584 86.3155C439.243 86.0551 438.829 85.9249 438.341 85.9249C437.844 85.9249 437.425 86.0598 437.084 86.3297C436.743 86.5996 436.485 86.9737 436.31 87.4519C436.135 87.9301 436.047 88.4841 436.047 89.1138C436.047 89.7483 436.135 90.3094 436.31 90.7971C436.49 91.28 436.748 91.6588 437.084 91.9334C437.425 92.2033 437.844 92.3382 438.341 92.3382ZM456.509 83.6593V85.932H449.939V83.6593H456.509ZM451.431 81.0456H454.456V91.2161C454.456 91.4954 454.499 91.7132 454.584 91.8695C454.669 92.021 454.788 92.1275 454.939 92.1891C455.096 92.2507 455.276 92.2814 455.479 92.2814C455.621 92.2814 455.763 92.2696 455.905 92.2459C456.047 92.2175 456.156 92.1962 456.232 92.182L456.708 94.4334C456.556 94.4808 456.343 94.5352 456.069 94.5968C455.794 94.6631 455.46 94.7033 455.067 94.7175C454.338 94.7459 453.699 94.6489 453.15 94.4263C452.605 94.2038 452.181 93.8581 451.878 93.3894C451.575 92.9206 451.426 92.3288 451.431 91.6138V81.0456ZM461.74 88.2615V94.5684H458.714V80.0229H461.655V85.584H461.782C462.029 84.94 462.426 84.4358 462.976 84.0712C463.525 83.7019 464.214 83.5172 465.042 83.5172C465.8 83.5172 466.46 83.6829 467.024 84.0144C467.592 84.3411 468.032 84.8122 468.345 85.4277C468.662 86.0385 468.818 86.7701 468.814 87.6223V94.5684H465.788V88.1621C465.793 87.4898 465.622 86.9666 465.277 86.5925C464.936 86.2185 464.458 86.0314 463.842 86.0314C463.43 86.0314 463.066 86.119 462.748 86.2942C462.436 86.4694 462.19 86.7251 462.01 87.0613C461.834 87.3927 461.745 87.7928 461.74 88.2615ZM476.166 94.7814C475.044 94.7814 474.078 94.5542 473.269 94.0996C472.464 93.6403 471.843 92.9917 471.408 92.1536C470.972 91.3108 470.754 90.3141 470.754 89.1635C470.754 88.0414 470.972 87.0565 471.408 86.209C471.843 85.3614 472.457 84.7009 473.247 84.2274C474.043 83.754 474.975 83.5172 476.046 83.5172C476.765 83.5172 477.435 83.6332 478.055 83.8652C478.68 84.0925 479.225 84.4358 479.689 84.8951C480.158 85.3543 480.522 85.932 480.783 86.628C481.043 87.3193 481.173 88.129 481.173 89.057V89.888H471.962V88.013H478.325C478.325 87.5774 478.231 87.1915 478.041 86.8553C477.852 86.5191 477.589 86.2563 477.253 86.0669C476.921 85.8728 476.536 85.7757 476.095 85.7757C475.636 85.7757 475.229 85.8823 474.874 86.0953C474.523 86.3037 474.249 86.5854 474.05 86.9405C473.851 87.2909 473.749 87.6815 473.744 88.1124V89.8951C473.744 90.4348 473.844 90.9012 474.043 91.2942C474.246 91.6872 474.533 91.9902 474.902 92.2033C475.271 92.4164 475.709 92.5229 476.216 92.5229C476.552 92.5229 476.86 92.4756 477.139 92.3809C477.419 92.2862 477.658 92.1441 477.857 91.9547C478.055 91.7653 478.207 91.5333 478.311 91.2587L481.109 91.4434C480.967 92.1157 480.676 92.7028 480.236 93.2047C479.8 93.7019 479.237 94.0901 478.546 94.3695C477.859 94.6441 477.066 94.7814 476.166 94.7814ZM492.225 86.7701L489.455 86.9405C489.407 86.7038 489.305 86.4907 489.149 86.3013C488.993 86.1072 488.787 85.9533 488.531 85.8397C488.28 85.7213 487.98 85.6621 487.629 85.6621C487.161 85.6621 486.765 85.7615 486.443 85.9604C486.121 86.1545 485.96 86.4149 485.96 86.7417C485.96 87.0021 486.064 87.2222 486.273 87.4022C486.481 87.5821 486.839 87.7265 487.345 87.8354L489.32 88.2331C490.38 88.4509 491.171 88.8013 491.692 89.2843C492.213 89.7672 492.473 90.4017 492.473 91.1877C492.473 91.9026 492.262 92.53 491.841 93.0698C491.424 93.6096 490.851 94.031 490.122 94.334C489.398 94.6323 488.562 94.7814 487.615 94.7814C486.171 94.7814 485.02 94.4808 484.163 93.8794C483.311 93.2734 482.812 92.4495 482.665 91.4078L485.641 91.2516C485.731 91.6919 485.948 92.0281 486.294 92.2601C486.64 92.4874 487.082 92.601 487.622 92.601C488.153 92.601 488.579 92.4992 488.901 92.2956C489.227 92.0873 489.393 91.8198 489.398 91.4931C489.393 91.2185 489.277 90.9935 489.05 90.8184C488.823 90.6384 488.472 90.5011 487.999 90.4064L486.109 90.03C485.044 89.8169 484.251 89.4476 483.73 88.9221C483.214 88.3965 482.956 87.7265 482.956 86.9121C482.956 86.2114 483.145 85.6077 483.524 85.101C483.908 84.5944 484.445 84.2038 485.136 83.9292C485.832 83.6545 486.647 83.5172 487.58 83.5172C488.957 83.5172 490.042 83.8084 490.832 84.3908C491.628 84.9732 492.092 85.7663 492.225 86.7701ZM499.35 94.7814C498.228 94.7814 497.262 94.5542 496.452 94.0996C495.647 93.6403 495.027 92.9917 494.591 92.1536C494.156 91.3108 493.938 90.3141 493.938 89.1635C493.938 88.0414 494.156 87.0565 494.591 86.209C495.027 85.3614 495.64 84.7009 496.431 84.2274C497.226 83.754 498.159 83.5172 499.229 83.5172C499.949 83.5172 500.619 83.6332 501.239 83.8652C501.864 84.0925 502.409 84.4358 502.873 84.8951C503.341 85.3543 503.706 85.932 503.966 86.628C504.227 87.3193 504.357 88.129 504.357 89.057V89.888H495.145V88.013H501.509C501.509 87.5774 501.414 87.1915 501.225 86.8553C501.035 86.5191 500.773 86.2563 500.437 86.0669C500.105 85.8728 499.719 85.7757 499.279 85.7757C498.82 85.7757 498.412 85.8823 498.057 86.0953C497.707 86.3037 497.432 86.5854 497.233 86.9405C497.035 87.2909 496.933 87.6815 496.928 88.1124V89.8951C496.928 90.4348 497.027 90.9012 497.226 91.2942C497.43 91.6872 497.716 91.9902 498.086 92.2033C498.455 92.4164 498.893 92.5229 499.4 92.5229C499.736 92.5229 500.044 92.4756 500.323 92.3809C500.602 92.2862 500.841 92.1441 501.04 91.9547C501.239 91.7653 501.391 91.5333 501.495 91.2587L504.293 91.4434C504.151 92.1157 503.86 92.7028 503.419 93.2047C502.984 93.7019 502.42 94.0901 501.729 94.3695C501.043 94.6441 500.249 94.7814 499.35 94.7814ZM515.889 94.7814C514.772 94.7814 513.811 94.5447 513.006 94.0712C512.206 93.593 511.59 92.9301 511.159 92.0826C510.733 91.235 510.52 90.2596 510.52 89.1564C510.52 88.039 510.735 87.0589 511.166 86.2161C511.602 85.3685 512.22 84.708 513.02 84.2346C513.82 83.7563 514.772 83.5172 515.875 83.5172C516.827 83.5172 517.66 83.69 518.375 84.0357C519.09 84.3813 519.656 84.8667 520.073 85.4917C520.489 86.1167 520.719 86.8506 520.761 87.6934H517.906C517.826 87.1489 517.613 86.7109 517.267 86.3794C516.926 86.0433 516.479 85.8752 515.925 85.8752C515.456 85.8752 515.046 86.003 514.696 86.2587C514.35 86.5096 514.081 86.8766 513.886 87.3596C513.692 87.8425 513.595 88.4273 513.595 89.1138C513.595 89.8098 513.69 90.4017 513.879 90.8894C514.073 91.3771 514.346 91.7488 514.696 92.0044C515.046 92.2601 515.456 92.388 515.925 92.388C516.27 92.388 516.581 92.3169 516.855 92.1749C517.135 92.0328 517.364 91.8269 517.544 91.557C517.729 91.2824 517.85 90.9533 517.906 90.5698H520.761C520.714 91.4031 520.487 92.137 520.08 92.7715C519.677 93.4012 519.121 93.8936 518.411 94.2488C517.7 94.6039 516.86 94.7814 515.889 94.7814ZM525.724 80.0229V94.5684H522.699V80.0229H525.724ZM528.148 94.5684V83.6593H531.173V94.5684H528.148ZM529.668 82.253C529.218 82.253 528.832 82.1039 528.51 81.8056C528.193 81.5025 528.034 81.1403 528.034 80.7189C528.034 80.3023 528.193 79.9448 528.51 79.6465C528.832 79.3435 529.218 79.1919 529.668 79.1919C530.118 79.1919 530.501 79.3435 530.818 79.6465C531.14 79.9448 531.301 80.3023 531.301 80.7189C531.301 81.1403 531.14 81.5025 530.818 81.8056C530.501 82.1039 530.118 82.253 529.668 82.253ZM538.569 94.7814C537.446 94.7814 536.481 94.5542 535.671 94.0996C534.866 93.6403 534.246 92.9917 533.81 92.1536C533.374 91.3108 533.157 90.3141 533.157 89.1635C533.157 88.0414 533.374 87.0565 533.81 86.209C534.246 85.3614 534.859 84.7009 535.65 84.2274C536.445 83.754 537.378 83.5172 538.448 83.5172C539.168 83.5172 539.838 83.6332 540.458 83.8652C541.083 84.0925 541.627 84.4358 542.091 84.8951C542.56 85.3543 542.925 85.932 543.185 86.628C543.446 87.3193 543.576 88.129 543.576 89.057V89.888H534.364V88.013H540.728C540.728 87.5774 540.633 87.1915 540.444 86.8553C540.254 86.5191 539.991 86.2563 539.655 86.0669C539.324 85.8728 538.938 85.7757 538.498 85.7757C538.038 85.7757 537.631 85.8823 537.276 86.0953C536.926 86.3037 536.651 86.5854 536.452 86.9405C536.253 87.2909 536.151 87.6815 536.147 88.1124V89.8951C536.147 90.4348 536.246 90.9012 536.445 91.2942C536.649 91.6872 536.935 91.9902 537.304 92.2033C537.674 92.4164 538.112 92.5229 538.618 92.5229C538.955 92.5229 539.262 92.4756 539.542 92.3809C539.821 92.2862 540.06 92.1441 540.259 91.9547C540.458 91.7653 540.609 91.5333 540.714 91.2587L543.512 91.4434C543.37 92.1157 543.079 92.7028 542.638 93.2047C542.203 93.7019 541.639 94.0901 540.948 94.3695C540.261 94.6441 539.468 94.7814 538.569 94.7814ZM548.576 88.2615V94.5684H545.55V83.6593H548.434V85.584H548.562C548.803 84.9495 549.208 84.4476 549.776 84.0783C550.344 83.7042 551.033 83.5172 551.843 83.5172C552.6 83.5172 553.261 83.6829 553.824 84.0144C554.388 84.3458 554.826 84.8193 555.138 85.4348C555.451 86.0456 555.607 86.7748 555.607 87.6223V94.5684H552.581V88.1621C552.586 87.4945 552.416 86.9737 552.07 86.5996C551.724 86.2208 551.249 86.0314 550.642 86.0314C550.235 86.0314 549.875 86.119 549.563 86.2942C549.255 86.4694 549.014 86.7251 548.839 87.0613C548.668 87.3927 548.58 87.7928 548.576 88.2615ZM563.794 83.6593V85.932H557.225V83.6593H563.794ZM558.716 81.0456H561.742V91.2161C561.742 91.4954 561.784 91.7132 561.869 91.8695C561.955 92.021 562.073 92.1275 562.225 92.1891C562.381 92.2507 562.561 92.2814 562.764 92.2814C562.906 92.2814 563.048 92.2696 563.19 92.2459C563.332 92.2175 563.441 92.1962 563.517 92.182L563.993 94.4334C563.841 94.4808 563.628 94.5352 563.354 94.5968C563.079 94.6631 562.745 94.7033 562.352 94.7175C561.623 94.7459 560.984 94.6489 560.435 94.4263C559.89 94.2038 559.466 93.8581 559.163 93.3894C558.86 92.9206 558.711 92.3288 558.716 91.6138V81.0456ZM574.705 86.7701L571.935 86.9405C571.888 86.7038 571.786 86.4907 571.63 86.3013C571.473 86.1072 571.267 85.9533 571.012 85.8397C570.761 85.7213 570.46 85.6621 570.11 85.6621C569.641 85.6621 569.246 85.7615 568.924 85.9604C568.602 86.1545 568.441 86.4149 568.441 86.7417C568.441 87.0021 568.545 87.2222 568.753 87.4022C568.962 87.5821 569.319 87.7265 569.826 87.8354L571.8 88.2331C572.861 88.4509 573.651 88.8013 574.172 89.2843C574.693 89.7672 574.954 90.4017 574.954 91.1877C574.954 91.9026 574.743 92.53 574.321 93.0698C573.905 93.6096 573.332 94.031 572.603 94.334C571.878 94.6323 571.043 94.7814 570.096 94.7814C568.651 94.7814 567.501 94.4808 566.644 93.8794C565.792 93.2734 565.292 92.4495 565.145 91.4078L568.121 91.2516C568.211 91.6919 568.429 92.0281 568.775 92.2601C569.12 92.4874 569.563 92.601 570.103 92.601C570.633 92.601 571.059 92.4992 571.381 92.2956C571.708 92.0873 571.874 91.8198 571.878 91.4931C571.874 91.2185 571.758 90.9935 571.53 90.8184C571.303 90.6384 570.953 90.5011 570.479 90.4064L568.59 90.03C567.525 89.8169 566.732 89.4476 566.211 88.9221C565.695 88.3965 565.437 87.7265 565.437 86.9121C565.437 86.2114 565.626 85.6077 566.005 85.101C566.388 84.5944 566.926 84.2038 567.617 83.9292C568.313 83.6545 569.127 83.5172 570.06 83.5172C571.438 83.5172 572.522 83.8084 573.313 84.3908C574.108 84.9732 574.572 85.7663 574.705 86.7701ZM586.93 94.7672C585.973 94.7672 585.149 94.592 584.458 94.2417C583.767 93.8913 583.234 93.4107 582.86 92.7999C582.486 92.1891 582.299 91.4907 582.299 90.7047C582.299 90.0987 582.427 89.5613 582.683 89.0925C582.943 88.619 583.301 88.181 583.755 87.7786C584.214 87.3714 584.742 86.9642 585.339 86.557L587.441 84.9945C587.853 84.7246 588.182 84.4358 588.428 84.128C588.679 83.8203 588.805 83.4178 588.805 82.9206C588.805 82.5513 588.641 82.1938 588.315 81.8482C587.993 81.5025 587.569 81.3297 587.043 81.3297C586.674 81.3297 586.347 81.4244 586.063 81.6138C585.784 81.7985 585.564 82.0352 585.403 82.324C585.247 82.6081 585.168 82.9017 585.168 83.2047C585.168 83.5456 585.261 83.8913 585.445 84.2417C585.635 84.5873 585.874 84.9424 586.163 85.307C586.456 85.6668 586.759 86.0362 587.072 86.415L593.748 94.5684H591.731L586.22 87.9206C585.708 87.3051 585.244 86.7464 584.828 86.2445C584.411 85.7426 584.079 85.2478 583.833 84.7601C583.587 84.2724 583.464 83.7445 583.464 83.1763C583.464 82.5229 583.608 81.95 583.897 81.4576C584.191 80.9604 584.6 80.5745 585.126 80.2999C585.656 80.0205 586.276 79.8809 586.987 79.8809C587.716 79.8809 588.343 80.0229 588.869 80.307C589.394 80.5864 589.799 80.958 590.083 81.4221C590.367 81.8813 590.509 82.3809 590.509 82.9206C590.509 83.6167 590.337 84.2203 589.991 84.7317C589.645 85.2431 589.174 85.7189 588.578 86.1593L585.68 88.3184C585.026 88.8013 584.584 89.2701 584.352 89.7246C584.12 90.1792 584.004 90.5059 584.004 90.7047C584.004 91.1593 584.122 91.583 584.359 91.976C584.595 92.369 584.929 92.6863 585.36 92.9277C585.791 93.1692 586.295 93.29 586.873 93.29C587.422 93.29 587.957 93.1739 588.478 92.9419C588.999 92.7052 589.47 92.3643 589.891 91.9192C590.318 91.4741 590.654 90.9391 590.9 90.3141C591.151 89.6891 591.276 88.986 591.276 88.2047H592.896C592.896 89.1706 592.784 89.959 592.562 90.5698C592.339 91.1806 592.088 91.6588 591.809 92.0044C591.53 92.3501 591.305 92.6081 591.134 92.7786C591.078 92.8496 591.025 92.9206 590.978 92.9917C590.931 93.0627 590.879 93.1337 590.822 93.2047C590.353 93.7303 589.761 94.1233 589.046 94.3837C588.331 94.6394 587.626 94.7672 586.93 94.7672ZM605.802 94.7956C604.751 94.7956 603.844 94.5636 603.082 94.0996C602.325 93.6309 601.74 92.9775 601.328 92.1394C600.921 91.2966 600.717 90.3165 600.717 89.199C600.717 88.0816 600.921 87.0968 601.328 86.2445C601.74 85.3875 602.313 84.7199 603.047 84.2417C603.785 83.7587 604.647 83.5172 605.632 83.5172C606.2 83.5172 606.761 83.6119 607.315 83.8013C607.869 83.9907 608.373 84.2985 608.828 84.7246C609.282 85.146 609.645 85.7047 609.915 86.4007C610.184 87.0968 610.319 87.9538 610.319 88.9718V89.682H601.91V88.2331H608.615C608.615 87.6176 608.492 87.0684 608.245 86.5854C608.004 86.1024 607.658 85.7213 607.209 85.4419C606.763 85.1626 606.238 85.0229 605.632 85.0229C604.964 85.0229 604.387 85.1886 603.899 85.5201C603.416 85.8468 603.044 86.2729 602.784 86.7985C602.523 87.324 602.393 87.8875 602.393 88.4888V89.4547C602.393 90.2786 602.535 90.977 602.819 91.5499C603.108 92.1181 603.508 92.5513 604.02 92.8496C604.531 93.1432 605.125 93.29 605.802 93.29C606.243 93.29 606.64 93.2284 606.995 93.1053C607.355 92.9775 607.665 92.7881 607.926 92.5371C608.186 92.2814 608.388 91.9642 608.53 91.5854L610.149 92.04C609.978 92.5892 609.692 93.0721 609.29 93.4888C608.887 93.9007 608.39 94.2227 607.798 94.4547C607.206 94.682 606.541 94.7956 605.802 94.7956ZM621.457 83.6593L617.423 94.5684H615.719L611.685 83.6593H613.503L616.514 92.3525H616.628L619.639 83.6593H621.457ZM627.853 94.7956C626.802 94.7956 625.895 94.5636 625.133 94.0996C624.375 93.6309 623.791 92.9775 623.379 92.1394C622.971 91.2966 622.768 90.3165 622.768 89.199C622.768 88.0816 622.971 87.0968 623.379 86.2445C623.791 85.3875 624.363 84.7199 625.097 84.2417C625.836 83.7587 626.698 83.5172 627.683 83.5172C628.251 83.5172 628.812 83.6119 629.366 83.8013C629.92 83.9907 630.424 84.2985 630.879 84.7246C631.333 85.146 631.695 85.7047 631.965 86.4007C632.235 87.0968 632.37 87.9538 632.37 88.9718V89.682H623.961V88.2331H630.666C630.666 87.6176 630.542 87.0684 630.296 86.5854C630.055 86.1024 629.709 85.7213 629.259 85.4419C628.814 85.1626 628.289 85.0229 627.683 85.0229C627.015 85.0229 626.437 85.1886 625.95 85.5201C625.467 85.8468 625.095 86.2729 624.835 86.7985C624.574 87.324 624.444 87.8875 624.444 88.4888V89.4547C624.444 90.2786 624.586 90.977 624.87 91.5499C625.159 92.1181 625.559 92.5513 626.07 92.8496C626.582 93.1432 627.176 93.29 627.853 93.29C628.293 93.29 628.691 93.2284 629.046 93.1053C629.406 92.9775 629.716 92.7881 629.977 92.5371C630.237 92.2814 630.438 91.9642 630.58 91.5854L632.2 92.04C632.029 92.5892 631.743 93.0721 631.34 93.4888C630.938 93.9007 630.441 94.2227 629.849 94.4547C629.257 94.682 628.592 94.7956 627.853 94.7956ZM636.596 88.0059V94.5684H634.92V83.6593H636.539V85.3638H636.681C636.937 84.8098 637.325 84.3648 637.846 84.0286C638.367 83.6877 639.039 83.5172 639.863 83.5172C640.602 83.5172 641.248 83.6687 641.802 83.9718C642.356 84.2701 642.787 84.7246 643.095 85.3354C643.402 85.9415 643.556 86.7085 643.556 87.6365V94.5684H641.88V87.7502C641.88 86.8932 641.658 86.2256 641.212 85.7473C640.767 85.2644 640.157 85.0229 639.38 85.0229C638.845 85.0229 638.367 85.1389 637.945 85.3709C637.529 85.6029 637.2 85.9415 636.958 86.3865C636.717 86.8316 636.596 87.3714 636.596 88.0059ZM652.244 94.5684V83.6593H653.863V85.3638H654.005C654.233 84.7814 654.6 84.3292 655.106 84.0073C655.613 83.6806 656.221 83.5172 656.932 83.5172C657.651 83.5172 658.25 83.6806 658.728 84.0073C659.211 84.3292 659.588 84.7814 659.858 85.3638H659.971C660.251 84.8004 660.67 84.3529 661.228 84.0215C661.787 83.6853 662.457 83.5172 663.238 83.5172C664.214 83.5172 665.012 83.8226 665.632 84.4334C666.252 85.0395 666.562 85.9841 666.562 87.2672V94.5684H664.886V87.2672C664.886 86.4623 664.666 85.887 664.226 85.5414C663.785 85.1957 663.267 85.0229 662.67 85.0229C661.903 85.0229 661.309 85.2549 660.888 85.7189C660.466 86.1782 660.255 86.7606 660.255 87.4661V94.5684H658.551V87.0968C658.551 86.4765 658.35 85.977 657.947 85.5982C657.545 85.2147 657.026 85.0229 656.392 85.0229C655.956 85.0229 655.549 85.1389 655.17 85.3709C654.796 85.6029 654.493 85.9249 654.261 86.3368C654.034 86.744 653.92 87.2151 653.92 87.7502V94.5684H652.244ZM672.837 94.824C672.146 94.824 671.518 94.6938 670.955 94.4334C670.392 94.1683 669.944 93.7871 669.613 93.29C669.281 92.7881 669.116 92.182 669.116 91.4718C669.116 90.8468 669.239 90.3401 669.485 89.9519C669.731 89.5589 670.06 89.2511 670.472 89.0286C670.884 88.806 671.339 88.6403 671.836 88.5314C672.338 88.4178 672.842 88.3278 673.348 88.2615C674.011 88.1763 674.549 88.1124 674.961 88.0698C675.377 88.0224 675.68 87.9443 675.87 87.8354C676.064 87.7265 676.161 87.5371 676.161 87.2672V87.2104C676.161 86.5096 675.969 85.9651 675.586 85.5769C675.207 85.1886 674.632 84.9945 673.86 84.9945C673.06 84.9945 672.432 85.1697 671.978 85.5201C671.523 85.8704 671.204 86.2445 671.019 86.6422L669.428 86.074C669.712 85.4112 670.091 84.8951 670.564 84.5257C671.043 84.1517 671.563 83.8913 672.127 83.7445C672.695 83.593 673.254 83.5172 673.803 83.5172C674.153 83.5172 674.556 83.5598 675.01 83.6451C675.47 83.7256 675.912 83.8936 676.339 84.1493C676.769 84.405 677.127 84.7909 677.411 85.307C677.695 85.8231 677.837 86.5144 677.837 87.3809V94.5684H676.161V93.0911H676.076C675.962 93.3278 675.773 93.5811 675.508 93.851C675.242 94.1209 674.89 94.3506 674.449 94.54C674.009 94.7293 673.472 94.824 672.837 94.824ZM673.093 93.3184C673.756 93.3184 674.314 93.1882 674.769 92.9277C675.228 92.6673 675.574 92.3311 675.806 91.9192C676.043 91.5073 676.161 91.074 676.161 90.6195V89.0854C676.09 89.1706 675.934 89.2488 675.692 89.3198C675.455 89.3861 675.181 89.4453 674.868 89.4973C674.561 89.5447 674.26 89.5873 673.966 89.6252C673.678 89.6583 673.443 89.6867 673.263 89.7104C672.828 89.7672 672.42 89.8596 672.042 89.9874C671.668 90.1105 671.365 90.2975 671.133 90.5485C670.905 90.7947 670.792 91.1309 670.792 91.557C670.792 92.1394 671.007 92.5797 671.438 92.878C671.874 93.1716 672.425 93.3184 673.093 93.3184ZM682.573 88.0059V94.5684H680.896V83.6593H682.516V85.3638H682.658C682.913 84.8098 683.302 84.3648 683.823 84.0286C684.343 83.6877 685.016 83.5172 685.84 83.5172C686.578 83.5172 687.225 83.6687 687.778 83.9718C688.332 84.2701 688.763 84.7246 689.071 85.3354C689.379 85.9415 689.533 86.7085 689.533 87.6365V94.5684H687.857V87.7502C687.857 86.8932 687.634 86.2256 687.189 85.7473C686.744 85.2644 686.133 85.0229 685.357 85.0229C684.822 85.0229 684.343 85.1389 683.922 85.3709C683.505 85.6029 683.176 85.9415 682.935 86.3865C682.693 86.8316 682.573 87.3714 682.573 88.0059ZM695.806 94.824C695.115 94.824 694.487 94.6938 693.924 94.4334C693.36 94.1683 692.913 93.7871 692.581 93.29C692.25 92.7881 692.084 92.182 692.084 91.4718C692.084 90.8468 692.207 90.3401 692.454 89.9519C692.7 89.5589 693.029 89.2511 693.441 89.0286C693.853 88.806 694.307 88.6403 694.804 88.5314C695.306 88.4178 695.811 88.3278 696.317 88.2615C696.98 88.1763 697.517 88.1124 697.929 88.0698C698.346 88.0224 698.649 87.9443 698.839 87.8354C699.033 87.7265 699.13 87.5371 699.13 87.2672V87.2104C699.13 86.5096 698.938 85.9651 698.554 85.5769C698.176 85.1886 697.6 84.9945 696.829 84.9945C696.028 84.9945 695.401 85.1697 694.946 85.5201C694.492 85.8704 694.172 86.2445 693.988 86.6422L692.397 86.074C692.681 85.4112 693.06 84.8951 693.533 84.5257C694.011 84.1517 694.532 83.8913 695.096 83.7445C695.664 83.593 696.223 83.5172 696.772 83.5172C697.122 83.5172 697.525 83.5598 697.979 83.6451C698.438 83.7256 698.881 83.8936 699.307 84.1493C699.738 84.405 700.096 84.7909 700.38 85.307C700.664 85.8231 700.806 86.5144 700.806 87.3809V94.5684H699.13V93.0911H699.044C698.931 93.3278 698.741 93.5811 698.476 93.851C698.211 94.1209 697.858 94.3506 697.418 94.54C696.978 94.7293 696.44 94.824 695.806 94.824ZM696.062 93.3184C696.724 93.3184 697.283 93.1882 697.738 92.9277C698.197 92.6673 698.543 92.3311 698.775 91.9192C699.011 91.5073 699.13 91.074 699.13 90.6195V89.0854C699.059 89.1706 698.902 89.2488 698.661 89.3198C698.424 89.3861 698.15 89.4453 697.837 89.4973C697.529 89.5447 697.229 89.5873 696.935 89.6252C696.646 89.6583 696.412 89.6867 696.232 89.7104C695.796 89.7672 695.389 89.8596 695.01 89.9874C694.636 90.1105 694.333 90.2975 694.101 90.5485C693.874 90.7947 693.76 91.1309 693.76 91.557C693.76 92.1394 693.976 92.5797 694.407 92.878C694.842 93.1716 695.394 93.3184 696.062 93.3184ZM708.269 98.8865C707.459 98.8865 706.763 98.7824 706.18 98.574C705.598 98.3704 705.113 98.1006 704.725 97.7644C704.341 97.4329 704.036 97.0778 703.808 96.699L705.144 95.7615C705.295 95.9604 705.487 96.1877 705.719 96.4434C705.951 96.7038 706.268 96.9287 706.671 97.1181C707.078 97.3122 707.61 97.4093 708.269 97.4093C709.149 97.4093 709.876 97.1962 710.449 96.7701C711.022 96.3439 711.308 95.6763 711.308 94.7672V92.5513H711.166C711.043 92.7502 710.868 92.9964 710.641 93.29C710.418 93.5788 710.096 93.8368 709.675 94.0641C709.258 94.2866 708.695 94.3979 707.984 94.3979C707.104 94.3979 706.313 94.1896 705.612 93.7729C704.916 93.3562 704.365 92.7502 703.957 91.9547C703.555 91.1593 703.354 90.1934 703.354 89.057C703.354 87.9396 703.55 86.9666 703.943 86.138C704.336 85.3046 704.883 84.6607 705.584 84.2061C706.285 83.7469 707.094 83.5172 708.013 83.5172C708.723 83.5172 709.287 83.6356 709.703 83.8723C710.125 84.1043 710.447 84.3695 710.669 84.6678C710.896 84.9614 711.072 85.2028 711.195 85.3922H711.365V83.6593H712.984V94.8809C712.984 95.8184 712.771 96.5807 712.345 97.1678C711.924 97.7596 711.356 98.1929 710.641 98.4675C709.93 98.7469 709.14 98.8865 708.269 98.8865ZM708.212 92.8922C708.884 92.8922 709.452 92.7383 709.916 92.4306C710.38 92.1228 710.733 91.6801 710.975 91.1025C711.216 90.5248 711.337 89.8335 711.337 89.0286C711.337 88.2426 711.218 87.5489 710.982 86.9476C710.745 86.3463 710.395 85.8752 709.93 85.5343C709.466 85.1934 708.894 85.0229 708.212 85.0229C707.502 85.0229 706.91 85.2028 706.436 85.5627C705.967 85.9225 705.615 86.4055 705.378 87.0115C705.146 87.6176 705.03 88.29 705.03 89.0286C705.03 89.7862 705.148 90.4561 705.385 91.0385C705.627 91.6162 705.982 92.0707 706.45 92.4022C706.924 92.7289 707.511 92.8922 708.212 92.8922ZM720.627 94.7956C719.575 94.7956 718.669 94.5636 717.906 94.0996C717.149 93.6309 716.564 92.9775 716.152 92.1394C715.745 91.2966 715.541 90.3165 715.541 89.199C715.541 88.0816 715.745 87.0968 716.152 86.2445C716.564 85.3875 717.137 84.7199 717.871 84.2417C718.609 83.7587 719.471 83.5172 720.456 83.5172C721.024 83.5172 721.585 83.6119 722.139 83.8013C722.693 83.9907 723.198 84.2985 723.652 84.7246C724.107 85.146 724.469 85.7047 724.739 86.4007C725.009 87.0968 725.144 87.9538 725.144 88.9718V89.682H716.734V88.2331H723.439C723.439 87.6176 723.316 87.0684 723.07 86.5854C722.828 86.1024 722.483 85.7213 722.033 85.4419C721.588 85.1626 721.062 85.0229 720.456 85.0229C719.788 85.0229 719.211 85.1886 718.723 85.5201C718.24 85.8468 717.868 86.2729 717.608 86.7985C717.348 87.324 717.217 87.8875 717.217 88.4888V89.4547C717.217 90.2786 717.359 90.977 717.644 91.5499C717.932 92.1181 718.332 92.5513 718.844 92.8496C719.355 93.1432 719.949 93.29 720.627 93.29C721.067 93.29 721.465 93.2284 721.82 93.1053C722.18 92.9775 722.49 92.7881 722.75 92.5371C723.011 92.2814 723.212 91.9642 723.354 91.5854L724.973 92.04C724.803 92.5892 724.516 93.0721 724.114 93.4888C723.711 93.9007 723.214 94.2227 722.622 94.4547C722.03 94.682 721.365 94.7956 720.627 94.7956ZM309.84 107.659V109.08H304.187V107.659H309.84ZM305.834 105.046H307.51V115.443C307.51 115.917 307.579 116.272 307.716 116.509C307.858 116.741 308.038 116.897 308.256 116.977C308.479 117.053 308.713 117.091 308.959 117.091C309.144 117.091 309.295 117.082 309.414 117.063C309.532 117.039 309.627 117.02 309.698 117.006L310.039 118.512C309.925 118.554 309.767 118.597 309.563 118.639C309.359 118.687 309.101 118.71 308.789 118.71C308.315 118.71 307.851 118.609 307.397 118.405C306.947 118.201 306.573 117.891 306.275 117.475C305.981 117.058 305.834 116.532 305.834 115.898V105.046ZM314.272 112.006V118.568H312.596V104.023H314.272V109.364H314.414C314.669 108.8 315.053 108.353 315.564 108.021C316.08 107.685 316.767 107.517 317.624 107.517C318.367 107.517 319.018 107.666 319.577 107.965C320.136 108.258 320.569 108.71 320.877 109.321C321.189 109.927 321.346 110.699 321.346 111.637V118.568H319.669V111.75C319.669 110.884 319.445 110.214 318.995 109.74C318.55 109.262 317.932 109.023 317.141 109.023C316.592 109.023 316.099 109.139 315.664 109.371C315.233 109.603 314.892 109.941 314.641 110.387C314.395 110.832 314.272 111.371 314.272 112.006ZM328.986 118.796C327.935 118.796 327.028 118.564 326.266 118.1C325.508 117.631 324.923 116.977 324.511 116.139C324.104 115.297 323.901 114.316 323.901 113.199C323.901 112.082 324.104 111.097 324.511 110.244C324.923 109.387 325.496 108.72 326.23 108.242C326.969 107.759 327.831 107.517 328.815 107.517C329.384 107.517 329.945 107.612 330.499 107.801C331.053 107.991 331.557 108.298 332.011 108.725C332.466 109.146 332.828 109.705 333.098 110.401C333.368 111.097 333.503 111.954 333.503 112.972V113.682H325.094V112.233H331.798C331.798 111.618 331.675 111.068 331.429 110.585C331.188 110.102 330.842 109.721 330.392 109.442C329.947 109.163 329.421 109.023 328.815 109.023C328.148 109.023 327.57 109.189 327.082 109.52C326.6 109.847 326.228 110.273 325.967 110.798C325.707 111.324 325.577 111.887 325.577 112.489V113.455C325.577 114.279 325.719 114.977 326.003 115.55C326.292 116.118 326.692 116.551 327.203 116.85C327.715 117.143 328.309 117.29 328.986 117.29C329.426 117.29 329.824 117.228 330.179 117.105C330.539 116.977 330.849 116.788 331.109 116.537C331.37 116.281 331.571 115.964 331.713 115.585L333.332 116.04C333.162 116.589 332.876 117.072 332.473 117.489C332.071 117.901 331.573 118.223 330.982 118.455C330.39 118.682 329.725 118.796 328.986 118.796ZM336.053 118.568V107.659H337.672V109.364H337.814C338.041 108.781 338.408 108.329 338.915 108.007C339.421 107.681 340.03 107.517 340.74 107.517C341.46 107.517 342.059 107.681 342.537 108.007C343.02 108.329 343.396 108.781 343.666 109.364H343.78C344.059 108.8 344.478 108.353 345.037 108.021C345.596 107.685 346.266 107.517 347.047 107.517C348.022 107.517 348.82 107.823 349.44 108.433C350.061 109.039 350.371 109.984 350.371 111.267V118.568H348.695V111.267C348.695 110.462 348.475 109.887 348.034 109.541C347.594 109.196 347.075 109.023 346.479 109.023C345.712 109.023 345.118 109.255 344.696 109.719C344.275 110.178 344.064 110.761 344.064 111.466V118.568H342.359V111.097C342.359 110.477 342.158 109.977 341.756 109.598C341.353 109.215 340.835 109.023 340.2 109.023C339.765 109.023 339.358 109.139 338.979 109.371C338.605 109.603 338.302 109.925 338.07 110.337C337.842 110.744 337.729 111.215 337.729 111.75V118.568H336.053ZM360.737 104.023V118.568H359.06V104.023H360.737ZM363.807 118.568V107.659H365.483V118.568H363.807ZM364.659 105.841C364.332 105.841 364.05 105.73 363.814 105.507C363.582 105.285 363.466 105.017 363.466 104.705C363.466 104.392 363.582 104.125 363.814 103.902C364.05 103.68 364.332 103.568 364.659 103.568C364.986 103.568 365.265 103.68 365.497 103.902C365.734 104.125 365.852 104.392 365.852 104.705C365.852 105.017 365.734 105.285 365.497 105.507C365.265 105.73 364.986 105.841 364.659 105.841ZM370.115 114.591L370.087 112.517H370.428L375.2 107.659H377.274L372.189 112.801H372.047L370.115 114.591ZM368.553 118.568V104.023H370.229V118.568H368.553ZM375.484 118.568L371.223 113.171L372.416 112.006L377.615 118.568H375.484ZM383.556 118.796C382.505 118.796 381.598 118.564 380.836 118.1C380.078 117.631 379.494 116.977 379.082 116.139C378.675 115.297 378.471 114.316 378.471 113.199C378.471 112.082 378.675 111.097 379.082 110.244C379.494 109.387 380.067 108.72 380.801 108.242C381.539 107.759 382.401 107.517 383.386 107.517C383.954 107.517 384.515 107.612 385.069 107.801C385.623 107.991 386.127 108.298 386.582 108.725C387.036 109.146 387.399 109.705 387.668 110.401C387.938 111.097 388.073 111.954 388.073 112.972V113.682H379.664V112.233H386.369C386.369 111.618 386.246 111.068 385.999 110.585C385.758 110.102 385.412 109.721 384.962 109.442C384.517 109.163 383.992 109.023 383.386 109.023C382.718 109.023 382.14 109.189 381.653 109.52C381.17 109.847 380.798 110.273 380.538 110.798C380.277 111.324 380.147 111.887 380.147 112.489V113.455C380.147 114.279 380.289 114.977 380.573 115.55C380.862 116.118 381.262 116.551 381.774 116.85C382.285 117.143 382.879 117.29 383.556 117.29C383.997 117.29 384.394 117.228 384.749 117.105C385.109 116.977 385.419 116.788 385.68 116.537C385.94 116.281 386.141 115.964 386.283 115.585L387.903 116.04C387.732 116.589 387.446 117.072 387.043 117.489C386.641 117.901 386.144 118.223 385.552 118.455C384.96 118.682 384.295 118.796 383.556 118.796ZM399.458 118.824C398.767 118.824 398.14 118.694 397.576 118.433C397.013 118.168 396.565 117.787 396.234 117.29C395.902 116.788 395.737 116.182 395.737 115.472C395.737 114.847 395.86 114.34 396.106 113.952C396.352 113.559 396.681 113.251 397.093 113.029C397.505 112.806 397.96 112.64 398.457 112.531C398.959 112.418 399.463 112.328 399.97 112.262C400.632 112.176 401.17 112.112 401.582 112.07C401.998 112.022 402.301 111.944 402.491 111.835C402.685 111.727 402.782 111.537 402.782 111.267V111.21C402.782 110.51 402.59 109.965 402.207 109.577C401.828 109.189 401.253 108.994 400.481 108.994C399.681 108.994 399.053 109.17 398.599 109.52C398.144 109.87 397.825 110.244 397.64 110.642L396.049 110.074C396.333 109.411 396.712 108.895 397.185 108.526C397.664 108.152 398.185 107.891 398.748 107.744C399.316 107.593 399.875 107.517 400.424 107.517C400.774 107.517 401.177 107.56 401.631 107.645C402.091 107.726 402.533 107.894 402.96 108.149C403.39 108.405 403.748 108.791 404.032 109.307C404.316 109.823 404.458 110.514 404.458 111.381V118.568H402.782V117.091H402.697C402.583 117.328 402.394 117.581 402.129 117.851C401.863 118.121 401.511 118.351 401.07 118.54C400.63 118.729 400.093 118.824 399.458 118.824ZM399.714 117.318C400.377 117.318 400.935 117.188 401.39 116.928C401.849 116.667 402.195 116.331 402.427 115.919C402.664 115.507 402.782 115.074 402.782 114.619V113.085C402.711 113.171 402.555 113.249 402.313 113.32C402.077 113.386 401.802 113.445 401.489 113.497C401.182 113.545 400.881 113.587 400.587 113.625C400.299 113.658 400.064 113.687 399.884 113.71C399.449 113.767 399.042 113.86 398.663 113.987C398.289 114.11 397.986 114.298 397.754 114.548C397.526 114.795 397.413 115.131 397.413 115.557C397.413 116.139 397.628 116.58 398.059 116.878C398.495 117.172 399.046 117.318 399.714 117.318ZM413.37 118.568V104.023H418.285C419.426 104.023 420.358 104.229 421.083 104.641C421.812 105.048 422.352 105.6 422.702 106.296C423.053 106.992 423.228 107.768 423.228 108.625C423.228 109.482 423.053 110.261 422.702 110.962C422.357 111.663 421.821 112.221 421.097 112.638C420.373 113.05 419.445 113.256 418.313 113.256H414.79V111.693H418.256C419.037 111.693 419.665 111.558 420.138 111.289C420.612 111.019 420.955 110.654 421.168 110.195C421.386 109.731 421.495 109.208 421.495 108.625C421.495 108.043 421.386 107.522 421.168 107.063C420.955 106.603 420.609 106.244 420.131 105.983C419.653 105.718 419.018 105.585 418.228 105.585H415.131V118.568H413.37ZM426.065 118.568V104.023H430.98C432.116 104.023 433.049 104.217 433.778 104.605C434.507 104.989 435.047 105.517 435.397 106.189C435.748 106.861 435.923 107.626 435.923 108.483C435.923 109.34 435.748 110.1 435.397 110.763C435.047 111.426 434.51 111.947 433.785 112.325C433.061 112.7 432.135 112.887 431.008 112.887H427.031V111.296H430.951C431.728 111.296 432.353 111.182 432.826 110.955C433.305 110.727 433.65 110.405 433.863 109.989C434.081 109.567 434.19 109.066 434.19 108.483C434.19 107.901 434.081 107.392 433.863 106.956C433.646 106.521 433.298 106.184 432.819 105.948C432.341 105.706 431.709 105.585 430.923 105.585H427.826V118.568H426.065ZM432.912 112.034L436.491 118.568H434.446L430.923 112.034H432.912ZM451.131 111.296C451.131 112.83 450.854 114.155 450.3 115.273C449.746 116.39 448.986 117.252 448.02 117.858C447.054 118.464 445.951 118.767 444.71 118.767C443.47 118.767 442.367 118.464 441.401 117.858C440.435 117.252 439.675 116.39 439.121 115.273C438.567 114.155 438.29 112.83 438.29 111.296C438.29 109.762 438.567 108.436 439.121 107.318C439.675 106.201 440.435 105.339 441.401 104.733C442.367 104.127 443.47 103.824 444.71 103.824C445.951 103.824 447.054 104.127 448.02 104.733C448.986 105.339 449.746 106.201 450.3 107.318C450.854 108.436 451.131 109.762 451.131 111.296ZM449.426 111.296C449.426 110.036 449.216 108.973 448.794 108.107C448.377 107.24 447.812 106.584 447.097 106.139C446.386 105.694 445.591 105.472 444.71 105.472C443.83 105.472 443.032 105.694 442.317 106.139C441.607 106.584 441.041 107.24 440.619 108.107C440.203 108.973 439.994 110.036 439.994 111.296C439.994 112.555 440.203 113.618 440.619 114.485C441.041 115.351 441.607 116.007 442.317 116.452C443.032 116.897 443.83 117.119 444.71 117.119C445.591 117.119 446.386 116.897 447.097 116.452C447.812 116.007 448.377 115.351 448.794 114.485C449.216 113.618 449.426 112.555 449.426 111.296ZM456.053 114.477V114.392C456.062 113.488 456.157 112.768 456.337 112.233C456.517 111.698 456.772 111.265 457.104 110.933C457.435 110.602 457.833 110.297 458.297 110.017C458.576 109.847 458.827 109.646 459.05 109.414C459.272 109.177 459.448 108.905 459.575 108.597C459.708 108.289 459.774 107.948 459.774 107.574C459.774 107.11 459.665 106.708 459.448 106.367C459.23 106.026 458.939 105.763 458.574 105.578C458.209 105.394 457.805 105.301 457.359 105.301C456.971 105.301 456.597 105.382 456.237 105.543C455.877 105.704 455.577 105.957 455.335 106.303C455.094 106.648 454.954 107.101 454.916 107.659H453.127C453.164 106.854 453.373 106.165 453.752 105.593C454.135 105.02 454.639 104.582 455.264 104.279C455.894 103.976 456.592 103.824 457.359 103.824C458.193 103.824 458.917 103.99 459.533 104.321C460.153 104.653 460.631 105.107 460.967 105.685C461.308 106.262 461.479 106.921 461.479 107.659C461.479 108.18 461.398 108.651 461.237 109.073C461.081 109.494 460.854 109.87 460.555 110.202C460.262 110.533 459.907 110.827 459.49 111.083C459.073 111.343 458.74 111.618 458.489 111.906C458.238 112.191 458.055 112.529 457.942 112.922C457.828 113.315 457.767 113.805 457.757 114.392V114.477H456.053ZM456.962 118.682C456.611 118.682 456.311 118.557 456.06 118.306C455.809 118.055 455.683 117.754 455.683 117.404C455.683 117.053 455.809 116.753 456.06 116.502C456.311 116.251 456.611 116.125 456.962 116.125C457.312 116.125 457.613 116.251 457.864 116.502C458.115 116.753 458.24 117.053 458.24 117.404C458.24 117.636 458.181 117.849 458.063 118.043C457.949 118.237 457.795 118.393 457.601 118.512C457.412 118.625 457.198 118.682 456.962 118.682Z" fill="black"/>
</svg>
