<svg width="812" height="211" viewBox="0 0 812 211" fill="none" xmlns="http://www.w3.org/2000/svg">
<rect x="184.033" y="142.119" width="573.057" height="68.877" rx="10" fill="#3B57F4" fill-opacity="0.12"/>
<rect x="165.883" y="125.119" width="609.358" height="68.877" rx="10" fill="#3B57F4" fill-opacity="0.12"/>
<rect x="0.199219" y="38.6699" width="97.6836" height="98" rx="48.8418" fill="#E7EAFF"/>
<path d="M45.4047 93.9483V93.4654C45.4141 91.8082 45.5609 90.4872 45.845 89.5023C46.1386 88.5175 46.5647 87.722 47.1234 87.1159C47.6821 86.5099 48.3545 85.9606 49.1404 85.4682C49.7276 85.0894 50.2531 84.6964 50.7172 84.2892C51.1812 83.882 51.5505 83.4322 51.8251 82.9398C52.0997 82.4379 52.237 81.8792 52.237 81.2637C52.237 80.6103 52.0808 80.0373 51.7683 79.5449C51.4558 79.0525 51.0344 78.6737 50.5041 78.4086C49.9833 78.1434 49.4056 78.0108 48.7711 78.0108C48.1556 78.0108 47.5732 78.1481 47.024 78.4228C46.4747 78.6879 46.0249 79.0856 45.6745 79.6159C45.3242 80.1368 45.1348 80.7855 45.1064 81.562H39.3109C39.3583 79.668 39.8128 78.1055 40.6745 76.8745C41.5363 75.6339 42.6774 74.7106 44.0978 74.1046C45.5183 73.489 47.0855 73.1813 48.7995 73.1813C50.684 73.1813 52.3507 73.4938 53.7995 74.1188C55.2484 74.7343 56.3848 75.6292 57.2086 76.8034C58.0325 77.9777 58.4444 79.3934 58.4444 81.0506C58.4444 82.1586 58.2598 83.1434 57.8904 84.0051C57.5306 84.8574 57.024 85.615 56.3706 86.2779C55.7172 86.9313 54.9454 87.5231 54.0552 88.0534C53.3071 88.4985 52.6916 88.9625 52.2086 89.4455C51.7351 89.9284 51.38 90.4872 51.1433 91.1216C50.916 91.7561 50.7976 92.5373 50.7882 93.4654V93.9483H45.4047ZM48.2172 103.039C47.2702 103.039 46.4605 102.708 45.7882 102.045C45.1253 101.373 44.7986 100.568 44.8081 99.6301C44.7986 98.7021 45.1253 97.9067 45.7882 97.2438C46.4605 96.5809 47.2702 96.2495 48.2172 96.2495C49.1168 96.2495 49.9075 96.5809 50.5893 97.2438C51.2711 97.9067 51.6168 98.7021 51.6262 99.6301C51.6168 100.255 51.4511 100.828 51.1291 101.349C50.8166 101.86 50.4047 102.272 49.8933 102.585C49.3819 102.888 48.8232 103.039 48.2172 103.039Z" fill="#3B57F4"/>
<rect x="133.883" y="0.287109" width="678" height="174.766" rx="10" fill="#F5F7FF"/>
<rect x="175.312" y="24.2871" width="94.8213" height="126.766" rx="10" fill="#3B57F4" fill-opacity="0.19"/>
<rect x="169.075" y="24.2871" width="107.294" height="120.535" rx="10" fill="#3B57F4" fill-opacity="0.19"/>
<rect x="165.883" y="24.2871" width="113.679" height="116.139" rx="10" fill="#E9ECFF"/>
<g clip-path="url(#clip0_1178_12584)">
<path d="M227.222 52.3565C227.222 53.6885 226.643 54.8855 225.722 55.7105V61.3565H240.722C243.109 61.3565 245.398 62.3048 247.086 63.9926C248.774 65.6804 249.722 67.9696 249.722 70.3565V100.357C249.722 102.743 248.774 105.033 247.086 106.721C245.398 108.408 243.109 109.357 240.722 109.357H204.722C202.335 109.357 200.046 108.408 198.358 106.721C196.67 105.033 195.722 102.743 195.722 100.357V70.3565C195.722 67.9696 196.67 65.6804 198.358 63.9926C200.046 62.3048 202.335 61.3565 204.722 61.3565H219.722V55.7105C219.163 55.2101 218.737 54.5777 218.485 53.8708C218.232 53.164 218.16 52.4052 218.276 51.6635C218.391 50.9218 218.691 50.2208 219.146 49.6244C219.602 49.0279 220.2 48.5549 220.885 48.2485C221.57 47.9421 222.321 47.8119 223.07 47.8699C223.818 47.9279 224.54 48.1721 225.17 48.5804C225.8 48.9888 226.318 49.5481 226.676 50.2077C227.034 50.8672 227.222 51.6059 227.222 52.3565ZM186.722 76.3565H192.722V94.3565H186.722V76.3565ZM258.722 76.3565H252.722V94.3565H258.722V76.3565ZM213.722 89.8565C214.916 89.8565 216.06 89.3824 216.904 88.5385C217.748 87.6946 218.222 86.55 218.222 85.3565C218.222 84.1631 217.748 83.0185 216.904 82.1746C216.06 81.3307 214.916 80.8565 213.722 80.8565C212.529 80.8565 211.384 81.3307 210.54 82.1746C209.696 83.0185 209.222 84.1631 209.222 85.3565C209.222 86.55 209.696 87.6946 210.54 88.5385C211.384 89.3824 212.529 89.8565 213.722 89.8565ZM236.222 85.3565C236.222 84.1631 235.748 83.0185 234.904 82.1746C234.06 81.3307 232.916 80.8565 231.722 80.8565C230.529 80.8565 229.384 81.3307 228.54 82.1746C227.696 83.0185 227.222 84.1631 227.222 85.3565C227.222 86.55 227.696 87.6946 228.54 88.5385C229.384 89.3824 230.529 89.8565 231.722 89.8565C232.916 89.8565 234.06 89.3824 234.904 88.5385C235.748 87.6946 236.222 86.55 236.222 85.3565Z" fill="#3B57F4"/>
</g>
<path d="M307.965 70.6699L303.988 56.1245H305.777L308.817 67.9711H308.959L312.056 56.1245H314.044L317.141 67.9711H317.283L320.323 56.1245H322.113L318.135 70.6699H316.317L313.107 59.079H312.993L309.783 70.6699H307.965ZM325.756 64.1074V70.6699H324.08V56.1245H325.756V61.4654H325.898C326.154 60.9019 326.537 60.4545 327.049 60.123C327.565 59.7869 328.251 59.6188 329.108 59.6188C329.852 59.6188 330.503 59.7679 331.062 60.0662C331.62 60.3598 332.053 60.812 332.361 61.4228C332.674 62.0288 332.83 62.8006 332.83 63.7381V70.6699H331.154V63.8517C331.154 62.9853 330.929 62.3153 330.479 61.8418C330.034 61.3636 329.416 61.1245 328.625 61.1245C328.076 61.1245 327.584 61.2405 327.148 61.4725C326.717 61.7045 326.376 62.043 326.125 62.4881C325.879 62.9332 325.756 63.473 325.756 64.1074ZM339.107 70.9256C338.415 70.9256 337.788 70.7954 337.225 70.535C336.661 70.2698 336.214 69.8887 335.882 69.3915C335.551 68.8896 335.385 68.2836 335.385 67.5733C335.385 66.9483 335.508 66.4417 335.754 66.0534C336.001 65.6605 336.33 65.3527 336.742 65.1301C337.153 64.9076 337.608 64.7419 338.105 64.633C338.607 64.5194 339.111 64.4294 339.618 64.3631C340.281 64.2779 340.818 64.214 341.23 64.1713C341.647 64.124 341.95 64.0459 342.139 63.937C342.333 63.8281 342.43 63.6387 342.43 63.3688V63.312C342.43 62.6112 342.239 62.0667 341.855 61.6784C341.476 61.2902 340.901 61.0961 340.129 61.0961C339.329 61.0961 338.702 61.2712 338.247 61.6216C337.793 61.972 337.473 62.3461 337.288 62.7438L335.698 62.1756C335.982 61.5127 336.36 60.9966 336.834 60.6273C337.312 60.2533 337.833 59.9928 338.396 59.8461C338.965 59.6945 339.523 59.6188 340.073 59.6188C340.423 59.6188 340.825 59.6614 341.28 59.7466C341.739 59.8271 342.182 59.9952 342.608 60.2509C343.039 60.5066 343.396 60.8925 343.68 61.4086C343.965 61.9247 344.107 62.6159 344.107 63.4824V70.6699H342.43V69.1926H342.345C342.232 69.4294 342.042 69.6827 341.777 69.9526C341.512 70.2225 341.159 70.4521 340.719 70.6415C340.278 70.8309 339.741 70.9256 339.107 70.9256ZM339.362 69.4199C340.025 69.4199 340.584 69.2897 341.038 69.0293C341.498 68.7689 341.843 68.4327 342.075 68.0208C342.312 67.6088 342.43 67.1756 342.43 66.7211V65.187C342.359 65.2722 342.203 65.3503 341.962 65.4213C341.725 65.4876 341.45 65.5468 341.138 65.5989C340.83 65.6462 340.529 65.6889 340.236 65.7267C339.947 65.7599 339.713 65.7883 339.533 65.812C339.097 65.8688 338.69 65.9611 338.311 66.089C337.937 66.2121 337.634 66.3991 337.402 66.65C337.175 66.8962 337.061 67.2324 337.061 67.6586C337.061 68.2409 337.277 68.6813 337.707 68.9796C338.143 69.2731 338.695 69.4199 339.362 69.4199ZM351.91 59.7608V61.1813H346.257V59.7608H351.91ZM347.905 57.1472H349.581V67.5449C349.581 68.0184 349.649 68.3735 349.787 68.6103C349.929 68.8423 350.109 68.9985 350.326 69.079C350.549 69.1548 350.783 69.1926 351.03 69.1926C351.214 69.1926 351.366 69.1832 351.484 69.1642C351.602 69.1406 351.697 69.1216 351.768 69.1074L352.109 70.6131C351.995 70.6557 351.837 70.6983 351.633 70.7409C351.43 70.7883 351.172 70.812 350.859 70.812C350.386 70.812 349.922 70.7102 349.467 70.5066C349.017 70.303 348.643 69.9928 348.345 69.5762C348.051 69.1595 347.905 68.6339 347.905 67.9995V57.1472ZM362.045 56.1245V70.6699H360.284V56.1245H362.045ZM370.207 59.7608V61.1813H364.327V59.7608H370.207ZM366.088 70.6699V58.2551C366.088 57.6301 366.235 57.1093 366.528 56.6926C366.822 56.276 367.203 55.9635 367.672 55.7551C368.141 55.5468 368.636 55.4426 369.156 55.4426C369.568 55.4426 369.904 55.4758 370.165 55.5421C370.425 55.6084 370.619 55.6699 370.747 55.7267L370.264 57.1756C370.179 57.1472 370.061 57.1117 369.909 57.0691C369.762 57.0265 369.568 57.0051 369.327 57.0051C368.773 57.0051 368.373 57.1448 368.127 57.4242C367.885 57.7035 367.764 58.1131 367.764 58.6529V70.6699H366.088ZM377.159 56.1245H379.176L383.21 62.9142H383.38L387.415 56.1245H389.432L384.176 64.6756V70.6699H382.415V64.6756L377.159 56.1245ZM403.299 63.3972C403.299 64.9313 403.022 66.257 402.468 67.3745C401.914 68.4919 401.154 69.3536 400.188 69.9597C399.222 70.5658 398.119 70.8688 396.878 70.8688C395.638 70.8688 394.535 70.5658 393.569 69.9597C392.603 69.3536 391.843 68.4919 391.289 67.3745C390.735 66.257 390.458 64.9313 390.458 63.3972C390.458 61.8631 390.735 60.5373 391.289 59.4199C391.843 58.3025 392.603 57.4408 393.569 56.8347C394.535 56.2286 395.638 55.9256 396.878 55.9256C398.119 55.9256 399.222 56.2286 400.188 56.8347C401.154 57.4408 401.914 58.3025 402.468 59.4199C403.022 60.5373 403.299 61.8631 403.299 63.3972ZM401.594 63.3972C401.594 62.1377 401.383 61.0748 400.962 60.2083C400.545 59.3418 399.98 58.686 399.265 58.2409C398.554 57.7959 397.759 57.5733 396.878 57.5733C395.998 57.5733 395.2 57.7959 394.485 58.2409C393.775 58.686 393.209 59.3418 392.787 60.2083C392.371 61.0748 392.162 62.1377 392.162 63.3972C392.162 64.6567 392.371 65.7196 392.787 66.5861C393.209 67.4526 393.775 68.1084 394.485 68.5534C395.2 68.9985 395.998 69.2211 396.878 69.2211C397.759 69.2211 398.554 68.9985 399.265 68.5534C399.98 68.1084 400.545 67.4526 400.962 66.5861C401.383 65.7196 401.594 64.6567 401.594 63.3972ZM415.806 56.1245H417.567V65.7551C417.567 66.7495 417.333 67.6373 416.864 68.4185C416.4 69.195 415.744 69.8082 414.897 70.258C414.049 70.7031 413.055 70.9256 411.914 70.9256C410.773 70.9256 409.778 70.7031 408.931 70.258C408.083 69.8082 407.425 69.195 406.956 68.4185C406.492 67.6373 406.26 66.7495 406.26 65.7551V56.1245H408.022V65.6131C408.022 66.3233 408.178 66.9554 408.491 67.5094C408.803 68.0587 409.248 68.4919 409.826 68.8091C410.408 69.1216 411.104 69.2779 411.914 69.2779C412.723 69.2779 413.419 69.1216 414.002 68.8091C414.584 68.4919 415.029 68.0587 415.337 67.5094C415.65 66.9554 415.806 66.3233 415.806 65.6131V56.1245ZM430.914 70.8972C429.891 70.8972 429.011 70.6557 428.272 70.1728C427.533 69.6898 426.965 69.0246 426.568 68.177C426.17 67.3295 425.971 66.3612 425.971 65.2722C425.971 64.1642 426.175 63.1865 426.582 62.339C426.994 61.4867 427.567 60.8214 428.301 60.3432C429.039 59.8603 429.901 59.6188 430.886 59.6188C431.653 59.6188 432.344 59.7608 432.96 60.0449C433.575 60.329 434.079 60.7267 434.472 61.2381C434.865 61.7495 435.109 62.3461 435.204 63.0279H433.528C433.4 62.5307 433.116 62.0904 432.676 61.7069C432.24 61.3186 431.653 61.1245 430.914 61.1245C430.261 61.1245 429.688 61.2949 429.195 61.6358C428.708 61.972 428.327 62.4479 428.052 63.0634C427.782 63.6742 427.647 64.3915 427.647 65.2154C427.647 66.0582 427.78 66.7921 428.045 67.4171C428.315 68.0421 428.694 68.5274 429.181 68.873C429.674 69.2187 430.251 69.3915 430.914 69.3915C431.35 69.3915 431.745 69.3158 432.1 69.1642C432.455 69.0127 432.756 68.7949 433.002 68.5108C433.248 68.2267 433.424 67.8858 433.528 67.4881H435.204C435.109 68.132 434.875 68.7121 434.501 69.2282C434.131 69.7395 433.641 70.1467 433.031 70.4498C432.425 70.748 431.719 70.8972 430.914 70.8972ZM442.086 70.8972C441.101 70.8972 440.237 70.6628 439.494 70.1941C438.755 69.7253 438.177 69.0695 437.761 68.2267C437.349 67.3839 437.143 66.3991 437.143 65.2722C437.143 64.1358 437.349 63.1439 437.761 62.2963C438.177 61.4488 438.755 60.7907 439.494 60.3219C440.237 59.8532 441.101 59.6188 442.086 59.6188C443.071 59.6188 443.933 59.8532 444.671 60.3219C445.415 60.7907 445.992 61.4488 446.404 62.2963C446.821 63.1439 447.029 64.1358 447.029 65.2722C447.029 66.3991 446.821 67.3839 446.404 68.2267C445.992 69.0695 445.415 69.7253 444.671 70.1941C443.933 70.6628 443.071 70.8972 442.086 70.8972ZM442.086 69.3915C442.834 69.3915 443.45 69.1998 443.933 68.8162C444.416 68.4327 444.773 67.9284 445.005 67.3034C445.237 66.6784 445.353 66.0014 445.353 65.2722C445.353 64.543 445.237 63.8636 445.005 63.2338C444.773 62.6041 444.416 62.0951 443.933 61.7069C443.45 61.3186 442.834 61.1245 442.086 61.1245C441.338 61.1245 440.722 61.3186 440.239 61.7069C439.756 62.0951 439.399 62.6041 439.167 63.2338C438.935 63.8636 438.819 64.543 438.819 65.2722C438.819 66.0014 438.935 66.6784 439.167 67.3034C439.399 67.9284 439.756 68.4327 440.239 68.8162C440.722 69.1998 441.338 69.3915 442.086 69.3915ZM456.463 66.2097V59.7608H458.139V70.6699H456.463V68.8233H456.349C456.093 69.3773 455.696 69.8484 455.156 70.2367C454.616 70.6202 453.934 70.812 453.111 70.812C452.429 70.812 451.823 70.6628 451.292 70.3645C450.762 70.0615 450.345 69.6069 450.042 69.0009C449.739 68.3901 449.588 67.6207 449.588 66.6926V59.7608H451.264V66.579C451.264 67.3745 451.486 68.0089 451.932 68.4824C452.381 68.9559 452.954 69.1926 453.65 69.1926C454.067 69.1926 454.491 69.0861 454.922 68.873C455.357 68.66 455.722 68.3333 456.015 67.8929C456.314 67.4526 456.463 66.8915 456.463 66.2097ZM462.885 56.1245V70.6699H461.209V56.1245H462.885ZM470.074 70.8972C469.165 70.8972 468.363 70.6676 467.667 70.2083C466.971 69.7443 466.426 69.0908 466.033 68.248C465.64 67.4005 465.444 66.3991 465.444 65.2438C465.444 64.098 465.64 63.1036 466.033 62.2608C466.426 61.418 466.973 60.767 467.674 60.3077C468.374 59.8484 469.184 59.6188 470.103 59.6188C470.813 59.6188 471.374 59.7372 471.786 59.9739C472.203 60.2059 472.52 60.4711 472.738 60.7694C472.96 61.0629 473.133 61.3044 473.256 61.4938H473.398V56.1245H475.074V70.6699H473.455V68.9938H473.256C473.133 69.1926 472.958 69.4436 472.731 69.7466C472.503 70.0449 472.179 70.3124 471.758 70.5492C471.336 70.7812 470.775 70.8972 470.074 70.8972ZM470.302 69.3915C470.974 69.3915 471.542 69.2163 472.006 68.8659C472.47 68.5108 472.823 68.0208 473.064 67.3958C473.306 66.766 473.427 66.0392 473.427 65.2154C473.427 64.401 473.308 63.6884 473.071 63.0776C472.835 62.4621 472.484 61.9838 472.02 61.6429C471.556 61.2973 470.983 61.1245 470.302 61.1245C469.591 61.1245 468.999 61.3068 468.526 61.6713C468.057 62.0312 467.705 62.5212 467.468 63.1415C467.236 63.757 467.12 64.4483 467.12 65.2154C467.12 65.9919 467.238 66.6974 467.475 67.3319C467.716 67.9616 468.071 68.4635 468.54 68.8375C469.014 69.2069 469.601 69.3915 470.302 69.3915ZM488.59 74.9881C487.61 74.9881 486.769 74.8532 486.069 74.5833C485.373 74.3181 484.819 73.9559 484.407 73.4966C483.995 73.0373 483.727 72.5212 483.604 71.9483L486.402 71.5719C486.488 71.7897 486.623 71.9933 486.807 72.1827C486.992 72.3721 487.236 72.5236 487.539 72.6373C487.847 72.7556 488.221 72.8148 488.661 72.8148C489.319 72.8148 489.861 72.6538 490.287 72.3319C490.718 72.0146 490.934 71.4819 490.934 70.7338V68.7381H490.806C490.673 69.0411 490.474 69.3276 490.209 69.5975C489.944 69.8674 489.603 70.0875 489.187 70.258C488.77 70.4284 488.273 70.5137 487.695 70.5137C486.876 70.5137 486.13 70.3243 485.458 69.9455C484.79 69.562 484.258 68.9772 483.86 68.1912C483.467 67.4005 483.27 66.4015 483.27 65.1941C483.27 63.9583 483.472 62.9261 483.874 62.0975C484.276 61.2689 484.812 60.6486 485.479 60.2367C486.151 59.8248 486.888 59.6188 487.688 59.6188C488.299 59.6188 488.81 59.723 489.222 59.9313C489.634 60.1349 489.965 60.3906 490.216 60.6983C490.472 61.0014 490.669 61.2997 490.806 61.5932H490.919V59.7608H493.924V70.7765C493.924 71.7045 493.696 72.481 493.242 73.106C492.787 73.731 492.158 74.1998 491.353 74.5123C490.553 74.8295 489.632 74.9881 488.59 74.9881ZM488.654 68.2409C489.142 68.2409 489.553 68.1202 489.89 67.8787C490.231 67.6325 490.491 67.2821 490.671 66.8276C490.856 66.3683 490.948 65.8191 490.948 65.1799C490.948 64.5407 490.858 63.9867 490.678 63.5179C490.498 63.0444 490.238 62.6775 489.897 62.4171C489.556 62.1567 489.142 62.0265 488.654 62.0265C488.157 62.0265 487.738 62.1614 487.397 62.4313C487.056 62.6964 486.798 63.0658 486.623 63.5392C486.447 64.0127 486.36 64.5596 486.36 65.1799C486.36 65.8096 486.447 66.3541 486.623 66.8134C486.803 67.2679 487.061 67.6207 487.397 67.8716C487.738 68.1178 488.157 68.2409 488.654 68.2409ZM501.303 70.883C500.181 70.883 499.215 70.6557 498.405 70.2012C497.6 69.7419 496.98 69.0932 496.544 68.2551C496.109 67.4123 495.891 66.4157 495.891 65.2651C495.891 64.1429 496.109 63.1581 496.544 62.3105C496.98 61.463 497.593 60.8025 498.384 60.329C499.179 59.8555 500.112 59.6188 501.182 59.6188C501.902 59.6188 502.572 59.7348 503.192 59.9668C503.817 60.1941 504.362 60.5373 504.826 60.9966C505.294 61.4559 505.659 62.0336 505.919 62.7296C506.18 63.4209 506.31 64.2305 506.31 65.1586V65.9895H497.098V64.1145H503.462C503.462 63.6789 503.367 63.293 503.178 62.9569C502.989 62.6207 502.726 62.3579 502.39 62.1685C502.058 61.9744 501.672 61.8773 501.232 61.8773C500.773 61.8773 500.366 61.9838 500.01 62.1969C499.66 62.4052 499.385 62.687 499.187 63.0421C498.988 63.3925 498.886 63.7831 498.881 64.214V65.9966C498.881 66.5364 498.981 67.0028 499.179 67.3958C499.383 67.7888 499.669 68.0918 500.039 68.3049C500.408 68.5179 500.846 68.6245 501.353 68.6245C501.689 68.6245 501.997 68.5771 502.276 68.4824C502.555 68.3877 502.794 68.2457 502.993 68.0563C503.192 67.8669 503.344 67.6349 503.448 67.3603L506.246 67.5449C506.104 68.2173 505.813 68.8044 505.373 69.3063C504.937 69.8034 504.374 70.1917 503.682 70.4711C502.996 70.7457 502.203 70.883 501.303 70.883ZM514.087 59.7608V62.0336H507.517V59.7608H514.087ZM509.009 57.1472H512.035V67.3176C512.035 67.597 512.077 67.8148 512.162 67.9711C512.248 68.1226 512.366 68.2291 512.517 68.2907C512.674 68.3522 512.854 68.383 513.057 68.383C513.199 68.383 513.341 68.3712 513.483 68.3475C513.625 68.3191 513.734 68.2978 513.81 68.2836L514.286 70.535C514.134 70.5823 513.921 70.6368 513.647 70.6983C513.372 70.7646 513.038 70.8049 512.645 70.8191C511.916 70.8475 511.277 70.7504 510.728 70.5279C510.183 70.3053 509.759 69.9597 509.456 69.4909C509.153 69.0222 509.004 68.4303 509.009 67.7154V57.1472ZM523.251 70.6699H519.955L524.977 56.1245H528.94L533.954 70.6699H530.658L527.015 59.4483H526.901L523.251 70.6699ZM523.045 64.9526H530.829V67.3532H523.045V64.9526ZM538.78 56.1245V70.6699H535.705V56.1245H538.78ZM553.83 60.3077C553.773 59.7348 553.529 59.2897 553.098 58.9725C552.667 58.6552 552.082 58.4966 551.344 58.4966C550.842 58.4966 550.418 58.5676 550.073 58.7097C549.727 58.847 549.462 59.0388 549.277 59.285C549.097 59.5312 549.007 59.8105 549.007 60.123C548.998 60.3835 549.052 60.6107 549.171 60.8049C549.294 60.999 549.462 61.1671 549.675 61.3091C549.888 61.4464 550.134 61.5672 550.413 61.6713C550.693 61.7708 550.991 61.856 551.308 61.927L552.615 62.2395C553.25 62.3816 553.832 62.571 554.362 62.8077C554.893 63.0444 555.352 63.3356 555.74 63.6813C556.128 64.0269 556.429 64.4341 556.642 64.9029C556.86 65.3716 556.971 65.909 556.976 66.5151C556.971 67.4052 556.744 68.177 556.294 68.8304C555.849 69.4791 555.205 69.9834 554.362 70.3432C553.524 70.6983 552.513 70.8759 551.33 70.8759C550.155 70.8759 549.133 70.696 548.261 70.3361C547.395 69.9763 546.718 69.4436 546.23 68.7381C545.747 68.0279 545.494 67.1496 545.47 66.1032H548.446C548.479 66.5908 548.619 66.998 548.865 67.3248C549.116 67.6467 549.45 67.8906 549.867 68.0563C550.288 68.2173 550.764 68.2978 551.294 68.2978C551.815 68.2978 552.267 68.222 552.651 68.0705C553.039 67.919 553.34 67.7083 553.553 67.4384C553.766 67.1685 553.872 66.8584 553.872 66.508C553.872 66.1813 553.775 65.9067 553.581 65.6841C553.392 65.4616 553.112 65.2722 552.743 65.1159C552.378 64.9597 551.931 64.8176 551.401 64.6898L549.817 64.2921C548.591 63.9938 547.622 63.5274 546.912 62.8929C546.202 62.2585 545.849 61.4038 545.854 60.329C545.849 59.4483 546.083 58.6789 546.557 58.0208C547.035 57.3626 547.691 56.8489 548.524 56.4796C549.358 56.1103 550.305 55.9256 551.365 55.9256C552.445 55.9256 553.387 56.1103 554.192 56.4796C555.002 56.8489 555.631 57.3626 556.081 58.0208C556.531 58.6789 556.763 59.4412 556.777 60.3077H553.83ZM563.959 70.883C562.837 70.883 561.871 70.6557 561.062 70.2012C560.257 69.7419 559.636 69.0932 559.201 68.2551C558.765 67.4123 558.547 66.4157 558.547 65.2651C558.547 64.1429 558.765 63.1581 559.201 62.3105C559.636 61.463 560.249 60.8025 561.04 60.329C561.836 59.8555 562.768 59.6188 563.839 59.6188C564.558 59.6188 565.228 59.7348 565.848 59.9668C566.473 60.1941 567.018 60.5373 567.482 60.9966C567.951 61.4559 568.315 62.0336 568.576 62.7296C568.836 63.4209 568.966 64.2305 568.966 65.1586V65.9895H559.755V64.1145H566.118C566.118 63.6789 566.024 63.293 565.834 62.9569C565.645 62.6207 565.382 62.3579 565.046 62.1685C564.714 61.9744 564.329 61.8773 563.888 61.8773C563.429 61.8773 563.022 61.9838 562.667 62.1969C562.316 62.4052 562.042 62.687 561.843 63.0421C561.644 63.3925 561.542 63.7831 561.537 64.214V65.9966C561.537 66.5364 561.637 67.0028 561.836 67.3958C562.039 67.7888 562.326 68.0918 562.695 68.3049C563.064 68.5179 563.502 68.6245 564.009 68.6245C564.345 68.6245 564.653 68.5771 564.932 68.4824C565.212 68.3877 565.451 68.2457 565.65 68.0563C565.848 67.8669 566 67.6349 566.104 67.3603L568.902 67.5449C568.76 68.2173 568.469 68.8044 568.029 69.3063C567.593 69.8034 567.03 70.1917 566.339 70.4711C565.652 70.7457 564.859 70.883 563.959 70.883ZM570.941 70.6699V59.7608H573.874V61.6642H573.988C574.187 60.9872 574.52 60.4758 574.989 60.1301C575.458 59.7798 575.998 59.6046 576.608 59.6046C576.76 59.6046 576.923 59.6141 577.098 59.633C577.274 59.6519 577.428 59.678 577.56 59.7111V62.3958C577.418 62.3532 577.222 62.3153 576.971 62.2821C576.72 62.249 576.49 62.2324 576.282 62.2324C575.837 62.2324 575.439 62.3295 575.089 62.5236C574.743 62.713 574.468 62.9782 574.265 63.3191C574.066 63.66 573.966 64.053 573.966 64.498V70.6699H570.941ZM589.627 59.7608L585.813 70.6699H582.404L578.59 59.7608H581.786L584.052 67.5662H584.165L586.424 59.7608H589.627ZM591.175 70.6699V59.7608H594.201V70.6699H591.175ZM592.695 58.3546C592.245 58.3546 591.859 58.2054 591.537 57.9071C591.22 57.6041 591.062 57.2419 591.062 56.8205C591.062 56.4038 591.22 56.0463 591.537 55.748C591.859 55.445 592.245 55.2935 592.695 55.2935C593.145 55.2935 593.528 55.445 593.846 55.748C594.168 56.0463 594.329 56.4038 594.329 56.8205C594.329 57.2419 594.168 57.6041 593.846 57.9071C593.528 58.2054 593.145 58.3546 592.695 58.3546ZM601.553 70.883C600.436 70.883 599.475 70.6462 598.67 70.1728C597.87 69.6945 597.254 69.0317 596.823 68.1841C596.397 67.3366 596.184 66.3612 596.184 65.258C596.184 64.1406 596.399 63.1605 596.83 62.3176C597.266 61.4701 597.884 60.8096 598.684 60.3361C599.484 59.8579 600.436 59.6188 601.539 59.6188C602.491 59.6188 603.324 59.7916 604.039 60.1373C604.754 60.4829 605.32 60.9682 605.737 61.5932C606.153 62.2182 606.383 62.9521 606.426 63.7949H603.57C603.49 63.2504 603.277 62.8124 602.931 62.481C602.59 62.1448 602.143 61.9767 601.589 61.9767C601.12 61.9767 600.711 62.1046 600.36 62.3603C600.015 62.6112 599.745 62.9782 599.551 63.4611C599.356 63.9441 599.259 64.5288 599.259 65.2154C599.259 65.9114 599.354 66.5033 599.543 66.9909C599.738 67.4786 600.01 67.8503 600.36 68.106C600.711 68.3617 601.12 68.4895 601.589 68.4895C601.935 68.4895 602.245 68.4185 602.519 68.2765C602.799 68.1344 603.028 67.9284 603.208 67.6586C603.393 67.3839 603.514 67.0549 603.57 66.6713H606.426C606.378 67.5047 606.151 68.2386 605.744 68.873C605.341 69.5028 604.785 69.9952 604.075 70.3503C603.364 70.7054 602.524 70.883 601.553 70.883ZM613.334 70.883C612.212 70.883 611.246 70.6557 610.437 70.2012C609.632 69.7419 609.011 69.0932 608.576 68.2551C608.14 67.4123 607.922 66.4157 607.922 65.2651C607.922 64.1429 608.14 63.1581 608.576 62.3105C609.011 61.463 609.624 60.8025 610.415 60.329C611.211 59.8555 612.143 59.6188 613.214 59.6188C613.933 59.6188 614.603 59.7348 615.223 59.9668C615.848 60.1941 616.393 60.5373 616.857 60.9966C617.326 61.4559 617.69 62.0336 617.951 62.7296C618.211 63.4209 618.341 64.2305 618.341 65.1586V65.9895H609.13V64.1145H615.493C615.493 63.6789 615.399 63.293 615.209 62.9569C615.02 62.6207 614.757 62.3579 614.421 62.1685C614.089 61.9744 613.704 61.8773 613.263 61.8773C612.804 61.8773 612.397 61.9838 612.042 62.1969C611.691 62.4052 611.417 62.687 611.218 63.0421C611.019 63.3925 610.917 63.7831 610.912 64.214V65.9966C610.912 66.5364 611.012 67.0028 611.211 67.3958C611.414 67.7888 611.701 68.0918 612.07 68.3049C612.439 68.5179 612.877 68.6245 613.384 68.6245C613.72 68.6245 614.028 68.5771 614.307 68.4824C614.587 68.3877 614.826 68.2457 615.025 68.0563C615.223 67.8669 615.375 67.6349 615.479 67.3603L618.277 67.5449C618.135 68.2173 617.844 68.8044 617.404 69.3063C616.968 69.8034 616.405 70.1917 615.714 70.4711C615.027 70.7457 614.234 70.883 613.334 70.883ZM627.509 70.6699H624.213L629.234 56.1245H633.198L638.212 70.6699H634.916L631.273 59.4483H631.159L627.509 70.6699ZM627.303 64.9526H635.087V67.3532H627.303V64.9526ZM644.313 74.9881C643.332 74.9881 642.492 74.8532 641.791 74.5833C641.095 74.3181 640.541 73.9559 640.129 73.4966C639.717 73.0373 639.45 72.5212 639.327 71.9483L642.125 71.5719C642.21 71.7897 642.345 71.9933 642.53 72.1827C642.715 72.3721 642.958 72.5236 643.261 72.6373C643.569 72.7556 643.943 72.8148 644.384 72.8148C645.042 72.8148 645.584 72.6538 646.01 72.3319C646.441 72.0146 646.656 71.4819 646.656 70.7338V68.7381H646.528C646.396 69.0411 646.197 69.3276 645.932 69.5975C645.667 69.8674 645.326 70.0875 644.909 70.258C644.493 70.4284 643.995 70.5137 643.418 70.5137C642.599 70.5137 641.853 70.3243 641.18 69.9455C640.513 69.562 639.98 68.9772 639.582 68.1912C639.189 67.4005 638.993 66.4015 638.993 65.1941C638.993 63.9583 639.194 62.9261 639.597 62.0975C639.999 61.2689 640.534 60.6486 641.202 60.2367C641.874 59.8248 642.61 59.6188 643.411 59.6188C644.021 59.6188 644.533 59.723 644.945 59.9313C645.357 60.1349 645.688 60.3906 645.939 60.6983C646.195 61.0014 646.391 61.2997 646.528 61.5932H646.642V59.7608H649.646V70.7765C649.646 71.7045 649.419 72.481 648.965 73.106C648.51 73.731 647.88 74.1998 647.075 74.5123C646.275 74.8295 645.354 74.9881 644.313 74.9881ZM644.377 68.2409C644.864 68.2409 645.276 68.1202 645.612 67.8787C645.953 67.6325 646.214 67.2821 646.394 66.8276C646.578 66.3683 646.671 65.8191 646.671 65.1799C646.671 64.5407 646.581 63.9867 646.401 63.5179C646.221 63.0444 645.96 62.6775 645.619 62.4171C645.278 62.1567 644.864 62.0265 644.377 62.0265C643.879 62.0265 643.46 62.1614 643.119 62.4313C642.778 62.6964 642.52 63.0658 642.345 63.5392C642.17 64.0127 642.082 64.5596 642.082 65.1799C642.082 65.8096 642.17 66.3541 642.345 66.8134C642.525 67.2679 642.783 67.6207 643.119 67.8716C643.46 68.1178 643.879 68.2409 644.377 68.2409ZM657.026 70.883C655.903 70.883 654.938 70.6557 654.128 70.2012C653.323 69.7419 652.703 69.0932 652.267 68.2551C651.832 67.4123 651.614 66.4157 651.614 65.2651C651.614 64.1429 651.832 63.1581 652.267 62.3105C652.703 61.463 653.316 60.8025 654.107 60.329C654.902 59.8555 655.835 59.6188 656.905 59.6188C657.625 59.6188 658.295 59.7348 658.915 59.9668C659.54 60.1941 660.084 60.5373 660.548 60.9966C661.017 61.4559 661.382 62.0336 661.642 62.7296C661.903 63.4209 662.033 64.2305 662.033 65.1586V65.9895H652.821V64.1145H659.185C659.185 63.6789 659.09 63.293 658.901 62.9569C658.711 62.6207 658.448 62.3579 658.112 62.1685C657.781 61.9744 657.395 61.8773 656.955 61.8773C656.495 61.8773 656.088 61.9838 655.733 62.1969C655.383 62.4052 655.108 62.687 654.909 63.0421C654.71 63.3925 654.609 63.7831 654.604 64.214V65.9966C654.604 66.5364 654.703 67.0028 654.902 67.3958C655.106 67.7888 655.392 68.0918 655.761 68.3049C656.131 68.5179 656.569 68.6245 657.075 68.6245C657.412 68.6245 657.719 68.5771 657.999 68.4824C658.278 68.3877 658.517 68.2457 658.716 68.0563C658.915 67.8669 659.066 67.6349 659.171 67.3603L661.969 67.5449C661.827 68.2173 661.536 68.8044 661.095 69.3063C660.66 69.8034 660.096 70.1917 659.405 70.4711C658.718 70.7457 657.925 70.883 657.026 70.883ZM667.033 64.3631V70.6699H664.007V59.7608H666.891V61.6855H667.019C667.26 61.0511 667.665 60.5492 668.233 60.1799C668.801 59.8058 669.49 59.6188 670.3 59.6188C671.057 59.6188 671.718 59.7845 672.281 60.1159C672.845 60.4474 673.283 60.9209 673.595 61.5364C673.908 62.1472 674.064 62.8764 674.064 63.7239V70.6699H671.038V64.2637C671.043 63.5961 670.873 63.0752 670.527 62.7012C670.181 62.3224 669.706 62.133 669.1 62.133C668.692 62.133 668.332 62.2206 668.02 62.3958C667.712 62.571 667.471 62.8266 667.296 63.1628C667.125 63.4943 667.037 63.8944 667.033 64.3631ZM682.251 59.7608V62.0336H675.682V59.7608H682.251ZM677.173 57.1472H680.199V67.3176C680.199 67.597 680.241 67.8148 680.326 67.9711C680.412 68.1226 680.53 68.2291 680.682 68.2907C680.838 68.3522 681.018 68.383 681.221 68.383C681.363 68.383 681.505 68.3712 681.647 68.3475C681.79 68.3191 681.898 68.2978 681.974 68.2836L682.45 70.535C682.299 70.5823 682.085 70.6368 681.811 70.6983C681.536 70.7646 681.202 70.8049 680.809 70.8191C680.08 70.8475 679.441 70.7504 678.892 70.5279C678.347 70.3053 677.924 69.9597 677.62 69.4909C677.317 69.0222 677.168 68.4303 677.173 67.7154V57.1472ZM693.162 62.8716L690.392 63.0421C690.345 62.8053 690.243 62.5923 690.087 62.4029C689.93 62.2087 689.725 62.0549 689.469 61.9412C689.218 61.8229 688.917 61.7637 688.567 61.7637C688.098 61.7637 687.703 61.8631 687.381 62.062C687.059 62.2561 686.898 62.5165 686.898 62.8432C686.898 63.1036 687.002 63.3238 687.21 63.5037C687.419 63.6837 687.776 63.8281 688.283 63.937L690.257 64.3347C691.318 64.5525 692.109 64.9029 692.629 65.3858C693.15 65.8688 693.411 66.5033 693.411 67.2892C693.411 68.0042 693.2 68.6316 692.778 69.1713C692.362 69.7111 691.789 70.1325 691.06 70.4355C690.335 70.7338 689.5 70.883 688.553 70.883C687.109 70.883 685.958 70.5823 685.101 69.981C684.249 69.3749 683.749 68.5511 683.602 67.5094L686.578 67.3532C686.668 67.7935 686.886 68.1297 687.232 68.3617C687.577 68.589 688.02 68.7026 688.56 68.7026C689.09 68.7026 689.516 68.6008 689.838 68.3972C690.165 68.1889 690.331 67.9213 690.335 67.5946C690.331 67.32 690.215 67.0951 689.987 66.9199C689.76 66.74 689.41 66.6027 688.936 66.508L687.047 66.1316C685.982 65.9185 685.189 65.5492 684.668 65.0236C684.152 64.498 683.894 63.8281 683.894 63.0137C683.894 62.3129 684.083 61.7092 684.462 61.2026C684.845 60.696 685.383 60.3053 686.074 60.0307C686.77 59.7561 687.584 59.6188 688.517 59.6188C689.895 59.6188 690.979 59.91 691.77 60.4924C692.565 61.0748 693.029 61.8678 693.162 62.8716ZM706.012 59.7608V61.1813H700.358V59.7608H706.012ZM702.006 57.1472H703.682V67.5449C703.682 68.0184 703.751 68.3735 703.888 68.6103C704.03 68.8423 704.21 68.9985 704.428 69.079C704.651 69.1548 704.885 69.1926 705.131 69.1926C705.316 69.1926 705.467 69.1832 705.586 69.1642C705.704 69.1406 705.799 69.1216 705.87 69.1074L706.211 70.6131C706.097 70.6557 705.938 70.6983 705.735 70.7409C705.531 70.7883 705.273 70.812 704.961 70.812C704.487 70.812 704.023 70.7102 703.569 70.5066C703.119 70.303 702.745 69.9928 702.446 69.5762C702.153 69.1595 702.006 68.6339 702.006 67.9995V57.1472ZM710.444 64.1074V70.6699H708.767V56.1245H710.444V61.4654H710.586C710.841 60.9019 711.225 60.4545 711.736 60.123C712.252 59.7869 712.939 59.6188 713.796 59.6188C714.539 59.6188 715.19 59.7679 715.749 60.0662C716.308 60.3598 716.741 60.812 717.049 61.4228C717.361 62.0288 717.517 62.8006 717.517 63.7381V70.6699H715.841V63.8517C715.841 62.9853 715.616 62.3153 715.167 61.8418C714.722 61.3636 714.104 61.1245 713.313 61.1245C712.764 61.1245 712.271 61.2405 711.836 61.4725C711.405 61.7045 711.064 62.043 710.813 62.4881C710.567 62.9332 710.444 63.473 710.444 64.1074ZM723.794 70.9256C723.103 70.9256 722.475 70.7954 721.912 70.535C721.349 70.2698 720.901 69.8887 720.57 69.3915C720.238 68.8896 720.073 68.2836 720.073 67.5733C720.073 66.9483 720.196 66.4417 720.442 66.0534C720.688 65.6605 721.017 65.3527 721.429 65.1301C721.841 64.9076 722.296 64.7419 722.793 64.633C723.295 64.5194 723.799 64.4294 724.305 64.3631C724.968 64.2779 725.506 64.214 725.918 64.1713C726.334 64.124 726.637 64.0459 726.827 63.937C727.021 63.8281 727.118 63.6387 727.118 63.3688V63.312C727.118 62.6112 726.926 62.0667 726.543 61.6784C726.164 61.2902 725.589 61.0961 724.817 61.0961C724.017 61.0961 723.389 61.2712 722.935 61.6216C722.48 61.972 722.161 62.3461 721.976 62.7438L720.385 62.1756C720.669 61.5127 721.048 60.9966 721.521 60.6273C722 60.2533 722.52 59.9928 723.084 59.8461C723.652 59.6945 724.211 59.6188 724.76 59.6188C725.11 59.6188 725.513 59.6614 725.967 59.7466C726.427 59.8271 726.869 59.9952 727.296 60.2509C727.726 60.5066 728.084 60.8925 728.368 61.4086C728.652 61.9247 728.794 62.6159 728.794 63.4824V70.6699H727.118V69.1926H727.033C726.919 69.4294 726.73 69.6827 726.465 69.9526C726.199 70.2225 725.847 70.4521 725.406 70.6415C724.966 70.8309 724.429 70.9256 723.794 70.9256ZM724.05 69.4199C724.713 69.4199 725.271 69.2897 725.726 69.0293C726.185 68.7689 726.531 68.4327 726.763 68.0208C727 67.6088 727.118 67.1756 727.118 66.7211V65.187C727.047 65.2722 726.891 65.3503 726.649 65.4213C726.412 65.4876 726.138 65.5468 725.825 65.5989C725.518 65.6462 725.217 65.6889 724.923 65.7267C724.635 65.7599 724.4 65.7883 724.22 65.812C723.785 65.8688 723.377 65.9611 722.999 66.089C722.625 66.2121 722.322 66.3991 722.09 66.65C721.862 66.8962 721.749 67.2324 721.749 67.6586C721.749 68.2409 721.964 68.6813 722.395 68.9796C722.831 69.2731 723.382 69.4199 724.05 69.4199ZM736.598 59.7608V61.1813H730.944V59.7608H736.598ZM732.592 57.1472H734.268V67.5449C734.268 68.0184 734.337 68.3735 734.474 68.6103C734.616 68.8423 734.796 68.9985 735.014 69.079C735.236 69.1548 735.471 69.1926 735.717 69.1926C735.902 69.1926 736.053 69.1832 736.172 69.1642C736.29 69.1406 736.385 69.1216 736.456 69.1074L736.797 70.6131C736.683 70.6557 736.524 70.6983 736.321 70.7409C736.117 70.7883 735.859 70.812 735.547 70.812C735.073 70.812 734.609 70.7102 734.155 70.5066C733.705 70.303 733.331 69.9928 733.032 69.5762C732.739 69.1595 732.592 68.6339 732.592 67.9995V57.1472ZM309.499 98.9881C308.689 98.9881 307.993 98.8839 307.411 98.6756C306.829 98.472 306.343 98.2021 305.955 97.8659C305.571 97.5345 305.266 97.1794 305.039 96.8006L306.374 95.8631C306.526 96.062 306.717 96.2892 306.949 96.5449C307.181 96.8053 307.499 97.0302 307.901 97.2196C308.308 97.4138 308.841 97.5108 309.499 97.5108C310.38 97.5108 311.107 97.2978 311.679 96.8716C312.252 96.4455 312.539 95.7779 312.539 94.8688V92.6529H312.397C312.274 92.8517 312.098 93.098 311.871 93.3915C311.649 93.6803 311.327 93.9384 310.905 94.1657C310.489 94.3882 309.925 94.4995 309.215 94.4995C308.334 94.4995 307.544 94.2911 306.843 93.8745C306.147 93.4578 305.595 92.8517 305.188 92.0563C304.785 91.2608 304.584 90.2949 304.584 89.1586C304.584 88.0411 304.781 87.0681 305.174 86.2395C305.567 85.4062 306.114 84.7623 306.814 84.3077C307.515 83.8484 308.325 83.6188 309.243 83.6188C309.954 83.6188 310.517 83.7372 310.934 83.9739C311.355 84.2059 311.677 84.4711 311.9 84.7694C312.127 85.0629 312.302 85.3044 312.425 85.4938H312.596V83.7608H314.215V94.9824C314.215 95.9199 314.002 96.6822 313.576 97.2694C313.154 97.8612 312.586 98.2944 311.871 98.5691C311.161 98.8484 310.37 98.9881 309.499 98.9881ZM309.442 92.9938C310.115 92.9938 310.683 92.8399 311.147 92.5321C311.611 92.2244 311.964 91.7817 312.205 91.204C312.446 90.6264 312.567 89.9351 312.567 89.1301C312.567 88.3442 312.449 87.6505 312.212 87.0492C311.975 86.4479 311.625 85.9767 311.161 85.6358C310.697 85.2949 310.124 85.1245 309.442 85.1245C308.732 85.1245 308.14 85.3044 307.667 85.6642C307.198 86.0241 306.845 86.507 306.608 87.1131C306.376 87.7192 306.26 88.3915 306.26 89.1301C306.26 89.8877 306.379 90.5577 306.616 91.1401C306.857 91.7177 307.212 92.1723 307.681 92.5037C308.154 92.8304 308.741 92.9938 309.442 92.9938ZM321.857 94.8972C320.806 94.8972 319.899 94.6652 319.137 94.2012C318.379 93.7324 317.794 93.079 317.383 92.2409C316.975 91.3981 316.772 90.418 316.772 89.3006C316.772 88.1832 316.975 87.1983 317.383 86.3461C317.794 85.4891 318.367 84.8214 319.101 84.3432C319.84 83.8603 320.702 83.6188 321.687 83.6188C322.255 83.6188 322.816 83.7135 323.37 83.9029C323.924 84.0923 324.428 84.4 324.883 84.8262C325.337 85.2476 325.699 85.8063 325.969 86.5023C326.239 87.1983 326.374 88.0553 326.374 89.0733V89.7836H317.965V88.3347H324.669C324.669 87.7192 324.546 87.1699 324.3 86.687C324.059 86.204 323.713 85.8229 323.263 85.5435C322.818 85.2641 322.293 85.1245 321.687 85.1245C321.019 85.1245 320.441 85.2902 319.954 85.6216C319.471 85.9483 319.099 86.3745 318.839 86.9C318.578 87.4256 318.448 87.9891 318.448 88.5904V89.5563C318.448 90.3801 318.59 91.0785 318.874 91.6515C319.163 92.2196 319.563 92.6529 320.074 92.9512C320.586 93.2447 321.18 93.3915 321.857 93.3915C322.297 93.3915 322.695 93.33 323.05 93.2069C323.41 93.079 323.72 92.8896 323.981 92.6387C324.241 92.383 324.442 92.0658 324.584 91.687L326.204 92.1415C326.033 92.6908 325.747 93.1737 325.344 93.5904C324.942 94.0023 324.445 94.3243 323.853 94.5563C323.261 94.7836 322.596 94.8972 321.857 94.8972ZM330.6 88.1074V94.6699H328.924V83.7608H330.543V85.4654H330.685C330.941 84.9114 331.329 84.4663 331.85 84.1301C332.371 83.7892 333.043 83.6188 333.867 83.6188C334.606 83.6188 335.252 83.7703 335.806 84.0733C336.36 84.3716 336.791 84.8262 337.098 85.437C337.406 86.043 337.56 86.8101 337.56 87.7381V94.6699H335.884V87.8517C335.884 86.9947 335.661 86.3271 335.216 85.8489C334.771 85.3659 334.16 85.1245 333.384 85.1245C332.849 85.1245 332.371 85.2405 331.949 85.4725C331.533 85.7045 331.204 86.043 330.962 86.4881C330.721 86.9332 330.6 87.473 330.6 88.1074ZM345.197 94.8972C344.146 94.8972 343.239 94.6652 342.477 94.2012C341.719 93.7324 341.134 93.079 340.722 92.2409C340.315 91.3981 340.112 90.418 340.112 89.3006C340.112 88.1832 340.315 87.1983 340.722 86.3461C341.134 85.4891 341.707 84.8214 342.441 84.3432C343.18 83.8603 344.042 83.6188 345.026 83.6188C345.595 83.6188 346.156 83.7135 346.71 83.9029C347.264 84.0923 347.768 84.4 348.222 84.8262C348.677 85.2476 349.039 85.8063 349.309 86.5023C349.579 87.1983 349.714 88.0553 349.714 89.0733V89.7836H341.305V88.3347H348.009C348.009 87.7192 347.886 87.1699 347.64 86.687C347.399 86.204 347.053 85.8229 346.603 85.5435C346.158 85.2641 345.632 85.1245 345.026 85.1245C344.359 85.1245 343.781 85.2902 343.293 85.6216C342.81 85.9483 342.439 86.3745 342.178 86.9C341.918 87.4256 341.788 87.9891 341.788 88.5904V89.5563C341.788 90.3801 341.93 91.0785 342.214 91.6515C342.503 92.2196 342.903 92.6529 343.414 92.9512C343.926 93.2447 344.52 93.3915 345.197 93.3915C345.637 93.3915 346.035 93.33 346.39 93.2069C346.75 93.079 347.06 92.8896 347.32 92.6387C347.581 92.383 347.782 92.0658 347.924 91.687L349.543 92.1415C349.373 92.6908 349.086 93.1737 348.684 93.5904C348.282 94.0023 347.784 94.3243 347.193 94.5563C346.601 94.7836 345.935 94.8972 345.197 94.8972ZM352.264 94.6699V83.7608H353.883V85.4086H353.997C354.195 84.8688 354.555 84.4308 355.076 84.0946C355.597 83.7585 356.184 83.5904 356.837 83.5904C356.961 83.5904 357.114 83.5927 357.299 83.5975C357.484 83.6022 357.623 83.6093 357.718 83.6188V85.3233C357.661 85.3091 357.531 85.2878 357.328 85.2594C357.129 85.2263 356.918 85.2097 356.695 85.2097C356.165 85.2097 355.692 85.321 355.275 85.5435C354.863 85.7613 354.536 86.0643 354.295 86.4526C354.058 86.8361 353.94 87.2741 353.94 87.7665V94.6699H352.264ZM362.915 94.9256C362.224 94.9256 361.597 94.7954 361.033 94.535C360.47 94.2698 360.022 93.8887 359.691 93.3915C359.359 92.8896 359.194 92.2836 359.194 91.5733C359.194 90.9483 359.317 90.4417 359.563 90.0534C359.809 89.6605 360.138 89.3527 360.55 89.1301C360.962 88.9076 361.417 88.7419 361.914 88.633C362.416 88.5194 362.92 88.4294 363.427 88.3631C364.089 88.2779 364.627 88.214 365.039 88.1713C365.455 88.124 365.758 88.0459 365.948 87.937C366.142 87.8281 366.239 87.6387 366.239 87.3688V87.312C366.239 86.6112 366.047 86.0667 365.664 85.6784C365.285 85.2902 364.71 85.0961 363.938 85.0961C363.138 85.0961 362.51 85.2712 362.056 85.6216C361.601 85.972 361.282 86.3461 361.097 86.7438L359.506 86.1756C359.79 85.5127 360.169 84.9966 360.642 84.6273C361.121 84.2533 361.642 83.9928 362.205 83.8461C362.773 83.6945 363.332 83.6188 363.881 83.6188C364.232 83.6188 364.634 83.6614 365.089 83.7466C365.548 83.8271 365.991 83.9952 366.417 84.2509C366.848 84.5066 367.205 84.8925 367.489 85.4086C367.773 85.9247 367.915 86.6159 367.915 87.4824V94.6699H366.239V93.1926H366.154C366.04 93.4294 365.851 93.6827 365.586 93.9526C365.321 94.2225 364.968 94.4521 364.527 94.6415C364.087 94.8309 363.55 94.9256 362.915 94.9256ZM363.171 93.4199C363.834 93.4199 364.392 93.2897 364.847 93.0293C365.306 92.7689 365.652 92.4327 365.884 92.0208C366.121 91.6088 366.239 91.1756 366.239 90.7211V89.187C366.168 89.2722 366.012 89.3503 365.77 89.4213C365.534 89.4876 365.259 89.5468 364.946 89.5989C364.639 89.6462 364.338 89.6889 364.044 89.7267C363.756 89.7599 363.521 89.7883 363.341 89.812C362.906 89.8688 362.499 89.9611 362.12 90.089C361.746 90.2121 361.443 90.3991 361.211 90.65C360.983 90.8962 360.87 91.2324 360.87 91.6586C360.87 92.2409 361.085 92.6813 361.516 92.9796C361.952 93.2731 362.503 93.4199 363.171 93.4199ZM375.719 83.7608V85.1813H370.065V83.7608H375.719ZM371.713 81.1472H373.389V91.5449C373.389 92.0184 373.458 92.3735 373.595 92.6103C373.737 92.8423 373.917 92.9985 374.135 93.079C374.358 93.1548 374.592 93.1926 374.838 93.1926C375.023 93.1926 375.174 93.1832 375.293 93.1642C375.411 93.1406 375.506 93.1216 375.577 93.1074L375.918 94.6131C375.804 94.6557 375.645 94.6983 375.442 94.7409C375.238 94.7883 374.98 94.812 374.668 94.812C374.194 94.812 373.73 94.7102 373.276 94.5066C372.826 94.303 372.452 93.9928 372.153 93.5762C371.86 93.1595 371.713 92.6339 371.713 91.9995V81.1472ZM382.697 94.8972C381.646 94.8972 380.739 94.6652 379.977 94.2012C379.219 93.7324 378.634 93.079 378.222 92.2409C377.815 91.3981 377.612 90.418 377.612 89.3006C377.612 88.1832 377.815 87.1983 378.222 86.3461C378.634 85.4891 379.207 84.8214 379.941 84.3432C380.68 83.8603 381.542 83.6188 382.526 83.6188C383.095 83.6188 383.656 83.7135 384.21 83.9029C384.764 84.0923 385.268 84.4 385.722 84.8262C386.177 85.2476 386.539 85.8063 386.809 86.5023C387.079 87.1983 387.214 88.0553 387.214 89.0733V89.7836H378.805V88.3347H385.509C385.509 87.7192 385.386 87.1699 385.14 86.687C384.899 86.204 384.553 85.8229 384.103 85.5435C383.658 85.2641 383.132 85.1245 382.526 85.1245C381.859 85.1245 381.281 85.2902 380.793 85.6216C380.31 85.9483 379.939 86.3745 379.678 86.9C379.418 87.4256 379.288 87.9891 379.288 88.5904V89.5563C379.288 90.3801 379.43 91.0785 379.714 91.6515C380.003 92.2196 380.403 92.6529 380.914 92.9512C381.426 93.2447 382.02 93.3915 382.697 93.3915C383.137 93.3915 383.535 93.33 383.89 93.2069C384.25 93.079 384.56 92.8896 384.82 92.6387C385.081 92.383 385.282 92.0658 385.424 91.687L387.043 92.1415C386.873 92.6908 386.586 93.1737 386.184 93.5904C385.782 94.0023 385.284 94.3243 384.693 94.5563C384.101 94.7836 383.435 94.8972 382.697 94.8972ZM400.133 83.7608V85.1813H394.479V83.7608H400.133ZM396.127 81.1472H397.803V91.5449C397.803 92.0184 397.872 92.3735 398.009 92.6103C398.151 92.8423 398.331 92.9985 398.549 93.079C398.772 93.1548 399.006 93.1926 399.252 93.1926C399.437 93.1926 399.588 93.1832 399.707 93.1642C399.825 93.1406 399.92 93.1216 399.991 93.1074L400.332 94.6131C400.218 94.6557 400.06 94.6983 399.856 94.7409C399.652 94.7883 399.394 94.812 399.082 94.812C398.608 94.812 398.144 94.7102 397.69 94.5066C397.24 94.303 396.866 93.9928 396.568 93.5762C396.274 93.1595 396.127 92.6339 396.127 91.9995V81.1472ZM404.565 88.1074V94.6699H402.889V80.1245H404.565V85.4654H404.707C404.962 84.9019 405.346 84.4545 405.857 84.123C406.373 83.7869 407.06 83.6188 407.917 83.6188C408.66 83.6188 409.311 83.7679 409.87 84.0662C410.429 84.3598 410.862 84.812 411.17 85.4228C411.482 86.0288 411.639 86.8006 411.639 87.7381V94.6699H409.962V87.8517C409.962 86.9853 409.738 86.3153 409.288 85.8418C408.843 85.3636 408.225 85.1245 407.434 85.1245C406.885 85.1245 406.392 85.2405 405.957 85.4725C405.526 85.7045 405.185 86.043 404.934 86.4881C404.688 86.9332 404.565 87.473 404.565 88.1074ZM419.279 94.8972C418.228 94.8972 417.321 94.6652 416.559 94.2012C415.801 93.7324 415.216 93.079 414.804 92.2409C414.397 91.3981 414.194 90.418 414.194 89.3006C414.194 88.1832 414.397 87.1983 414.804 86.3461C415.216 85.4891 415.789 84.8214 416.523 84.3432C417.262 83.8603 418.124 83.6188 419.108 83.6188C419.677 83.6188 420.238 83.7135 420.792 83.9029C421.346 84.0923 421.85 84.4 422.304 84.8262C422.759 85.2476 423.121 85.8063 423.391 86.5023C423.661 87.1983 423.796 88.0553 423.796 89.0733V89.7836H415.387V88.3347H422.091C422.091 87.7192 421.968 87.1699 421.722 86.687C421.481 86.204 421.135 85.8229 420.685 85.5435C420.24 85.2641 419.714 85.1245 419.108 85.1245C418.441 85.1245 417.863 85.2902 417.375 85.6216C416.892 85.9483 416.521 86.3745 416.26 86.9C416 87.4256 415.87 87.9891 415.87 88.5904V89.5563C415.87 90.3801 416.012 91.0785 416.296 91.6515C416.585 92.2196 416.985 92.6529 417.496 92.9512C418.008 93.2447 418.602 93.3915 419.279 93.3915C419.719 93.3915 420.117 93.33 420.472 93.2069C420.832 93.079 421.142 92.8896 421.402 92.6387C421.663 92.383 421.864 92.0658 422.006 91.687L423.625 92.1415C423.455 92.6908 423.169 93.1737 422.766 93.5904C422.364 94.0023 421.866 94.3243 421.275 94.5563C420.683 94.7836 420.017 94.8972 419.279 94.8972ZM431.971 94.6699V83.7608H433.59V85.4654H433.732C433.959 84.883 434.326 84.4308 434.833 84.1088C435.339 83.7821 435.948 83.6188 436.658 83.6188C437.378 83.6188 437.977 83.7821 438.455 84.1088C438.938 84.4308 439.314 84.883 439.584 85.4654H439.698C439.977 84.9019 440.396 84.4545 440.955 84.123C441.514 83.7869 442.184 83.6188 442.965 83.6188C443.94 83.6188 444.738 83.9242 445.358 84.535C445.979 85.141 446.289 86.0856 446.289 87.3688V94.6699H444.613V87.3688C444.613 86.5639 444.392 85.9886 443.952 85.6429C443.512 85.2973 442.993 85.1245 442.397 85.1245C441.63 85.1245 441.035 85.3565 440.614 85.8205C440.193 86.2798 439.982 86.8622 439.982 87.5676V94.6699H438.277V87.1983C438.277 86.5781 438.076 86.0785 437.674 85.6998C437.271 85.3162 436.753 85.1245 436.118 85.1245C435.683 85.1245 435.276 85.2405 434.897 85.4725C434.523 85.7045 434.22 86.0265 433.988 86.4384C433.76 86.8456 433.647 87.3167 433.647 87.8517V94.6699H431.971ZM453.785 94.8972C452.8 94.8972 451.936 94.6628 451.193 94.1941C450.454 93.7253 449.877 93.0695 449.46 92.2267C449.048 91.3839 448.842 90.3991 448.842 89.2722C448.842 88.1358 449.048 87.1439 449.46 86.2963C449.877 85.4488 450.454 84.7907 451.193 84.3219C451.936 83.8532 452.8 83.6188 453.785 83.6188C454.77 83.6188 455.632 83.8532 456.37 84.3219C457.114 84.7907 457.691 85.4488 458.103 86.2963C458.52 87.1439 458.728 88.1358 458.728 89.2722C458.728 90.3991 458.52 91.3839 458.103 92.2267C457.691 93.0695 457.114 93.7253 456.37 94.1941C455.632 94.6628 454.77 94.8972 453.785 94.8972ZM453.785 93.3915C454.533 93.3915 455.149 93.1998 455.632 92.8162C456.115 92.4327 456.472 91.9284 456.704 91.3034C456.936 90.6784 457.052 90.0014 457.052 89.2722C457.052 88.543 456.936 87.8636 456.704 87.2338C456.472 86.6041 456.115 86.0951 455.632 85.7069C455.149 85.3186 454.533 85.1245 453.785 85.1245C453.037 85.1245 452.422 85.3186 451.939 85.7069C451.456 86.0951 451.098 86.6041 450.866 87.2338C450.634 87.8636 450.518 88.543 450.518 89.2722C450.518 90.0014 450.634 90.6784 450.866 91.3034C451.098 91.9284 451.456 92.4327 451.939 92.8162C452.422 93.1998 453.037 93.3915 453.785 93.3915ZM469.014 86.204L467.509 86.6301C467.414 86.3792 467.274 86.1354 467.09 85.8986C466.91 85.6571 466.663 85.4583 466.351 85.302C466.038 85.1458 465.638 85.0676 465.151 85.0676C464.483 85.0676 463.927 85.2215 463.482 85.5293C463.041 85.8323 462.821 86.2182 462.821 86.687C462.821 87.1036 462.973 87.4327 463.276 87.6742C463.579 87.9157 464.052 88.1169 464.696 88.2779L466.315 88.6756C467.291 88.9123 468.018 89.2746 468.496 89.7623C468.974 90.2452 469.213 90.8678 469.213 91.6301C469.213 92.2551 469.033 92.8139 468.673 93.3063C468.318 93.7987 467.821 94.187 467.182 94.4711C466.543 94.7551 465.799 94.8972 464.952 94.8972C463.839 94.8972 462.918 94.6557 462.189 94.1728C461.46 93.6898 460.998 92.9843 460.804 92.0563L462.395 91.6586C462.546 92.2457 462.833 92.686 463.254 92.9796C463.68 93.2731 464.237 93.4199 464.923 93.4199C465.705 93.4199 466.325 93.2542 466.784 92.9228C467.248 92.5866 467.48 92.1841 467.48 91.7154C467.48 91.3366 467.348 91.0194 467.082 90.7637C466.817 90.5033 466.41 90.3091 465.861 90.1813L464.043 89.7551C463.044 89.5184 462.31 89.1515 461.841 88.6543C461.377 88.1524 461.145 87.525 461.145 86.7722C461.145 86.1567 461.318 85.6122 461.663 85.1387C462.014 84.6652 462.49 84.2935 463.091 84.0236C463.697 83.7537 464.384 83.6188 465.151 83.6188C466.23 83.6188 467.078 83.8555 467.693 84.329C468.314 84.8025 468.754 85.4275 469.014 86.204ZM476.481 83.7608V85.1813H470.827V83.7608H476.481ZM472.475 81.1472H474.151V91.5449C474.151 92.0184 474.22 92.3735 474.357 92.6103C474.499 92.8423 474.679 92.9985 474.897 93.079C475.119 93.1548 475.354 93.1926 475.6 93.1926C475.785 93.1926 475.936 93.1832 476.054 93.1642C476.173 93.1406 476.267 93.1216 476.339 93.1074L476.679 94.6131C476.566 94.6557 476.407 94.6983 476.204 94.7409C476 94.7883 475.742 94.812 475.429 94.812C474.956 94.812 474.492 94.7102 474.037 94.5066C473.588 94.303 473.214 93.9928 472.915 93.5762C472.622 93.1595 472.475 92.6339 472.475 91.9995V81.1472ZM493.547 83.7608L489.513 94.6699H487.809L483.775 83.7608H485.593L488.604 92.454H488.718L491.729 83.7608H493.547ZM498.638 94.9256C497.947 94.9256 497.319 94.7954 496.756 94.535C496.192 94.2698 495.745 93.8887 495.413 93.3915C495.082 92.8896 494.916 92.2836 494.916 91.5733C494.916 90.9483 495.039 90.4417 495.286 90.0534C495.532 89.6605 495.861 89.3527 496.273 89.1301C496.685 88.9076 497.139 88.7419 497.636 88.633C498.138 88.5194 498.643 88.4294 499.149 88.3631C499.812 88.2779 500.35 88.214 500.761 88.1713C501.178 88.124 501.481 88.0459 501.671 87.937C501.865 87.8281 501.962 87.6387 501.962 87.3688V87.312C501.962 86.6112 501.77 86.0667 501.386 85.6784C501.008 85.2902 500.432 85.0961 499.661 85.0961C498.86 85.0961 498.233 85.2712 497.778 85.6216C497.324 85.972 497.004 86.3461 496.82 86.7438L495.229 86.1756C495.513 85.5127 495.892 84.9966 496.365 84.6273C496.843 84.2533 497.364 83.9928 497.928 83.8461C498.496 83.6945 499.055 83.6188 499.604 83.6188C499.954 83.6188 500.357 83.6614 500.811 83.7466C501.27 83.8271 501.713 83.9952 502.139 84.2509C502.57 84.5066 502.928 84.8925 503.212 85.4086C503.496 85.9247 503.638 86.6159 503.638 87.4824V94.6699H501.962V93.1926H501.877C501.763 93.4294 501.573 93.6827 501.308 93.9526C501.043 94.2225 500.69 94.4521 500.25 94.6415C499.81 94.8309 499.272 94.9256 498.638 94.9256ZM498.894 93.4199C499.556 93.4199 500.115 93.2897 500.57 93.0293C501.029 92.7689 501.375 92.4327 501.607 92.0208C501.843 91.6088 501.962 91.1756 501.962 90.7211V89.187C501.891 89.2722 501.734 89.3503 501.493 89.4213C501.256 89.4876 500.982 89.5468 500.669 89.5989C500.361 89.6462 500.061 89.6889 499.767 89.7267C499.478 89.7599 499.244 89.7883 499.064 89.812C498.628 89.8688 498.221 89.9611 497.842 90.089C497.468 90.2121 497.165 90.3991 496.933 90.65C496.706 90.8962 496.592 91.2324 496.592 91.6586C496.592 92.2409 496.808 92.6813 497.239 92.9796C497.674 93.2731 498.226 93.4199 498.894 93.4199ZM508.373 80.1245V94.6699H506.697V80.1245H508.373ZM518.318 90.2097V83.7608H519.994V94.6699H518.318V92.8233H518.205C517.949 93.3773 517.551 93.8484 517.011 94.2367C516.472 94.6202 515.79 94.812 514.966 94.812C514.284 94.812 513.678 94.6628 513.148 94.3645C512.618 94.0615 512.201 93.6069 511.898 93.0009C511.595 92.3901 511.443 91.6207 511.443 90.6926V83.7608H513.119V90.579C513.119 91.3745 513.342 92.0089 513.787 92.4824C514.237 92.9559 514.81 93.1926 515.506 93.1926C515.922 93.1926 516.346 93.0861 516.777 92.873C517.213 92.66 517.577 92.3333 517.871 91.8929C518.169 91.4526 518.318 90.8915 518.318 90.2097ZM526.275 94.9256C525.583 94.9256 524.956 94.7954 524.392 94.535C523.829 94.2698 523.382 93.8887 523.05 93.3915C522.719 92.8896 522.553 92.2836 522.553 91.5733C522.553 90.9483 522.676 90.4417 522.922 90.0534C523.169 89.6605 523.498 89.3527 523.91 89.1301C524.321 88.9076 524.776 88.7419 525.273 88.633C525.775 88.5194 526.279 88.4294 526.786 88.3631C527.449 88.2779 527.986 88.214 528.398 88.1713C528.815 88.124 529.118 88.0459 529.307 87.937C529.501 87.8281 529.598 87.6387 529.598 87.3688V87.312C529.598 86.6112 529.407 86.0667 529.023 85.6784C528.644 85.2902 528.069 85.0961 527.297 85.0961C526.497 85.0961 525.87 85.2712 525.415 85.6216C524.961 85.972 524.641 86.3461 524.456 86.7438L522.866 86.1756C523.15 85.5127 523.528 84.9966 524.002 84.6273C524.48 84.2533 525.001 83.9928 525.564 83.8461C526.133 83.6945 526.691 83.6188 527.241 83.6188C527.591 83.6188 527.993 83.6614 528.448 83.7466C528.907 83.8271 529.35 83.9952 529.776 84.2509C530.207 84.5066 530.564 84.8925 530.848 85.4086C531.133 85.9247 531.275 86.6159 531.275 87.4824V94.6699H529.598V93.1926H529.513C529.4 93.4294 529.21 93.6827 528.945 93.9526C528.68 94.2225 528.327 94.4521 527.887 94.6415C527.446 94.8309 526.909 94.9256 526.275 94.9256ZM526.53 93.4199C527.193 93.4199 527.752 93.2897 528.206 93.0293C528.666 92.7689 529.011 92.4327 529.243 92.0208C529.48 91.6088 529.598 91.1756 529.598 90.7211V89.187C529.527 89.2722 529.371 89.3503 529.13 89.4213C528.893 89.4876 528.618 89.5468 528.306 89.5989C527.998 89.6462 527.697 89.6889 527.404 89.7267C527.115 89.7599 526.881 89.7883 526.701 89.812C526.265 89.8688 525.858 89.9611 525.479 90.089C525.105 90.2121 524.802 90.3991 524.57 90.65C524.343 90.8962 524.229 91.2324 524.229 91.6586C524.229 92.2409 524.445 92.6813 524.875 92.9796C525.311 93.2731 525.863 93.4199 526.53 93.4199ZM534.561 94.6699V80.1245H536.237V85.4938H536.379C536.502 85.3044 536.673 85.0629 536.891 84.7694C537.113 84.4711 537.43 84.2059 537.842 83.9739C538.259 83.7372 538.823 83.6188 539.533 83.6188C540.451 83.6188 541.261 83.8484 541.962 84.3077C542.662 84.767 543.209 85.418 543.602 86.2608C543.995 87.1036 544.192 88.098 544.192 89.2438C544.192 90.3991 543.995 91.4005 543.602 92.248C543.209 93.0908 542.665 93.7443 541.969 94.2083C541.273 94.6676 540.47 94.8972 539.561 94.8972C538.86 94.8972 538.299 94.7812 537.878 94.5492C537.457 94.3124 537.132 94.0449 536.905 93.7466C536.678 93.4436 536.502 93.1926 536.379 92.9938H536.18V94.6699H534.561ZM536.209 89.2154C536.209 90.0392 536.33 90.766 536.571 91.3958C536.813 92.0208 537.165 92.5108 537.629 92.8659C538.093 93.2163 538.662 93.3915 539.334 93.3915C540.035 93.3915 540.619 93.2069 541.088 92.8375C541.562 92.4635 541.917 91.9616 542.153 91.3319C542.395 90.6974 542.516 89.9919 542.516 89.2154C542.516 88.4483 542.397 87.757 542.161 87.1415C541.929 86.5212 541.576 86.0312 541.102 85.6713C540.634 85.3068 540.044 85.1245 539.334 85.1245C538.652 85.1245 538.079 85.2973 537.615 85.6429C537.151 85.9838 536.801 86.4621 536.564 87.0776C536.327 87.6884 536.209 88.401 536.209 89.2154ZM548.432 80.1245V94.6699H546.756V80.1245H548.432ZM556.076 94.8972C555.025 94.8972 554.118 94.6652 553.356 94.2012C552.598 93.7324 552.013 93.079 551.601 92.2409C551.194 91.3981 550.991 90.418 550.991 89.3006C550.991 88.1832 551.194 87.1983 551.601 86.3461C552.013 85.4891 552.586 84.8214 553.32 84.3432C554.059 83.8603 554.92 83.6188 555.905 83.6188C556.473 83.6188 557.035 83.7135 557.589 83.9029C558.142 84.0923 558.647 84.4 559.101 84.8262C559.556 85.2476 559.918 85.8063 560.188 86.5023C560.458 87.1983 560.593 88.0553 560.593 89.0733V89.7836H552.184V88.3347H558.888C558.888 87.7192 558.765 87.1699 558.519 86.687C558.277 86.204 557.932 85.8229 557.482 85.5435C557.037 85.2641 556.511 85.1245 555.905 85.1245C555.238 85.1245 554.66 85.2902 554.172 85.6216C553.689 85.9483 553.318 86.3745 553.057 86.9C552.797 87.4256 552.667 87.9891 552.667 88.5904V89.5563C552.667 90.3801 552.809 91.0785 553.093 91.6515C553.382 92.2196 553.782 92.6529 554.293 92.9512C554.804 93.2447 555.399 93.3915 556.076 93.3915C556.516 93.3915 556.914 93.33 557.269 93.2069C557.629 93.079 557.939 92.8896 558.199 92.6387C558.46 92.383 558.661 92.0658 558.803 91.687L560.422 92.1415C560.252 92.6908 559.965 93.1737 559.563 93.5904C559.16 94.0023 558.663 94.3243 558.071 94.5563C557.48 94.7836 556.814 94.8972 556.076 94.8972ZM568.767 94.6699V83.7608H570.387V85.4086H570.5C570.699 84.8688 571.059 84.4308 571.58 84.0946C572.101 83.7585 572.688 83.5904 573.341 83.5904C573.464 83.5904 573.618 83.5927 573.803 83.5975C573.988 83.6022 574.127 83.6093 574.222 83.6188V85.3233C574.165 85.3091 574.035 85.2878 573.831 85.2594C573.633 85.2263 573.422 85.2097 573.199 85.2097C572.669 85.2097 572.196 85.321 571.779 85.5435C571.367 85.7613 571.04 86.0643 570.799 86.4526C570.562 86.8361 570.444 87.2741 570.444 87.7665V94.6699H568.767ZM580.451 94.8972C579.4 94.8972 578.493 94.6652 577.731 94.2012C576.973 93.7324 576.388 93.079 575.976 92.2409C575.569 91.3981 575.366 90.418 575.366 89.3006C575.366 88.1832 575.569 87.1983 575.976 86.3461C576.388 85.4891 576.961 84.8214 577.695 84.3432C578.434 83.8603 579.295 83.6188 580.28 83.6188C580.848 83.6188 581.41 83.7135 581.964 83.9029C582.517 84.0923 583.022 84.4 583.476 84.8262C583.931 85.2476 584.293 85.8063 584.563 86.5023C584.833 87.1983 584.968 88.0553 584.968 89.0733V89.7836H576.559V88.3347H583.263C583.263 87.7192 583.14 87.1699 582.894 86.687C582.652 86.204 582.307 85.8229 581.857 85.5435C581.412 85.2641 580.886 85.1245 580.28 85.1245C579.613 85.1245 579.035 85.2902 578.547 85.6216C578.064 85.9483 577.693 86.3745 577.432 86.9C577.172 87.4256 577.042 87.9891 577.042 88.5904V89.5563C577.042 90.3801 577.184 91.0785 577.468 91.6515C577.757 92.2196 578.157 92.6529 578.668 92.9512C579.179 93.2447 579.774 93.3915 580.451 93.3915C580.891 93.3915 581.289 93.33 581.644 93.2069C582.004 93.079 582.314 92.8896 582.574 92.6387C582.835 92.383 583.036 92.0658 583.178 91.687L584.797 92.1415C584.627 92.6908 584.34 93.1737 583.938 93.5904C583.535 94.0023 583.038 94.3243 582.446 94.5563C581.855 94.7836 581.189 94.8972 580.451 94.8972ZM595.245 86.204L593.739 86.6301C593.644 86.3792 593.505 86.1354 593.32 85.8986C593.14 85.6571 592.894 85.4583 592.581 85.302C592.269 85.1458 591.869 85.0676 591.381 85.0676C590.714 85.0676 590.157 85.2215 589.712 85.5293C589.272 85.8323 589.052 86.2182 589.052 86.687C589.052 87.1036 589.203 87.4327 589.506 87.6742C589.809 87.9157 590.283 88.1169 590.927 88.2779L592.546 88.6756C593.521 88.9123 594.248 89.2746 594.726 89.7623C595.205 90.2452 595.444 90.8678 595.444 91.6301C595.444 92.2551 595.264 92.8139 594.904 93.3063C594.549 93.7987 594.052 94.187 593.412 94.4711C592.773 94.7551 592.03 94.8972 591.182 94.8972C590.07 94.8972 589.149 94.6557 588.419 94.1728C587.69 93.6898 587.229 92.9843 587.035 92.0563L588.625 91.6586C588.777 92.2457 589.063 92.686 589.485 92.9796C589.911 93.2731 590.467 93.4199 591.154 93.4199C591.935 93.4199 592.555 93.2542 593.015 92.9228C593.479 92.5866 593.711 92.1841 593.711 91.7154C593.711 91.3366 593.578 91.0194 593.313 90.7637C593.048 90.5033 592.641 90.3091 592.091 90.1813L590.273 89.7551C589.274 89.5184 588.54 89.1515 588.071 88.6543C587.607 88.1524 587.375 87.525 587.375 86.7722C587.375 86.1567 587.548 85.6122 587.894 85.1387C588.244 84.6652 588.72 84.2935 589.321 84.0236C589.928 83.7537 590.614 83.6188 591.381 83.6188C592.461 83.6188 593.308 83.8555 593.924 84.329C594.544 84.8025 594.984 85.4275 595.245 86.204ZM604.842 90.2097V83.7608H606.518V94.6699H604.842V92.8233H604.728C604.472 93.3773 604.075 93.8484 603.535 94.2367C602.995 94.6202 602.313 94.812 601.489 94.812C600.808 94.812 600.202 94.6628 599.671 94.3645C599.141 94.0615 598.724 93.6069 598.421 93.0009C598.118 92.3901 597.967 91.6207 597.967 90.6926V83.7608H599.643V90.579C599.643 91.3745 599.865 92.0089 600.31 92.4824C600.76 92.9559 601.333 93.1926 602.029 93.1926C602.446 93.1926 602.87 93.0861 603.301 92.873C603.736 92.66 604.101 92.3333 604.394 91.8929C604.693 91.4526 604.842 90.8915 604.842 90.2097ZM611.264 80.1245V94.6699H609.588V80.1245H611.264ZM619.078 83.7608V85.1813H613.425V83.7608H619.078ZM615.073 81.1472H616.749V91.5449C616.749 92.0184 616.817 92.3735 616.955 92.6103C617.097 92.8423 617.277 92.9985 617.494 93.079C617.717 93.1548 617.951 93.1926 618.198 93.1926C618.382 93.1926 618.534 93.1832 618.652 93.1642C618.77 93.1406 618.865 93.1216 618.936 93.1074L619.277 94.6131C619.163 94.6557 619.005 94.6983 618.801 94.7409C618.598 94.7883 618.34 94.812 618.027 94.812C617.554 94.812 617.09 94.7102 616.635 94.5066C616.185 94.303 615.811 93.9928 615.513 93.5762C615.219 93.1595 615.073 92.6339 615.073 91.9995V81.1472ZM629.131 86.204L627.626 86.6301C627.531 86.3792 627.391 86.1354 627.207 85.8986C627.027 85.6571 626.781 85.4583 626.468 85.302C626.156 85.1458 625.756 85.0676 625.268 85.0676C624.6 85.0676 624.044 85.2215 623.599 85.5293C623.158 85.8323 622.938 86.2182 622.938 86.687C622.938 87.1036 623.09 87.4327 623.393 87.6742C623.696 87.9157 624.169 88.1169 624.813 88.2779L626.433 88.6756C627.408 88.9123 628.135 89.2746 628.613 89.7623C629.091 90.2452 629.33 90.8678 629.33 91.6301C629.33 92.2551 629.15 92.8139 628.791 93.3063C628.435 93.7987 627.938 94.187 627.299 94.4711C626.66 94.7551 625.917 94.8972 625.069 94.8972C623.956 94.8972 623.035 94.6557 622.306 94.1728C621.577 93.6898 621.115 92.9843 620.921 92.0563L622.512 91.6586C622.664 92.2457 622.95 92.686 623.372 92.9796C623.798 93.2731 624.354 93.4199 625.041 93.4199C625.822 93.4199 626.442 93.2542 626.901 92.9228C627.365 92.5866 627.597 92.1841 627.597 91.7154C627.597 91.3366 627.465 91.0194 627.2 90.7637C626.935 90.5033 626.527 90.3091 625.978 90.1813L624.16 89.7551C623.161 89.5184 622.427 89.1515 621.958 88.6543C621.494 88.1524 621.262 87.525 621.262 86.7722C621.262 86.1567 621.435 85.6122 621.781 85.1387C622.131 84.6652 622.607 84.2935 623.208 84.0236C623.814 83.7537 624.501 83.6188 625.268 83.6188C626.347 83.6188 627.195 83.8555 627.81 84.329C628.431 84.8025 628.871 85.4275 629.131 86.204ZM641.598 94.8688C640.641 94.8688 639.817 94.6936 639.126 94.3432C638.435 93.9928 637.902 93.5123 637.528 92.9015C637.154 92.2907 636.967 91.5923 636.967 90.8063C636.967 90.2002 637.095 89.6628 637.351 89.1941C637.611 88.7206 637.968 88.2826 638.423 87.8801C638.882 87.473 639.41 87.0658 640.007 86.6586L642.109 85.0961C642.521 84.8262 642.85 84.5373 643.096 84.2296C643.347 83.9218 643.473 83.5194 643.473 83.0222C643.473 82.6529 643.309 82.2954 642.983 81.9498C642.661 81.6041 642.237 81.4313 641.711 81.4313C641.342 81.4313 641.015 81.526 640.731 81.7154C640.452 81.9 640.232 82.1368 640.071 82.4256C639.915 82.7097 639.836 83.0033 639.836 83.3063C639.836 83.6472 639.929 83.9928 640.113 84.3432C640.303 84.6889 640.542 85.044 640.831 85.4086C641.124 85.7684 641.427 86.1377 641.74 86.5165L648.416 94.6699H646.399L640.888 88.0222C640.376 87.4067 639.912 86.848 639.495 86.3461C639.079 85.8442 638.747 85.3494 638.501 84.8617C638.255 84.374 638.132 83.8461 638.132 83.2779C638.132 82.6245 638.276 82.0515 638.565 81.5591C638.859 81.062 639.268 80.6761 639.794 80.4015C640.324 80.1221 640.944 79.9824 641.655 79.9824C642.384 79.9824 643.011 80.1245 643.537 80.4086C644.062 80.6879 644.467 81.0596 644.751 81.5236C645.035 81.9829 645.177 82.4824 645.177 83.0222C645.177 83.7182 645.004 84.3219 644.659 84.8333C644.313 85.3446 643.842 85.8205 643.245 86.2608L640.348 88.4199C639.694 88.9029 639.252 89.3716 639.02 89.8262C638.788 90.2807 638.672 90.6074 638.672 90.8063C638.672 91.2608 638.79 91.6846 639.027 92.0776C639.263 92.4706 639.597 92.7878 640.028 93.0293C640.459 93.2708 640.963 93.3915 641.541 93.3915C642.09 93.3915 642.625 93.2755 643.146 93.0435C643.667 92.8068 644.138 92.4658 644.559 92.0208C644.986 91.5757 645.322 91.0407 645.568 90.4157C645.819 89.7907 645.944 89.0875 645.944 88.3063H647.564C647.564 89.2722 647.452 90.0605 647.23 90.6713C647.007 91.2821 646.756 91.7604 646.477 92.106C646.198 92.4516 645.973 92.7097 645.802 92.8801C645.745 92.9512 645.693 93.0222 645.646 93.0932C645.599 93.1642 645.547 93.2353 645.49 93.3063C645.021 93.8319 644.429 94.2248 643.714 94.4853C642.999 94.7409 642.294 94.8688 641.598 94.8688ZM660.328 94.8972C659.343 94.8972 658.479 94.6628 657.736 94.1941C656.997 93.7253 656.42 93.0695 656.003 92.2267C655.591 91.3839 655.385 90.3991 655.385 89.2722C655.385 88.1358 655.591 87.1439 656.003 86.2963C656.42 85.4488 656.997 84.7907 657.736 84.3219C658.479 83.8532 659.343 83.6188 660.328 83.6188C661.313 83.6188 662.175 83.8532 662.913 84.3219C663.657 84.7907 664.234 85.4488 664.646 86.2963C665.063 87.1439 665.271 88.1358 665.271 89.2722C665.271 90.3991 665.063 91.3839 664.646 92.2267C664.234 93.0695 663.657 93.7253 662.913 94.1941C662.175 94.6628 661.313 94.8972 660.328 94.8972ZM660.328 93.3915C661.076 93.3915 661.692 93.1998 662.175 92.8162C662.658 92.4327 663.015 91.9284 663.247 91.3034C663.479 90.6784 663.595 90.0014 663.595 89.2722C663.595 88.543 663.479 87.8636 663.247 87.2338C663.015 86.6041 662.658 86.0951 662.175 85.7069C661.692 85.3186 661.076 85.1245 660.328 85.1245C659.58 85.1245 658.965 85.3186 658.482 85.7069C657.999 86.0951 657.641 86.6041 657.409 87.2338C657.177 87.8636 657.061 88.543 657.061 89.2722C657.061 90.0014 657.177 90.6784 657.409 91.3034C657.641 91.9284 657.999 92.4327 658.482 92.8162C658.965 93.1998 659.58 93.3915 660.328 93.3915ZM674.705 90.2097V83.7608H676.381V94.6699H674.705V92.8233H674.591C674.336 93.3773 673.938 93.8484 673.398 94.2367C672.858 94.6202 672.177 94.812 671.353 94.812C670.671 94.812 670.065 94.6628 669.535 94.3645C669.004 94.0615 668.588 93.6069 668.285 93.0009C667.982 92.3901 667.83 91.6207 667.83 90.6926V83.7608H669.506V90.579C669.506 91.3745 669.729 92.0089 670.174 92.4824C670.624 92.9559 671.196 93.1926 671.892 93.1926C672.309 93.1926 672.733 93.0861 673.164 92.873C673.599 92.66 673.964 92.3333 674.258 91.8929C674.556 91.4526 674.705 90.8915 674.705 90.2097ZM684.195 83.7608V85.1813H678.542V83.7608H684.195ZM680.19 81.1472H681.866V91.5449C681.866 92.0184 681.935 92.3735 682.072 92.6103C682.214 92.8423 682.394 92.9985 682.612 93.079C682.834 93.1548 683.069 93.1926 683.315 93.1926C683.499 93.1926 683.651 93.1832 683.769 93.1642C683.888 93.1406 683.982 93.1216 684.053 93.1074L684.394 94.6131C684.281 94.6557 684.122 94.6983 683.918 94.7409C683.715 94.7883 683.457 94.812 683.144 94.812C682.671 94.812 682.207 94.7102 681.752 94.5066C681.302 94.303 680.928 93.9928 680.63 93.5762C680.336 93.1595 680.19 92.6339 680.19 91.9995V81.1472ZM686.717 98.7608V83.7608H688.336V85.4938H688.535C688.658 85.3044 688.828 85.0629 689.046 84.7694C689.269 84.4711 689.586 84.2059 689.998 83.9739C690.415 83.7372 690.978 83.6188 691.688 83.6188C692.607 83.6188 693.417 83.8484 694.117 84.3077C694.818 84.767 695.365 85.418 695.758 86.2608C696.151 87.1036 696.347 88.098 696.347 89.2438C696.347 90.3991 696.151 91.4005 695.758 92.248C695.365 93.0908 694.82 93.7443 694.124 94.2083C693.428 94.6676 692.626 94.8972 691.717 94.8972C691.016 94.8972 690.455 94.7812 690.033 94.5492C689.612 94.3124 689.288 94.0449 689.06 93.7466C688.833 93.4436 688.658 93.1926 688.535 92.9938H688.393V98.7608H686.717ZM688.364 89.2154C688.364 90.0392 688.485 90.766 688.727 91.3958C688.968 92.0208 689.321 92.5108 689.785 92.8659C690.249 93.2163 690.817 93.3915 691.489 93.3915C692.19 93.3915 692.775 93.2069 693.244 92.8375C693.717 92.4635 694.072 91.9616 694.309 91.3319C694.551 90.6974 694.671 89.9919 694.671 89.2154C694.671 88.4483 694.553 87.757 694.316 87.1415C694.084 86.5212 693.731 86.0312 693.258 85.6713C692.789 85.3068 692.2 85.1245 691.489 85.1245C690.808 85.1245 690.235 85.2973 689.771 85.6429C689.307 85.9838 688.956 86.4621 688.72 87.0776C688.483 87.6884 688.364 88.401 688.364 89.2154ZM705.779 90.2097V83.7608H707.455V94.6699H705.779V92.8233H705.666C705.41 93.3773 705.012 93.8484 704.472 94.2367C703.933 94.6202 703.251 94.812 702.427 94.812C701.745 94.812 701.139 94.6628 700.609 94.3645C700.078 94.0615 699.662 93.6069 699.359 93.0009C699.056 92.3901 698.904 91.6207 698.904 90.6926V83.7608H700.58V90.579C700.58 91.3745 700.803 92.0089 701.248 92.4824C701.698 92.9559 702.271 93.1926 702.967 93.1926C703.383 93.1926 703.807 93.0861 704.238 92.873C704.674 92.66 705.038 92.3333 705.332 91.8929C705.63 91.4526 705.779 90.8915 705.779 90.2097ZM715.27 83.7608V85.1813H709.616V83.7608H715.27ZM711.264 81.1472H712.94V91.5449C712.94 92.0184 713.009 92.3735 713.146 92.6103C713.288 92.8423 713.468 92.9985 713.686 93.079C713.908 93.1548 714.143 93.1926 714.389 93.1926C714.574 93.1926 714.725 93.1832 714.843 93.1642C714.962 93.1406 715.057 93.1216 715.128 93.1074L715.468 94.6131C715.355 94.6557 715.196 94.6983 714.993 94.7409C714.789 94.7883 714.531 94.812 714.218 94.812C713.745 94.812 713.281 94.7102 712.826 94.5066C712.377 94.303 712.003 93.9928 711.704 93.5762C711.411 93.1595 711.264 92.6339 711.264 91.9995V81.1472ZM309.954 107.761V109.181H304.073V107.761H309.954ZM305.834 118.67V106.255C305.834 105.63 305.981 105.109 306.275 104.693C306.568 104.276 306.949 103.963 307.418 103.755C307.887 103.547 308.382 103.443 308.902 103.443C309.314 103.443 309.651 103.476 309.911 103.542C310.171 103.608 310.366 103.67 310.493 103.727L310.01 105.176C309.925 105.147 309.807 105.112 309.655 105.069C309.508 105.026 309.314 105.005 309.073 105.005C308.519 105.005 308.119 105.145 307.873 105.424C307.631 105.704 307.51 106.113 307.51 106.653V118.67H305.834ZM312.303 118.67V107.761H313.922V109.409H314.036C314.234 108.869 314.594 108.431 315.115 108.095C315.636 107.758 316.223 107.59 316.877 107.59C317 107.59 317.153 107.593 317.338 107.597C317.523 107.602 317.662 107.609 317.757 107.619V109.323C317.7 109.309 317.57 109.288 317.367 109.259C317.168 109.226 316.957 109.21 316.734 109.21C316.204 109.21 315.731 109.321 315.314 109.544C314.902 109.761 314.575 110.064 314.334 110.453C314.097 110.836 313.979 111.274 313.979 111.767V118.67H312.303ZM323.844 118.897C322.859 118.897 321.995 118.663 321.252 118.194C320.513 117.725 319.935 117.07 319.519 116.227C319.107 115.384 318.901 114.399 318.901 113.272C318.901 112.136 319.107 111.144 319.519 110.296C319.935 109.449 320.513 108.791 321.252 108.322C321.995 107.853 322.859 107.619 323.844 107.619C324.829 107.619 325.69 107.853 326.429 108.322C327.172 108.791 327.75 109.449 328.162 110.296C328.579 111.144 328.787 112.136 328.787 113.272C328.787 114.399 328.579 115.384 328.162 116.227C327.75 117.07 327.172 117.725 326.429 118.194C325.69 118.663 324.829 118.897 323.844 118.897ZM323.844 117.392C324.592 117.392 325.207 117.2 325.69 116.816C326.173 116.433 326.531 115.928 326.763 115.303C326.995 114.678 327.111 114.001 327.111 113.272C327.111 112.543 326.995 111.864 326.763 111.234C326.531 110.604 326.173 110.095 325.69 109.707C325.207 109.319 324.592 109.124 323.844 109.124C323.096 109.124 322.48 109.319 321.997 109.707C321.514 110.095 321.157 110.604 320.925 111.234C320.693 111.864 320.577 112.543 320.577 113.272C320.577 114.001 320.693 114.678 320.925 115.303C321.157 115.928 321.514 116.433 321.997 116.816C322.48 117.2 323.096 117.392 323.844 117.392ZM331.346 118.67V107.761H332.965V109.465H333.107C333.334 108.883 333.701 108.431 334.208 108.109C334.714 107.782 335.323 107.619 336.033 107.619C336.753 107.619 337.352 107.782 337.83 108.109C338.313 108.431 338.689 108.883 338.959 109.465H339.073C339.352 108.902 339.771 108.454 340.33 108.123C340.889 107.787 341.559 107.619 342.34 107.619C343.315 107.619 344.113 107.924 344.733 108.535C345.354 109.141 345.664 110.086 345.664 111.369V118.67H343.988V111.369C343.988 110.564 343.767 109.989 343.327 109.643C342.887 109.297 342.368 109.124 341.772 109.124C341.005 109.124 340.41 109.356 339.989 109.82C339.568 110.28 339.357 110.862 339.357 111.568V118.67H337.652V111.198C337.652 110.578 337.451 110.079 337.049 109.7C336.646 109.316 336.128 109.124 335.493 109.124C335.058 109.124 334.651 109.24 334.272 109.472C333.898 109.704 333.595 110.026 333.363 110.438C333.135 110.846 333.022 111.317 333.022 111.852V118.67H331.346ZM355.177 118.67H353.331L358.672 104.124H360.49L365.831 118.67H363.984L359.638 106.426H359.524L355.177 118.67ZM355.859 112.988H363.302V114.551H355.859V112.988ZM369.858 104.124V118.67H368.096V104.124H369.858ZM375.35 114.579V114.494C375.359 113.589 375.454 112.87 375.634 112.335C375.814 111.8 376.069 111.366 376.401 111.035C376.732 110.704 377.13 110.398 377.594 110.119C377.873 109.948 378.124 109.747 378.347 109.515C378.569 109.278 378.744 109.006 378.872 108.698C379.005 108.391 379.071 108.05 379.071 107.676C379.071 107.212 378.962 106.809 378.744 106.468C378.527 106.127 378.235 105.865 377.871 105.68C377.506 105.495 377.101 105.403 376.656 105.403C376.268 105.403 375.894 105.483 375.534 105.644C375.174 105.805 374.874 106.059 374.632 106.404C374.391 106.75 374.251 107.202 374.213 107.761H372.423C372.461 106.956 372.67 106.267 373.048 105.694C373.432 105.121 373.936 104.683 374.561 104.38C375.191 104.077 375.889 103.926 376.656 103.926C377.49 103.926 378.214 104.091 378.83 104.423C379.45 104.754 379.928 105.209 380.264 105.786C380.605 106.364 380.776 107.022 380.776 107.761C380.776 108.282 380.695 108.753 380.534 109.174C380.378 109.596 380.151 109.972 379.852 110.303C379.559 110.635 379.204 110.928 378.787 111.184C378.37 111.445 378.037 111.719 377.786 112.008C377.535 112.292 377.352 112.631 377.239 113.024C377.125 113.417 377.064 113.907 377.054 114.494V114.579H375.35ZM376.259 118.784C375.908 118.784 375.608 118.658 375.357 118.407C375.106 118.156 374.98 117.856 374.98 117.505C374.98 117.155 375.106 116.854 375.357 116.603C375.608 116.352 375.908 116.227 376.259 116.227C376.609 116.227 376.91 116.352 377.161 116.603C377.412 116.854 377.537 117.155 377.537 117.505C377.537 117.737 377.478 117.95 377.359 118.144C377.246 118.338 377.092 118.495 376.898 118.613C376.708 118.727 376.495 118.784 376.259 118.784Z" fill="black"/>
<defs>
<clipPath id="clip0_1178_12584">
<rect width="72" height="72" fill="white" transform="translate(186.722 46.3564)"/>
</clipPath>
</defs>
</svg>
