<svg width="49" height="48" viewBox="0 0 49 48" fill="none" xmlns="http://www.w3.org/2000/svg">
<path d="M42.8813 30.3383L31.0613 10.9444C29.5013 8.38474 27.1413 6.92773 24.5413 6.92773C21.9413 6.92773 19.5813 8.38474 18.0213 10.9247L6.20135 30.3383C5.32135 31.7756 4.88135 33.272 4.88135 34.6897C4.88135 35.812 5.16135 36.9146 5.72135 37.8793C7.00135 40.0845 9.48135 41.3643 12.5413 41.3643H36.5413C39.6013 41.3643 42.0813 40.0845 43.3613 37.8793C43.9213 36.9146 44.2013 35.871 44.2013 34.7684C44.2213 33.3114 43.7813 31.7953 42.8813 30.3383ZM24.5413 16.6543C26.2413 16.6543 27.6413 18.0325 27.6413 19.7061C27.6413 21.3797 26.2613 22.7579 24.5413 22.7579C22.8413 22.7579 21.4413 21.3797 21.4413 19.7061C21.4413 18.0128 22.8213 16.6543 24.5413 16.6543ZM27.9213 33.3114C27.8613 33.3902 26.3213 35.1228 23.7813 35.1228H23.4813C22.4613 35.0638 21.6213 34.6306 21.1213 33.8824C20.5013 32.957 20.4013 31.6969 20.8813 30.2989L21.7013 27.8968C22.1613 26.558 21.7213 26.3414 21.4813 26.2233L21.2013 26.1839C20.7013 26.1839 20.0013 26.4792 19.7813 26.5974C19.5813 26.6958 19.3213 26.6564 19.1613 26.4595C19.0213 26.2626 19.0213 26.0067 19.1813 25.8295C19.2413 25.7507 20.9213 23.8802 23.6213 24.0377C24.6413 24.0968 25.4813 24.53 25.9813 25.2782C26.6213 26.2036 26.7013 27.4637 26.2213 28.8813L25.4013 31.2834C24.9413 32.6223 25.3813 32.8389 25.6213 32.957L25.9013 32.9964C26.4013 32.9964 27.1013 32.701 27.3213 32.6026C27.5413 32.4845 27.7813 32.5435 27.9413 32.7404C28.0813 32.8782 28.0813 33.1342 27.9213 33.3114Z" fill="#FFD164"/>
</svg>
